<?xml version="1.0" standalone="no"?>
<!DOCTYPE svg PUBLIC "-//W3C//DTD SVG 20010904//EN"
 "http://www.w3.org/TR/2001/REC-SVG-20010904/DTD/svg10.dtd">
<svg version="1.0" xmlns="http://www.w3.org/2000/svg"
 width="700.000000pt" height="700.000000pt" viewBox="0 0 700.000000 700.000000"
 preserveAspectRatio="xMidYMid meet">
<metadata>
Created by potrace 1.14, written by Peter Selinger 2001-2017
</metadata>
<g transform="translate(0.000000,700.000000) scale(0.100000,-0.100000)"
fill="#000000" stroke="none">
<path fill="#303030" d="M1264 6985 c-636 -117 -1052 -487 -1209 -1077 -58 -219 -55 -78 -55
-2407 l0 -2143 25 -122 c127 -628 501 -1026 1103 -1176 257 -64 129 -61 2417
-58 l2080 3 123 28 c317 71 533 168 727 328 245 202 403 488 492 889 l28 125
3 2080 c3 2288 6 2160 -58 2417 -150 602 -549 976 -1175 1103 l-123 25 -2153
-1 c-1721 -1 -2168 -4 -2225 -14z m1136 -1720 l0 -385 -390 0 -390 0 0 385 0
385 390 0 390 0 0 -385z m0 -2345 l0 -1530 -390 0 -390 0 0 1530 0 1530 390 0
390 0 0 -1530z m1275 1028 c274 -870 613 -1913 620 -1906 1 2 103 314 225 693
538 1672 543 1686 570 1697 29 12 628 15 676 4 l31 -7 -220 -592 c-121 -326
-371 -1004 -557 -1507 l-337 -915 -34 -7 c-19 -4 -146 -9 -284 -12 -150 -2
-210 -1 -150 4 91 6 84 7 -85 8 -102 1 -212 5 -246 8 l-61 6 -263 722 c-145
396 -393 1072 -551 1501 -158 429 -285 782 -282 785 6 7 297 16 569 18 l220 2
159 -502z"/>
</g>
</svg>
