<?xml version="1.0" encoding="UTF-8"?>
<svg version="1.1" xmlns="http://www.w3.org/2000/svg" width="512" height="512">
<path d="M0 0 C0.72735352 0.16628906 1.45470703 0.33257813 2.20410156 0.50390625 C17.04643163 4.04560233 31.02513119 10.47314525 43 20 C43.82886719 20.65355469 44.65773438 21.30710937 45.51171875 21.98046875 C58.23510539 32.67746609 65.24698775 46.31083242 69.25 62.25 C69.41346924 62.8800293 69.57693848 63.51005859 69.74536133 64.15917969 C73.31847654 79.62552799 72.14808521 96.40721116 72.16866493 112.15404129 C72.1746741 116.36822683 72.19130072 120.58233228 72.21000671 124.79647827 C72.2163406 126.25035282 72.22266626 127.70422741 72.22898388 129.15810204 C72.23214969 129.88518828 72.2353155 130.61227453 72.23857725 131.36139369 C72.28036568 141.14358517 72.3136473 150.92573271 72.32592773 160.70800781 C72.33434812 167.34818685 72.35696819 173.98815949 72.3952834 180.62823522 C72.41487893 184.12508955 72.42750366 187.62163668 72.42244911 191.11854935 C72.07036602 210.97140859 72.07036602 210.97140859 77 230 C77.43536575 231.03460358 77.87073151 232.06920715 78.31929016 233.13516235 C81.71641885 240.79268028 86.66551554 247.31488099 91.70703125 253.9453125 C94.97675205 258.30122675 95.6312752 260.4988875 95 266 C91.80130647 271.70258887 85.93783017 275.61856296 80.92578125 279.61328125 C78.01925475 281.98429285 75.25628692 284.45664512 72.5 287 C67.97084968 291.16681829 63.30148025 295.09887985 58.5078125 298.95703125 C56.32694681 300.73365548 54.22152281 302.56333567 52.125 304.4375 C48.90403298 307.1646867 46.50039012 308.88394814 42.1484375 309.0859375 C31.50800991 308.04124097 23.14162899 296.53228703 16.625 288.875 C12.49329069 283.75762147 8.65335301 278.46793232 5 273 C1.42459306 274.49780561 -0.63238123 276.54687342 -3.25 279.375 C-25.85336996 302.30979767 -52.77956598 311.02384792 -84.5625 311.3125 C-98.93817278 311.26414868 -111.79286056 308.97058506 -125 303 C-125.93328125 302.58105469 -126.8665625 302.16210938 -127.828125 301.73046875 C-135.78709695 297.78509266 -141.76753594 292.20559999 -148 286 C-149.00546875 285.04673828 -149.00546875 285.04673828 -150.03125 284.07421875 C-166.84689237 266.83818533 -168.5113655 240.9328318 -168.2734375 218.34375 C-167.63902604 193.72104785 -157.042313 172.26455345 -139.6418457 155.03442383 C-106.87448246 124.10943719 -49.00950781 116.30536461 -6 117 C-6.00552764 90.13057369 -6.00552764 90.13057369 -16.3125 66.375 C-25.54309465 58.21773031 -35.08135698 56.37707302 -47.21875 56.6484375 C-56.63618976 57.52402591 -65.09746759 60.89246853 -73 66 C-73.886875 66.556875 -74.77375 67.11375 -75.6875 67.6875 C-80.34019962 72.34019962 -83.3235846 77.87858508 -85.46875 84.0703125 C-85.7150415 84.78026367 -85.96133301 85.49021484 -86.21508789 86.22167969 C-86.68699593 87.62831332 -87.13527842 89.04315558 -87.55639648 90.46582031 C-88.99834229 94.83496423 -90.71502964 97.12198671 -94.78858948 99.28341675 C-99.33885899 100.75788153 -103.94272962 99.78888076 -108.59375 99.1484375 C-109.69924194 99.01434479 -110.80473389 98.88025208 -111.94372559 98.74209595 C-115.46567474 98.30861142 -118.98230477 97.8416183 -122.5 97.375 C-124.86563162 97.0825749 -127.23151621 96.79218856 -129.59765625 96.50390625 C-131.86741628 96.22057678 -134.13695644 95.9354792 -136.40625 95.6484375 C-137.46372437 95.51496918 -138.52119873 95.38150085 -139.61071777 95.24398804 C-153.13853359 93.44263647 -153.13853359 93.44263647 -157.5 90.0625 C-160.75471189 83.41746323 -158.00972248 75.03394893 -155.83105469 68.27709961 C-155.53618164 67.42253174 -155.24130859 66.56796387 -154.9375 65.6875 C-154.62586914 64.77814697 -154.31423828 63.86879395 -153.99316406 62.93188477 C-149.20232156 49.45912993 -142.10669799 38.99002615 -132 29 C-131.28199219 28.27167969 -130.56398437 27.54335938 -129.82421875 26.79296875 C-114.82669747 12.47330154 -93.82268634 4.81550204 -74 0 C-73.3296875 -0.16516113 -72.659375 -0.33032227 -71.96875 -0.50048828 C-49.62102788 -5.69525926 -22.32436012 -5.19028601 0 0 Z M-76.75 182.8125 C-84.9504084 192.64918479 -87.35550397 203.36944532 -87.3125 215.875 C-87.32861328 216.80441406 -87.34472656 217.73382813 -87.36132812 218.69140625 C-87.36940172 230.26893431 -84.00626494 239.47420582 -76.1484375 248.01171875 C-70.10115274 253.75784391 -64.04264216 256.05235552 -55.75 256.4375 C-44.91340774 256.0732448 -35.8092275 252.46645607 -28 245 C-27.32453125 244.36449219 -26.6490625 243.72898437 -25.953125 243.07421875 C-11.55781243 228.26043779 -6.15074281 207.15347585 -6 187 C-5.98743164 185.47511963 -5.98743164 185.47511963 -5.97460938 183.91943359 C-5.92854193 176.61250934 -5.94362699 169.30680918 -6 162 C-32.3738277 161.34518762 -57.51220951 162.38516596 -76.75 182.8125 Z " fill="#FEFEFE" transform="translate(309,26)"/>
<path d="M0 0 C3.00617218 0.91026728 5.4755032 2.15961742 8.21850586 3.69213867 C9.31090576 4.29380859 10.40330566 4.89547852 11.52880859 5.51538086 C12.10863495 5.83728394 12.6884613 6.15918701 13.28585815 6.49084473 C95.22929402 51.81849521 186.36742009 70.7585249 313.65991211 64.80541992 C314.83328125 64.67151855 316.00665039 64.53761719 317.21557617 64.3996582 C360.9198897 59.29979135 407.97406669 48.65877532 447.8215332 29.546875 C450.92629649 28.2946617 453.38921686 28.30223604 456.65991211 28.80541992 C459.59741211 30.36791992 459.59741211 30.36791992 461.65991211 32.80541992 C462.47241211 36.11791992 462.47241211 36.11791992 461.65991211 39.80541992 C457.02174266 44.93045679 451.05241036 48.79496932 445.22241211 52.43041992 C444.41312256 52.93621582 443.60383301 53.44201172 442.77001953 53.96313477 C397.59926058 81.68532258 345.16883881 98.4615621 292.65991211 104.80541992 C291.46156738 104.95986572 291.46156738 104.95986572 290.23901367 105.11743164 C195.15088411 116.9800225 95.76606916 87.83592191 20.21606445 29.66552734 C12.48615254 23.6359363 5.00401083 17.29788373 -2.34008789 10.80541992 C-3.2662793 9.98750977 -3.2662793 9.98750977 -4.21118164 9.15307617 C-5.34008789 7.80541992 -5.34008789 7.80541992 -5.71508789 4.74291992 C-5.59133789 3.77354492 -5.46758789 2.80416992 -5.34008789 1.80541992 C-2.34008789 -0.19458008 -2.34008789 -0.19458008 0 0 Z " fill="#FEFEFE" transform="translate(5.340087890625,382.194580078125)"/>
<path d="M0 0 C4.47847604 5.99585443 2.63852458 18.19469324 1.6953125 25.29296875 C-2.48609937 49.05874845 -13.42648567 74.09069777 -33 89 C-35.75 89.4375 -35.75 89.4375 -38 89 C-38.99 88.01 -38.99 88.01 -40 87 C-39.61719193 80.6209947 -36.73018389 74.54412673 -34.25 68.75 C-24.13598894 44.60670306 -24.13598894 44.60670306 -24 19 C-40.53989194 13.50972272 -56.82135118 14.72153598 -73.921875 16.48828125 C-80.2715983 17.1440371 -86.62957051 17.59314904 -93 18 C-93.75 15.8125 -93.75 15.8125 -94 13 C-91.30127962 8.3236459 -87.35545548 6.20536423 -82.625 3.9375 C-81.56478638 3.42098877 -81.56478638 3.42098877 -80.4831543 2.89404297 C-69.79807285 -2.15265284 -58.68985569 -4.60419634 -47 -6 C-46.02546875 -6.12375 -45.0509375 -6.2475 -44.046875 -6.375 C-29.95696367 -7.88194239 -12.32749061 -7.76175335 0 0 Z " fill="#FEFEFE" transform="translate(510,379)"/>
</svg>
