<?xml version="1.0" encoding="UTF-8"?>
<svg version="1.1" xmlns="http://www.w3.org/2000/svg" width="2084" height="2084">
<path d="M0 0 C1.15764862 0.00060425 2.31529724 0.0012085 3.50802612 0.00183105 C94.05250878 0.12849586 184.40583403 11.79562776 660.38964844 234.76806641 C661.93487406 236.03198618 663.48652781 237.28803789 665.0390625 238.54296875 C676.38005403 247.72616101 687.31819721 257.38470761 698.125 267.1875 C699.72894529 268.62524701 701.33311761 270.06274077 702.9375 271.5 C704.66714749 273.06196773 706.39624885 274.62454029 708.125 276.1875 C708.97682861 276.95247803 709.82865723 277.71745605 710.70629883 278.50561523 C720.81177991 287.69654985 730.4471872 297.3563156 740.09277344 307.02490234 C742.52643703 309.46430257 744.96462109 311.89912769 747.40412712 314.33268356 C749.76925972 316.6933058 752.13054575 319.05776038 754.4921875 321.421875 C755.3558493 322.28351257 756.21951111 323.14515015 757.10934448 324.03289795 C761.4451444 328.38539762 765.64423191 332.7969466 769.64019775 337.46458435 C772.01300264 340.21790903 774.51367265 342.8496194 777 345.5 C781.53526544 350.36989812 785.81180551 355.38404524 789.98046875 360.57421875 C792.12374956 363.18597623 794.3488033 365.69115302 796.625 368.1875 C800.86060022 372.84666025 804.85888884 377.66294506 808.81054688 382.56396484 C810.2879702 384.38879121 811.77626769 386.20443303 813.265625 388.01953125 C819.29152887 395.37450968 825.21065979 402.77710886 830.84082031 410.44238281 C832.34347896 412.48439878 833.85536788 414.51944504 835.3671875 416.5546875 C843.10726954 426.99285138 850.69612277 437.52578033 858.125 448.1875 C858.57939453 448.83750977 859.03378906 449.48751953 859.50195312 450.15722656 C877.32233212 475.6826759 893.69553658 502.15712199 909.125 529.1875 C909.73150391 530.24807617 910.33800781 531.30865234 910.96289062 532.40136719 C928.77238681 563.70318849 945.03570224 596.04154366 959.125 629.1875 C959.42367981 629.88713867 959.72235962 630.58677734 960.03009033 631.30761719 C994.2538488 711.52995994 1018.26327474 795.52743055 1043.51611328 1036.91967773 C1043.49901116 1041.78095668 1043.50923547 1046.64174269 1043.5264349 1051.50300503 C1043.63239441 1086.94190314 1041.86961554 1122.28167271 1037.8125 1157.5 C1037.70861969 1158.42589935 1037.60473938 1159.35179871 1037.49771118 1160.30575562 C1028.72407806 1238.32394153 1011.17818906 1315.11782276 985.125 1389.1875 C984.89895081 1389.8332196 984.67290161 1390.47893921 984.44000244 1391.14422607 C961.55397323 1456.48298174 931.41324876 1519.3858219 895.875 1578.75 C895.50476715 1579.36926361 895.1345343 1579.98852722 894.75308228 1580.6265564 C887.56053996 1592.63959197 880.03544197 1604.42438277 872.25 1616.0625 C871.74807129 1616.81370117 871.24614258 1617.56490234 870.72900391 1618.33886719 C856.34929725 1639.81148026 841.28351203 1660.69869415 825.453125 1681.125 C822.43830468 1685.09080391 819.56476203 1689.15005495 816.71875 1693.23828125 C816.1928125 1693.88152344 815.666875 1694.52476563 815.125 1695.1875 C814.465 1695.1875 813.805 1695.1875 813.125 1695.1875 C812.87492187 1695.74695312 812.62484375 1696.30640625 812.3671875 1696.8828125 C805.515674 1709.59474005 792.81099297 1721.29665676 783.13671875 1731.9609375 C781.27765331 1734.01854391 779.44571642 1736.09596763 777.625 1738.1875 C773.50895026 1742.90089029 769.34980185 1747.57123924 765.125 1752.1875 C764.63580078 1752.7232666 764.14660156 1753.2590332 763.64257812 1753.81103516 C753.91377712 1764.418048 743.7913189 1774.62762242 733.625 1784.8125 C732.96915924 1785.47092896 732.31331848 1786.12935791 731.63760376 1786.80773926 C718.22429474 1800.26276246 718.22429474 1800.26276246 711.125 1806.1875 C710.34769531 1806.86039063 709.57039063 1807.53328125 708.76953125 1808.2265625 C707.54113361 1809.2899515 706.31195754 1810.35244191 705.08203125 1811.4140625 C702.67908372 1813.59158381 700.41623096 1815.89284418 698.125 1818.1875 C691.51578483 1824.43690116 684.7690115 1830.40830118 677.67578125 1836.10546875 C674.58489735 1838.62834948 671.62394872 1841.27682145 668.68359375 1843.97265625 C667.125 1845.1875 667.125 1845.1875 665.125 1845.1875 C665.125 1845.8475 665.125 1846.5075 665.125 1847.1875 C663.2208365 1848.78893481 661.31258592 1850.27679593 659.3125 1851.75 C658.10826619 1852.65477608 656.90515839 1853.56105261 655.703125 1854.46875 C655.09791016 1854.92507813 654.49269531 1855.38140625 653.86914062 1855.8515625 C651.38216871 1857.75647716 648.97236182 1859.7488282 646.5625 1861.75 C641.46901462 1865.94463502 636.24565622 1869.92913526 630.9375 1873.84765625 C628.90260307 1875.35190118 626.87330362 1876.86355426 624.84375 1878.375 C550.84281451 1933.35135614 470.27334683 1978.36192868 156.75 2073.625 C155.53292358 2073.81408432 155.53292358 2073.81408432 154.29125977 2074.00698853 C151.97886802 2074.36337663 149.66553488 2074.71263056 147.3515625 2075.05859375 C145.39597412 2075.35141235 145.39597412 2075.35141235 143.40087891 2075.65014648 C137.99396654 2076.32963798 132.55561757 2076.73494854 127.125 2077.1875 C127.125 1840.5775 127.125 1603.9675 127.125 1360.1875 C220.185 1360.1875 313.245 1360.1875 409.125 1360.1875 C409.785 1355.5675 410.445 1350.9475 411.125 1346.1875 C411.52482986 1343.77832401 411.93904854 1341.37138491 412.38088989 1338.96955872 C412.60974318 1337.71791491 412.83859646 1336.4662711 413.07438469 1335.17669868 C413.32183794 1333.83889989 413.56934299 1332.50111068 413.81689453 1331.16333008 C414.08436476 1329.70633157 414.3515897 1328.24928801 414.61859322 1326.7922039 C415.34303531 1322.84263471 416.07086034 1318.89369572 416.79927921 1314.94485831 C417.58144019 1310.70115058 418.3603246 1306.4568414 419.1395874 1302.21260071 C420.47718799 1294.92976071 421.81671687 1287.64727768 423.15765381 1280.36505127 C425.2574324 1268.96174963 427.35389514 1257.55783986 429.44970703 1246.15380859 C430.15694019 1242.30566191 430.86418879 1238.45751806 431.57144165 1234.609375 C431.74694672 1233.65443421 431.92245178 1232.69949342 432.10327518 1231.71561503 C433.17295144 1225.89560433 434.24297794 1220.07565813 435.31327665 1214.25576186 C439.9060557 1189.28177529 444.48642599 1164.30555775 449.05132723 1139.3264606 C449.76224769 1135.43664538 450.47346572 1131.54688457 451.18466187 1127.65711975 C451.73493981 1124.64731118 452.28520017 1121.6374994 452.83544922 1118.62768555 C452.96880574 1117.89823876 453.10216226 1117.16879197 453.23955989 1116.41724074 C454.80939555 1107.83004589 456.37794949 1099.24261874 457.94475603 1090.65487069 C459.02778647 1084.71947145 460.11302081 1078.78447737 461.19907379 1072.84963036 C461.63957906 1070.4402407 462.07930948 1068.03070924 462.51821136 1065.62102699 C463.11026335 1062.37084718 463.70493877 1059.12115831 464.30029297 1055.87158203 C464.47248415 1054.92253903 464.64467533 1053.97349604 464.82208443 1052.99569416 C464.98052771 1052.13393668 465.13897099 1051.2721792 465.30221558 1050.38430786 C465.43801466 1049.64053453 465.57381374 1048.89676121 465.71372795 1048.1304493 C466.125 1046.1875 466.125 1046.1875 467.125 1043.1875 C354.925 1043.1875 242.725 1043.1875 127.125 1043.1875 C127.125 808.18574561 127.125 808.18574561 180.125 751.1875 C181.01058594 750.20330078 181.01058594 750.20330078 181.9140625 749.19921875 C222.78993865 705.71232848 291.35547859 698.09136721 347.56402588 696.2578125 C363.41229398 695.82269239 379.27426733 695.99068044 395.125 696.1875 C396.09854431 696.19952454 397.07208862 696.21154907 398.07513428 696.22393799 C419.2540487 696.49797846 440.41307909 697.00845926 461.5625 698.1875 C462.3162088 698.22929382 463.0699176 698.27108765 463.84646606 698.31414795 C470.66435275 698.70016044 477.35290543 699.22005792 484.125 700.1875 C484.125 605.1475 484.125 510.1075 484.125 412.1875 C481.485 411.8575 478.845 411.5275 476.125 411.1875 C474.29474853 410.82901181 472.46965421 410.44262352 470.65234375 410.0234375 C417.83958032 398.25357201 363.17442126 392.69151057 309.22982788 389.32138062 C307.84172095 389.23308807 306.45386458 389.14075064 305.0663147 389.0440979 C288.46022182 387.89025029 271.82450667 387.98686585 255.1875 388 C254.05323767 388.00040031 254.05323767 388.00040031 252.89606094 388.00080872 C229.92150103 388.01098963 207.02595762 388.16342379 184.125 390.1875 C183.36813904 390.25302063 182.61127808 390.31854126 181.83148193 390.38604736 C101.03302909 397.41692883 16.83598104 413.66353132 -54.99951172 458.01953125 C-56.91525998 459.21257208 -58.84769024 460.37386519 -60.78515625 461.53125 C-79.57947065 472.86577426 -96.53198047 486.50840211 -112.7265625 501.26171875 C-114.50949144 502.85987142 -116.31833682 504.38061827 -118.1875 505.875 C-120.31582541 507.70634977 -121.89145187 509.33934581 -123.625 511.5 C-124.3675 512.386875 -125.11 513.27375 -125.875 514.1875 C-126.535 514.1875 -127.195 514.1875 -127.875 514.1875 C-128.1328125 514.75984375 -128.390625 515.3321875 -128.65625 515.921875 C-129.98865942 518.39878995 -131.52556118 520.3216166 -133.375 522.4375 C-133.9834375 523.14390625 -134.591875 523.8503125 -135.21875 524.578125 C-136.875 526.1875 -136.875 526.1875 -138.875 526.1875 C-139.1328125 526.74953125 -139.390625 527.3115625 -139.65625 527.890625 C-141.01669777 530.45454579 -142.60288962 532.63976365 -144.375 534.9375 C-144.9834375 535.73671875 -145.591875 536.5359375 -146.21875 537.359375 C-146.7653125 537.96265625 -147.311875 538.5659375 -147.875 539.1875 C-148.535 539.1875 -149.195 539.1875 -149.875 539.1875 C-150.23464844 539.98800781 -150.23464844 539.98800781 -150.6015625 540.8046875 C-152.22300183 543.83866907 -154.22225815 546.54398909 -156.25 549.3125 C-208.53415238 621.85892312 -233.26651715 707.62433785 -249.5 963.9375 C-249.62375 990.09 -249.7475 1016.2425 -249.875 1043.1875 C-320.825 1043.1875 -391.775 1043.1875 -464.875 1043.1875 C-464.875 1147.7975 -464.875 1252.4075 -464.875 1360.1875 C-393.925 1360.1875 -322.975 1360.1875 -249.875 1360.1875 C-249.875 1589.2075 -249.875 1818.2275 -249.875 2054.1875 C-270.62340234 2049.57674392 -270.62340234 2049.57674392 -277.3359375 2047.59375 C-278.51589043 2047.2518589 -278.51589043 2047.2518589 -279.71968079 2046.90306091 C-282.23199046 2046.17182339 -284.74122722 2045.43077457 -287.25 2044.6875 C-288.56661118 2044.29982956 -288.56661118 2044.29982956 -289.90982056 2043.90432739 C-349.12883546 2026.43895568 -406.23101283 2003.94866946 -461.64990234 1976.76855469 C-464.54049873 1975.35148412 -467.43567491 1973.94430569 -470.33203125 1972.5390625 C-482.20885589 1966.73439038 -493.68550326 1960.30630811 -505.15332031 1953.73632812 C-509.20546882 1951.4303692 -513.29053895 1949.1855264 -517.375 1946.9375 C-531.16951057 1939.30442611 -544.49704794 1930.96722631 -557.796875 1922.5078125 C-559.52873755 1921.40749381 -561.26395523 1920.31245821 -563 1919.21875 C-573.20287349 1912.78122268 -583.27030488 1906.10753169 -593.1171875 1899.13671875 C-595.2816297 1897.60689345 -597.45402762 1896.09120939 -599.6328125 1894.58203125 C-608.900899 1888.13580143 -617.88652586 1881.40070012 -626.75390625 1874.4140625 C-630.12322884 1871.7612119 -633.53809499 1869.17691144 -636.97485352 1866.61230469 C-645.82282622 1859.9777462 -654.37049358 1852.99331087 -662.78125 1845.81640625 C-668.35058056 1841.06823945 -674.00924944 1836.42155286 -679.78125 1831.921875 C-680.6990625 1831.20515625 -681.616875 1830.4884375 -682.5625 1829.75 C-683.39136719 1829.11191406 -684.22023438 1828.47382812 -685.07421875 1827.81640625 C-685.66847656 1827.27886719 -686.26273438 1826.74132813 -686.875 1826.1875 C-686.875 1825.5275 -686.875 1824.8675 -686.875 1824.1875 C-687.431875 1823.94 -687.98875 1823.6925 -688.5625 1823.4375 C-693.38328878 1820.83166823 -697.07348583 1817.07742148 -700.875 1813.1875 C-704.7221007 1809.25748765 -708.57122153 1805.39189813 -712.75 1801.8125 C-716.90617899 1798.24538575 -720.71027019 1794.36997839 -724.5546875 1790.47265625 C-726.35951684 1788.69517281 -728.14518222 1787.07037903 -730.125 1785.5 C-732.86435979 1783.19644745 -735.03484787 1780.79684638 -737.28515625 1778.03125 C-739.93865513 1774.95397366 -742.87833711 1772.16611622 -745.77612305 1769.32080078 C-747.91654286 1767.21718547 -750.05208696 1765.10869653 -752.1875 1763 C-752.92806641 1762.27619141 -753.66863281 1761.55238281 -754.43164062 1760.80664062 C-755.13095703 1760.11376953 -755.83027344 1759.42089844 -756.55078125 1758.70703125 C-757.18927002 1758.07901611 -757.82775879 1757.45100098 -758.4855957 1756.80395508 C-759.875 1755.1875 -759.875 1755.1875 -759.875 1753.1875 C-760.535 1753.1875 -761.195 1753.1875 -761.875 1753.1875 C-763.21484375 1751.859375 -763.21484375 1751.859375 -764.8125 1749.9375 C-767.92069919 1746.27774146 -771.11796292 1742.71465995 -774.375 1739.1875 C-781.14115123 1731.8216112 -781.14115123 1731.8216112 -784.0625 1728.5625 C-784.61292969 1727.95148438 -785.16335938 1727.34046875 -785.73046875 1726.7109375 C-786.875 1725.1875 -786.875 1725.1875 -786.875 1723.1875 C-787.535 1723.1875 -788.195 1723.1875 -788.875 1723.1875 C-792.875 1718.71691176 -792.875 1718.71691176 -792.875 1716.1875 C-793.535 1716.1875 -794.195 1716.1875 -794.875 1716.1875 C-796.8203125 1714.0703125 -796.8203125 1714.0703125 -799 1711.3125 C-799.72445312 1710.40757813 -800.44890625 1709.50265625 -801.1953125 1708.5703125 C-802.875 1706.1875 -802.875 1706.1875 -802.875 1704.1875 C-803.535 1704.1875 -804.195 1704.1875 -804.875 1704.1875 C-806.43764705 1702.34657334 -807.88097002 1700.50213476 -809.3125 1698.5625 C-810.21665368 1697.36138089 -811.12162982 1696.16088053 -812.02734375 1694.9609375 C-812.49640137 1694.33670898 -812.96545898 1693.71248047 -813.44873047 1693.06933594 C-815.71691889 1690.07666282 -818.04628529 1687.13315033 -820.375 1684.1875 C-830.31335783 1671.56844699 -840.00289507 1658.8101609 -849.1796875 1645.62109375 C-850.26209123 1644.06732066 -851.35008526 1642.51741706 -852.4453125 1640.97265625 C-858.43964114 1632.50240926 -864.15932621 1623.84705703 -869.875 1615.1875 C-870.56384277 1614.14480957 -870.56384277 1614.14480957 -871.26660156 1613.08105469 C-883.48290503 1594.5376533 -894.89257267 1575.48365818 -905.875 1556.1875 C-906.39497559 1555.2790332 -906.91495117 1554.37056641 -907.45068359 1553.43457031 C-922.56301068 1526.99134234 -936.44854209 1499.99813843 -948.875 1472.1875 C-949.17666077 1471.51477051 -949.47832153 1470.84204102 -949.78912354 1470.14892578 C-986.97200998 1387.17936529 -1013.54413227 1299.66468902 -1039.875 1096.1875 C-1039.94847656 1094.99737305 -1040.02195312 1093.80724609 -1040.09765625 1092.58105469 C-1042.4273972 1052.59129919 -1041.46289123 1012.13928118 -1038.875 972.1875 C-1038.8264386 971.42636902 -1038.7778772 970.66523804 -1038.72784424 969.88104248 C-1033.00367029 881.15274008 -1014.94369594 793.38215096 -956.875 631.1875 C-956.37677734 630.05119141 -955.87855469 628.91488281 -955.36523438 627.74414062 C-939.58618371 591.80406135 -922.44758112 556.50620576 -902.38085938 522.75 C-900.27154184 519.16060362 -898.25957274 515.52080743 -896.25 511.875 C-891.62115825 503.54179188 -886.51514099 495.51987209 -881.36279297 487.50292969 C-879.96706689 485.3307823 -878.57853522 483.15420583 -877.19140625 480.9765625 C-866.58337479 464.38709222 -855.4732624 448.10080578 -843.875 432.1875 C-843.36146973 431.48093262 -842.84793945 430.77436523 -842.31884766 430.04638672 C-828.83446096 411.52059327 -814.80843556 393.47845134 -799.96020508 376.02441406 C-797.04853306 372.59652421 -794.19711044 369.12744063 -791.375 365.625 C-787.24692681 360.54998529 -782.87154409 355.74734584 -778.42578125 350.953125 C-776.39098117 348.74694053 -774.39853762 346.52117739 -772.4375 344.25 C-765.51417824 336.27819441 -758.32605218 328.53287911 -750.79150391 321.13647461 C-749.00830873 319.32306734 -747.35151874 317.45901313 -745.703125 315.5234375 C-741.64461517 310.85569373 -737.32083671 306.4861426 -732.9375 302.125 C-732.17759766 301.36123047 -731.41769531 300.59746094 -730.63476562 299.81054688 C-726.43666523 295.61961659 -722.14493653 291.61448084 -717.65014648 287.74438477 C-715.27907414 285.66484573 -713.07452699 283.44647366 -710.875 281.1875 C-707.3845856 277.65995353 -703.82855686 274.31365526 -700.05859375 271.08984375 C-697.86718635 269.18069276 -695.73188272 267.21758684 -693.60180664 265.24047852 C-688.49442308 260.50247908 -683.27414256 255.99428137 -677.84375 251.625 C-674.35218068 248.75823782 -670.95976528 245.78971766 -667.5625 242.8125 C-661.64965735 237.64802371 -655.59286343 232.72777888 -649.38671875 227.921875 C-646.39946683 225.60798245 -643.45845821 223.24176891 -640.52392578 220.86157227 C-625.81920564 208.95821665 -610.39053295 198.00147 -594.875 187.1875 C-594.24094238 186.74374023 -593.60688477 186.29998047 -592.95361328 185.84277344 C-511.6167946 128.98065596 -421.93095705 84.10010564 -314.80371094 48.80804443 C-313.00354113 48.22885689 -311.20483675 47.64512013 -309.40625 47.06103516 C-232.85292021 22.29036579 -152.42524825 8.0494974 -72.25 2.4375 C-70.98467438 2.34861511 -70.98467438 2.34861511 -69.69378662 2.25793457 C-46.48280468 0.6594591 -23.26376193 -0.02286427 0 0 Z " fill="#FFFFFF" transform="translate(1040.875,-0.1875)"/>
</svg>
