<?xml version="1.0" encoding="UTF-8"?>
<svg version="1.1" xmlns="http://www.w3.org/2000/svg" width="4322" height="4320">
<path d="M0 0 C1.10319989 0.01055892 2.20639978 0.02111784 3.34302998 0.03199673 C132.16709204 1.26533121 132.16709204 1.26533121 191.625 2.875 C192.77436098 2.90579966 192.77436098 2.90579966 193.94694138 2.93722153 C288.59071421 5.47449214 383.15053087 10.01520949 514.8125 19 C515.67273521 19.06100136 516.53297043 19.12200272 517.41927338 19.1848526 C622.69095256 26.66310547 727.13185573 40.7890845 872.8125 83 C873.57564514 83.24385437 874.33879028 83.48770874 875.12506104 83.73895264 C906.34224521 93.72781963 937.07702193 105.00802102 967.21923828 117.89599609 C969.79551121 118.99276753 972.37857239 120.07157212 974.96484375 121.14453125 C984.70027507 125.18789113 994.30802761 129.4388519 1003.8125 134 C1004.80975098 134.47679199 1005.80700195 134.95358398 1006.83447266 135.44482422 C1056.71061863 159.31056368 1056.71061863 159.31056368 1078.8125 172 C1080.7760015 173.1172581 1082.73954619 174.23444029 1084.703125 175.3515625 C1116.02617598 193.23469151 1146.27894036 212.40198003 1175.89331055 232.98095703 C1178.45160926 234.7503917 1181.02210477 236.49794296 1183.60546875 238.23046875 C1194.03138875 245.23296967 1203.99619404 252.66881109 1213.84521484 260.45751953 C1216.55192773 262.57975979 1219.30167513 264.63607914 1222.0625 266.6875 C1235.40366925 276.63340626 1248.30551872 287.13349004 1260.97680664 297.91625977 C1264.38194129 300.80893451 1267.82975775 303.63814467 1271.3125 306.4375 C1276.69535937 310.8145112 1281.75521342 315.49554127 1286.82421875 320.2265625 C1289.1160841 322.36354314 1291.44008757 324.45223348 1293.8125 326.5 C1302.00525581 333.60154309 1309.97782026 340.97902154 1317.51953125 348.76953125 C1319.48639954 350.68278814 1321.49435624 352.47389363 1323.5703125 354.265625 C1327.85182449 357.98468236 1331.8777227 361.91696018 1335.875 365.9375 C1336.54337891 366.60201172 1337.21175781 367.26652344 1337.90039062 367.95117188 C1341.83127289 371.88969433 1345.5544195 375.94624962 1349.18920898 380.15844727 C1351.45566335 382.72964072 1353.85989743 385.10510572 1356.3125 387.5 C1360.01927857 391.15711176 1363.56555491 394.88964571 1366.9453125 398.8515625 C1368.84070841 401.03245738 1370.7927652 403.15455746 1372.75830078 405.2722168 C1377.5939687 410.48373523 1382.18175754 415.8213201 1386.640625 421.36328125 C1388.75006349 423.92420028 1390.94137648 426.37123455 1393.1875 428.8125 C1397.25122779 433.27199954 1400.97133977 437.93523727 1404.66455078 442.69995117 C1407.54981486 446.41621528 1410.51108266 450.04224133 1413.5625 453.625 C1420.0064073 461.30263005 1425.93521466 469.36650192 1431.89990234 477.41845703 C1433.72727591 479.88496814 1435.5604332 482.34708112 1437.39453125 484.80859375 C1451.22954611 503.42350472 1464.28377339 522.4830281 1476.8125 542 C1477.34617188 542.82886719 1477.87984375 543.65773438 1478.4296875 544.51171875 C1509.7482827 593.23836559 1536.92394503 644.71024553 1559.99316406 697.81884766 C1561.1382606 700.45489093 1562.28984043 703.08780907 1563.45214844 705.71630859 C1572.35723108 725.85579955 1580.2313295 746.33252351 1587.8125 767 C1588.20501953 768.06864288 1588.20501953 768.06864288 1588.60546875 769.15887451 C1603.02814949 808.48836264 1615.30800942 848.45338455 1625.8125 889 C1626.02865967 889.83070007 1626.24481934 890.66140015 1626.4675293 891.51727295 C1654.90333802 1000.95607933 1669.92450973 1113.98018251 1678.07453871 1252.8733688 C1678.19455754 1255.34145386 1678.31464491 1257.80953559 1678.43479294 1260.27761436 C1678.49659568 1261.54794007 1678.55839842 1262.81826578 1678.62207397 1264.1270862 C1678.80998581 1267.94886604 1679.00319223 1271.77034279 1679.19791418 1275.59178119 C1681.30063393 1317.08292807 1682.26099902 1358.46092547 1682.21284356 1400.00274175 C1682.20390099 1408.2920783 1682.21325068 1416.58137733 1682.22252351 1424.87071005 C1682.23934121 1440.34710059 1682.24244728 1455.82346427 1682.23740768 1471.29986191 C1682.23236422 1486.9305018 1682.23398064 1502.56112096 1682.24328995 1518.19175911 C1682.24387843 1519.18804125 1682.24446691 1520.1843234 1682.24507322 1521.21079591 C1682.24749044 1525.27015529 1682.2499506 1529.32951465 1682.25246587 1533.38887397 C1682.27781576 1574.35459835 1682.28396112 1615.32030948 1682.28205473 1656.28604065 C1682.28179503 1661.9244798 1682.28155637 1667.56291894 1682.28133965 1673.20135808 C1682.28129561 1674.32167526 1682.28125157 1675.44199243 1682.28120619 1676.59625862 C1682.28033876 1701.54467836 1682.28515287 1726.49309608 1682.29102156 1751.44151503 C1682.29236257 1757.15682182 1682.29366253 1762.87212861 1682.2949672 1768.58743541 C1682.29549174 1770.88164932 1682.29601633 1773.17586324 1682.29654097 1775.47007715 C1682.29680075 1776.60737171 1682.29706053 1777.74466627 1682.29732819 1778.91642431 C1682.29785439 1781.21710496 1682.29838207 1783.51778562 1682.2989112 1785.81846627 C1682.31388409 1851.00157454 1682.3226883 1916.1846812 1682.31795502 1981.36779118 C1682.31786915 1982.57191637 1682.31778329 1983.77604157 1682.31769482 1985.0166554 C1682.31673563 1998.44046009 1682.31569742 2011.86426476 1682.31463593 2025.28806943 C1682.31434642 2028.96132144 1682.31405694 2032.63457344 1682.31376753 2036.30782544 C1682.31357353 2038.75868479 1682.31337803 2041.20954414 1682.31318104 2043.66040349 C1682.30696806 2121.12721204 1682.32182178 2198.59398932 1682.35449219 2276.06079102 C1682.36271718 2295.58154575 1682.37086791 2315.10230051 1682.37859344 2334.62305546 C1682.37906964 2335.82545352 1682.37954584 2337.02785159 1682.38003646 2338.26668596 C1682.39465074 2375.39854932 1682.40307175 2412.53041009 1682.405159 2449.66227627 C1682.40522531 2450.83014301 1682.40529163 2451.99800975 1682.40535996 2453.20126639 C1682.40675481 2478.85360907 1682.40664191 2504.50595156 1682.40514987 2530.15829422 C1682.40462789 2539.33965676 1682.40421067 2548.52101931 1682.4038417 2557.70238186 C1682.40374848 2559.9859376 1682.40364934 2562.26949333 1682.40354425 2564.55304907 C1682.40192799 2600.74052271 1682.41465267 2636.92797284 1682.43470203 2673.1154404 C1682.45536753 2710.63545015 1682.45726773 2748.15542041 1682.43854648 2785.67543168 C1682.43659571 2789.72936274 1682.43472537 2793.78329383 1682.43291855 2797.83722496 C1682.43246817 2798.83194556 1682.43201779 2799.82666616 1682.43155376 2800.85152981 C1682.42535238 2815.47110167 1682.43304205 2830.09061896 1682.44890213 2844.71018219 C1682.60624981 2994.7925564 1682.60624981 2994.7925564 1677.10818076 3061.3091381 C1676.53770542 3068.43014822 1676.06725621 3075.55806538 1675.58751783 3082.68564874 C1674.97378169 3091.79284708 1674.28946281 3100.89383553 1673.58347702 3109.99429703 C1673.36517261 3112.81445473 1673.14928637 3115.63479009 1672.93386841 3118.45516968 C1665.7680622 3212.15107067 1655.48924846 3304.94516393 1548.8125 3645 C1548.28108398 3646.13872559 1547.74966797 3647.27745117 1547.20214844 3648.45068359 C1541.52382291 3660.58266593 1535.58359917 3672.54252688 1529.24023438 3684.34033203 C1527.61545515 3687.36706679 1526.00324063 3690.40036175 1524.390625 3693.43359375 C1518.52011833 3704.44436172 1512.5744051 3715.35105274 1506.03759766 3725.97949219 C1504.02609769 3729.29698396 1502.07930546 3732.65223497 1500.12084961 3736.0012207 C1494.48735029 3745.61861308 1488.67548539 3755.07103772 1482.53857422 3764.37402344 C1480.84101235 3766.95662251 1479.15401503 3769.54593344 1477.46984863 3772.13728333 C1475.814283 3774.68410122 1474.15576696 3777.22899098 1472.49688721 3779.77365112 C1471.68300874 3781.02287429 1470.8699423 3782.27262697 1470.05780029 3783.52297974 C1462.43400957 3795.25266891 1454.32473602 3806.59037158 1446.07421875 3817.88671875 C1444.27586835 3820.36216826 1442.48847447 3822.84444002 1440.70703125 3825.33203125 C1435.5105602 3832.57914458 1430.32543399 3839.78362808 1424.66015625 3846.67578125 C1421.76803397 3850.31386318 1419.12906072 3854.13036487 1416.4765625 3857.9453125 C1415.92742188 3858.62335937 1415.37828125 3859.30140625 1414.8125 3860 C1414.1525 3860 1413.4925 3860 1412.8125 3860 C1412.1525 3861.65 1411.4925 3863.3 1410.8125 3865 C1410.1525 3865 1409.4925 3865 1408.8125 3865 C1408.1525 3866.65 1407.4925 3868.3 1406.8125 3870 C1406.1525 3870 1405.4925 3870 1404.8125 3870 C1404.56886719 3870.55300781 1404.32523438 3871.10601563 1404.07421875 3871.67578125 C1402.54843943 3874.48642736 1400.67973221 3876.73667484 1398.625 3879.1875 C1395.02461546 3883.50796144 1391.57014854 3887.89924985 1388.22265625 3892.41796875 C1387.75730469 3892.94003906 1387.29195312 3893.46210938 1386.8125 3894 C1386.1525 3894 1385.4925 3894 1384.8125 3894 C1384.56886719 3894.56203125 1384.32523438 3895.1240625 1384.07421875 3895.703125 C1382.57069064 3898.44019785 1380.74550252 3900.45795941 1378.625 3902.75 C1377.81675781 3903.63171875 1377.00851563 3904.5134375 1376.17578125 3905.421875 C1375.39589844 3906.27265625 1374.61601562 3907.1234375 1373.8125 3908 C1372.64088939 3909.32899114 1371.47376608 3910.6619604 1370.3125 3912 C1366.89035611 3915.93148624 1363.39376394 3919.79338325 1359.89453125 3923.65625 C1358.1612464 3925.60741494 1356.50408828 3927.58743825 1354.875 3929.625 C1354.194375 3930.40875 1353.51375 3931.1925 1352.8125 3932 C1352.1525 3932 1351.4925 3932 1350.8125 3932 C1350.3175 3933.485 1350.3175 3933.485 1349.8125 3935 C1349.1525 3935 1348.4925 3935 1347.8125 3935 C1347.56036743 3935.57679504 1347.30823486 3936.15359009 1347.04846191 3936.74786377 C1345.6565941 3939.2840875 1344.07969104 3940.98683494 1342.03710938 3943.03417969 C1340.87580505 3944.20494049 1340.87580505 3944.20494049 1339.69104004 3945.39935303 C1338.85455933 3946.23178528 1338.01807861 3947.06421753 1337.15625 3947.921875 C1336.29817749 3948.78186096 1335.44010498 3949.64184692 1334.55603027 3950.52789307 C1332.74277533 3952.34250826 1330.92699519 3954.15460316 1329.10888672 3955.96435547 C1326.31635862 3958.74615621 1323.53467542 3961.53848145 1320.75390625 3964.33203125 C1318.99282867 3966.09178772 1317.23113106 3967.85092395 1315.46875 3969.609375 C1314.63226929 3970.44990417 1313.79578857 3971.29043335 1312.93395996 3972.15643311 C1312.15975708 3972.92433167 1311.3855542 3973.69223022 1310.58789062 3974.48339844 C1309.90553345 3975.16416443 1309.22317627 3975.84493042 1308.5201416 3976.54632568 C1306.8125 3978 1306.8125 3978 1304.8125 3978 C1304.3175 3979.485 1304.3175 3979.485 1303.8125 3981 C1302.140625 3982.68359375 1302.140625 3982.68359375 1300.0625 3984.4375 C1299.33933594 3985.05238281 1298.61617187 3985.66726562 1297.87109375 3986.30078125 C1296.30422709 3987.59411521 1294.7186931 3988.86487057 1293.125 3990.125 C1290.71709268 3992.0109788 1290.71709268 3992.0109788 1288.375 3994.4375 C1285.65809324 3997.15440676 1282.76308343 3999.54118047 1279.8125 4002 C1278.925625 4002.9075 1278.03875 4003.815 1277.125 4004.75 C1274.8125 4007 1274.8125 4007 1271.8125 4008 C1271.8125 4008.66 1271.8125 4009.32 1271.8125 4010 C1267.34191176 4014 1267.34191176 4014 1264.8125 4014 C1264.8125 4014.66 1264.8125 4015.32 1264.8125 4016 C1263.046875 4017.59375 1263.046875 4017.59375 1260.5625 4019.5 C1256.58542653 4022.60076915 1252.67528431 4025.75766291 1248.8125 4029 C1244.33152098 4032.74751954 1239.81243253 4036.43725455 1235.23828125 4040.0703125 C1233.60454622 4041.36993425 1231.9770302 4042.67740794 1230.35546875 4043.9921875 C1225.31663048 4048.07086919 1220.18022427 4051.95692613 1214.91796875 4055.7421875 C1211.24653466 4058.41148172 1207.62411266 4061.1420343 1204 4063.875 C1156.34296005 4099.67622413 1104.47494887 4131.97281892 1050.8125 4158 C1048.92269661 4158.93815418 1047.03605974 4159.88242128 1045.15014648 4160.82836914 C1043.83156588 4161.48954571 1042.51205066 4162.14886138 1041.19165039 4162.80639648 C1037.48425755 4164.6532527 1033.79043562 4166.52303382 1030.109375 4168.421875 C1018.6956411 4174.2713448 1007.10728281 4179.64014987 995.375 4184.8125 C994.66337708 4185.12688019 993.95175415 4185.44126038 993.21856689 4185.76516724 C984.64426338 4189.54570623 976.02154468 4193.16247822 967.30737305 4196.60791016 C964.13202924 4197.87272401 960.97788354 4199.17694295 957.828125 4200.50390625 C878.77096077 4233.59362206 795.05318403 4256.65522919 257.25708008 4309.94464111 C252.60188602 4309.991737 247.94671098 4310.04049828 243.29153919 4310.08974171 C153.08587532 4311.04368841 62.87697968 4311.66426075 -141.61431885 4312.80796814 C-145.97790533 4312.82883501 -150.34149175 4312.84971641 -154.70507812 4312.87060547 C-155.79458566 4312.87581321 -156.8840932 4312.88102096 -158.00661612 4312.88638651 C-173.31114755 4312.95970705 -188.61563648 4313.0390392 -203.92011225 4313.12314761 C-301.27912343 4313.65751615 -398.6382175 4313.95102782 -671.917243 4314.17119122 C-673.04502534 4314.17150938 -673.04502534 4314.17150938 -674.19559116 4314.17183397 C-681.02942582 4314.17375355 -687.8632605 4314.17564134 -694.69709519 4314.17744256 C-714.95665058 4314.18280896 -735.21620054 4314.19174834 -755.47575278 4314.20421639 C-791.98904388 4314.22667864 -828.50232681 4314.23998473 -865.015625 4314.23046875 C-865.69970849 4314.23029107 -866.38379198 4314.2301134 -867.08860527 4314.22993033 C-949.24650957 4314.20768834 -1031.38182529 4313.8825885 -1113.52425861 4312.19462454 C-1127.10333779 4311.91685258 -1140.68318701 4311.68097415 -1154.26298141 4311.44124651 C-1237.23341575 4309.97348585 -1320.20593163 4307.3320928 -1563.1875 4284 C-1564.22704834 4283.85044861 -1565.26659668 4283.70089722 -1566.33764648 4283.54681396 C-1616.36737738 4276.31820943 -1666.05263515 4266.88663615 -1715.1875 4255 C-1716.05945007 4254.78964111 -1716.93140015 4254.57928223 -1717.82977295 4254.36254883 C-1778.88231356 4239.59818141 -1838.95023532 4220.55149504 -1897.1875 4197 C-1898.55530885 4196.45410587 -1899.92348078 4195.90912071 -1901.29199219 4195.36499023 C-1901.9686644 4195.0957222 -1902.64533661 4194.82645416 -1903.34251404 4194.54902649 C-1905.21103168 4193.80593299 -1907.07975202 4193.06334923 -1908.94848633 4192.32080078 C-1912.65985563 4190.80738344 -1916.29211698 4189.16184846 -1919.92578125 4187.47265625 C-1923.50353663 4185.85731041 -1927.11207005 4184.32716851 -1930.72753906 4182.79858398 C-1938.74276161 4179.40573661 -1946.61415865 4175.90714669 -1954.359375 4171.93359375 C-1959.29332229 4169.41415992 -1964.30894907 4167.06462819 -1969.3125 4164.6875 C-1983.62873237 4157.86100011 -1997.89859735 4151.0114967 -2011.66259766 4143.1171875 C-2015.54819463 4140.89401069 -2019.4699822 4138.8305157 -2023.5 4136.875 C-2028.40500964 4134.47552231 -2032.92062251 4131.69522809 -2037.48828125 4128.7109375 C-2040.08919463 4127.06231223 -2042.7226041 4125.57668732 -2045.4375 4124.125 C-2056.3342407 4118.28746034 -2066.79380593 4111.68166047 -2077.1875 4105 C-2077.97382813 4104.50628906 -2078.76015625 4104.01257812 -2079.5703125 4103.50390625 C-2094.03007766 4094.41555855 -2108.25327117 4084.87458724 -2122.1875 4075 C-2122.83154785 4074.54367188 -2123.4755957 4074.08734375 -2124.13916016 4073.6171875 C-2145.33415675 4058.55044882 -2165.94893511 4042.66215692 -2186.03637695 4026.1496582 C-2186.67921631 4025.62331787 -2187.32205566 4025.09697754 -2187.984375 4024.5546875 C-2188.84047363 4023.85061768 -2188.84047363 4023.85061768 -2189.71386719 4023.13232422 C-2191.20597562 4021.91144939 -2191.20597562 4021.91144939 -2193.1875 4021 C-2193.1875 4020.34 -2193.1875 4019.68 -2193.1875 4019 C-2193.73921875 4018.7525 -2194.2909375 4018.505 -2194.859375 4018.25 C-2197.63886707 4016.75765526 -2199.9689707 4014.96327477 -2202.4375 4013 C-2203.77554688 4011.948125 -2203.77554688 4011.948125 -2205.140625 4010.875 C-2206.15382813 4009.946875 -2206.15382813 4009.946875 -2207.1875 4009 C-2207.1875 4008.34 -2207.1875 4007.68 -2207.1875 4007 C-2207.74953125 4006.75636719 -2208.3115625 4006.51273438 -2208.890625 4006.26171875 C-2211.62769785 4004.75819064 -2213.64545941 4002.93300252 -2215.9375 4000.8125 C-2216.81148437 4000.01199219 -2217.68546875 3999.21148438 -2218.5859375 3998.38671875 C-2219.87371094 3997.20529297 -2219.87371094 3997.20529297 -2221.1875 3996 C-2222.64093384 3994.7028227 -2224.09877631 3993.41055508 -2225.5625 3992.125 C-2226.16835937 3991.59132813 -2226.77421875 3991.05765625 -2227.3984375 3990.5078125 C-2229.21605765 3988.93210444 -2229.21605765 3988.93210444 -2231.4140625 3987.4296875 C-2232.29191406 3986.72199219 -2232.29191406 3986.72199219 -2233.1875 3986 C-2233.1875 3985.34 -2233.1875 3984.68 -2233.1875 3984 C-2234.1775 3983.67 -2235.1675 3983.34 -2236.1875 3983 C-2236.1875 3982.34 -2236.1875 3981.68 -2236.1875 3981 C-2236.77273438 3980.74347656 -2237.35796875 3980.48695313 -2237.9609375 3980.22265625 C-2240.37984608 3978.89437838 -2241.91948872 3977.43475199 -2243.8125 3975.4375 C-2246.23271959 3972.85984611 -2246.23271959 3972.85984611 -2249.1875 3971 C-2249.1875 3970.34 -2249.1875 3969.68 -2249.1875 3969 C-2249.8475 3969 -2250.5075 3969 -2251.1875 3969 C-2252.35582684 3967.59113528 -2253.51989568 3966.17855511 -2254.6640625 3964.75 C-2256.2287631 3962.95260034 -2257.86710017 3961.47370239 -2259.6875 3959.9375 C-2263.59272888 3956.60503802 -2267.24318329 3953.06163087 -2270.875 3949.4375 C-2271.69484375 3948.62430298 -2271.69484375 3948.62430298 -2272.53125 3947.79467773 C-2275.14101268 3945.17578724 -2277.6213356 3942.5278192 -2279.95703125 3939.66015625 C-2281.90944472 3936.97317548 -2281.90944472 3936.97317548 -2284.1875 3936 C-2284.1875 3935.34 -2284.1875 3934.68 -2284.1875 3934 C-2284.8475 3934 -2285.5075 3934 -2286.1875 3934 C-2287.7734375 3932.42578125 -2287.7734375 3932.42578125 -2289.5625 3930.3125 C-2290.18640625 3929.5803125 -2290.8103125 3928.848125 -2291.453125 3928.09375 C-2292.75969677 3926.51644714 -2294.04215 3924.91911912 -2295.3125 3923.3125 C-2298.25320764 3919.68562725 -2301.62794598 3916.53468495 -2305 3913.3125 C-2307.1875 3911 -2307.1875 3911 -2307.1875 3909 C-2307.8475 3909 -2308.5075 3909 -2309.1875 3909 C-2310.55962301 3907.46804728 -2311.8590446 3905.87078919 -2313.125 3904.25 C-2316.52627555 3899.99020313 -2320.02999794 3895.92026514 -2323.75 3891.9375 C-2327.66286726 3887.72524012 -2331.35791798 3883.4097793 -2334.90234375 3878.8828125 C-2337.30269203 3875.85468082 -2339.75838294 3872.878336 -2342.22485352 3869.90405273 C-2348.2106893 3862.68399121 -2354.06590575 3855.40080331 -2359.7265625 3847.921875 C-2361.45427327 3845.64905762 -2363.19580675 3843.38711953 -2364.9375 3841.125 C-2372.79424722 3830.90077555 -2380.47622714 3820.59129693 -2387.8125 3809.98681641 C-2389.15046424 3808.05351509 -2390.4964387 3806.12601343 -2391.84375 3804.19921875 C-2420.30853137 3763.3253668 -2445.65909295 3720.25270974 -2468.23309326 3675.87304688 C-2469.21884167 3673.9384912 -2470.20885926 3672.00616711 -2471.19970703 3670.07421875 C-2511.78987437 3590.84924422 -2541.6364054 3506.48396685 -2625.76364803 2768.10550499 C-2625.81177477 2766.03125701 -2625.86001782 2763.95701175 -2625.90827179 2761.88276672 C-2628.18538124 2663.87800275 -2629.34740034 2565.87781484 -2629.35427975 2467.84730235 C-2629.35488297 2459.92674955 -2629.35757048 2452.00619947 -2629.36138725 2444.08564758 C-2629.37616241 2412.94673863 -2629.37916933 2381.80783971 -2629.37598218 2350.66892774 C-2629.37508653 2341.52344227 -2629.37490566 2332.37795698 -2629.37508392 2323.23247147 C-2629.37617888 2250.13971633 -2629.35057322 2177.04695066 -2628.4076677 1848.55795926 C-2628.35467665 1836.31577846 -2628.30237552 1824.07359601 -2628.25255966 1811.83140182 C-2628.24524655 1810.03520511 -2628.24524655 1810.03520511 -2628.23778569 1808.20272159 C-2628.23292451 1807.00873166 -2628.22806332 1805.81474173 -2628.22305483 1804.58457029 C-2628.12839317 1781.34190234 -2628.02737867 1758.09927674 -2627.91404384 1734.85669172 C-2627.9032966 1732.65213673 -2627.89255108 1730.44758174 -2627.88180733 1728.24302673 C-2627.8765426 1727.16400372 -2627.87127786 1726.0849807 -2627.8658536 1724.97326002 C-2627.83077082 1717.71779505 -2627.799173 1710.462321 -2627.76930046 1703.20683289 C-2627.43703904 1623.35897907 -2626.09182246 1543.52202402 -2623.55515671 1463.71244812 C-2623.45382683 1460.51516402 -2623.35374995 1457.31784394 -2623.25439507 1454.12049794 C-2621.81453695 1407.79187718 -2620.07646929 1361.47556596 -2618.2214489 1315.1618576 C-2618.12599045 1312.77476769 -2618.03094254 1310.38766181 -2617.93605042 1308.00054932 C-2613.77785805 1203.41494835 -2613.77785805 1203.41494835 -2609.875 1159.4375 C-2609.77111969 1158.24291168 -2609.66723938 1157.04832336 -2609.56021118 1155.8175354 C-2600.36642628 1050.41247969 -2583.06063087 945.22025411 -2549.1875 834 C-2548.78978394 832.71884308 -2548.78978394 832.71884308 -2548.3840332 831.4118042 C-2529.38838865 770.34083526 -2505.4082132 711.37184349 -2477.1875 654 C-2476.89296936 653.39998169 -2476.59843872 652.79996338 -2476.29498291 652.1817627 C-2468.30641327 635.90796276 -2460.06700647 619.8075896 -2451.1875 604 C-2450.59243652 602.9387793 -2449.99737305 601.87755859 -2449.38427734 600.78417969 C-2444.71733929 592.48447502 -2439.98159028 584.22681408 -2435.1875 576 C-2434.23593018 574.36611328 -2434.23593018 574.36611328 -2433.26513672 572.69921875 C-2417.76355106 546.25980376 -2400.41313279 520.96913914 -2383.15625 495.65625 C-2382.63327332 494.88699692 -2382.11029663 494.11774384 -2381.57147217 493.32518005 C-2377.73394268 487.71224092 -2373.69553334 482.30511945 -2369.5 476.953125 C-2367.26839665 474.10330721 -2365.09646986 471.21758444 -2362.9375 468.3125 C-2349.15387598 449.90203558 -2334.67553243 432.09394294 -2319.64208984 414.69287109 C-2318.18519473 412.9973171 -2316.74132521 411.29148974 -2315.30078125 409.58203125 C-2308.23815313 401.22194413 -2300.85272951 393.21578432 -2293.32128906 385.27734375 C-2291.28970131 383.1090771 -2289.28767434 380.91568316 -2287.28729248 378.71867371 C-2279.68363427 370.39375411 -2271.7504146 362.41064638 -2263.76806641 354.45019531 C-2261.42363323 352.11116519 -2259.08465129 349.76677803 -2256.74609375 347.421875 C-2255.23209166 345.90853313 -2253.7177797 344.39550119 -2252.203125 342.8828125 C-2251.51647766 342.19414093 -2250.82983032 341.50546936 -2250.12237549 340.79592896 C-2246.21113244 336.90332676 -2242.20174507 333.18390003 -2238.0146637 329.58905029 C-2234.87977328 326.86269438 -2231.8897893 323.98255175 -2228.875 321.125 C-2223.68873539 316.24305126 -2218.39357366 311.60955655 -2212.82421875 307.1640625 C-2208.94384917 303.9792851 -2205.276021 300.57697825 -2201.59765625 297.1640625 C-2195.84634477 292 -2195.84634477 292 -2193.1875 292 C-2193.1875 291.34 -2193.1875 290.68 -2193.1875 290 C-2191.20292029 288.29368956 -2189.20911832 286.70219294 -2187.125 285.125 C-2185.82487602 284.12453531 -2184.52541777 283.123205 -2183.2265625 282.12109375 C-2182.55399414 281.60401855 -2181.88142578 281.08694336 -2181.18847656 280.55419922 C-2178.69858561 278.62025024 -2176.25085855 276.63769966 -2173.80371094 274.65014648 C-2165.44795371 267.87438287 -2156.84181988 261.45911022 -2148.13647461 255.14086914 C-2145.83925647 253.47315609 -2143.54683131 251.79938948 -2141.25610352 250.12280273 C-2131.0682733 242.68941927 -2120.72013596 235.5405425 -2110.21069336 228.57006836 C-2107.75144914 226.93846145 -2105.29638968 225.30070337 -2102.84179688 223.66210938 C-2087.25357353 213.27830182 -2071.49520309 203.18483008 -2055.3125 193.75 C-2054.7090979 193.39760254 -2054.1056958 193.04520508 -2053.48400879 192.68212891 C-1986.04361576 153.3313473 -1915.29045725 121.07944446 -1677.1875 48 C-1676.49325928 47.84229126 -1675.79901855 47.68458252 -1675.08374023 47.52209473 C-1622.65271166 35.65038639 -1569.29745738 27.44903175 -1515.8125 22.1875 C-1514.40360504 22.04751083 -1514.40360504 22.04751083 -1512.96624756 21.9046936 C-1474.91757875 18.17831224 -1436.7455039 16.32831584 -1398.55756378 14.77532196 C-1394.80228089 14.62203161 -1391.04709542 14.46653191 -1387.29193115 14.31036377 C-1308.38164909 11.02989952 -1229.45560959 7.96931097 -902.01931763 0.02482605 C-897.94096699 -0.01092814 -893.86263267 -0.04842173 -889.78429604 -0.08573437 C-854.39953528 -0.40851994 -819.01445168 -0.66584175 -783.62903023 -0.90224361 C-773.91890114 -0.96725027 -764.208797 -1.03518524 -754.498703 -1.10522842 C-666.37520548 -1.74089268 -578.2521444 -2.06737476 0 0 Z M-958.26977468 389.93746352 C-964.73987062 390.04074208 -971.21007674 390.13658552 -977.68026733 390.23373413 C-990.22481517 390.42268131 -1002.76868837 390.6426325 -1015.3125 390.875 C-1016.42282341 390.89538582 -1017.53314682 390.91577164 -1018.67711639 390.93677521 C-1128.20132777 392.94989149 -1237.74985702 395.90086782 -1709.1875 464 C-1709.84580811 464.22796265 -1710.50411621 464.45592529 -1711.18237305 464.6907959 C-1731.97188356 471.89885699 -1752.16415069 480.28505358 -1772.28466797 489.16088867 C-1774.04431229 489.93685705 -1775.80530091 490.70977508 -1777.56640625 491.48242188 C-1789.60949507 496.78107334 -1801.31846064 502.52863722 -1812.89599609 508.77636719 C-1815.13392005 509.97138901 -1817.38510324 511.13529092 -1819.64453125 512.2890625 C-1847.67580283 526.65379903 -1874.70755374 543.50485493 -1900.1875 562 C-1900.83267578 562.4650293 -1901.47785156 562.93005859 -1902.14257812 563.40917969 C-1923.05408267 578.48614235 -1942.89635493 594.90906699 -1962.1875 612 C-1962.97511719 612.69480469 -1963.76273438 613.38960937 -1964.57421875 614.10546875 C-1969.57824332 618.55774788 -1974.3764923 623.14453487 -1979.0703125 627.921875 C-1981.05737813 629.87227891 -1983.10570105 631.66350167 -1985.25 633.4375 C-1986.219375 634.283125 -1987.18875 635.12875 -1988.1875 636 C-1988.1875 636.66 -1988.1875 637.32 -1988.1875 638 C-1988.77917969 638.25394531 -1989.37085938 638.50789062 -1989.98046875 638.76953125 C-1992.4305973 640.13553212 -1993.7234582 641.52936211 -1995.5 643.6875 C-1998.45375615 647.19748296 -2001.56949935 650.40496642 -2004.90234375 653.5546875 C-2006.4089964 654.92675739 -2006.4089964 654.92675739 -2006.1875 657 C-2007.1775 657.33 -2008.1675 657.66 -2009.1875 658 C-2011.07500903 659.78770869 -2011.07500903 659.78770869 -2012.875 661.9375 C-2013.49761719 662.64777344 -2014.12023438 663.35804688 -2014.76171875 664.08984375 C-2016.38688765 665.86985816 -2016.38688765 665.86985816 -2016.1875 668 C-2016.8475 668 -2017.5075 668 -2018.1875 668 C-2021.21267909 671.05558423 -2021.21267909 671.05558423 -2022.1875 675 C-2022.8475 675 -2023.5075 675 -2024.1875 675 C-2027.21267909 678.05558423 -2027.21267909 678.05558423 -2028.1875 682 C-2028.8475 682 -2029.5075 682 -2030.1875 682 C-2032.00378776 683.94375954 -2032.00378776 683.94375954 -2033.8125 686.375 C-2034.44414063 687.18710937 -2035.07578125 687.99921875 -2035.7265625 688.8359375 C-2037.37400808 690.84109879 -2037.37400808 690.84109879 -2037.1875 693 C-2037.8475 693 -2038.5075 693 -2039.1875 693 C-2040.5481009 694.48636758 -2040.5481009 694.48636758 -2041.8125 696.375 C-2042.25851562 697.00148438 -2042.70453125 697.62796875 -2043.1640625 698.2734375 C-2044.35746969 699.95222643 -2044.35746969 699.95222643 -2044.1875 702 C-2044.8475 702 -2045.5075 702 -2046.1875 702 C-2047.73097651 703.96777882 -2049.15433274 705.93781546 -2050.5625 708 C-2054.38556155 713.48914285 -2058.32379648 718.86471829 -2062.375 724.1875 C-2066.3170256 729.39837282 -2070.02421353 734.6586634 -2073.453125 740.2265625 C-2075.03326173 742.75335773 -2076.68413706 745.21833001 -2078.36547852 747.6784668 C-2125.68348725 817.21268114 -2159.71788233 896.53470821 -2234.12800598 1569.5375824 C-2234.18260146 1571.79725281 -2234.23815173 1574.05689632 -2234.29431152 1576.31652832 C-2234.32577271 1577.58395874 -2234.35723389 1578.85138916 -2234.38964844 1580.15722656 C-2234.4287735 1581.72443451 -2234.4287735 1581.72443451 -2234.46868896 1583.32330322 C-2236.54494581 1672.27816281 -2236.34406688 1761.30388499 -2236.32279981 1850.27717633 C-2236.32042062 1860.44104396 -2236.32022911 1870.60491002 -2236.32131577 1880.76877785 C-2236.32139215 1881.51039811 -2236.32146854 1882.25201836 -2236.32154724 1883.01611196 C-2236.32185902 1886.03345133 -2236.32217746 1889.0507907 -2236.322507 1892.06813006 C-2236.32553042 1920.0972171 -2236.32285761 1948.12630089 -2236.3174101 1976.15538742 C-2236.31288016 1999.63843027 -2236.31279962 2023.12146819 -2236.31741667 2046.60451102 C-2236.3321377 2121.61952756 -2236.34447563 2196.63463815 -2235.3793726 2498.3480444 C-2235.2180289 2530.09223335 -2235.07728311 2561.83647611 -2234.94775391 2593.58081055 C-2234.94330852 2594.66943166 -2234.93886313 2595.75805278 -2234.93428303 2596.87966241 C-2234.90448913 2604.18167108 -2234.87487402 2611.48368047 -2234.84536743 2618.78569031 C-2234.84135228 2619.77901813 -2234.83733712 2620.77234595 -2234.83320029 2621.79577461 C-2234.79298062 2631.75317211 -2234.75301265 2641.71057045 -2234.71403326 2651.6679729 C-2234.69829526 2655.67508526 -2234.68231679 2659.68219665 -2234.66629802 2663.68930791 C-2234.6589296 2665.54701917 -2234.65166702 2667.40473086 -2234.64452852 2669.26244303 C-2234.60709786 2678.99693963 -2234.56022043 2688.73129539 -2234.49430752 2698.46564484 C-2234.48854847 2699.3163551 -2234.48278942 2700.16706537 -2234.47685586 2701.04355473 C-2234.19529935 2741.03757205 -2233.21583047 2781.01937739 -2232.1875 2821 C-2232.16356029 2821.93394687 -2232.13962058 2822.86789373 -2232.11495543 2823.83014202 C-2231.44785996 2849.84722062 -2230.7309505 2875.86273997 -2229.98616105 2901.87770045 C-2229.80027666 2908.38589107 -2229.61911674 2914.89420266 -2229.44018555 2921.40258789 C-2228.42890641 2958.15188964 -2227.37836536 2994.89391281 -2225.640625 3031.6171875 C-2225.58093096 3032.88463995 -2225.52123692 3034.1520924 -2225.45973396 3035.4579525 C-2220.84743674 3132.14873698 -2209.51773902 3227.95854441 -2186.1875 3322 C-2186.00465454 3322.73891479 -2185.82180908 3323.47782959 -2185.63342285 3324.23913574 C-2167.38352598 3397.77510627 -2139.5520144 3469.58023849 -2101.1875 3535 C-2100.7145752 3535.81726562 -2100.24165039 3536.63453125 -2099.75439453 3537.4765625 C-2082.3331267 3567.56619412 -2062.05121948 3595.99441764 -2040.1875 3623 C-2039.51460937 3623.83660156 -2038.84171875 3624.67320312 -2038.1484375 3625.53515625 C-2033.84783854 3630.84444115 -2029.4571659 3636.07199134 -2025 3641.25 C-2024.53247314 3641.7968042 -2024.06494629 3642.3436084 -2023.58325195 3642.90698242 C-2012.89788761 3655.24667541 -2001.45359119 3666.89964855 -1989.89892578 3678.41894531 C-1987.78950343 3680.52293737 -1985.68557561 3682.63232035 -1983.58203125 3684.7421875 C-1982.21386265 3686.10969622 -1980.84538439 3687.4768952 -1979.4765625 3688.84375 C-1978.86181061 3689.46052612 -1978.24705872 3690.07730225 -1977.61367798 3690.71276855 C-1973.84565514 3694.46082507 -1969.95751718 3698.02034189 -1965.93339539 3701.49221802 C-1963.70973863 3703.41260204 -1961.54343022 3705.39265223 -1959.375 3707.375 C-1955.11004692 3711.21928245 -1950.7388915 3714.89526905 -1946.2734375 3718.50390625 C-1944.03810183 3720.31198156 -1941.81561795 3722.13112763 -1939.6015625 3723.96484375 C-1930.17202679 3731.74603489 -1920.47205694 3739.092396 -1910.57421875 3746.2668457 C-1908.90126912 3747.48168504 -1907.23232814 3748.70205488 -1905.56640625 3749.92651367 C-1888.398458 3762.51664809 -1870.44676432 3774.06188039 -1852.1875 3785 C-1851.2274707 3785.57540527 -1850.26744141 3786.15081055 -1849.27832031 3786.74365234 C-1814.73039829 3807.32384837 -1778.51925297 3825.06607622 -1741.1875 3840 C-1740.1970166 3840.39751465 -1739.2065332 3840.7950293 -1738.18603516 3841.20458984 C-1657.7759635 3873.2834192 -1572.7844126 3892.47410716 -1476.1875 3903 C-1475.34652771 3903.08638733 -1474.50555542 3903.17277466 -1473.63909912 3903.26177979 C-1375.01962346 3913.27418768 -1275.15135847 3915.58631679 -1140.1875 3920 C-1139.14615402 3920.03068321 -1138.10480804 3920.06136642 -1137.03190613 3920.09297943 C-1040.82294804 3922.91831229 -944.60010474 3925.02041261 -741.33115667 3925.261397 C-728.03771247 3925.2524402 -714.74427197 3925.24707417 -701.45082507 3925.24429273 C-604.16314651 3925.2233443 -506.88147287 3925.10046479 -362.63041687 3923.37120056 C-330.84563262 3922.95366 -299.06054853 3922.68414535 -267.27383423 3922.46570969 C-263.24114544 3922.43796741 -259.20846318 3922.40936872 -255.17578125 3922.38064575 C-216.04403933 3922.10251919 -176.91202185 3921.86676889 -137.7800293 3921.62719727 C-136.92227547 3921.62194515 -136.06452165 3921.61669303 -135.18077528 3921.61128175 C-132.57969452 3921.59535523 -129.97861374 3921.57943076 -127.37753296 3921.56350708 C-126.51971944 3921.55825518 -125.66190592 3921.55300327 -124.77809805 3921.54759222 C-120.4678302 3921.52120787 -116.15756219 3921.49485147 -111.84729385 3921.46854782 C-49.61198751 3921.08865346 12.62225544 3920.64532502 74.85575867 3920.02925873 C77.7214239 3920.00090125 80.58709123 3919.97276238 83.45275879 3919.94464111 C223.07463105 3918.57073351 223.07463105 3918.57073351 761.8125 3853 C763.23190006 3852.53554204 764.65133341 3852.0711858 766.07080078 3851.60693359 C795.02633913 3842.10219513 823.107344 3830.70481819 850.8125 3818 C851.75416016 3817.56977539 852.69582031 3817.13955078 853.66601562 3816.69628906 C867.3870332 3810.396424 880.64597497 3803.38198009 893.8125 3796 C894.71564941 3795.49678223 895.61879883 3794.99356445 896.54931641 3794.47509766 C908.60434989 3787.74756236 920.34796079 3780.69031604 931.8125 3773 C932.65925293 3772.43410156 933.50600586 3771.86820313 934.37841797 3771.28515625 C947.447457 3762.53010039 960.24906648 3753.46584588 972.8125 3744 C973.41352539 3743.54818359 974.01455078 3743.09636719 974.63378906 3742.63085938 C992.06313583 3729.49072649 1008.90938724 3715.52810912 1024.8984375 3700.66796875 C1027.0668459 3698.68268331 1029.25501839 3696.7530766 1031.48266602 3694.83691406 C1035.8295129 3691.0376929 1039.92874361 3687.02831414 1044.00390625 3682.94140625 C1044.75284653 3682.1934227 1045.5017868 3681.44543915 1046.27342224 3680.67478943 C1047.84521225 3679.10367536 1049.41575849 3677.53131608 1050.98510742 3675.95776367 C1053.36851304 3673.56900154 1055.75721068 3671.18562554 1058.14648438 3668.80273438 C1059.68261237 3667.2659455 1061.21843009 3665.7288464 1062.75390625 3664.19140625 C1063.45826309 3663.48907364 1064.16261993 3662.78674103 1064.88832092 3662.06312561 C1068.8611203 3658.07175662 1072.66171682 3653.98206298 1076.33644104 3649.71417236 C1078.24391886 3647.49898594 1080.21518001 3645.34496114 1082.1875 3643.1875 C1086.03300182 3638.92119411 1089.70981266 3634.548307 1093.3203125 3630.08203125 C1095.11643609 3627.86080631 1096.92258536 3625.65099623 1098.7421875 3623.44921875 C1158.58261731 3550.82769916 1202.40126214 3465.30330298 1271.8125 3195 C1271.94378296 3194.06685974 1272.07506592 3193.13371948 1272.21032715 3192.17230225 C1280.72604256 3131.35975316 1285.39393662 3070.09139396 1288.23828125 3008.76953125 C1288.26911828 3008.10778499 1288.29995531 3007.44603873 1288.33172679 3006.76423955 C1290.23809661 2965.75058341 1291.38395959 2924.70883694 1292.58779073 2883.66983116 C1292.80867252 2876.15337522 1293.03437525 2868.63707564 1293.26293945 2861.12084961 C1294.07316576 2834.45793602 1294.84475744 2807.7942542 1295.56410116 2781.12872612 C1295.72263507 2775.26372363 1295.88550209 2769.39886902 1296.05312443 2763.53411943 C1298.26894991 2685.92982829 1298.09297483 2608.31923954 1298.01560301 2530.69099355 C1298.00255086 2517.53544139 1297.99393067 2504.37989181 1297.98773193 2491.22433472 C1297.94248739 2397.73423381 1297.85843845 2304.24391551 1296.97058213 2162.65812063 C1296.84949001 2144.87105066 1296.73764168 2127.08393149 1296.62984993 2109.29677667 C1296.59121392 2102.92196667 1296.55247581 2096.54715728 1296.51371765 2090.17234802 C1296.5071788 2089.09681206 1296.5071788 2089.09681206 1296.50050785 2087.9995481 C1296.02131212 2009.22260582 1295.50560221 1930.4458366 1293.27463758 1662.00853527 C1293.25009353 1659.26047175 1293.22557371 1656.51240802 1293.2010622 1653.76434422 C1292.29746692 1552.35347835 1292.29746692 1552.35347835 1291.28111768 1450.94369411 C1291.25078397 1448.07797048 1291.22062544 1445.21224503 1291.19047356 1442.34651947 C1290.88999773 1413.89473497 1290.57234226 1385.44396029 1289.8125 1357 C1289.78434204 1355.93231384 1289.75618408 1354.86462769 1289.72717285 1353.7645874 C1287.04729655 1253.57633324 1279.38907913 1153.45662546 1229.48571777 935.07574463 C1228.80083733 932.96404028 1228.12278727 930.85024324 1227.44628906 928.73583984 C1211.94334503 880.36486462 1192.18826498 832.51248112 1166.37597656 788.66210938 C1164.79300974 785.96681422 1163.23476469 783.25834127 1161.6796875 780.546875 C1153.64564861 766.63161245 1144.89072401 753.25368244 1135.8125 740 C1135.2777002 739.21786133 1134.74290039 738.43572266 1134.19189453 737.62988281 C1123.37525079 721.88186326 1111.72366489 706.71064534 1099.70947266 691.8605957 C1097.11489468 688.65160788 1094.61004966 685.40515266 1092.1875 682.0625 C1091.40375 681.051875 1090.62 680.04125 1089.8125 679 C1089.1525 679 1088.4925 679 1087.8125 679 C1087.52375 678.401875 1087.235 677.80375 1086.9375 677.1875 C1085.76507974 674.80672208 1085.76507974 674.80672208 1083.8125 672 C1083.1525 672 1082.4925 672 1081.8125 672 C1081.44125 671.1646875 1081.44125 671.1646875 1081.0625 670.3125 C1079.58325182 667.57589087 1077.87782561 665.32349131 1075.8125 663 C1075.1525 663 1074.4925 663 1073.8125 663 C1073.54179687 662.4121875 1073.27109375 661.824375 1072.9921875 661.21875 C1070.35102708 656.25126948 1065.9885405 651.72860759 1061.8125 648 C1061.1525 648 1060.4925 648 1059.8125 648 C1059.57080078 647.4337793 1059.32910156 646.86755859 1059.08007812 646.28417969 C1057.56154183 643.5477726 1055.74098119 641.66930662 1053.53125 639.453125 C1052.26861328 638.18662109 1052.26861328 638.18662109 1050.98046875 636.89453125 C1049.65982422 635.58548828 1049.65982422 635.58548828 1048.3125 634.25 C1046.99185547 632.91775391 1046.99185547 632.91775391 1045.64453125 631.55859375 C1044.38189453 630.29982422 1044.38189453 630.29982422 1043.09375 629.015625 C1042.32095703 628.24508789 1041.54816406 627.47455078 1040.75195312 626.68066406 C1038.98831471 624.78170431 1038.98831471 624.78170431 1036.8125 625 C1036.4825 624.01 1036.1525 623.02 1035.8125 622 C1034.35909265 620.48785024 1034.35909265 620.48785024 1032.5 619 C1029.83823966 616.75368683 1027.22725924 614.47611858 1024.68359375 612.09765625 C1024.14710205 611.59685547 1023.61061035 611.09605469 1023.05786133 610.58007812 C1021.98545985 609.57570151 1020.91622791 608.56792897 1019.8503418 607.55664062 C1017.26494069 604.83520014 1017.26494069 604.83520014 1013.8125 604 C1013.8125 603.34 1013.8125 602.68 1013.8125 602 C1011.67331378 599.98963215 1011.67331378 599.98963215 1009 597.9375 C1008.10667969 597.22464844 1007.21335937 596.51179687 1006.29296875 595.77734375 C1003.86656627 593.85385108 1003.86656627 593.85385108 1000.8125 593 C1000.8125 592.34 1000.8125 591.68 1000.8125 591 C998.7227773 589.20460444 996.63407918 587.52938558 994.4375 585.875 C993.83421875 585.40707031 993.2309375 584.93914062 992.609375 584.45703125 C989.55515059 581.86385761 989.55515059 581.86385761 985.8125 581 C985.8125 580.34 985.8125 579.68 985.8125 579 C984.17000045 577.5033671 984.17000045 577.5033671 982.0078125 575.98828125 C981.20206787 575.39901855 980.39632324 574.80975586 979.56616211 574.20263672 C978.69870361 573.5788916 977.83124512 572.95514648 976.9375 572.3125 C975.61794312 571.3536792 975.61794312 571.3536792 974.27172852 570.37548828 C971.79047826 568.57633471 969.30344618 566.78569815 966.8125 565 C965.92377197 564.36223633 965.03504395 563.72447266 964.11938477 563.06738281 C952.73942532 554.93900786 941.01373016 547.22356342 929.0546875 539.9765625 C926.75344562 538.57363673 924.46951755 537.15619301 922.1953125 535.7109375 C906.22421948 525.57159598 889.8658084 516.1953672 872.8125 508 C871.86294434 507.54093262 870.91338867 507.08186523 869.93505859 506.60888672 C862.57196612 503.04920052 855.19560492 499.51796045 847.8125 496 C847.07080566 495.64518555 846.32911133 495.29037109 845.56494141 494.92480469 C801.27086884 473.75851032 754.2253989 457.59090078 706.8125 445 C705.59518188 444.67512604 705.59518188 444.67512604 704.35327148 444.34368896 C617.13061454 421.10773133 527.74345205 409.96010633 437.8125 404 C436.51203735 403.91361267 435.21157471 403.82722534 433.8717041 403.73822021 C364.03739874 399.1651525 294.00597209 397.46099003 224.06713593 395.20232683 C219.44415947 395.05297696 214.82122034 394.90252099 210.19830322 394.75134277 C208.98976999 394.71188915 207.78123676 394.67243553 206.53608131 394.63178635 C204.37629418 394.5612528 202.21651212 394.49056364 200.0567379 394.41963577 C152.42850571 392.86750233 104.7957928 391.74258359 57.14892578 390.95654297 C55.85768977 390.93508448 54.56645376 390.913626 53.23608938 390.89151725 C-0.48962014 390.00124189 -54.21252514 389.58119869 -107.94538053 389.41759982 C-116.90146607 389.3903036 -125.85753433 389.35942861 -134.81360245 389.32693863 C-210.12538117 389.05525604 -285.43732072 388.93610702 -541.74208227 388.87053707 C-567.97128548 388.87511943 -594.20048435 388.87418781 -620.4296875 388.86962891 C-651.58563816 388.86423039 -682.74158628 388.86216865 -713.89753735 388.86524117 C-717.23135511 388.86556153 -720.56517287 388.86587438 -723.89899063 388.86618423 C-724.71861868 388.86626331 -725.53824673 388.86634239 -726.38271199 388.86642386 C-737.68498916 388.86746379 -748.98726461 388.86659825 -760.28954156 388.86419798 C-826.28770439 388.8503797 -892.27811741 388.87509278 -958.26977468 389.93746352 Z " fill="#FFFFFF" transform="translate(2640.1875,2)"/>
<path d="M0 0 C3.3198031 0.00564416 6.63960108 0.00846209 9.95940781 0.0110817 C40.48193115 0.04609853 70.91440956 0.19870732 101.32735825 3.06482315 C104.15199547 3.33055758 106.97753559 3.58474479 109.80331039 3.83807755 C209.70088943 12.91855474 307.7069665 35.72867571 465.01913071 98.31805801 C465.75772324 98.65748428 466.49631577 98.99691055 467.25728989 99.34662247 C485.76935914 107.85794173 504.07998956 116.64502416 522.01913071 126.31805801 C523.36176987 127.03590469 523.36176987 127.03590469 524.73153305 127.76825333 C539.3693909 135.59774446 553.73518066 143.86243771 568.01913071 152.31805801 C568.97287582 152.88153946 569.92662094 153.4450209 570.90926743 154.02557755 C573.63625356 155.63914255 576.35978475 157.25833986 579.08163071 158.88055801 C579.88423325 159.35686661 580.68683578 159.8331752 581.51375961 160.32391739 C584.94726294 162.38211635 588.29076466 164.47118646 591.51522446 166.84540176 C593.90755842 168.59380199 596.31124137 170.05686915 598.92928696 171.44305801 C606.43818081 175.52063032 613.4015765 180.51433871 620.45663071 185.31805801 C621.21646255 185.83383408 621.9762944 186.34961014 622.75915146 186.88101578 C633.27999675 194.02348457 643.74003106 201.23138933 653.9620018 208.79803848 C656.24116418 210.4821193 658.53006408 212.15244459 660.81991196 213.82196426 C675.30779677 224.40640713 689.32206379 235.49614724 703.21493149 246.84589005 C704.80186117 248.14077312 706.39261807 249.4309628 707.98397446 250.72040176 C718.15631697 258.98076213 728.09657625 267.50826428 737.80038071 276.31415176 C739.81221464 278.13117783 741.84573504 279.91750194 743.89413071 281.69305801 C748.76711193 285.94354263 753.52184002 290.32171282 758.27289963 294.70726395 C759.39666919 295.74387437 760.52132434 296.779526 761.64707565 297.81398392 C771.72041624 307.0775156 781.4837113 316.62621535 791.14706039 326.31561661 C793.54076901 328.71474532 795.93985952 331.10840072 798.33944321 333.50165176 C799.88924353 335.05211207 801.43873406 336.6028821 802.98788071 338.15399551 C803.69215195 338.85624252 804.39642319 339.55848953 805.12203598 340.28201675 C809.07806023 344.25660303 812.85147388 348.33496628 816.51516342 352.58050919 C818.18317423 354.50757918 819.90533426 356.37146121 821.66756821 358.21258926 C822.57986191 359.17225601 822.57986191 359.17225601 823.51058578 360.15130997 C824.13215561 360.80446182 824.75372543 361.45761368 825.39413071 362.13055801 C830.47648608 367.50707301 835.30307225 372.95681391 839.91366196 378.74383926 C842.19113917 381.5283615 844.58225079 384.17219605 847.01913071 386.81805801 C851.43660769 391.62850074 855.58852658 396.59776189 859.68661118 401.68085098 C861.20134674 403.54193869 862.73584856 405.38563008 864.27303696 407.22821426 C871.6804556 416.12082447 878.76690493 425.18266882 885.65047836 434.4850502 C887.71536709 437.25051302 889.83700639 439.96928956 891.95663071 442.69305801 C908.17180192 463.65635397 923.24170535 485.61602449 937.50301743 507.94452286 C938.97296225 510.24577948 940.45086942 512.54177021 941.92928696 514.83758926 C960.89544029 544.43502315 978.12858678 575.11435924 994.06148911 606.43854141 C995.05373341 608.38597106 996.05020015 610.33119565 997.04745102 612.27606583 C1034.94342896 686.25852527 1063.58594274 765.13674063 1061.63631821 1447.93524551 C1050.44230767 1482.40040145 1037.59053395 1516.14356991 1023.01913071 1549.31805801 C1022.73463058 1549.96849075 1022.45013046 1550.61892349 1022.15700912 1551.28906631 C1007.93196983 1583.8041654 992.49900735 1616.05376146 974.54207993 1646.68231583 C972.86191615 1649.59014657 971.23561127 1652.52408982 969.61678696 1655.46649551 C962.41371467 1668.55182725 954.81257528 1681.26702912 946.66219711 1693.78412247 C944.31484248 1697.40421069 942.00434769 1701.04742551 939.69076157 1704.68915176 C933.32454418 1714.70104439 926.91250594 1724.65890901 920.01913071 1734.31805801 C919.13939202 1735.5674723 918.26056719 1736.81753029 917.38241196 1738.06805801 C911.36423066 1746.63123637 905.2825028 1755.14497413 899.12020493 1763.60516739 C898.59829575 1764.32381973 898.07638657 1765.04247208 897.53866196 1765.78290176 C897.07564682 1766.41832901 896.61263168 1767.05375626 896.13558578 1767.70843887 C894.95273711 1769.33226584 894.95273711 1769.33226584 894.01913071 1771.31805801 C893.35913071 1771.31805801 892.69913071 1771.31805801 892.01913071 1771.31805801 C891.68913071 1772.63805801 891.35913071 1773.95805801 891.01913071 1775.31805801 C890.35913071 1775.31805801 889.69913071 1775.31805801 889.01913071 1775.31805801 C888.74077377 1775.90578995 888.46241684 1776.49352188 888.17562485 1777.09906387 C887.09123965 1779.17970079 885.92142206 1780.94903094 884.51522446 1782.82196426 C884.02618637 1783.47487442 883.53714828 1784.12778458 883.03329086 1784.80047989 C882.51299301 1785.48690567 881.99269516 1786.17333145 881.45663071 1786.88055801 C880.6529808 1787.94693497 880.6529808 1787.94693497 879.83309555 1789.03485489 C876.00165838 1794.09166675 872.05423712 1799.02662364 867.99178696 1803.90008926 C865.60180071 1806.82959716 863.3852388 1809.86310662 861.21053696 1812.95477676 C860.81737289 1813.40465958 860.42420883 1813.85454239 860.01913071 1814.31805801 C859.35913071 1814.31805801 858.69913071 1814.31805801 858.01913071 1814.31805801 C857.70975571 1814.93680801 857.40038071 1815.55555801 857.08163071 1816.19305801 C856.39413071 1817.56805801 855.70663071 1818.94305801 855.01913071 1820.31805801 C854.35913071 1820.31805801 853.69913071 1820.31805801 853.01913071 1820.31805801 C852.74584946 1820.9090126 852.47256821 1821.49996719 852.19100571 1822.1088295 C851.05583434 1824.24886402 849.86164258 1825.85086076 848.26913071 1827.66571426 C847.48022446 1828.57353653 847.48022446 1828.57353653 846.67538071 1829.49969864 C846.12881821 1830.12038223 845.58225571 1830.74106583 845.01913071 1831.38055801 C843.93432339 1832.62015505 842.85093488 1833.8609955 841.76913071 1835.10321426 C841.28959946 1835.64856827 840.81006821 1836.19392227 840.31600571 1836.75580215 C838.82301328 1838.49886326 838.82301328 1838.49886326 837.01913071 1841.31805801 C836.35913071 1841.31805801 835.69913071 1841.31805801 835.01913071 1841.31805801 C834.75100571 1841.90071426 834.48288071 1842.48337051 834.20663071 1843.08368301 C833.0043208 1845.34592402 831.68087158 1847.12382119 830.01913071 1849.06805801 C829.50350571 1849.68165176 828.98788071 1850.29524551 828.45663071 1850.92743301 C827.01913071 1852.31805801 827.01913071 1852.31805801 825.01913071 1852.31805801 C824.62661118 1853.18624161 824.62661118 1853.18624161 824.22616196 1854.07196426 C822.94620332 1856.45376432 821.50557016 1858.24122448 819.70663071 1860.25555801 C819.13299789 1860.90395645 818.55936508 1861.55235489 817.96834946 1862.22040176 C814.92674954 1865.49362653 811.73594507 1868.61146763 808.55428696 1871.74774551 C802.97213088 1877.26317194 802.97213088 1877.26317194 797.76913071 1883.13055801 C795.1606103 1886.27547839 792.16454132 1888.70803644 789.01913071 1891.31805801 C787.32824849 1893.29762744 785.66082599 1895.29750997 784.01913071 1897.31805801 C781.33163071 1900.19305801 781.33163071 1900.19305801 779.01913071 1902.31805801 C778.35913071 1902.31805801 777.69913071 1902.31805801 777.01913071 1902.31805801 C777.01913071 1902.97805801 777.01913071 1903.63805801 777.01913071 1904.31805801 C775.62069321 1905.72821426 775.62069321 1905.72821426 773.64413071 1907.38055801 C766.06744965 1913.82679288 758.67033696 1920.40106855 751.83163071 1927.63055801 C750.01913071 1929.31805801 750.01913071 1929.31805801 748.01913071 1929.31805801 C747.68913071 1930.30805801 747.35913071 1931.29805801 747.01913071 1932.31805801 C745.12850571 1933.96649551 745.12850571 1933.96649551 742.76913071 1935.69305801 C739.22338041 1938.36214249 736.12134088 1941.13630399 733.01913071 1944.31805801 C731.63546137 1945.60212469 730.23874391 1946.87222559 728.83163071 1948.13055801 C727.82036118 1949.03741348 727.82036118 1949.03741348 726.78866196 1949.96258926 C725.01913071 1951.31805801 725.01913071 1951.31805801 723.01913071 1951.31805801 C723.01913071 1951.97805801 723.01913071 1952.63805801 723.01913071 1953.31805801 C721.28866196 1954.87665176 721.28866196 1954.87665176 718.83163071 1956.75555801 C714.78277001 1959.90845234 710.84358309 1963.15679904 706.95663071 1966.50555801 C699.79864545 1972.63445385 692.29552216 1978.29389603 684.78011703 1983.97357559 C683.36939535 1985.05063705 681.97799131 1986.1529814 680.59334946 1987.26337051 C646.3954835 2014.55939099 609.5554871 2038.91487903 572.01913071 2061.31805801 C571.27969223 2061.76165665 570.54025375 2062.20525528 569.77840805 2062.6622963 C548.62633391 2075.33971267 526.98301509 2087.11338687 505.01913071 2098.31805801 C503.95734604 2098.86139786 503.95734604 2098.86139786 502.87411118 2099.41571426 C499.09902433 2101.3427542 495.30647839 2103.231449 491.5010643 2105.09784317 C489.62959363 2106.01793076 487.76053751 2106.94293194 485.89266586 2107.87030411 C413.64790784 2143.69622737 336.43956389 2171.30081152 250.01913071 2191.31805801 C248.89719315 2191.57008987 248.89719315 2191.57008987 247.75259018 2191.82721329 C168.2070568 2209.64002607 87.4353657 2218.80516786 5.93481827 2218.63611603 C3.15243599 2218.63044761 0.37005987 2218.62764479 -2.41232681 2218.62503433 C-31.36236799 2218.58561388 -60.13530747 2217.96984025 -88.98086929 2215.31805801 C-89.92857193 2215.23320145 -90.87627457 2215.14834488 -91.85269547 2215.0609169 C-179.52776554 2207.19718248 -265.21235671 2188.96031807 -445.98086929 2123.31805801 C-447.88822119 2122.47645835 -449.79576117 2121.63528475 -451.70352554 2120.79462051 C-461.30235945 2116.54367029 -470.7422714 2112.04476322 -480.09366226 2107.27557755 C-481.91680644 2106.35056183 -483.74590531 2105.43897796 -485.57852554 2104.53290176 C-507.4828018 2093.69736878 -529.43619798 2082.67484878 -550.30899429 2069.93524551 C-553.21223306 2068.17802205 -556.13739763 2066.46138463 -559.06607437 2064.74701309 C-567.10444887 2060.04099992 -575.08041128 2055.25322476 -582.98086929 2050.31805801 C-583.80844742 2049.80372208 -584.63602554 2049.28938614 -585.48868179 2048.75946426 C-604.75204556 2036.65192685 -623.66280213 2023.81412263 -641.98086929 2010.31805801 C-648.01857524 2005.88030204 -654.04780475 2001.52652931 -660.39883804 1997.54462051 C-661.18194351 1996.93747208 -661.18194351 1996.93747208 -661.98086929 1996.31805801 C-661.98086929 1995.65805801 -661.98086929 1994.99805801 -661.98086929 1994.31805801 C-662.68856461 1994.0847377 -663.39625992 1993.85141739 -664.12540054 1993.61102676 C-667.52530294 1992.07153607 -669.85662143 1990.08192164 -672.66836929 1987.63055801 C-677.31138882 1983.62925664 -682.07766914 1980.05348453 -687.21524429 1976.69305801 C-687.79790054 1976.23930801 -688.38055679 1975.78555801 -688.98086929 1975.31805801 C-688.98086929 1974.65805801 -688.98086929 1973.99805801 -688.98086929 1973.31805801 C-689.82004898 1972.94487442 -689.82004898 1972.94487442 -690.67618179 1972.56415176 C-693.3729983 1971.1060425 -695.50803931 1969.35373428 -697.85586929 1967.38055801 C-701.13610266 1964.64629042 -704.42833226 1961.95347247 -707.81290054 1959.34930801 C-708.45308121 1958.85551651 -709.09326187 1958.36172501 -709.75284195 1957.85297012 C-711.01835249 1956.88020769 -712.28750937 1955.91216856 -713.56045914 1954.94916153 C-715.07023686 1953.78439738 -716.5308364 1952.55640728 -717.98086929 1951.31805801 C-717.98086929 1950.65805801 -717.98086929 1949.99805801 -717.98086929 1949.31805801 C-718.84711929 1948.91587051 -718.84711929 1948.91587051 -719.73086929 1948.50555801 C-722.03636972 1947.28876612 -724.00143122 1946.01471922 -725.98086929 1944.31805801 C-725.98086929 1943.65805801 -725.98086929 1942.99805801 -725.98086929 1942.31805801 C-726.53774429 1942.07055801 -727.09461929 1941.82305801 -727.66836929 1941.56805801 C-730.40497843 1940.08880983 -732.65737799 1938.38338362 -734.98086929 1936.31805801 C-734.98086929 1935.65805801 -734.98086929 1934.99805801 -734.98086929 1934.31805801 C-735.53774429 1934.07055801 -736.09461929 1933.82305801 -736.66836929 1933.56805801 C-741.50321391 1930.95462849 -745.12731953 1927.17160778 -748.98086929 1923.31805801 C-750.84620228 1921.74089756 -752.7254889 1920.18541232 -754.62540054 1918.65008926 C-755.07270523 1918.21051895 -755.52000992 1917.77094864 -755.98086929 1917.31805801 C-755.98086929 1916.65805801 -755.98086929 1915.99805801 -755.98086929 1915.31805801 C-756.97086929 1914.98805801 -757.96086929 1914.65805801 -758.98086929 1914.31805801 C-760.70570147 1912.68871694 -762.34084133 1911.02957157 -763.98086929 1909.31805801 C-765.23783578 1908.06524 -766.49831255 1906.81593864 -767.76138687 1905.56927872 C-771.61622241 1901.74997468 -775.46499823 1897.92462603 -779.31167984 1894.09711075 C-780.97332921 1892.44559637 -782.63675773 1890.79587023 -784.30191422 1889.147892 C-786.70607735 1886.76785328 -789.10384222 1884.38153225 -791.50040054 1881.99383926 C-792.25029755 1881.25426483 -793.00019455 1880.5146904 -793.7728157 1879.75270462 C-794.45740356 1879.06826782 -795.14199142 1878.38383102 -795.84732437 1877.67865372 C-796.45401459 1877.07640472 -797.0607048 1876.47415573 -797.68577957 1875.85365677 C-798.98086929 1874.31805801 -798.98086929 1874.31805801 -798.98086929 1872.31805801 C-799.64086929 1872.31805801 -800.30086929 1872.31805801 -800.98086929 1872.31805801 C-802.42618179 1870.84930801 -802.42618179 1870.84930801 -804.10586929 1868.81805801 C-806.62344831 1865.8512844 -809.20255906 1863.04231552 -811.98086929 1860.31805801 C-822.41982278 1850.00119755 -822.41982278 1850.00119755 -823.98086929 1845.31805801 C-824.64086929 1845.31805801 -825.30086929 1845.31805801 -825.98086929 1845.31805801 C-830.98086929 1839.84186754 -830.98086929 1839.84186754 -830.98086929 1837.31805801 C-831.64086929 1837.31805801 -832.30086929 1837.31805801 -832.98086929 1837.31805801 C-834.33469078 1835.83067566 -835.61226815 1834.27375251 -836.85586929 1832.69305801 C-840.48216853 1828.15726894 -844.18393619 1823.7118072 -847.98086929 1819.31805801 C-855.34560062 1810.76101886 -862.4725855 1802.04891471 -869.32559586 1793.07684708 C-871.79245668 1789.8494823 -874.29835046 1786.66141976 -876.85586929 1783.50555801 C-886.14982142 1771.93477425 -894.81133698 1759.8896322 -903.30020523 1747.72137833 C-905.12625084 1745.11016494 -906.96355553 1742.50707048 -908.80118179 1739.90399551 C-917.36750852 1727.72969926 -925.56791894 1715.37796247 -933.45694351 1702.75458145 C-934.8131806 1700.5861665 -936.17784293 1698.42346486 -937.54727554 1696.26337051 C-940.05421338 1692.29933902 -942.52585402 1688.31443475 -944.98086929 1684.31805801 C-945.51760269 1683.4443959 -946.05433609 1682.5707338 -946.60733414 1681.67059708 C-974.98190119 1635.31104092 -1000.18862234 1586.5486782 -1020.98086929 1536.31805801 C-1021.25932693 1535.64577164 -1021.53778458 1534.97348526 -1021.82468033 1534.28082657 C-1054.66894106 1454.82093153 -1078.22697127 1372.50512471 -1051.72830582 763.58575821 C-1050.99135226 761.34986303 -1050.25800279 759.11280745 -1049.52481461 756.8756752 C-1035.50645191 714.23415389 -1018.18964937 672.86869586 -998.98086929 632.31805801 C-998.39955968 631.08649344 -997.81834325 629.85488488 -997.23721695 628.6232338 C-990.09614316 613.50779007 -982.63245186 598.6395696 -974.48282242 584.03680801 C-972.91928254 581.20657717 -971.39121988 578.35953832 -969.87149429 575.50555801 C-962.04084853 560.81393522 -953.68028506 546.51076684 -944.98086929 532.31805801 C-944.40175797 531.36560196 -943.82264664 530.4131459 -943.22598648 529.43182755 C-935.22090606 516.27997535 -926.7939604 503.44309403 -918.16836929 490.69305801 C-917.68617935 489.97989426 -917.20398941 489.2667305 -916.70718765 488.53195572 C-908.05456714 475.75281149 -899.14767036 463.17172922 -889.98086929 450.75555801 C-889.38620865 449.94965225 -888.791548 449.14374649 -888.17886734 448.31341934 C-883.19793363 441.58019597 -878.13207516 434.92195403 -872.98086929 428.31805801 C-872.56305191 427.77939102 -872.14523453 427.24072403 -871.71475601 426.6857338 C-860.68545001 412.46733067 -849.20264218 398.63126175 -837.43985367 385.01532364 C-835.97051381 383.30601128 -834.51323058 381.58710602 -833.05899429 379.86493301 C-826.65018453 372.29185083 -820.01245623 364.98201711 -813.20743179 357.76337051 C-810.6396316 355.03573031 -808.14013415 352.25838864 -805.66836929 349.44305801 C-800.74366347 343.91551626 -795.46019708 338.74472279 -790.18277359 333.55682755 C-786.80089921 330.2159243 -783.53662242 326.85562132 -780.45743179 323.23212051 C-777.55999394 319.8593411 -774.43111909 317.00194079 -771.04727554 314.12665176 C-767.3392739 310.88127414 -763.93199364 307.33204437 -760.48086929 303.81805801 C-755.75411502 299.00520621 -750.98059846 294.35164082 -745.86465836 289.95233536 C-744.08898571 288.41185419 -742.36031687 286.8352865 -740.64493179 285.22821426 C-740.13833023 284.7544838 -739.63172867 284.28075333 -739.10977554 283.79266739 C-738.08106682 282.82674998 -737.05514995 281.85785293 -736.03165054 280.88641739 C-732.20098458 277.31805801 -732.20098458 277.31805801 -729.98086929 277.31805801 C-729.98086929 276.65805801 -729.98086929 275.99805801 -729.98086929 275.31805801 C-728.40800245 273.90367395 -726.76946934 272.562014 -725.10586929 271.25555801 C-721.29251367 268.20779936 -717.58278121 265.1130546 -713.98086929 261.81805801 C-708.80577 257.11342229 -703.41945732 252.71287662 -697.98086929 248.31805801 C-696.76144412 247.31888144 -695.54273352 246.31883236 -694.32461929 245.31805801 C-678.61823077 232.43775965 -662.38443205 220.2923908 -645.98086929 208.31805801 C-645.18938492 207.73959122 -644.39790054 207.16112442 -643.58243179 206.56512833 C-634.50956519 199.94267938 -625.37627067 193.47795693 -615.98086929 187.31805801 C-614.29696285 186.18546614 -612.61309598 185.05281469 -610.93008804 183.91888809 C-593.95494574 172.51201048 -576.61162573 161.67977145 -558.98086929 151.31805801 C-558.00698257 150.74474747 -557.03309586 150.17143692 -556.02969742 149.58075333 C-517.96611044 127.23490621 -478.61546741 106.60612403 -437.98086929 89.31805801 C-437.27460403 89.01724319 -436.56833878 88.71642838 -435.84067154 88.40649796 C-385.20932851 66.88565189 -333.4302508 48.8911385 -280.21951675 34.90863419 C-278.12047463 34.35488721 -276.02346609 33.79416507 -273.92715836 33.23016739 C-188.0079468 10.21569997 -98.43952049 0.04613804 0 0 Z M-81.98086929 395.63055801 C-82.86974838 395.73887955 -83.75862747 395.84720108 -84.67444229 395.95880508 C-100.54190946 397.90103474 -116.30176604 400.16631711 -131.98086929 403.31805801 C-132.72620926 403.46781082 -133.47154922 403.61756363 -134.23947525 403.7718544 C-224.75854783 422.07074615 -311.9544419 456.26147243 -397.22598648 513.48993301 C-401.07721637 516.04558787 -405.01493173 518.45688674 -408.96573257 520.85516739 C-409.63072769 521.3379213 -410.29572281 521.8206752 -410.98086929 522.31805801 C-410.98086929 522.97805801 -410.98086929 523.63805801 -410.98086929 524.31805801 C-411.68211929 524.56555801 -412.38336929 524.81305801 -413.10586929 525.06805801 C-416.37601477 526.4898604 -419.12199129 528.1905209 -421.98086929 530.31805801 C-421.98086929 530.97805801 -421.98086929 531.63805801 -421.98086929 532.31805801 C-422.70661148 532.56813614 -423.43235367 532.81821426 -424.18008804 533.07587051 C-427.23387412 534.43026936 -429.26346799 536.0177413 -431.79336929 538.19305801 C-437.29804399 542.83055793 -443.01539374 547.116321 -448.8492775 551.33124161 C-450.59487006 552.61377811 -452.29294686 553.96051939 -453.98086929 555.31805801 C-453.98086929 555.97805801 -453.98086929 556.63805801 -453.98086929 557.31805801 C-454.57327408 557.59278946 -455.16567886 557.8675209 -455.77603531 558.15057755 C-457.88594317 559.26779373 -459.46767175 560.43179891 -461.25821304 561.99774551 C-461.85440445 562.51465958 -462.45059586 563.03157364 -463.06485367 563.56415176 C-463.67651382 564.10169083 -464.28817398 564.63922989 -464.91836929 565.19305801 C-466.1351554 566.25371356 -467.35259164 567.31362378 -468.57071304 568.37274551 C-469.14805191 568.87773575 -469.72539078 569.38272598 -470.32022476 569.90301895 C-471.81411033 571.17596231 -473.36538617 572.38080802 -474.92227554 573.57587051 C-475.60161148 574.15079239 -476.28094742 574.72571426 -476.98086929 575.31805801 C-476.98086929 575.97805801 -476.98086929 576.63805801 -476.98086929 577.31805801 C-477.54290054 577.56555801 -478.10493179 577.81305801 -478.68399429 578.06805801 C-481.37179498 579.53080669 -483.44492412 581.28610674 -485.73086929 583.31805801 C-486.53008804 584.01930801 -487.32930679 584.72055801 -488.15274429 585.44305801 C-490.21356934 587.1202723 -490.21356934 587.1202723 -489.98086929 589.31805801 C-490.53774429 589.54493301 -491.09461929 589.77180801 -491.66836929 590.00555801 C-494.63105535 591.68708253 -496.59588039 593.88453736 -498.98086929 596.31805801 C-499.86387711 597.1778627 -500.74688492 598.03766739 -501.65665054 598.92352676 C-502.52676773 599.77559708 -503.39688492 600.62766739 -504.29336929 601.50555801 C-505.17637711 602.3653627 -506.05938492 603.22516739 -506.96915054 604.11102676 C-509.2054189 606.06669156 -509.2054189 606.06669156 -508.98086929 608.31805801 C-509.64086929 608.31805801 -510.30086929 608.31805801 -510.98086929 608.31805801 C-512.34263851 609.96157259 -513.67048995 611.63328458 -514.98086929 613.31805801 C-517.15600776 615.55198401 -519.37862145 617.73025256 -521.60977554 619.90790176 C-529.62691736 627.22327393 -529.62691736 627.22327393 -534.98086929 636.31805801 C-535.64086929 636.31805801 -536.30086929 636.31805801 -536.98086929 636.31805801 C-538.58720944 638.05197753 -540.11839799 639.85614901 -541.60586929 641.69305801 C-542.83176773 643.18965958 -542.83176773 643.18965958 -544.08243179 644.71649551 C-546.17735898 647.05055686 -546.17735898 647.05055686 -545.98086929 649.31805801 C-546.64086929 649.31805801 -547.30086929 649.31805801 -547.98086929 649.31805801 C-549.94068218 651.5721371 -551.78487693 653.83131411 -553.60586929 656.19305801 C-554.12149429 656.84403458 -554.63711929 657.49501114 -555.16836929 658.16571426 C-558.00551833 661.38312475 -558.00551833 661.38312475 -558.98086929 665.31805801 C-559.64086929 665.31805801 -560.30086929 665.31805801 -560.98086929 665.31805801 C-562.37886121 666.82878885 -562.37886121 666.82878885 -563.78165054 668.84149551 C-564.34013687 669.60623184 -564.8986232 670.37096817 -565.47403336 671.15887833 C-566.07441422 671.99515762 -566.67479507 672.83143692 -567.29336929 673.69305801 C-567.91566422 674.54996231 -568.53795914 675.40686661 -569.17911148 676.2897377 C-570.47797408 678.08002632 -571.77398812 679.87238469 -573.06729507 681.66669083 C-574.85094994 684.13804727 -576.64586077 686.60067197 -578.44571304 689.06024551 C-585.20628379 698.31993741 -591.76296408 707.68479208 -597.98086929 717.31805801 C-598.36774918 717.91698868 -598.75462906 718.51591934 -599.15323257 719.13299942 C-645.68244871 791.56547671 -679.92150195 872.32058142 -711.98086929 1058.31805801 C-712.06771988 1059.50802383 -712.15457047 1060.69798965 -712.24405289 1061.92401505 C-713.24354187 1076.70490862 -713.22653198 1091.50965874 -713.23086929 1106.31805801 C-713.23131115 1107.01110031 -713.23175301 1107.70414261 -713.23220825 1108.41818619 C-713.24033905 1132.81901964 -712.5406579 1157.03677567 -709.98086929 1181.31805801 C-709.89601273 1182.1275087 -709.81115616 1182.93695938 -709.72372818 1183.77093887 C-702.26360681 1254.00381591 -684.99091245 1323.41209265 -656.98086929 1388.31805801 C-656.48506363 1389.46902969 -655.98925797 1390.62000137 -655.47842789 1391.80585098 C-630.44257651 1449.54384567 -598.53527849 1504.26192454 -558.98086929 1553.31805801 C-558.22290054 1554.25907364 -557.46493179 1555.20008926 -556.68399429 1556.16962051 C-548.76795407 1565.91027993 -540.70542752 1575.53148532 -532.24649429 1584.80633926 C-530.35517412 1586.90309594 -528.49435075 1589.01993696 -526.64102554 1591.15008926 C-517.66716749 1601.42251173 -508.16954859 1611.22138839 -498.54336929 1620.88055801 C-497.81077896 1621.61774063 -497.07818863 1622.35492325 -496.32339859 1623.11444473 C-492.30293011 1627.12350569 -488.1859763 1630.95227055 -483.88541031 1634.65863419 C-480.90396576 1637.2563625 -478.04452011 1639.98008423 -475.16836929 1642.69305801 C-470.18021793 1647.36040435 -465.08488049 1651.80750659 -459.75040054 1656.07977676 C-457.21297955 1658.13047102 -454.72685059 1660.22661559 -452.24942398 1662.34857559 C-445.87970194 1667.8014437 -439.35712355 1672.99571137 -432.66006851 1678.04217911 C-431.01576269 1679.29154553 -429.38985056 1680.56176176 -427.76602554 1681.83758926 C-418.22710137 1689.24922495 -408.21949911 1695.94178294 -398.16836929 1702.63055801 C-397.45322159 1703.10650406 -396.73807388 1703.5824501 -396.00125504 1704.07281876 C-359.54883356 1728.29994803 -321.40800698 1750.35958868 -280.98086929 1767.31805801 C-280.01455582 1767.72588516 -279.04824234 1768.13371231 -278.05264664 1768.55389786 C-198.82419237 1801.84612431 -114.66461712 1821.49074758 3.33163071 1825.50555801 C5.1118512 1825.50465164 5.1118512 1825.50465164 6.92803574 1825.50372696 C25.70740969 1825.47786201 44.31011487 1825.05975238 63.01913071 1823.31805801 C63.71687607 1823.25489395 64.41462143 1823.19172989 65.13351059 1823.12665176 C142.37750073 1816.12902801 218.54447255 1797.65530372 435.01913071 1681.31805801 C436.23243209 1680.3997717 437.44596481 1679.48179095 438.65975571 1678.56415176 C452.85520672 1667.784102 466.5864825 1656.33481413 479.77694321 1644.34540176 C481.73121495 1642.57838602 483.70972808 1640.84892272 485.70663071 1639.13055801 C496.18494388 1629.96203399 506.16215639 1620.27160621 516.01913071 1610.44305801 C516.90302475 1609.56375626 517.78691879 1608.6844545 518.6975975 1607.77850723 C523.10889957 1603.35673497 527.37653861 1598.87486462 531.44588852 1594.13641739 C533.85261622 1591.35471225 536.37808869 1588.68798141 538.89413071 1586.00555801 C543.38102528 1581.18223378 547.64202083 1576.23649823 551.76522446 1571.09540176 C553.73329869 1568.67027042 555.75201306 1566.30044312 557.79745102 1563.94061661 C565.01675603 1555.57742607 571.57458404 1546.74024199 578.13582993 1537.85712051 C579.9073644 1535.46874113 581.69613839 1533.09458463 583.49178696 1530.72430801 C603.24600998 1504.51382673 620.56424475 1476.2603363 636.01913071 1447.31805801 C636.54329575 1446.33675919 637.06746078 1445.35546036 637.60750961 1444.3444252 C678.25148754 1367.87765407 704.26983031 1285.36190422 720.01913071 1156.31805801 C720.1141185 1155.03946915 720.20910629 1153.76088028 720.3069725 1152.4435463 C721.31600614 1137.71244649 721.21942258 1122.95140486 721.20663071 1108.19305801 C721.20636383 1107.50392193 721.20609695 1106.81478584 721.20582199 1106.10476685 C721.19577832 1085.44661971 721.05255925 1064.89547075 719.01913071 1044.31805801 C718.88890977 1042.95738214 718.75870194 1041.59670501 718.62850571 1040.23602676 C710.73049486 959.05863101 689.48231365 880.52132046 655.44393539 806.42157364 C654.2321877 803.78213967 653.03305949 801.13759094 651.83944321 798.48993301 C646.93547826 787.71814611 641.26446682 777.3893955 635.52303696 767.0451088 C634.10716863 764.47769821 632.71476153 761.89931356 631.33163071 759.31415176 C619.29461148 736.90719118 605.30847464 715.65415048 590.73397446 694.82977676 C589.01913071 692.31805801 589.01913071 692.31805801 588.01913071 690.31805801 C587.35913071 690.31805801 586.69913071 690.31805801 586.01913071 690.31805801 C585.78581039 689.62196426 585.55249008 688.92587051 585.31209946 688.20868301 C583.77087635 684.76304828 581.66690393 681.99736147 579.33163071 679.06805801 C578.88319809 678.49595596 578.43476547 677.92385391 577.97274399 677.33441544 C577.07240388 676.1863448 576.16977696 675.04006341 575.26473618 673.89569473 C573.62544764 671.81943395 572.01047195 669.72470914 570.39413071 667.63055801 C564.48894427 660.06367957 558.47495724 652.60786264 552.24691391 645.30463028 C549.85641306 642.49998108 547.48886164 639.68110461 545.16366196 636.82196426 C544.70846176 636.26492813 544.25326157 635.707892 543.78426743 635.13397598 C542.52383166 633.5879836 541.26935646 632.03713723 540.01522446 630.48602676 C539.35651352 629.77059708 538.69780258 629.05516739 538.01913071 628.31805801 C537.35913071 628.31805801 536.69913071 628.31805801 536.01913071 628.31805801 C535.64788071 627.47501114 535.64788071 627.47501114 535.26913071 626.61493301 C533.80638203 623.92713233 532.05108198 621.85400319 530.01913071 619.56805801 C529.31788071 618.76883926 528.61663071 617.96962051 527.89413071 617.14618301 C526.21691642 615.08535797 526.21691642 615.08535797 524.01913071 615.31805801 C524.01913071 614.65805801 524.01913071 613.99805801 524.01913071 613.31805801 C523.35913071 613.31805801 522.69913071 613.31805801 522.01913071 613.31805801 C521.77219467 612.7451503 521.52525864 612.17224258 521.27083969 611.58197403 C519.81866286 608.95547983 518.12872411 607.20144802 515.99178696 605.09540176 C515.19965805 604.30971817 514.40752914 603.52403458 513.59139633 602.71454239 C512.76317368 601.90307755 511.93495102 601.0916127 511.08163071 600.25555801 C510.25727524 599.44022598 509.43291977 598.62489395 508.58358383 597.78485489 C507.05141908 596.27011524 505.51720988 594.75743879 503.98031235 593.24750137 C502.75682065 592.04380974 501.553844 590.81844973 500.38412094 589.56244278 C499.08064335 588.09348967 499.08064335 588.09348967 497.01913071 588.31805801 C496.77034164 587.7341127 496.52155258 587.15016739 496.26522446 586.54852676 C494.84417634 584.00489518 493.28720156 582.52398103 491.08163071 580.63055801 C490.04715805 579.72756973 490.04715805 579.72756973 488.99178696 578.80633926 C486.98911099 577.13087041 486.98911099 577.13087041 484.01913071 576.31805801 C483.68913071 575.32805801 483.35913071 574.33805801 483.01913071 573.31805801 C479.53977598 569.67792734 479.53977598 569.67792734 475.01913071 568.31805801 C475.01913071 567.65805801 475.01913071 566.99805801 475.01913071 566.31805801 C471.96354648 563.29287892 471.96354648 563.29287892 468.01913071 562.31805801 C468.01913071 561.65805801 468.01913071 560.99805801 468.01913071 560.31805801 C466.42918956 558.85887838 464.76925498 557.47556447 463.08163071 556.13055801 C462.08389633 555.33391739 461.08616196 554.53727676 460.05819321 553.71649551 C459.05530258 552.92501114 458.05241196 552.13352676 457.01913071 551.31805801 C455.70041977 550.25458145 455.70041977 550.25458145 454.35506821 549.16962051 C450.60717878 545.6966701 450.60717878 545.6966701 446.01913071 544.31805801 C446.01913071 543.65805801 446.01913071 542.99805801 446.01913071 542.31805801 C444.05328976 540.64422936 444.05328976 540.64422936 441.45663071 538.88055801 C439.95036118 537.81321426 439.95036118 537.81321426 438.41366196 536.72430801 C437.865327 536.33758926 437.31699203 535.95087051 436.75204086 535.55243301 C434.32667129 533.82480994 431.93488419 532.05309565 429.54085922 530.28241348 C422.13453067 524.80846078 414.63653413 519.49572369 407.01913071 514.31805801 C406.44759262 513.92795547 405.87605453 513.53785294 405.28719711 513.13592911 C396.41884899 507.09474711 387.36671328 501.41231483 378.18709946 495.85712051 C374.78251991 493.79369255 371.42331299 491.66978591 368.08163071 489.50555801 C364.72652444 487.35173068 361.33418465 485.35619416 357.82381821 483.46649551 C354.23844975 481.52650638 350.66730093 479.56720003 347.11678696 477.56415176 C333.48819045 469.93256964 319.53031909 463.26109391 305.31307602 456.81805801 C302.02209389 455.31940739 298.74524909 453.792525 295.46834946 452.26337051 C254.81365055 433.48836924 211.65329271 419.29176592 168.01913071 409.31805801 C166.92262192 409.0636293 165.82611313 408.80920059 164.6963768 408.54706192 C138.7639758 402.57660525 112.5123522 398.13258763 86.08163071 395.06805801 C84.79506577 394.91707657 83.50850082 394.76609512 82.18294907 394.61053848 C77.79843117 394.12871139 73.41290848 393.70512867 69.01913071 393.31805801 C68.03064133 393.23052261 67.04215195 393.14298721 66.02370834 393.05279922 C46.8817455 391.4159006 27.85953147 391.00034413 8.66268539 391.05731583 C4.79435525 391.06870942 0.9263004 391.06191215 -2.94202042 391.05044651 C-29.44451171 390.9836713 -55.66001177 392.376049 -81.98086929 395.63055801 Z " fill="#FFFFFF" transform="translate(2167.980869293213,1050.681941986084)"/>
<path d="M0 0 C1.04027344 0.69480469 2.08054687 1.38960937 3.15234375 2.10546875 C11.26547504 7.55602663 18.6706983 13.55117415 26 20 C26.87527344 20.763125 27.75054688 21.52625 28.65234375 22.3125 C38.64617759 31.1538064 47.7809153 40.48537639 56 51 C57.00899557 52.25660599 58.01811822 53.51310994 59.02734375 54.76953125 C67.37528364 65.2889151 74.36264207 76.33923891 81 88 C81.37463379 88.6408252 81.74926758 89.28165039 82.13525391 89.94189453 C115.11601518 146.38527152 122.07238136 219.73507247 105.93383789 282.48510742 C96.57698167 317.14863266 81.61542622 349.03373574 59.30419922 377.29296875 C57.89833318 379.13306897 56.59449227 381.02779252 55.28515625 382.9375 C54.15400391 384.4534375 54.15400391 384.4534375 53 386 C52.34 386 51.68 386 51 386 C50.71125 386.598125 50.4225 387.19625 50.125 387.8125 C49 390 49 390 47 393 C46.34 393 45.68 393 45 393 C44.77570312 393.55042969 44.55140625 394.10085938 44.3203125 394.66796875 C39.8276854 402.60317106 30.92035236 409.16494275 24 415 C23.17757812 415.72316406 22.35515625 416.44632813 21.5078125 417.19140625 C-29.48436981 461.19158573 -97.67307363 481.96656335 -164.47265625 477.6875 C-211.49617376 474.0561885 -258.5254501 457.97546642 -296.4375 429.625 C-297.06148682 429.1616626 -297.68547363 428.6983252 -298.32836914 428.22094727 C-299.59888204 427.27681946 -300.8683514 426.33128558 -302.13671875 425.38427734 C-303.95745763 424.03160577 -305.7892122 422.69543252 -307.625 421.36328125 C-308.72929994 420.55486953 -309.83347342 419.74628501 -310.9375 418.9375 C-311.91589844 418.22464844 -312.89429687 417.51179688 -313.90234375 416.77734375 C-314.59457031 416.19082031 -315.28679688 415.60429688 -316 415 C-316 414.34 -316 413.68 -316 413 C-316.556875 412.7525 -317.11375 412.505 -317.6875 412.25 C-322.61843308 409.58463077 -325.93967204 405.96909072 -329.46484375 401.72265625 C-331.13758253 399.76029021 -331.13758253 399.76029021 -334 397.5 C-337.40194 394.66505 -340.42953243 391.61870789 -343 388 C-343 387.34 -343 386.68 -343 386 C-343.66 386 -344.32 386 -345 386 C-346.30932617 384.59814453 -346.30932617 384.59814453 -347.79296875 382.6328125 C-348.33735596 381.91706055 -348.88174316 381.20130859 -349.44262695 380.46386719 C-350.01843506 379.69204102 -350.59424316 378.92021484 -351.1875 378.125 C-351.77684326 377.34286133 -352.36618652 376.56072266 -352.97338867 375.75488281 C-357.10370564 370.25235426 -361.20842656 364.74339327 -365 359 C-365.58523437 358.11441406 -366.17046875 357.22882813 -366.7734375 356.31640625 C-387.00515578 324.56499532 -400.33604729 289.21076626 -406 252 C-406.11714355 251.23574707 -406.23428711 250.47149414 -406.35498047 249.68408203 C-409.9889153 224.53811697 -409.0287281 198.00798658 -405 173 C-404.8443457 172.02369629 -404.68869141 171.04739258 -404.52832031 170.04150391 C-394.57340338 110.46102801 -361.06680546 52.04230879 -313 15 C-311.72464385 13.98514935 -310.44995307 12.9694622 -309.17578125 11.953125 C-299.25409453 4.11378196 -289.00739303 -2.77975574 -278 -9 C-276.70497559 -9.73283203 -276.70497559 -9.73283203 -275.38378906 -10.48046875 C-191.37130703 -57.41886086 -79.65735695 -56.54199306 0 0 Z " fill="#FFFFFF" transform="translate(3470,791)"/>
</svg>
