<?xml version="1.0" encoding="UTF-8"?>
<svg version="1.1" xmlns="http://www.w3.org/2000/svg" width="512" height="512">
<path d="M0 0 C0.76961463 -0.00350607 1.53922926 -0.00701215 2.33216554 -0.01062447 C4.90822152 -0.01992024 7.48405054 -0.01501987 10.06011581 -0.01015663 C11.92685402 -0.01389381 13.79359065 -0.0184956 15.66032481 -0.02388728 C20.7882035 -0.03612433 25.91601697 -0.03585597 31.04390693 -0.03349853 C36.57507188 -0.03309054 42.10621587 -0.04412778 47.63737106 -0.05361366 C58.47334581 -0.07022851 69.3092988 -0.07572343 80.14528522 -0.07683842 C88.95318956 -0.07778866 97.76108673 -0.08189777 106.5689888 -0.08823967 C127.47642707 -0.10298719 148.38386146 -0.11528926 169.29130554 -0.11424255 C169.95980172 -0.1142114 170.62829791 -0.11418024 171.31705155 -0.11414814 C174.705185 -0.11398192 178.09331845 -0.11378384 181.4814519 -0.11357872 C182.49077508 -0.11351889 182.49077508 -0.11351889 183.52048862 -0.11345784 C184.88122022 -0.11337697 186.24195182 -0.11329337 187.60268342 -0.11320706 C208.77079301 -0.1119817 229.93883852 -0.1269925 251.10692978 -0.15435219 C274.89546123 -0.1850862 298.68395681 -0.20225855 322.47251296 -0.20042574 C335.06567022 -0.19976167 347.65875521 -0.20526183 360.2518959 -0.22678185 C370.97386783 -0.24498682 381.69573472 -0.24934654 392.4177154 -0.235763 C397.88742005 -0.22922996 403.35692314 -0.22912847 408.82660866 -0.2464695 C413.83674006 -0.26219009 418.84650991 -0.25934672 423.85663244 -0.24190123 C425.66616441 -0.23882914 427.47572329 -0.24247161 429.28522351 -0.25362138 C443.16687668 -0.33347163 454.77635235 1.0595812 465.09472275 11.25726891 C474.33148708 22.31308967 474.53209917 33.77053289 474.4824028 47.47662926 C474.48657802 49.34652034 474.49205658 51.21640888 474.49872261 53.08629274 C474.51317092 58.21354665 474.50893439 63.34063973 474.5015558 68.46790242 C474.496825 74.00172575 474.50933314 79.53551424 474.51957321 85.0693264 C474.5367676 95.90570531 474.53759997 106.74202626 474.53236031 117.57841527 C474.52831896 126.38533833 474.52976175 135.19224425 474.53510857 143.99916649 C474.53585699 145.25258722 474.53660541 146.50600794 474.53737651 147.79741111 C474.53890798 150.34370673 474.54044633 152.89000234 474.54199148 155.43629795 C474.55181965 172.53144643 474.55598452 189.62658912 474.54836559 206.72173882 C474.54791983 207.7240607 474.54791983 207.7240607 474.54746507 208.74663151 C474.54501621 214.17277099 474.54240459 219.59891039 474.53978093 225.02504978 C474.52967699 246.19346935 474.53803792 267.36180961 474.56127548 288.53021812 C474.58735034 312.32167856 474.60014607 336.11309775 474.59308773 359.90457678 C474.58959281 372.4987538 474.59184574 385.09286568 474.60933876 397.6870327 C474.62404366 408.40682311 474.62471842 419.12650251 474.60726785 429.84629071 C474.59874188 435.31575746 474.59664745 440.78502574 474.6119194 446.25448227 C474.62572843 451.26196876 474.62105199 456.26908602 474.60168017 461.27655095 C474.59790827 463.08733074 474.60087628 464.89813983 474.61129182 466.7088936 C474.70437636 484.13157003 474.70437636 484.13157003 470.09472275 491.25726891 C469.63920184 491.97209356 469.18368093 492.68691821 468.71435636 493.42340422 C462.03830008 503.42811282 451.54828587 509.39887232 440.09472275 512.25726891 C437.41244187 512.43546819 434.83829168 512.52665817 432.15986156 512.50895119 C431.38706058 512.51185807 430.6142596 512.51476495 429.8180404 512.51775992 C427.23118716 512.5250527 424.64457165 512.51811994 422.05772018 512.51123619 C420.18329436 512.5135409 418.30886943 512.51671749 416.43444639 512.52069068 C411.28550645 512.5290458 406.13664057 512.52491013 400.98770034 512.51871824 C395.43414104 512.51419774 389.88059457 512.5211755 384.32703781 512.52667809 C373.4486191 512.53557784 362.57022796 512.53364753 351.69180816 512.5278528 C342.85239716 512.52333885 334.0129939 512.52272226 325.17358208 512.52490044 C323.28758222 512.52536014 323.28758222 512.52536014 321.36348136 512.52582912 C318.80936848 512.52646856 316.25525561 512.52711699 313.70114274 512.5277743 C290.42687088 512.53331657 267.15261519 512.52756605 243.87834675 512.51708911 C222.62974462 512.50759677 201.38116647 512.50844816 180.13256454 512.51801109 C156.26021403 512.52871893 132.38787674 512.53293105 108.51552302 512.52678657 C105.97103123 512.52614945 103.42653944 512.52552071 100.88204765 512.52490044 C99.63005078 512.52459189 98.3780539 512.52428333 97.08811773 512.52396543 C88.25677363 512.52223712 79.42543802 512.52515651 70.59409523 512.52985954 C59.83540378 512.53546294 49.07674152 512.53396328 38.31805342 512.52329805 C32.82674755 512.51803423 27.3354904 512.51599673 21.84418488 512.52259636 C16.82021786 512.52854312 11.79634484 512.52530176 6.77238638 512.51464126 C4.95217883 512.51240183 3.13196339 512.51355561 1.31176089 512.51839283 C-1.1576922 512.5244535 -3.62682116 512.51825744 -6.09625721 512.50895119 C-6.80686703 512.51363352 -7.51747684 512.51831585 -8.24962029 512.52314007 C-16.46766478 512.4610262 -21.93314289 509.62024557 -27.90527725 504.25726891 C-38.24402603 493.42055287 -38.48976401 480.79474536 -38.41994095 466.7036953 C-38.42527145 464.82183951 -38.43234003 462.93998798 -38.440988 461.05814451 C-38.45957531 455.90695495 -38.45332378 450.75605366 -38.44283497 445.60485232 C-38.43583191 440.041685 -38.45184929 434.47857624 -38.46483231 428.91542625 C-38.48645882 418.02482631 -38.48634887 407.13433091 -38.47820676 396.24371655 C-38.47190346 387.39109623 -38.47304684 378.53850638 -38.47947884 369.68588638 C-38.48038049 368.42527672 -38.48128215 367.16466706 -38.48221112 365.86585711 C-38.48406235 363.30483075 -38.48592491 360.7438044 -38.48779868 358.18277805 C-38.49966609 340.99202103 -38.50408115 323.80127569 -38.49286366 306.61051846 C-38.49242568 305.93876297 -38.49198771 305.26700749 -38.49153647 304.57489578 C-38.48792988 299.1202569 -38.48409499 293.66561818 -38.48024554 288.21097946 C-38.46539822 266.9347764 -38.47417941 245.65870172 -38.50220108 224.38251305 C-38.53364676 200.46098775 -38.54852553 176.53953794 -38.53840107 152.61798471 C-38.53737853 150.06614555 -38.53638392 147.51430638 -38.53541756 144.96246719 C-38.53494117 143.70696632 -38.53446478 142.45146545 -38.53397395 141.1579191 C-38.53181085 132.31830587 -38.54160837 123.47875249 -38.55618858 114.63915253 C-38.5737151 103.86311307 -38.57358976 93.08724807 -38.55083693 82.31121547 C-38.53969793 76.81499733 -38.53652486 71.31908652 -38.55513763 65.8228817 C-38.57197026 60.78748801 -38.56555333 55.75266904 -38.54092085 50.71731239 C-38.53604636 48.89981099 -38.53952914 47.08226298 -38.55240829 45.26480068 C-38.63752719 32.31432193 -37.41631101 20.93092648 -27.99121475 11.07367516 C-19.57629172 3.74607364 -11.2286379 -0.0654489 0 0 Z M52.09472275 69.25726891 C51.38187119 69.65430016 50.66901962 70.05133141 49.9345665 70.46039391 C37.96820315 77.52837674 31.43586885 87.23383059 27.09472275 100.25726891 C25.71353273 115.1626906 27.72625048 127.26744795 37.09472275 139.25726891 C37.57296494 139.87344078 38.05120712 140.48961266 38.5439415 141.12445641 C46.04572826 149.62774115 58.11544806 154.35094959 69.1845665 155.46820641 C82.17580006 156.07900581 94.05761064 151.35842962 103.58691025 142.73773766 C105.65778898 140.70441372 107.46884593 138.6635666 109.09472275 136.25726891 C109.09472275 135.26726891 109.09472275 134.27726891 109.09472275 133.25726891 C109.75472275 133.25726891 110.41472275 133.25726891 111.09472275 133.25726891 C117.80225373 119.77708527 118.6556776 107.58610562 114.09472275 93.25726891 C111.90368979 87.53136945 108.64512095 82.41763298 104.09472275 78.25726891 C103.43472275 78.25726891 102.77472275 78.25726891 102.09472275 78.25726891 C102.09472275 77.59726891 102.09472275 76.93726891 102.09472275 76.25726891 C101.43472275 76.25726891 100.77472275 76.25726891 100.09472275 76.25726891 C99.59972275 74.77226891 99.59972275 74.77226891 99.09472275 73.25726891 C98.10472275 73.25726891 97.11472275 73.25726891 96.09472275 73.25726891 C96.09472275 72.59726891 96.09472275 71.93726891 96.09472275 71.25726891 C91.41851993 68.70553387 87.45182093 66.91057356 82.09472275 66.25726891 C81.59972275 65.76226891 81.59972275 65.76226891 81.09472275 65.25726891 C66.04510014 64.31799515 66.04510014 64.31799515 52.09472275 69.25726891 Z M235.77441025 219.52289391 C232.88714398 222.46908398 230.398319 225.48589861 228.083004 228.89398766 C227.75687119 229.34387047 227.43073837 229.79375328 227.09472275 230.25726891 C226.76472275 230.25726891 226.43472275 230.25726891 226.09472275 230.25726891 C225.76472275 219.03726891 225.43472275 207.81726891 225.09472275 196.25726891 C202.98472275 196.25726891 180.87472275 196.25726891 158.09472275 196.25726891 C158.09472275 276.11726891 158.09472275 355.97726891 158.09472275 438.25726891 C181.85472275 438.25726891 205.61472275 438.25726891 230.09472275 438.25726891 C230.0483165 429.63344078 230.00191025 421.00961266 229.95409775 412.12445641 C229.93101979 405.91751866 229.9105221 399.71061372 229.89370728 393.5036602 C229.87166386 385.49174407 229.84381738 377.47999709 229.79296494 369.46820641 C229.75268008 363.11822596 229.72719291 356.76837399 229.71836877 350.41826928 C229.71322302 347.0660823 229.69921276 343.7145496 229.67180252 340.36242867 C229.48108549 316.04317048 229.70866613 288.32092748 247.09472275 269.25726891 C259.67340182 258.03675285 274.59750996 256.47119234 290.72655869 257.07806969 C299.85098773 257.76851617 307.61141006 262.42336542 313.74316025 269.03461266 C328.44023541 287.27539884 327.70848265 310.99617464 327.70222759 333.14085817 C327.70539843 336.8484296 327.7311013 340.55585079 327.75420761 344.2633419 C327.79445676 351.25385263 327.81503429 358.24427083 327.82818151 365.23487937 C327.84715727 374.7025655 327.89725745 384.17008681 327.94542503 393.63766098 C328.02028985 408.51085487 328.05420676 423.38384982 328.09472275 438.25726891 C351.85472275 438.25726891 375.61472275 438.25726891 400.09472275 438.25726891 C400.1822658 410.71235984 400.1822658 410.71235984 400.24120712 383.16742516 C400.25894043 371.91884779 400.27967531 360.67033831 400.32104111 349.42181969 C400.35116605 341.22602011 400.37034988 333.03027613 400.37698823 324.83442271 C400.38086186 320.50430699 400.38981042 316.17435018 400.41191292 311.84428596 C400.56148176 281.3420111 399.05917798 253.94891921 385.09472275 226.25726891 C384.43472275 226.25726891 383.77472275 226.25726891 383.09472275 226.25726891 C382.99417587 225.67719078 382.893629 225.09711266 382.79003525 224.49945641 C380.71221578 217.79907228 373.42831781 212.49741624 368.09472275 208.25726891 C367.12534775 207.43226891 366.15597275 206.60726891 365.15722275 205.75726891 C361.531883 203.22606323 357.51785365 201.69232471 353.40722275 200.13226891 C352.77244003 199.89056969 352.13765732 199.64887047 351.48363876 199.39984703 C340.93733447 195.57007355 330.58626289 193.76171404 319.40722275 193.06976891 C318.22966415 192.98791344 317.05210556 192.90605797 315.83886337 192.82172203 C286.47353905 190.80296201 257.26906814 198.96898364 235.77441025 219.52289391 Z M36.09472275 196.25726891 C36.09472275 276.11726891 36.09472275 355.97726891 36.09472275 438.25726891 C59.85472275 438.25726891 83.61472275 438.25726891 108.09472275 438.25726891 C108.09472275 358.39726891 108.09472275 278.53726891 108.09472275 196.25726891 C84.33472275 196.25726891 60.57472275 196.25726891 36.09472275 196.25726891 Z " fill="#FEFEFE" transform="translate(37.905277252197266,-0.25726890563964844)"/>
<path d="" fill="#EAEAEA" transform="translate(0,0)"/>
</svg>
