<?xml version="1.0" encoding="UTF-8"?>
<svg version="1.1" xmlns="http://www.w3.org/2000/svg" width="512" height="512">
<path d="M0 0 C24.75 0 49.5 0 75 0 C75.33 40.26 75.66 80.52 76 122 C76.99 120.68 77.98 119.36 79 118 C79.66 118 80.32 118 81 118 C81.2475 117.443125 81.495 116.88625 81.75 116.3125 C84.02246317 112.10844313 86.92055728 109.00202294 90.5390625 105.93359375 C95.49715693 101.63196587 100.12118821 97.02561153 104.75 92.375 C105.58660156 91.54226562 106.42320312 90.70953125 107.28515625 89.8515625 C108.49751953 88.63726562 108.49751953 88.63726562 109.734375 87.3984375 C110.45850586 86.67317871 111.18263672 85.94791992 111.92871094 85.20068359 C114.09265689 82.97333322 114.09265689 82.97333322 116.14160156 80.22509766 C116.75487305 79.49081543 117.36814453 78.7565332 118 78 C118.66 78 119.32 78 120 78 C120.2475 77.443125 120.495 76.88625 120.75 76.3125 C123.02246317 72.10844313 125.92055728 69.00202294 129.5390625 65.93359375 C134.49715693 61.63196587 139.12118821 57.02561153 143.75 52.375 C144.58660156 51.54226562 145.42320312 50.70953125 146.28515625 49.8515625 C147.49751953 48.63726562 147.49751953 48.63726562 148.734375 47.3984375 C149.82057129 46.31054932 149.82057129 46.31054932 150.92871094 45.20068359 C153.08396442 42.98498495 153.08396442 42.98498495 155.07910156 40.28759766 C157 38 157 38 160 37 C165.28719938 42.26170483 170.57036385 47.52743654 175.85083008 52.79589844 C177.64516504 54.58522535 179.44039914 56.37365111 181.23657227 58.16113281 C183.82809373 60.74043351 186.41629299 63.32302923 189.00390625 65.90625 C189.79898087 66.69616333 190.59405548 67.48607666 191.41322327 68.29992676 C195.62497558 72.51126064 199.67447796 76.79927238 203.54698181 81.32556152 C205.27293811 83.31453019 207.10064002 85.17661442 209 87 C207.40584497 90.91209308 204.86106668 93.37218086 201.875 96.3125 C201.3792749 96.80177979 200.8835498 97.29105957 200.37280273 97.79516602 C197.0771948 101.02254852 193.66888868 104.06860615 190.16015625 107.05859375 C187.33117302 109.60109766 184.67230656 112.29457935 182 115 C178.77602207 118.26382932 175.56482126 121.46830164 172.0625 124.4375 C168.34042307 127.60009982 164.93133928 131.02970696 161.5 134.5 C157.51223443 138.53298474 153.48505092 142.39402465 149.15625 146.0625 C145.55529509 149.29814065 142.19978109 152.78072321 138.79711914 156.22241211 C135.2212784 159.82337218 131.57264443 163.26973953 127.68359375 166.53515625 C125.70082143 168.26030618 123.85843057 170.14156943 122 172 C162.92 172.33 203.84 172.66 246 173 C246 196.43 246 219.86 246 244 C204.75 244.33 163.5 244.66 121 245 C126.28 249.95 131.56 254.9 137 260 C141.18785149 264.14777636 145.36136842 268.30396335 149.5 272.5 C156.95666605 280.14964953 156.95666605 280.14964953 164.84375 287.34375 C171.93288547 293.40041651 178.32102819 300.26979857 184.87304688 306.89355469 C193.92016285 316.089617 193.92016285 316.089617 203.49804688 324.72290039 C205.44220393 326.37600272 207.23348146 328.15987652 209 330 C207.49158187 333.55480003 205.42366339 335.79559622 202.67578125 338.484375 C201.81146484 339.33773438 200.94714844 340.19109375 200.05664062 341.0703125 C199.15107422 341.95460938 198.24550781 342.83890625 197.3125 343.75 C191.95204934 349.0051909 186.6861719 354.24589331 181.79858398 359.94580078 C178.13868201 364.125849 174.25831393 368.09120474 170.375 372.0625 C169.54226563 372.94099609 168.70953125 373.81949219 167.8515625 374.72460938 C167.04203125 375.54896484 166.2325 376.37332031 165.3984375 377.22265625 C164.67317871 377.97297119 163.94791992 378.72328613 163.20068359 379.49633789 C161 381 161 381 158.22509766 380.73608398 C157.49081543 380.49317627 156.7565332 380.25026855 156 380 C156 379.34 156 378.68 156 378 C155.34 378 154.68 378 154 378 C154 377.34 154 376.68 154 376 C152.68 375.34 151.36 374.68 150 374 C150 373.34 150 372.68 150 372 C149.34 372 148.68 372 148 372 C148 371.34 148 370.68 148 370 C147.34 370 146.68 370 146 370 C146 369.34 146 368.68 146 368 C145.34 368 144.68 368 144 368 C144 367.34 144 366.68 144 366 C143.34 366 142.68 366 142 366 C142 365.34 142 364.68 142 364 C141.34 364 140.68 364 140 364 C140 363.34 140 362.68 140 362 C139.34 362 138.68 362 138 362 C138 361.34 138 360.68 138 360 C137.34 360 136.68 360 136 360 C136 359.34 136 358.68 136 358 C135.34 358 134.68 358 134 358 C134 357.34 134 356.68 134 356 C133.34 356 132.68 356 132 356 C130.4140625 354.390625 130.4140625 354.390625 128.625 352.25 C126.66242273 349.93096298 124.7411705 347.74780716 122.5625 345.625 C121 344 121 344 121 342 C119.68 341.34 118.36 340.68 117 340 C117 339.34 117 338.68 117 338 C116.01 337.67 115.02 337.34 114 337 C112.4921875 335.46875 112.4921875 335.46875 110.875 333.5 C105.9991275 327.75638748 100.84006167 322.26045724 94.9375 317.5625 C94.298125 317.046875 93.65875 316.53125 93 316 C93 315.34 93 314.68 93 314 C92.34 314 91.68 314 91 314 C91 313.34 91 312.68 91 312 C90.34 312 89.68 312 89 312 C89 311.34 89 310.68 89 310 C88.34 310 87.68 310 87 310 C87 309.34 87 308.68 87 308 C86.34 308 85.68 308 85 308 C85 307.34 85 306.68 85 306 C84.34 306 83.68 306 83 306 C81.58970642 304.56970215 81.58970642 304.56970215 79.93725586 302.56835938 C75.85521327 297.77120723 71.47041061 293.34375971 67.00390625 288.90625 C66.17036118 288.07411987 65.3368161 287.24198975 64.47801208 286.38464355 C61.84186738 283.75405065 59.20224895 281.12697559 56.5625 278.5 C54.76344021 276.70596145 52.9646098 274.91169285 51.16601562 273.1171875 C46.77999188 268.74212875 42.39111858 264.36994488 38 260 C34.27310105 261.55729226 31.90541253 263.84695494 29.06713867 266.68994141 C28.59012009 267.16506165 28.1131015 267.64018188 27.62162781 268.12969971 C26.04881626 269.69881312 24.48331429 271.27500365 22.91796875 272.8515625 C21.81980817 273.9509165 20.72127623 275.04989965 19.62239075 276.14852905 C17.31863417 278.45384932 15.01827238 280.76248659 12.72045898 283.07373047 C9.79381662 286.0172723 6.86072619 288.95427994 3.92524242 291.88900185 C1.65395656 294.16056161 -0.61469821 296.43473412 -2.88251305 298.70975876 C-3.96186413 299.79226514 -5.04179823 300.87419057 -6.12235451 301.95549393 C-12.91810088 308.72820339 -12.91810088 308.72820339 -19.34960938 315.84301758 C-24.85378232 322.26097394 -30.93410686 328.16262282 -36.88671875 334.16015625 C-37.54829294 334.82705412 -38.20986713 335.49395199 -38.89148903 336.18105888 C-42.3812574 339.6973754 -45.87456698 343.21013387 -49.37036133 346.72045898 C-52.26086055 349.62438792 -55.14388063 352.53545138 -58.02075195 355.45288086 C-61.50615569 358.9873972 -65.00348418 362.50967255 -68.50995827 366.023283 C-69.84230129 367.36235693 -71.17037131 368.70569626 -72.49408531 370.05330086 C-74.33705195 371.9276698 -76.19493357 373.78587686 -78.05737305 375.64086914 C-78.60238968 376.20229111 -79.14740631 376.76371307 -79.7089386 377.34214783 C-83.39566985 380.96858565 -83.39566985 380.96858565 -86.0723877 381.10772705 C-88.70215519 379.59649754 -90.62626706 377.77173913 -92.78442383 375.63549805 C-93.24503204 375.18335938 -93.70564026 374.7312207 -94.1802063 374.26538086 C-95.69703772 372.77190743 -97.20245193 371.26752796 -98.70703125 369.76171875 C-99.75716747 368.71868272 -100.80760202 367.67594697 -101.85832214 366.63349915 C-104.05652198 364.44873983 -106.24869849 362.25813732 -108.43725586 360.0637207 C-111.24628901 357.24877937 -114.07317252 354.45254805 -116.90526295 351.6608305 C-119.07827696 349.51362365 -121.23975968 347.35509477 -123.39807701 345.19312477 C-124.43598083 344.15691748 -125.47788764 343.12470406 -126.52378273 342.09656334 C-127.98187628 340.6605258 -129.42267725 339.2069931 -130.86254883 337.75268555 C-131.68765457 336.92963425 -132.51276031 336.10658295 -133.36286926 335.2585907 C-135 333 -135 333 -134.84843445 330.81233215 C-133.85841746 328.69756697 -132.82102679 327.45682144 -131 326 C-130.34 326 -129.68 326 -129 326 C-129 325.34 -129 324.68 -129 324 C-127.57299805 322.59423828 -127.57299805 322.59423828 -125.57421875 320.9453125 C-120.73348673 316.82839837 -116.27932051 312.390495 -111.8125 307.875 C-110.64170898 306.69744141 -110.64170898 306.69744141 -109.44726562 305.49609375 C-105.42026032 301.45016927 -105.42026032 301.45016927 -101.41870117 297.37915039 C-99.08948882 295.00272717 -97.10978129 293.26694793 -94 292 C-94 291.34 -94 290.68 -94 290 C-92.57299805 288.59423828 -92.57299805 288.59423828 -90.57421875 286.9453125 C-85.73348673 282.82839837 -81.27932051 278.390495 -76.8125 273.875 C-76.03197266 273.08996094 -75.25144531 272.30492187 -74.44726562 271.49609375 C-70.42026032 267.45016927 -70.42026032 267.45016927 -66.41870117 263.37915039 C-64.08948882 261.00272717 -62.10978129 259.26694793 -59 258 C-59 257.34 -59 256.68 -59 256 C-57.390625 254.4140625 -57.390625 254.4140625 -55.25 252.625 C-52.33368942 250.17313888 -49.71236597 247.71236597 -47 245 C-88.25 244.67 -129.5 244.34 -172 244 C-172 220.57 -172 197.14 -172 173 C-110.62 172.505 -110.62 172.505 -48 172 C-50.31 170.02 -52.62 168.04 -55 166 C-55 165.34 -55 164.68 -55 164 C-55.8353125 163.6596875 -55.8353125 163.6596875 -56.6875 163.3125 C-59.65837149 161.62632969 -61.60822958 159.44612884 -64 157 C-65.28520792 155.88832226 -66.57740526 154.78469401 -67.875 153.6875 C-70.74836324 151.2145678 -73.24589434 148.64907426 -75.6875 145.75 C-77.60955671 143.47650629 -78.92862835 142.04282299 -81.5 140.5 C-84.74195822 138.55482507 -86.68524914 135.99477498 -89.10546875 133.12109375 C-91.58287963 130.34741517 -94.322493 127.99439901 -97.15234375 125.58984375 C-99.56439486 123.51435791 -101.78090911 121.27906632 -104 119 C-104.7425 118.2575 -105.485 117.515 -106.25 116.75 C-107.84509513 115.15490487 -109.43269313 113.55209501 -111 111.9296875 C-114.70163519 108.13808201 -118.37301157 104.60835144 -122.625 101.4375 C-126.94181607 98.17523126 -131.05773315 94.58842257 -134 90 C-134 85.70542698 -133.88370528 85.36986925 -131.1875 82.4375 C-130.66542969 81.85871094 -130.14335937 81.27992187 -129.60546875 80.68359375 C-129.07566406 80.12800781 -128.54585937 79.57242188 -128 79 C-127.48050781 78.43410156 -126.96101563 77.86820312 -126.42578125 77.28515625 C-125 76 -125 76 -123 76 C-122.73115494 75.40551056 -122.46230988 74.81102112 -122.18531799 74.19851685 C-120.99566578 71.99196094 -119.81174391 70.57534655 -118.03491211 68.82373047 C-117.4376683 68.22986542 -116.8404245 67.63600037 -116.2250824 67.0241394 C-115.58232864 66.39484528 -114.93957489 65.76555115 -114.27734375 65.1171875 C-113.28632408 64.13397018 -113.28632408 64.13397018 -112.27528381 63.13088989 C-110.16738574 61.04078373 -108.05291634 58.95749438 -105.9375 56.875 C-103.8194003 54.7845016 -101.70276818 52.69256959 -99.58900452 50.59768677 C-98.27405934 49.29501617 -96.95645058 47.99502781 -95.63597107 46.69796753 C-95.04187943 46.1104068 -94.44778778 45.52284607 -93.83569336 44.91748047 C-93.04865273 44.14281937 -93.04865273 44.14281937 -92.24571228 43.35250854 C-90.8845757 41.99998436 -90.8845757 41.99998436 -90 40 C-89.34 40 -88.68 40 -88 40 C-87.67 39.01 -87.34 38.02 -87 37 C-83.35818477 37.57332346 -81.71572695 38.93129028 -79.1875 41.5625 C-78.24970703 42.52349609 -78.24970703 42.52349609 -77.29296875 43.50390625 C-76.07056835 44.83459425 -74.85442057 46.17223558 -73.68798828 47.55224609 C-67.40242581 54.95930721 -60.39920126 61.67275466 -53.5 68.5 C-39.12014718 82.7298767 -39.12014718 82.7298767 -35.51953125 86.98046875 C-29.85887127 93.65893654 -23.40449142 99.65912501 -17.1875 105.8125 C-14.5531071 108.42029246 -11.92205622 111.0313914 -9.29296875 113.64453125 C-8.6909111 114.23829056 -8.08885345 114.83204987 -7.46855164 115.44380188 C-5.03173908 117.8661854 -2.91227062 120.13159406 -1 123 C-0.67 82.41 -0.34 41.82 0 0 Z " fill="#FEFEFE" transform="translate(219,0)"/>
<path d="M0 0 C24.75 0 49.5 0 75 0 C75 55.44 75 110.88 75 168 C50.25 168 25.5 168 0 168 C0 112.56 0 57.12 0 0 Z " fill="#FEFEFE" transform="translate(218,344)"/>
<path d="" fill="#F4F4F4" transform="translate(0,0)"/>
</svg>
