<?xml version="1.0" encoding="UTF-8"?>
<svg version="1.1" xmlns="http://www.w3.org/2000/svg" width="1024" height="721">
<path d="M0 0 C9.68832242 0.01347062 19.37662239 0.01569517 29.06495291 0.01504987 C40.8430657 0.01437211 52.62116524 0.02129675 64.39927399 0.03049648 C67.72949117 0.03260544 71.05970615 0.03333439 74.38992393 0.03373539 C79.61846137 0.03474937 84.84696972 0.04093053 90.07549751 0.05090153 C91.97158525 0.05378288 93.86767633 0.05506097 95.76376617 0.054474 C106.96604984 0.05232031 118.11066902 0.33516887 129.29583633 0.96845162 C134.87394639 1.28333815 140.45148681 1.40225356 146.03733337 1.48184597 C147.09597091 1.5002554 148.15460845 1.51866482 149.24532592 1.53763211 C153.65402913 1.61422143 158.06284013 1.68331975 162.47165954 1.75284207 C173.72214221 1.93418072 184.95241131 2.14750875 196.18639648 2.80008328 C203.13233895 3.19750781 210.08045814 3.45877533 217.03342712 3.70059597 C218.80803566 3.76241055 218.80803566 3.76241055 220.61849487 3.8254739 C224.27759814 3.9517428 227.93675099 4.07645748 231.59592712 4.20059597 C259.14404568 5.13517302 259.14404568 5.13517302 270.34592712 5.70059597 C271.44336242 5.7537698 271.44336242 5.7537698 272.56296813 5.80801785 C275.95889731 5.98979314 279.31941221 6.26764574 282.6901654 6.70718777 C286.25328426 7.15731049 289.75241605 7.42441668 293.33811462 7.59512722 C294.63039978 7.66135281 295.92268493 7.7275784 297.25413024 7.79581082 C298.28098938 7.84810849 298.28098938 7.84810849 299.32859313 7.90146267 C328.32865671 9.41260559 357.48496993 11.71034263 386.10276306 16.76114285 C388.31916543 17.15181307 390.53793379 17.51580421 392.75998962 17.87247097 C425.93178899 23.69706958 455.26949857 41.29565275 475.59592712 68.20059597 C476.50084899 69.38202176 476.50084899 69.38202176 477.42405212 70.58731472 C485.65423212 81.80186179 491.37628783 93.98987912 495.59592712 107.20059597 C495.86920837 108.00239285 496.14248962 108.80418972 496.42405212 109.63028347 C498.9945898 117.53331953 500.4966182 125.73852949 502.12717712 133.87540066 C502.53222635 135.88461362 502.95322177 137.89059966 503.37717712 139.89590847 C517.47420274 209.61489387 517.97921365 283.32021585 517.85306531 354.12481505 C517.8455221 358.84964862 517.84825264 363.57439828 517.85666931 368.29922879 C517.92843294 409.73039776 517.13505305 450.99235607 513.84592712 492.30557644 C513.58741028 495.5577385 513.34105393 498.8106806 513.09592712 502.06387722 C512.24900949 513.12716862 511.26906799 524.15246838 509.8577069 535.15866482 C509.58300878 537.30136143 509.31636814 539.44496839 509.05051696 541.58877957 C506.67103445 560.63767263 503.99260721 579.49362563 499.59592712 598.20059597 C499.31877868 599.42133816 499.04163024 600.64208035 498.75608337 601.89981472 C498.09555006 604.68833642 497.37756293 607.44385893 496.59592712 610.20059597 C496.20534118 611.59278347 496.20534118 611.59278347 495.80686462 613.01309597 C490.75770963 629.52163752 481.7534496 645.1138762 470.59592712 658.20059597 C469.82120056 659.1106741 469.04647399 660.02075222 468.24827087 660.95840847 C454.01892605 677.14964394 434.31351434 690.67839259 413.59592712 697.20059597 C412.27592712 697.20059597 410.95592712 697.20059597 409.59592712 697.20059597 C409.26592712 697.86059597 408.93592712 698.52059597 408.59592712 699.20059597 C406.68430603 699.76529324 406.68430603 699.76529324 404.19748962 700.20450222 C402.83478942 700.45224392 402.83478942 700.45224392 401.44455993 700.70499051 C400.03448669 700.95031521 400.03448669 700.95031521 398.59592712 701.20059597 C396.87455169 701.52209674 395.15319737 701.84371055 393.43186462 702.16543972 C379.53631402 704.66582652 365.62210174 706.60120666 351.59592712 708.20059597 C350.77705017 708.29582547 349.95817321 708.39105496 349.11448181 708.48917019 C318.78140157 711.99108948 288.23674321 713.33961486 257.76298034 715.02487576 C254.75586951 715.19172176 251.74888003 715.36058954 248.74192321 715.53018582 C213.93931168 717.48762135 213.93931168 717.48762135 201.68381774 717.21500027 C197.92634692 717.13694785 194.29187131 717.29842295 190.55100524 717.68472683 C184.77466977 718.22635922 179.03537096 718.40179674 173.23655212 718.48184597 C172.17144409 718.5002554 171.10633605 718.51866482 170.00895202 718.53763211 C166.62132753 718.59576386 163.23365141 718.64863403 159.84592712 718.70059597 C155.43441311 718.77046454 151.02297168 718.84375917 146.61155212 718.91934597 C145.54254385 718.93739096 144.47353559 718.95543595 143.37213314 718.97402775 C137.58986139 719.08005414 131.81199152 719.21625797 126.03307617 719.44214261 C103.88441219 720.30537749 81.75327185 720.34901204 59.59042799 720.33492148 C54.23063237 720.33233807 48.8708382 720.33475177 43.51104248 720.33630764 C34.5174429 720.33811274 25.5238516 720.33576761 16.53025329 720.33096707 C6.23232921 720.3255327 -4.06557503 720.32728791 -14.36349863 720.33279347 C-23.30810722 720.33737845 -32.25270994 720.33794905 -41.19731933 720.3353548 C-46.49420995 720.33382061 -51.79109136 720.33351723 -57.08798134 720.33689129 C-80.42514857 720.3497593 -103.72267059 720.14567594 -127.04607117 719.31497204 C-131.89253271 719.14989791 -136.7397123 719.03039601 -141.58766663 718.91934597 C-143.16774649 718.8816581 -144.74782488 718.8439088 -146.32790101 718.80606472 C-148.6105104 718.75230985 -150.89313075 718.69944198 -153.1758014 718.64834988 C-162.76207537 718.43172215 -172.32371016 718.06998257 -181.89757264 717.53299344 C-187.26137867 717.23946406 -192.59435069 717.09473938 -197.96657288 717.20059597 C-202.26575433 717.28102968 -206.45563493 717.23627517 -210.73219788 716.75528347 C-218.08065837 715.95661392 -225.4641738 715.75297722 -232.84581482 715.44260037 C-278.89024013 713.48051923 -325.19770023 711.17697352 -370.72438538 703.6400491 C-373.12528467 703.24631562 -375.52833817 702.8828171 -377.93532288 702.52872097 C-396.23297118 699.68232267 -419.22641183 691.566667 -433.40407288 679.20059597 C-433.40407288 678.54059597 -433.40407288 677.88059597 -433.40407288 677.20059597 C-434.08856507 676.99434597 -434.77305726 676.78809597 -435.47829163 676.57559597 C-439.38098675 674.74148559 -442.10394507 672.14319172 -445.21657288 669.20059597 C-445.81405335 668.65403347 -446.41153382 668.10747097 -447.02711976 667.54434597 C-448.53037822 666.14245009 -449.97278213 664.6758942 -451.40407288 663.20059597 C-451.40407288 662.54059597 -451.40407288 661.88059597 -451.40407288 661.20059597 C-452.06407288 661.20059597 -452.72407288 661.20059597 -453.40407288 661.20059597 C-456.30687141 658.06423894 -458.82340331 654.60388335 -461.40407288 651.20059597 C-462.2954596 650.0481741 -462.2954596 650.0481741 -463.20485413 648.87247097 C-471.15432358 638.12698123 -476.60160095 625.9633483 -480.40407288 613.20059597 C-480.87393616 611.88575222 -480.87393616 611.88575222 -481.35329163 610.54434597 C-482.82296815 605.86760582 -483.82026588 601.11755118 -484.84157288 596.32559597 C-485.06256653 595.29112332 -485.28356019 594.25665066 -485.51125062 593.19083035 C-486.14716552 590.19510956 -486.77598256 587.19796501 -487.40407288 584.20059597 C-487.55521546 583.49644558 -487.70635804 582.79229519 -487.86208069 582.06680691 C-491.01854576 567.28703126 -492.57153289 552.18956662 -494.40407288 537.20059597 C-494.51638245 536.29986355 -494.62869202 535.39913113 -494.74440491 534.47110379 C-496.353744 521.50380639 -497.25494864 508.48696666 -498.17018616 495.45499051 C-498.40085345 492.24539241 -498.64833734 489.03750306 -498.90016663 485.82950222 C-499.46390424 478.54028204 -499.94669525 471.24719854 -500.40407288 463.95059597 C-500.48657288 462.71180691 -500.56907288 461.47301785 -500.65407288 460.19668972 C-502.7059019 428.18865713 -502.59206766 396.1073355 -502.58937562 364.04971707 C-502.58929462 359.00508403 -502.59621061 353.96054234 -502.60988343 348.91592801 C-502.71486577 309.56141375 -502.32720206 270.21884229 -498.64967835 231.00626004 C-498.06993297 224.38356232 -497.67200417 217.74459685 -497.24196351 211.11075222 C-496.60243622 201.76221517 -495.56899739 192.49482674 -494.40407288 183.20059597 C-494.31374787 182.47142972 -494.22342286 181.74226346 -494.13036072 180.99100125 C-491.67650602 161.21548332 -488.96822848 141.6201402 -484.40407288 122.20059597 C-483.98835022 120.36948269 -483.98835022 120.36948269 -483.56422913 118.50137722 C-482.90369582 115.71285553 -482.18570869 112.95733302 -481.40407288 110.20059597 C-481.14368226 109.27247097 -480.88329163 108.34434597 -480.61501038 107.38809597 C-475.46679029 90.55565465 -465.61975027 71.99152687 -453.40407288 59.20059597 C-452.74407288 59.20059597 -452.08407288 59.20059597 -451.40407288 59.20059597 C-451.06956116 58.36915066 -451.06956116 58.36915066 -450.72829163 57.52090847 C-439.93843213 38.61478298 -410.59450456 26.56393767 -390.78542054 20.84122097 C-379.01340892 17.67433985 -367.02046945 15.83063439 -354.90797913 14.59512722 C-351.58949494 14.27704125 -351.58949494 14.27704125 -349.10036194 13.71866238 C-345.99007662 13.12105051 -342.91339718 12.80944309 -339.75954163 12.51700222 C-338.45460755 12.39502469 -337.14967347 12.27304715 -335.80519593 12.14737332 C-334.4006738 12.01907394 -332.99613233 11.89098617 -331.59157288 11.76309597 C-330.14470865 11.62985503 -328.69784997 11.49655368 -327.25099671 11.36319363 C-322.96918102 10.97013476 -318.68675259 10.5841137 -314.40407288 10.20059597 C-313.23489319 10.09569851 -312.06571351 9.99080105 -310.86110413 9.88272488 C-299.9129287 8.91039748 -288.97242364 8.0301996 -277.9907428 7.54190457 C-274.01788697 7.36197032 -270.06840698 7.09176138 -266.10719788 6.73575222 C-257.22044415 5.97513008 -248.31253744 5.60863897 -239.40407288 5.20059597 C-238.47030823 5.15701962 -237.53654358 5.11344326 -236.57448304 5.06854641 C-221.71685712 4.37821793 -206.86025725 3.86123178 -191.99001038 3.54239285 C-191.28803528 3.52612347 -190.58606019 3.50985409 -189.86281312 3.4930917 C-188.0003333 3.45033442 -186.13775225 3.41204879 -184.27516663 3.37417996 C-181.30835094 3.24114477 -178.41126119 3.01771954 -175.46005738 2.72278225 C-169.19013563 2.14539318 -162.92899312 1.8800904 -156.63722718 1.67203152 C-155.37685702 1.62946791 -154.11648686 1.5869043 -152.81792367 1.54305089 C-148.55914796 1.40270677 -144.30004389 1.2747588 -140.04079163 1.14981472 C-138.91628118 1.11654981 -138.91628118 1.11654981 -137.76905334 1.08261287 C-91.8566037 -0.26168168 -45.92745575 -0.06707835 0 0 Z " fill="#FF0000" transform="translate(504.40407288074493,-0.20059597492218018)"/>
<path d="M0 0 C5 1 5 1 7 2 C7 2.66 7 3.32 7 4 C9.38233524 5.2827959 11.59110551 6.18544487 14.1875 7 C17 8 17 8 18 10 C19.88263881 10.90343684 19.88263881 10.90343684 22.0625 11.625 C22.79597656 11.88539063 23.52945312 12.14578125 24.28515625 12.4140625 C25.13400391 12.70410156 25.13400391 12.70410156 26 13 C26 13.66 26 14.32 26 15 C26.68707031 15.26296875 27.37414062 15.5259375 28.08203125 15.796875 C37.13569534 19.52984493 47.1169226 24.13310139 55 30 C55 30.66 55 31.32 55 32 C55.825 32.226875 56.65 32.45375 57.5 32.6875 C61.05935994 34.02225998 63.82695724 35.71543608 66.9921875 37.7734375 C69.85333673 39.52129909 72.91091599 40.70820123 76 42 C78.36809789 43.29575168 80.68584537 44.61522474 83 46 C83.78632813 46.46664062 84.57265625 46.93328125 85.3828125 47.4140625 C90.05077329 50.19770884 94.66927792 53.03363166 99.2109375 56.01953125 C101.1225471 57.06716009 102.8923739 57.48745361 105 58 C106 59 107 60 108 61 C109.65816784 61.68753301 111.32459336 62.35561283 113 63 C113.66 63.66 114.32 64.32 115 65 C116.68388237 65.72816535 118.36930652 66.45316507 120.06542969 67.15234375 C123.21909574 68.53416209 126.15574792 70.26412956 129.125 72 C129.71925781 72.34289062 130.31351563 72.68578125 130.92578125 73.0390625 C133.54409534 74.55340751 136.14725494 76.08919442 138.734375 77.65625 C141.10111101 79.10473455 141.10111101 79.10473455 144.125 80.5 C147 82 147 82 148.24609375 83.3359375 C150.82445503 85.78222237 153.86086952 87.39141874 156.9375 89.125 C157.55818359 89.48464844 158.17886719 89.84429687 158.81835938 90.21484375 C161.86284642 91.94621338 164.60457652 93.19818915 168 94 C168.33 94.66 168.66 95.32 169 96 C170.87487127 96.98924689 170.87487127 96.98924689 173.125 97.875 C177.29885929 99.65813609 181.09595273 101.68649051 185 104 C186.31122989 104.75221833 187.62370579 105.50226943 188.9375 106.25 C189.948125 106.8275 190.95875 107.405 192 108 C192 108.66 192 109.32 192 110 C192.71027344 110.19335938 193.42054688 110.38671875 194.15234375 110.5859375 C195.07144531 110.84632813 195.99054688 111.10671875 196.9375 111.375 C197.85402344 111.63023437 198.77054688 111.88546875 199.71484375 112.1484375 C202 113 202 113 203 115 C204.88122091 115.68408033 206.76316556 116.36622693 208.6484375 117.0390625 C212.01071195 118.41301518 214.98079054 120.26268331 218.05859375 122.1796875 C220.34705835 123.5959219 222.64639397 124.96851339 224.97265625 126.3203125 C225.65835693 126.72169434 226.34405762 127.12307617 227.05053711 127.53662109 C228.42210839 128.33887003 229.79658989 129.13616619 231.17407227 129.92822266 C232.81645022 130.89711358 234.41338787 131.94225858 236 133 C236 133.66 236 134.32 236 135 C237.2065625 135.3403125 237.2065625 135.3403125 238.4375 135.6875 C242.03159286 137.01163948 245.09834774 138.66208802 248.41015625 140.55859375 C253.1823624 143.21461799 258.10119935 145.58790019 263 148 C263 148.66 263 149.32 263 150 C263.66 150 264.32 150 265 150 C265 150.66 265 151.32 265 152 C255.51612903 159 255.51612903 159 250 159 C250 159.66 250 160.32 250 161 C246.51394247 163.63809759 242.79149482 165.68172412 238.94921875 167.7578125 C233.30799982 170.82289187 227.71056455 173.95986301 222.125 177.125 C221.13975342 177.68268066 220.15450684 178.24036133 219.1394043 178.81494141 C212.3572603 182.65687461 205.58173872 186.51037561 198.8125 190.375 C197.94318848 190.87128906 197.07387695 191.36757813 196.17822266 191.87890625 C190.54631093 195.10024254 184.94300049 198.36445507 179.375 201.6953125 C177 203 177 203 174.3125 204.0546875 C171.85806806 204.88395239 171.85806806 204.88395239 170 207 C167.68234271 207.71927295 165.34904126 208.3909893 163 209 C163 209.66 163 210.32 163 211 C162.1028125 211.1546875 162.1028125 211.1546875 161.1875 211.3125 C158.97017394 211.81829267 158.97017394 211.81829267 157.70703125 213.3359375 C155.51786818 215.46999578 153.15271505 216.79416967 150.5 218.3125 C149.5409375 218.86550781 148.581875 219.41851562 147.59375 219.98828125 C144.70931244 221.61682553 141.80113859 223.19984988 138.890625 224.78125 C134.80863229 227.00170131 130.74920928 229.25773786 126.703125 231.54296875 C125.64222656 232.14173828 124.58132813 232.74050781 123.48828125 233.35742188 C121.31256375 234.58700408 119.13810148 235.8188098 116.96484375 237.05273438 C102.8612456 245 102.8612456 245 99 245 C99 245.66 99 246.32 99 247 C96.45934066 248.43930464 93.91751978 249.87648839 91.375 251.3125 C90.30572266 251.91868164 90.30572266 251.91868164 89.21484375 252.53710938 C77.76028963 259 77.76028963 259 75 259 C75 259.66 75 260.32 75 261 C72.69 261.66 70.38 262.32 68 263 C68 263.66 68 264.32 68 265 C66.824375 265.433125 66.824375 265.433125 65.625 265.875 C62.90328368 266.84912254 62.90328368 266.84912254 61 269 C59.01178687 269.39764263 57.01055661 269.73775349 55 270 C55 270.66 55 271.32 55 272 C54.0925 272.515625 53.185 273.03125 52.25 273.5625 C49.87062288 274.91869669 47.50379916 276.29256164 45.14453125 277.68359375 C29.33669355 287 29.33669355 287 26 287 C26 287.66 26 288.32 26 289 C25.401875 289.103125 24.80375 289.20625 24.1875 289.3125 C21.94788071 289.80680931 21.94788071 289.80680931 20.75 291.4375 C17.92953427 293.95577298 14.6600948 294.2199798 11 295 C11 295.66 11 296.32 11 297 C7.1450803 299.95842675 4.86808988 301.02638202 0 302 C0 202.34 0 102.68 0 0 Z " fill="#FFFDFD" transform="translate(408,209)"/>
</svg>
