<?xml version="1.0" encoding="UTF-8"?>
<!DOCTYPE svg PUBLIC "-//W3C//DTD SVG 1.1//EN" "http://www.w3.org/Graphics/SVG/1.1/DTD/svg11.dtd">
<svg xmlns="http://www.w3.org/2000/svg" version="1.1" width="512px" height="512px" style="shape-rendering:geometricPrecision; text-rendering:geometricPrecision; image-rendering:optimizeQuality; fill-rule:evenodd; clip-rule:evenodd" xmlns:xlink="http://www.w3.org/1999/xlink">
<g><path style="opacity:1" fill="#e3e3e3" d="M -0.5,-0.5 C 170.167,-0.5 340.833,-0.5 511.5,-0.5C 511.5,170.167 511.5,340.833 511.5,511.5C 340.833,511.5 170.167,511.5 -0.5,511.5C -0.5,340.833 -0.5,170.167 -0.5,-0.5 Z"/></g>
<g><path style="opacity:1" fill="#303030" d="M 118.5,98.5 C 137.5,98.5 156.5,98.5 175.5,98.5C 175.5,117.5 175.5,136.5 175.5,155.5C 156.5,155.5 137.5,155.5 118.5,155.5C 118.5,136.5 118.5,117.5 118.5,98.5 Z"/></g>
<g><path style="opacity:1" fill="#2f302f" d="M 118.5,186.5 C 137.5,186.5 156.5,186.5 175.5,186.5C 175.5,260.833 175.5,335.167 175.5,409.5C 156.5,409.5 137.5,409.5 118.5,409.5C 118.5,335.167 118.5,260.833 118.5,186.5 Z"/></g>
<g><path style="opacity:1" fill="#303030" d="M 198.5,186.5 C 218.167,186.5 237.833,186.5 257.5,186.5C 275.827,245.313 294.66,303.98 314,362.5C 332.734,304.13 351.568,245.797 370.5,187.5C 388.5,186.167 406.5,186.167 424.5,187.5C 397.167,261.167 369.833,334.833 342.5,408.5C 321.602,409.826 300.768,409.826 280,408.5C 252.542,334.588 225.375,260.588 198.5,186.5 Z"/></g>
</svg>
