<?xml version="1.0" encoding="UTF-8"?>
<!DOCTYPE svg PUBLIC "-//W3C//DTD SVG 1.1//EN" "http://www.w3.org/Graphics/SVG/1.1/DTD/svg11.dtd">
<svg xmlns="http://www.w3.org/2000/svg" version="1.1" width="512px" height="512px" style="shape-rendering:geometricPrecision; text-rendering:geometricPrecision; image-rendering:optimizeQuality; fill-rule:evenodd; clip-rule:evenodd" xmlns:xlink="http://www.w3.org/1999/xlink">
<g><path id="background" style="opacity:0.999" fill="#808080" d="M 105.5,-0.5 C 205.5,-0.5 305.5,-0.5 405.5,-0.5C 469.167,6.5 504.5,41.8333 511.5,105.5C 511.5,205.5 511.5,305.5 511.5,405.5C 504.5,469.167 469.167,504.5 405.5,511.5C 305.5,511.5 205.5,511.5 105.5,511.5C 41.8333,504.5 6.5,469.167 -0.5,405.5C -0.5,305.5 -0.5,205.5 -0.5,105.5C 6.5,41.8333 41.8333,6.5 105.5,-0.5 Z"/></g>
<g><path class="stroke" style="opacity:1" fill="#fff" d="M 118.5,98.5 C 137.5,98.5 156.5,98.5 175.5,98.5C 175.5,117.5 175.5,136.5 175.5,155.5C 156.5,155.5 137.5,155.5 118.5,155.5C 118.5,136.5 118.5,117.5 118.5,98.5 Z"/></g>
<g><path class="stroke" style="opacity:1" fill="#fff" d="M 118.5,186.5 C 137.5,186.5 156.5,186.5 175.5,186.5C 175.5,261.167 175.5,335.833 175.5,410.5C 156.5,410.5 137.5,410.5 118.5,410.5C 118.5,335.833 118.5,261.167 118.5,186.5 Z"/></g>
<g><path class="stroke" style="opacity:1" fill="#fff" d="M 342.5,409.5 C 321.424,409.821 300.424,409.488 279.5,408.5C 252.704,334.78 225.704,261.113 198.5,187.5C 218.155,186.5 237.822,186.167 257.5,186.5C 275.827,245.313 294.66,303.98 314,362.5C 332.734,304.13 351.568,245.797 370.5,187.5C 388.5,186.167 406.5,186.167 424.5,187.5C 396.963,261.447 369.63,335.447 342.5,409.5 Z"/></g>
<g><path class="stroke" style="opacity:1" fill="#fff" d="M 279.5,408.5 C 300.424,409.488 321.424,409.821 342.5,409.5C 332.172,410.167 321.672,410.5 311,410.5C 300.145,410.499 289.645,409.832 279.5,408.5 Z"/></g>
</svg>
