<?xml version="1.0" standalone="no"?>
<!DOCTYPE svg PUBLIC "-//W3C//DTD SVG 20010904//EN"
 "http://www.w3.org/TR/2001/REC-SVG-20010904/DTD/svg10.dtd">
<svg version="1.0" xmlns="http://www.w3.org/2000/svg"
 width="409.000000pt" height="409.000000pt" viewBox="0 0 409.000000 409.000000"
 preserveAspectRatio="xMidYMid meet">
<metadata>
Created by potrace 1.16, written by Peter Selinger 2001-2019
</metadata>
<g transform="translate(0.000000,409.000000) scale(0.100000,-0.100000)"
fill="#A10000" stroke="none">
<path d="M1790 3824 c-260 -35 -518 -136 -751 -293 -738 -496 -996 -1469 -605
-2276 212 -436 577 -756 1038 -910 451 -151 950 -116 1371 95 207 104 335 199
503 372 269 278 436 632 485 1028 18 146 6 417 -25 566 -195 934 -1065 1546
-2016 1418z m460 -1409 l0 -575 -195 0 -195 0 0 575 0 575 195 0 195 0 0 -575z
m-90 -885 c75 -38 113 -108 113 -211 0 -122 -58 -197 -170 -218 -67 -13 -155
1 -203 33 -99 65 -114 261 -27 354 63 67 197 87 287 42z"/>
</g>
</svg>
