<?xml version="1.0" encoding="UTF-8"?>
<svg version="1.1" xmlns="http://www.w3.org/2000/svg" width="512" height="512">
<path d="M0 0 C1.38109803 1.9673195 2.71840735 3.96645677 4 6 C3.04971924 6.31638428 2.09943848 6.63276855 1.12036133 6.95874023 C-16.89397875 12.97234724 -34.73854525 19.02733395 -52 27 C-53.65360404 27.74618637 -55.30725044 28.49227889 -56.9609375 29.23828125 C-74.19198152 37.10692053 -89.48813324 47.18016491 -105 58 C-104.40799805 57.73896484 -103.81599609 57.47792969 -103.20605469 57.20898438 C-51.11089745 34.28310015 1.72789724 19.21144492 59 18 C60.96646484 17.94005859 60.96646484 17.94005859 62.97265625 17.87890625 C103.42037507 17.02971163 143.58094902 23.49037257 182 36 C182.78971191 36.25330078 183.57942383 36.50660156 184.39306641 36.76757812 C198.15341218 41.22134244 211.29289107 46.89889971 224.45483398 52.87426758 C226.94846037 53.97720391 229.46222343 55.00343411 232 56 C202.52073851 33.50750735 167.92884812 19.61930201 133 8 C134.37505956 5.03833325 135.72439094 2.3620822 138 0 C146.2315959 -1.56768803 155.38161491 0.6123417 163.5 2.125 C164.72541504 2.3509082 165.95083008 2.57681641 167.21337891 2.80957031 C197.5325508 8.6092078 226.37240298 20.83156962 252 38 C252.89638184 38.55969482 253.79276367 39.11938965 254.71630859 39.69604492 C262.08403724 44.56532038 265.55090885 49.26165697 269 57.3125 C269.49363037 58.40280518 269.98726074 59.49311035 270.49584961 60.61645508 C272.03744563 64.06163833 273.52567868 67.52554705 275 71 C275.46937988 72.0940918 275.93875977 73.18818359 276.42236328 74.31542969 C279.76330999 82.15348961 282.92183745 90.05543005 286 98 C286.45761719 99.1765918 286.91523438 100.35318359 287.38671875 101.56542969 C306.8799562 152.08676849 319.22481811 205.06024949 324 259 C324.09063721 259.96164062 324.18127441 260.92328125 324.2746582 261.9140625 C325.00344731 269.97852112 325.38793733 278.03016372 325.5625 286.125 C325.6562793 288.06439453 325.6562793 288.06439453 325.75195312 290.04296875 C325.89012602 298.27472354 324.7822731 302.81870313 319.10253906 308.88989258 C318.06178223 309.93439575 318.06178223 309.93439575 317 311 C315.71946048 312.5126698 314.44722909 314.03245621 313.1875 315.5625 C308.61073858 320.65078182 303.37792335 324.79388967 298 329 C297.28199219 329.59554688 296.56398438 330.19109375 295.82421875 330.8046875 C271.17731247 350.9492399 239.21368167 361.22532222 208 365 C207.31486328 365.10570312 206.62972656 365.21140625 205.92382812 365.3203125 C193.06485637 367.26555713 193.06485637 367.26555713 188.45703125 364.44140625 C186.35518108 362.0878375 184.69980571 359.65690352 183 357 C181.60192471 355.27641864 180.18423143 353.56861371 178.75 351.875 C173.12529597 344.95001412 167.56282962 337.97471531 162 331 C163 329 163 329 166.4375 327.7734375 C167.9573828 327.30420169 169.47829644 326.83829713 171 326.375 C196.57576115 318.17901507 221.23679516 303.30171444 238 282 C237.175 282.4846875 236.35 282.969375 235.5 283.46875 C226.51687337 288.70242063 217.40534178 293.56730888 208 298 C206.89833496 298.51965332 206.89833496 298.51965332 205.77441406 299.04980469 C167.2892348 316.92668566 124.47992012 328.00908908 82 329 C81.34225586 329.02046387 80.68451172 329.04092773 80.00683594 329.06201172 C21.66657545 330.74677819 -37.19004769 315.08472719 -88.14257812 287.0078125 C-90.72867673 285.60462966 -93.35875819 284.29570353 -96 283 C-76.41538927 305.4374871 -52.14818639 319.72135853 -24 329 C-25.45801098 333.53324104 -28.02214705 336.67764673 -31.125 340.1875 C-32.12343374 341.34155078 -33.12082148 342.4965073 -34.1171875 343.65234375 C-34.60799805 344.21937012 -35.09880859 344.78639648 -35.60449219 345.37060547 C-37.53544981 347.62519104 -39.39837048 349.93001713 -41.25 352.25 C-41.88679687 353.03632813 -42.52359375 353.82265625 -43.1796875 354.6328125 C-45.04623173 356.99427586 -45.04623173 356.99427586 -46.6953125 359.6171875 C-47.52675781 360.85855469 -47.52675781 360.85855469 -48.375 362.125 C-48.83648437 362.87007813 -49.29796875 363.61515625 -49.7734375 364.3828125 C-57.27901139 369.83422933 -74.35771907 364.7697103 -82.95068359 363.49609375 C-120.94193008 357.31529208 -157.46876122 337.97287314 -182 308 C-182.45165527 307.53537354 -182.90331055 307.07074707 -183.36865234 306.59204102 C-188.30715936 300.94015519 -187.67643293 294.73975436 -187.5 287.5625 C-187.47232544 285.58407104 -187.47232544 285.58407104 -187.4440918 283.56567383 C-186.07056004 209.59447546 -165.36250093 135.68630252 -135.6875 68.4375 C-135.20812988 67.34993408 -134.72875977 66.26236816 -134.23486328 65.1418457 C-125.10393624 44.77978359 -125.10393624 44.77978359 -118.3125 40.5 C-117.76416504 40.14873047 -117.21583008 39.79746094 -116.65087891 39.43554688 C-114.78516032 38.25827589 -112.89580699 37.12811416 -111 36 C-110.29117676 35.566875 -109.58235352 35.13375 -108.85205078 34.6875 C-83.61208081 19.29314101 -30.75060823 -10.12320908 0 0 Z M-45.8125 177.75 C-54.95959494 188.40006284 -57.52263621 200.42727115 -57.31640625 214.1484375 C-56.26354476 226.96475142 -50.45980134 239.25280139 -41 248 C-29.99007608 256.43925044 -19.78856639 259.10620137 -6 258 C2.41179763 256.77946466 8.47926069 253.34633515 15 248 C15.63808594 247.48695313 16.27617187 246.97390625 16.93359375 246.4453125 C24.48340951 239.68578926 30.27427273 228.78299642 31.21704102 218.67236328 C31.95949015 202.88731539 30.23284789 189.68873138 20 177 C14.72464259 171.87954705 8.84768685 167.7228991 2 165 C1.1028125 164.64292969 0.205625 164.28585938 -0.71875 163.91796875 C-18.03003114 159.07493176 -33.74896715 165.18714874 -45.8125 177.75 Z M112.85546875 179.3828125 C104.44431066 191.24697233 101.38917153 204.91370996 103.46484375 219.19921875 C106.04652354 232.10761771 112.10851818 242.74134042 122.625 250.6875 C133.51592317 257.8940125 145.00592726 259.65202569 157.859375 257.52734375 C164.0552045 255.92066125 168.90746611 252.79144739 174 249 C174.86625 248.4225 175.7325 247.845 176.625 247.25 C187.42870946 237.01490682 191.59867757 223.5371885 192 209 C191.30424154 195.76609428 186.6180423 183.16589231 176.828125 173.95703125 C156.56927755 157.57530805 129.93001391 159.138741 112.85546875 179.3828125 Z " fill="#FEFEFE" transform="translate(187,73)"/>
</svg>
