<?xml version="1.0" encoding="UTF-8"?>
<svg version="1.1" xmlns="http://www.w3.org/2000/svg" width="321" height="258">
<path d="M0 0 C2.54280617 -0.00322238 5.08561216 -0.00658715 7.62841797 -0.01008606 C12.94027204 -0.01604441 18.25210908 -0.0179728 23.56396484 -0.01733398 C29.63504045 -0.01673551 35.70602655 -0.02725539 41.77707958 -0.04307765 C47.69411481 -0.05792837 53.6111158 -0.06131667 59.52816772 -0.06072426 C62.00914881 -0.06188842 64.49013087 -0.06621985 66.97109985 -0.07405663 C93.68181546 -0.15052263 121.9429312 -0.21514162 146.6875 11.16796875 C147.5839624 11.57740723 147.5839624 11.57740723 148.49853516 11.99511719 C158.43485513 16.62677806 166.04173988 22.35671599 173.6875 30.16796875 C174.48800781 30.93625 175.28851563 31.70453125 176.11328125 32.49609375 C194.05105697 50.712695 197.15590312 74.65080731 196.98471069 99.03547668 C196.67643329 123.04695525 187.3698842 142.87862635 171.0625 160.29296875 C161.16511894 169.80791623 147.49135596 179.29180348 133.63232422 181.49462891 C131.56482236 182.00483226 131.56482236 182.00483226 130.45825195 183.83520508 C130.11753662 184.5495874 129.77682129 185.26396973 129.42578125 186 C129.03382568 186.792854 128.64187012 187.58570801 128.23803711 188.40258789 C127.82948486 189.25328857 127.42093262 190.10398926 127 190.98046875 C122.90931947 199.10803497 118.55825733 206.17501356 112.6875 213.16796875 C111.61048828 214.45380859 111.61048828 214.45380859 110.51171875 215.765625 C88.48096692 241.08338065 59.91845952 254.78769402 26.6875 258.16796875 C20.98341629 258.51073898 15.27482269 258.51009072 9.5625 258.48046875 C8.79403748 258.47798126 8.02557495 258.47549377 7.23382568 258.47293091 C-28.39281197 258.29492256 -60.17611795 248.13707604 -86 222.91796875 C-117.72300344 190.81731051 -124.68949851 146.11311077 -124.68310547 102.8034668 C-124.6875095 99.47328641 -124.72408667 96.14440378 -124.76171875 92.81445312 C-124.89908822 66.59572752 -118.49428944 43.79369285 -100.3125 24.16796875 C-72.94000538 -1.4516075 -35.04854413 0.01053577 0 0 Z " fill="#FDFDFD" transform="translate(124.3125,-0.16796875)"/>
<path d="M0 0 C2.54280617 -0.00322238 5.08561216 -0.00658715 7.62841797 -0.01008606 C12.94027204 -0.01604441 18.25210908 -0.0179728 23.56396484 -0.01733398 C29.63504045 -0.01673551 35.70602655 -0.02725539 41.77707958 -0.04307765 C47.69411481 -0.05792837 53.6111158 -0.06131667 59.52816772 -0.06072426 C62.00914881 -0.06188842 64.49013087 -0.06621985 66.97109985 -0.07405663 C93.68181546 -0.15052263 121.9429312 -0.21514162 146.6875 11.16796875 C147.5839624 11.57740723 147.5839624 11.57740723 148.49853516 11.99511719 C158.43485513 16.62677806 166.04173988 22.35671599 173.6875 30.16796875 C174.48800781 30.93625 175.28851563 31.70453125 176.11328125 32.49609375 C194.05105697 50.712695 197.15590312 74.65080731 196.98471069 99.03547668 C196.67643329 123.04695525 187.3698842 142.87862635 171.0625 160.29296875 C161.16511894 169.80791623 147.49135596 179.29180348 133.63232422 181.49462891 C131.56482236 182.00483226 131.56482236 182.00483226 130.45825195 183.83520508 C130.11753662 184.5495874 129.77682129 185.26396973 129.42578125 186 C129.03382568 186.792854 128.64187012 187.58570801 128.23803711 188.40258789 C127.82948486 189.25328857 127.42093262 190.10398926 127 190.98046875 C122.90931947 199.10803497 118.55825733 206.17501356 112.6875 213.16796875 C111.61048828 214.45380859 111.61048828 214.45380859 110.51171875 215.765625 C88.48096692 241.08338065 59.91845952 254.78769402 26.6875 258.16796875 C20.98341629 258.51073898 15.27482269 258.51009072 9.5625 258.48046875 C8.79403748 258.47798126 8.02557495 258.47549377 7.23382568 258.47293091 C-28.39281197 258.29492256 -60.17611795 248.13707604 -86 222.91796875 C-117.72300344 190.81731051 -124.68949851 146.11311077 -124.68310547 102.8034668 C-124.6875095 99.47328641 -124.72408667 96.14440378 -124.76171875 92.81445312 C-124.89908822 66.59572752 -118.49428944 43.79369285 -100.3125 24.16796875 C-72.94000538 -1.4516075 -35.04854413 0.01053577 0 0 Z M-86.20703125 39.90234375 C-86.90183594 40.65 -87.59664062 41.39765625 -88.3125 42.16796875 C-88.95574219 42.85375 -89.59898438 43.53953125 -90.26171875 44.24609375 C-103.00722112 59.17574945 -104.85477491 78.34107845 -104.625 97.10546875 C-104.61940063 97.91611786 -104.61380127 98.72676697 -104.60803223 99.5619812 C-104.3293107 139.76558521 -98.71118218 180.26685658 -69.3984375 210.20703125 C-52.04755249 227.18141039 -27.8183071 237.30114971 -3.5546875 237.3359375 C-2.31732346 237.3409301 -2.31732346 237.3409301 -1.05496216 237.34602356 C0.68470711 237.35106325 2.42438594 237.3534328 4.1640625 237.35327148 C6.78402269 237.35544512 9.40355231 237.37359702 12.0234375 237.39257812 C38.31319597 237.48311673 61.99813082 230.80793837 82.6875 214.16796875 C83.368125 213.65105469 84.04875 213.13414062 84.75 212.6015625 C95.81348806 203.70170013 107.05148748 188.82049771 110.9140625 175.09375 C112.1054901 170.98536203 113.23456463 167.72359983 115.6875 164.16796875 C119.87924342 162.35169572 123.74161264 161.64231136 128.2265625 160.9609375 C142.52889069 158.75939836 155.35195158 148.22521337 163.84375 136.94921875 C176.19580904 118.31645172 179.71102523 97.3967376 175.5 75.54296875 C170.91791105 57.74494734 161.415624 43.51301965 145.55419922 33.89990234 C113.93406605 15.59531104 71.43642692 19.82551594 36.09692383 19.90722656 C31.12025424 19.91862787 26.14379851 19.91183909 21.16713619 19.90033913 C-36.39439353 16.8600268 -36.39439353 16.8600268 -86.20703125 39.90234375 Z " fill="#FEFDFD" transform="translate(124.3125,-0.16796875)"/>
<path d="M0 0 C4.9755247 0.01138564 9.95083513 0.00462187 14.9263525 -0.00688553 C108.52676575 -0.19017028 108.52676575 -0.19017028 135.25463867 24.88574219 C149.04308916 39.2163027 153.08033521 57.78141794 152.95922852 77.07666016 C152.4399912 96.53633488 144.27639044 114.0015675 130.23510742 127.47167969 C121.90858422 134.59699954 112.64058094 139.76174401 101.79956055 141.40185547 C98.04717745 141.99779358 95.06201825 142.73457071 91.53979492 144.26074219 C88.70702837 148.36695426 87.53549099 152.4749611 86.19848633 157.23388672 C85.1098353 160.58376843 83.44055448 163.54410386 81.66479492 166.57324219 C81.15928101 167.44033813 81.15928101 167.44033813 80.64355469 168.32495117 C77.41075798 173.71243267 73.61344615 178.4966416 69.53979492 183.26074219 C69.09635742 183.84855469 68.65291992 184.43636719 68.19604492 185.04199219 C56.37582525 200.32178834 37.57836908 208.97216022 19.53979492 214.26074219 C17.90010742 214.79054687 17.90010742 214.79054687 16.22729492 215.33105469 C6.34396955 217.82282528 -3.92274463 217.47799844 -14.05322266 217.50097656 C-16.62476284 217.51065583 -19.19549293 217.54174921 -21.7668457 217.57324219 C-51.07832978 217.76287661 -75.78281267 207.42466677 -96.73364258 187.04980469 C-106.38357999 176.78959456 -113.12968243 164.19555115 -118.46020508 151.26074219 C-118.92297852 150.13796875 -119.38575195 149.01519531 -119.86254883 147.85839844 C-127.76919708 126.49362551 -128.64123814 102.82059729 -128.75537109 80.25488281 C-128.76690155 78.6789452 -128.78737049 77.10304697 -128.81689453 75.52734375 C-129.1720682 56.40749222 -125.99130445 37.77900132 -113.08520508 22.82324219 C-84.90445834 -6.16402424 -37.26424714 -0.08608551 0 0 Z M-59.87011719 24.59594727 C-60.96703416 24.71224582 -62.06395113 24.82854437 -63.19410801 24.94836712 C-76.59096476 26.53001898 -89.14783544 29.2496189 -97.96020508 40.16308594 C-105.73226394 51.0318245 -105.78127531 62.78122479 -105.64770508 75.76074219 C-105.63814626 77.20336836 -105.62870708 78.64599533 -105.61938477 80.08862305 C-105.58719 84.14645433 -105.52764253 88.20334388 -105.46020508 92.26074219 C-105.44618652 93.2070752 -105.43216797 94.1534082 -105.41772461 95.12841797 C-104.86554466 123.31236545 -98.30290407 153.67278325 -78.31958008 174.65527344 C-69.72717074 182.4846956 -59.60608318 187.96627552 -48.46020508 191.26074219 C-47.16240112 191.64806519 -47.16240112 191.64806519 -45.83837891 192.04321289 C-36.79423945 194.45885302 -28.09962477 194.75436558 -18.80566406 194.70678711 C-16.29318186 194.69831127 -13.78300943 194.72708788 -11.27075195 194.75878906 C2.78250997 194.82130839 17.5933816 193.40773398 30.10229492 186.44824219 C30.75447998 186.10349854 31.40666504 185.75875488 32.07861328 185.40356445 C37.34157854 182.54637642 42.08684309 179.27676555 46.53979492 175.26074219 C47.12631836 174.76574219 47.7128418 174.27074219 48.31713867 173.76074219 C62.43386704 160.95645342 70.28842753 140.58315371 73.53979492 122.26074219 C74.74635742 122.21175781 75.95291992 122.16277344 77.19604492 122.11230469 C78.81064799 122.03720687 80.42523031 121.96166215 82.03979492 121.88574219 C82.8312793 121.85480469 83.62276367 121.82386719 84.43823242 121.79199219 C98.19115023 121.11561918 109.84410094 116.18387853 119.34448242 106.04199219 C129.66618064 92.96539231 130.75657729 78.25728948 129.53979492 62.26074219 C127.90286734 52.58422091 122.84937119 43.85070556 115.40698242 37.41699219 C113.18124704 35.85339314 110.94249517 34.53460447 108.53979492 33.26074219 C107.3080957 32.58591797 107.3080957 32.58591797 106.05151367 31.89746094 C85.85615341 21.75490223 59.92532082 22.94430181 37.91088867 22.95996094 C35.58276801 22.95605789 33.25464803 22.95172004 30.92652893 22.94697571 C26.07485637 22.93957145 21.22325665 22.93976146 16.37158203 22.94506836 C10.23608779 22.95084366 4.10089734 22.93394988 -2.03454685 22.91072369 C-6.83692591 22.89579655 -11.63923507 22.89514023 -16.44163322 22.89823341 C-18.69964128 22.89772929 -20.95765425 22.89266849 -23.21563911 22.88242149 C-35.51632962 22.83344755 -47.63346578 23.27801935 -59.87011719 24.59594727 Z " fill="#222222" transform="translate(148.460205078125,19.7392578125)"/>
<path d="M0 0 C5.10061152 3.0221685 9.3472707 6.16981132 12.7734375 11.05078125 C15.88076654 9.66517316 18.0148099 8.024474 20.4609375 5.67578125 C28.19779862 -1.11168482 34.80947352 -2.66004541 45.125 -2.3203125 C55.30688556 -1.28468174 61.89997635 3.66364507 68.7734375 11.05078125 C76.1150903 20.25419289 78.01898045 30.46602251 76.7734375 42.05078125 C71.78083989 65.15661947 54.77660014 82.37767195 35.50830078 94.93652344 C34.9357959 95.30422852 34.36329102 95.67193359 33.7734375 96.05078125 C33.17128418 96.43911133 32.56913086 96.82744141 31.94873047 97.22753906 C17.78584206 106.2926919 17.78584206 106.2926919 10.7734375 105.05078125 C-10.02292326 97.49723445 -32.52565615 78.41080603 -42.6015625 58.92578125 C-43.4966243 56.97653555 -44.37372518 55.01886736 -45.2265625 53.05078125 C-45.73703125 51.99890625 -45.73703125 51.99890625 -46.2578125 50.92578125 C-49.96569638 42.13672317 -49.89640217 29.31771258 -46.6015625 20.42578125 C-41.68129709 10.36002701 -34.48688467 3.51369324 -24.2265625 -0.94921875 C-17.1539777 -3.30674702 -6.85309527 -3.15721201 0 0 Z " fill="#FF5A17" transform="translate(121.2265625,73.94921875)"/>
<path d="M0 0 C6.41829844 1.76677889 10.76390747 4.93735282 15 10 C18.36196639 16.44570109 17.89956093 24.90306867 17 32 C14.70544038 38.67508253 9.82741464 42.47754596 3.75 45.75 C-1.24806871 47.4160229 -6.21342363 48.12942653 -11.20703125 46.10546875 C-13 45 -13 45 -14 43 C-14.12360927 40.04555109 -14.18843825 37.11562051 -14.203125 34.16015625 C-14.20882507 33.28225937 -14.21452515 32.40436249 -14.22039795 31.49986267 C-14.22985151 29.64127815 -14.23638334 27.78267684 -14.24023438 25.92407227 C-14.24994935 23.07734061 -14.28097279 20.23132802 -14.3125 17.38476562 C-14.31902906 15.58073346 -14.32427991 13.77669613 -14.328125 11.97265625 C-14.3404718 11.11946304 -14.3528186 10.26626984 -14.36553955 9.38722229 C-14.34302724 3.43003414 -14.34302724 3.43003414 -12.62664795 1.27830505 C-9.12871992 -1.47054978 -4.18737401 -0.4988973 0 0 Z " fill="#212121" transform="translate(236,70)"/>
</svg>
