<?xml version="1.0" encoding="UTF-8"?>
<svg version="1.1" xmlns="http://www.w3.org/2000/svg" width="2056" height="2250">
<path d="M0 0 C3.82187117 0.00543319 7.64373616 0.00780532 11.4656105 0.00987244 C46.8233239 0.03968264 82.04693555 0.32966069 117.31311417 3.0900116 C120.34078132 3.32351051 123.36922619 3.54168218 126.39831924 3.75584412 C227.45226201 10.93898948 328.41763642 27.79715818 621.26745987 139.31785583 C622.1564296 139.84991638 623.04539932 140.38197693 623.96130753 140.93016052 C655.64134912 159.97734792 685.90133342 181.61638129 714.26745987 205.31785583 C715.0300209 205.95304138 715.0300209 205.95304138 715.80798721 206.60105896 C722.52240107 212.20144016 729.10835177 217.90564169 735.53699112 223.83348083 C737.69755961 225.79931997 739.87907081 227.72674617 742.08386612 229.64207458 C746.27349578 233.2981031 750.34755628 237.06537308 754.39245987 240.88035583 C755.48953262 241.91482849 755.48953262 241.91482849 756.60876846 242.97019958 C774.79103273 260.18678972 774.79103273 260.18678972 782.30652237 269.07566833 C784.56967038 271.66341127 786.92062793 274.15651484 789.27991104 276.65647888 C794.76907724 282.4737431 800.07902767 288.33998137 805.07214737 294.59519958 C807.06754907 297.06992376 809.1179361 299.48711484 811.19397354 301.89427185 C817.94979798 309.74730787 824.14335768 317.96733495 830.26745987 326.31785583 C831.02881241 327.34773621 831.02881241 327.34773621 831.80554581 328.39842224 C852.17177031 355.9667091 870.35548215 384.95981928 886.26745987 415.31785583 C886.7851796 416.30269958 887.30289932 417.28754333 887.83630753 418.30223083 C927.85296887 494.9552339 948.91916847 580.00671493 920.94391251 884.16996765 C909.59374895 920.20927161 895.23102128 954.57572278 878.26745987 988.31785583 C877.52399307 989.8144574 877.52399307 989.8144574 876.76550674 991.34129333 C854.75888274 1035.54452658 825.44360238 1076.58609858 793.13708878 1113.80198669 C791.18598769 1116.05302308 789.29123284 1118.2846388 787.55652237 1120.70848083 C787.13113174 1121.23957458 786.70574112 1121.77066833 786.26745987 1122.31785583 C785.60745987 1122.31785583 784.94745987 1122.31785583 784.26745987 1122.31785583 C784.00964737 1122.89019958 783.75183487 1123.46254333 783.48620987 1124.05223083 C782.15380045 1126.52914578 780.61689869 1128.45197244 778.76745987 1130.56785583 C778.15902237 1131.27426208 777.55058487 1131.98066833 776.92370987 1132.70848083 C775.26745987 1134.31785583 775.26745987 1134.31785583 773.26745987 1134.31785583 C773.26745987 1134.97785583 773.26745987 1135.63785583 773.26745987 1136.31785583 C772.60745987 1136.31785583 771.94745987 1136.31785583 771.26745987 1136.31785583 C771.01673721 1136.89309998 770.76601456 1137.46834412 770.50769424 1138.0610199 C769.1001716 1140.62226779 767.48575962 1142.35842976 765.42370987 1144.42723083 C764.29642471 1145.55838318 764.29642471 1145.55838318 763.14636612 1146.71238708 C762.36132706 1147.48969177 761.57628799 1148.26699646 760.76745987 1149.06785583 C759.98242081 1149.86062927 759.19738174 1150.65340271 758.38855362 1151.47019958 C757.63703018 1152.2191449 756.88550674 1152.96809021 756.11120987 1153.73973083 C755.07770401 1154.76985291 755.07770401 1154.76985291 754.02331924 1155.82078552 C752.26745987 1157.31785583 752.26745987 1157.31785583 750.26745987 1157.31785583 C750.26745987 1157.97785583 750.26745987 1158.63785583 750.26745987 1159.31785583 C749.60745987 1159.31785583 748.94745987 1159.31785583 748.26745987 1159.31785583 C748.26745987 1159.97785583 748.26745987 1160.63785583 748.26745987 1161.31785583 C746.90417862 1162.69285583 746.90417862 1162.69285583 744.95495987 1164.31785583 C741.55098539 1167.20643981 738.23663589 1170.16579261 734.95495987 1173.19285583 C730.49492144 1177.26080297 725.91114692 1181.11564519 721.21277237 1184.90379333 C718.47481897 1187.14789838 715.79364509 1189.4424759 713.12121964 1191.76341248 C706.91453978 1197.14952814 700.59773131 1202.27211986 693.94031143 1207.1000824 C692.14244326 1208.40886325 690.3574146 1209.73413241 688.57214737 1211.06004333 C678.88924015 1218.20044628 668.96052593 1224.95406154 658.95495987 1231.63035583 C658.32374222 1232.05233246 657.69252457 1232.47430908 657.04217911 1232.90907288 C605.00112475 1267.65639347 548.14394358 1295.62776601 488.78406143 1315.46678162 C486.04840648 1316.39193617 483.32636662 1317.35212511 480.60339737 1318.31394958 C446.79452956 1330.10767839 411.80011253 1338.23408892 377.11080551 1346.97074127 C353.04820702 1353.03190947 329.05369623 1359.23562442 305.26745987 1366.31785583 C304.03962784 1366.68072693 302.81179581 1367.04359802 301.54675674 1367.41746521 C269.68531175 1376.88792179 237.94694146 1387.50473713 207.26745987 1400.31785583 C206.65956619 1400.5711969 206.05167252 1400.82453796 205.42535782 1401.08555603 C156.30443115 1421.5938393 108.8547751 1446.8148837 67.26745987 1480.31785583 C66.58022842 1480.865224 65.89299698 1481.41259216 65.18494034 1481.97654724 C57.75120558 1487.89741606 50.43926024 1493.90450307 43.43542862 1500.33348083 C41.34877193 1502.24342966 39.22357033 1504.0973093 37.07995987 1505.94285583 C33.77257556 1508.80746659 30.71737382 1511.85341201 27.71277237 1515.03269958 C26.26745987 1516.31785583 26.26745987 1516.31785583 24.26745987 1516.31785583 C24.26745987 1516.97785583 24.26745987 1517.63785583 24.26745987 1518.31785583 C23.60745987 1518.31785583 22.94745987 1518.31785583 22.26745987 1518.31785583 C22.26745987 1518.97785583 22.26745987 1519.63785583 22.26745987 1520.31785583 C21.60745987 1520.31785583 20.94745987 1520.31785583 20.26745987 1520.31785583 C20.26745987 1520.97785583 20.26745987 1521.63785583 20.26745987 1522.31785583 C19.60745987 1522.31785583 18.94745987 1522.31785583 18.26745987 1522.31785583 C18.05218643 1522.86312927 17.83691299 1523.40840271 17.61511612 1523.97019958 C15.80618336 1527.12141289 13.31067506 1529.39684026 10.70495987 1531.88035583 C5.90466667 1536.56058778 1.5797247 1541.42609615 -2.59582138 1546.68113708 C-4.6824026 1549.25598593 -6.86185066 1551.69388212 -9.10754013 1554.13035583 C-24.72664549 1571.34104533 -38.12167581 1590.84488642 -50.73254013 1610.31785583 C-51.20868759 1611.04875427 -51.68483505 1611.77965271 -52.17541122 1612.53269958 C-76.43593286 1649.87929901 -97.35530749 1689.85298352 -116.25451279 1730.1703949 C-117.58996204 1733.01423562 -118.93384037 1735.85394777 -120.28092575 1738.69229126 C-128.07637582 1755.12549666 -135.60535192 1771.66223143 -142.95519638 1788.29930115 C-147.33433999 1798.20708694 -151.80964991 1808.06219695 -156.37487411 1817.88597107 C-159.97630142 1825.64704995 -163.49431722 1833.44279757 -166.98254013 1841.25535583 C-174.46311705 1857.99015029 -182.04948873 1874.6750195 -189.73254013 1891.31785583 C-190.21536453 1892.3650177 -190.21536453 1892.3650177 -190.70794296 1893.43333435 C-200.28911722 1914.19996683 -210.3368303 1934.72829168 -220.54504013 1955.19285583 C-221.11090836 1956.32985931 -221.67677658 1957.46686279 -222.25979233 1958.63832092 C-231.94976225 1978.08809933 -242.09119909 1997.26188643 -252.98254013 2016.06785583 C-253.60257919 2017.13874451 -254.22261826 2018.20963318 -254.86144638 2019.31297302 C-275.18734582 2054.2315648 -297.51612416 2087.93480694 -323.80163193 2118.68406677 C-327.32698657 2122.81112448 -330.72756004 2127.02336851 -334.07629013 2131.29441833 C-335.55408725 2133.09984029 -336.97417054 2134.7841668 -338.73254013 2136.31785583 C-339.39254013 2136.31785583 -340.05254013 2136.31785583 -340.73254013 2136.31785583 C-340.97423935 2136.88407654 -341.21593857 2137.45029724 -341.46496201 2138.03367615 C-342.9834983 2140.77008323 -344.80405894 2142.64854922 -347.01379013 2144.86473083 C-347.85554794 2145.70906677 -348.69730576 2146.55340271 -349.56457138 2147.42332458 C-350.44500107 2148.2960199 -351.32543076 2149.16871521 -352.23254013 2150.06785583 C-353.11296982 2150.9560199 -353.99339951 2151.84418396 -354.90050888 2152.75926208 C-355.74226669 2153.59844177 -356.58402451 2154.43762146 -357.45129013 2155.30223083 C-358.2240831 2156.07276794 -358.99687607 2156.84330505 -359.79308701 2157.63719177 C-361.73254013 2159.31785583 -361.73254013 2159.31785583 -363.73254013 2159.31785583 C-363.73254013 2159.97785583 -363.73254013 2160.63785583 -363.73254013 2161.31785583 C-365.30540697 2162.73223989 -366.94394009 2164.07389984 -368.60754013 2165.38035583 C-372.28144812 2168.31018119 -375.81534581 2171.28135978 -379.23254013 2174.50535583 C-419.58220863 2211.09415476 -473.98752459 2234.87220929 -526.98254013 2245.00535583 C-527.96746445 2245.19589539 -528.95238876 2245.38643494 -529.96715927 2245.58274841 C-550.41157979 2249.27923389 -570.80262102 2250.81870517 -591.56383896 2250.70896912 C-595.16538038 2250.69287666 -598.76579764 2250.70894226 -602.36730576 2250.72801208 C-623.91316301 2250.74850825 -645.22614494 2248.85307879 -666.35754013 2244.56785583 C-667.6469249 2244.3103656 -668.93630966 2244.05287537 -670.26476669 2243.7875824 C-729.0761472 2231.82235874 -784.48032501 2203.9879755 -829.09484482 2163.79246521 C-830.57175193 2162.46263233 -832.06154956 2161.14714946 -833.55285263 2159.83348083 C-840.22565592 2153.86407846 -846.5941863 2147.58320926 -852.9475975 2141.2780304 C-853.96918374 2140.26460921 -854.99223193 2139.25265958 -856.01675034 2138.24220276 C-857.46369822 2136.81305714 -858.90296969 2135.37615221 -860.34191513 2133.93894958 C-861.18721786 2133.09775574 -862.0325206 2132.25656189 -862.90343857 2131.38987732 C-864.73254013 2129.31785583 -864.73254013 2129.31785583 -864.73254013 2127.31785583 C-865.39254013 2127.31785583 -866.05254013 2127.31785583 -866.73254013 2127.31785583 C-868.08636162 2125.83047348 -869.36393899 2124.27355033 -870.60754013 2122.69285583 C-873.68249205 2118.84055607 -876.79995825 2115.05971479 -880.04430771 2111.34934998 C-890.52016649 2099.34991583 -899.80659528 2086.49882099 -908.73254013 2073.31785583 C-909.81148544 2071.75551208 -909.81148544 2071.75551208 -910.91222763 2070.16160583 C-924.28081319 2050.64295531 -936.21813972 2030.09076777 -947.2281456 2009.16648865 C-948.69317513 2006.39239508 -950.18089147 2003.63163313 -951.67394638 2000.87254333 C-996.27295854 1917.82277424 -1023.608706 1824.96762502 -1103.73254013 1218.31785583 C-1103.77637833 1216.6439679 -1103.77637833 1216.6439679 -1103.82110214 1214.93626404 C-1106.4665516 1112.6108001 -1105.68406606 1009.8382571 -1002.73254013 543.31785583 C-1002.44806015 542.66853088 -1002.16358017 542.01920593 -1001.87047958 541.35020447 C-988.83971745 511.65527725 -974.853494 482.24099709 -958.44445419 454.24998474 C-956.88620357 451.58104721 -955.34677704 448.9020269 -953.81373215 446.21855164 C-943.82258424 428.74529292 -933.08708746 411.93502853 -921.73254013 395.31785583 C-920.70292684 393.79376938 -919.67416443 392.26910744 -918.64660263 390.74363708 C-900.56565793 364.01654882 -880.46899584 338.45076741 -858.76769638 314.56785583 C-856.9587647 312.56796208 -855.18362212 310.54516151 -853.42004013 308.50535583 C-844.16379954 297.91300434 -834.40935674 287.83196362 -824.44933701 277.90428162 C-822.46703769 275.92739573 -820.4902138 273.94514545 -818.51379013 271.96238708 C-807.29929761 260.74201101 -807.29929761 260.74201101 -801.35705185 255.69725037 C-798.80128056 253.52711093 -796.37332963 251.22801781 -793.92004013 248.94285583 C-789.27349885 244.65034376 -784.49154773 240.58447552 -779.56066513 236.61863708 C-777.05424031 234.57957048 -774.59637495 232.49381433 -772.14904404 230.38450623 C-764.93649179 224.18302866 -757.41379234 218.47279137 -749.76330185 212.82518005 C-747.78605092 211.35757399 -745.82169043 209.87448572 -743.86144638 208.38426208 C-706.23144085 179.80240233 -665.71171801 155.88217972 -623.73254013 134.31785583 C-622.73786728 133.8035199 -621.74319443 133.28918396 -620.71837997 132.75926208 C-553.42028784 98.0443112 -480.94136697 72.83475065 -408.00884628 52.94096375 C-405.83803724 52.34673424 -403.6690053 51.74649792 -401.50060654 51.14353943 C-311.71135289 26.20014245 -218.59608925 11.81113093 -125.78332138 4.41160583 C-125.0266568 4.35097961 -124.26999222 4.29035339 -123.49039841 4.22789001 C-113.91183755 3.48814541 -104.3211981 2.90888934 -94.73254013 2.31785583 C-93.9425733 2.2690477 -93.15260647 2.22023956 -92.33870125 2.16995239 C-61.56220081 0.29014885 -30.82794185 -0.04557699 0 0 Z " fill="#FFFFFF" transform="translate(1104.7325401306152,-0.3178558349609375)"/>
</svg>
