<?xml version="1.0" encoding="UTF-8"?>
<svg version="1.1" xmlns="http://www.w3.org/2000/svg" width="512" height="512">
<path d="M0 0 C1.25296875 1.08667969 1.25296875 1.08667969 2.53125 2.1953125 C13.60546191 11.93918077 23.95516891 22.33780021 33 34 C33.78632813 34.969375 34.57265625 35.93875 35.3828125 36.9375 C41.89023855 45.09728188 47.3876187 53.70591129 52.65625 62.70898438 C53.52289901 64.18657056 54.39734833 65.65962246 55.28125 67.12695312 C78.15972224 105.1266656 88.48874878 149.57317312 88.3125 193.625 C88.31034485 194.59588562 88.3081897 195.56677124 88.30596924 196.56707764 C88.25492827 210.90251026 87.87221848 224.91025803 85 239 C84.79600586 240.02609375 84.59201172 241.0521875 84.38183594 242.109375 C75.29922076 286.74243007 56.25337333 327.79253836 26 362 C25.27554687 362.8353125 24.55109375 363.670625 23.8046875 364.53125 C14.0599286 375.60647413 3.66037586 385.95114912 -8 395 C-8.93457031 395.763125 -9.86914062 396.52625 -10.83203125 397.3125 C-20.62056753 405.15338144 -31.21751208 411.62186966 -42 418 C-42.65162109 418.38929688 -43.30324219 418.77859375 -43.97460938 419.1796875 C-67.05919587 432.81009817 -93.32900696 440.89424414 -119.4375 446.3125 C-120.49795532 446.53377563 -120.49795532 446.53377563 -121.57983398 446.75952148 C-137.05242267 449.73267191 -152.53847537 450.37563809 -168.25 450.3125 C-169.19532593 450.31067719 -170.14065186 450.30885437 -171.11462402 450.30697632 C-184.95348318 450.26208673 -198.40676664 449.79883963 -212 447 C-213.46783936 446.71068604 -213.46783936 446.71068604 -214.96533203 446.41552734 C-224.83085088 444.45472664 -234.51353918 442.38459476 -244 439 C-240.90604934 433.31614161 -237.80149087 427.63871507 -234.66796875 421.9765625 C-220.94434791 397.03552609 -212.0766228 372.78601939 -204.96875 345.31640625 C-204.69996536 344.27938065 -204.43118073 343.24235504 -204.1542511 342.17390442 C-202.78602139 336.89056186 -201.42748512 331.60506687 -200.08666992 326.31469727 C-199.58264332 324.34778728 -199.07849809 322.3809077 -198.57421875 320.4140625 C-198.34428223 319.49432144 -198.1143457 318.57458038 -197.87744141 317.62696838 C-197.65967041 316.78278854 -197.44189941 315.9386087 -197.2175293 315.06884766 C-197.02990524 314.32849274 -196.84228119 313.58813782 -196.64897156 312.8253479 C-196 311 -196 311 -194 309 C-192.66072279 310.45287661 -191.32873153 311.91247259 -190 313.375 C-189.2575 314.18710937 -188.515 314.99921875 -187.75 315.8359375 C-186 318 -186 318 -186 320 C-185.46117187 320.25136719 -184.92234375 320.50273437 -184.3671875 320.76171875 C-181.49039607 322.26657499 -178.84453513 324.03903756 -176.125 325.8125 C-155.18281402 338.97786567 -131.48586025 338.87591167 -108 334 C-80.69422333 327.26774192 -57.06737637 311.22800383 -40 289 C-39.34386719 288.17113281 -38.68773437 287.34226562 -38.01171875 286.48828125 C-11.40779963 251.67393419 -0.82851979 203.22258298 -6.21875 160.1171875 C-9.88922156 134.64841008 -19.36000451 112.44306512 -35 92 C-35.66128906 91.13246094 -36.32257813 90.26492187 -37.00390625 89.37109375 C-48.23048449 74.98086137 -62.1187163 63.92517103 -78 55 C-78.86020752 54.51152588 -78.86020752 54.51152588 -79.73779297 54.01318359 C-101.82106273 41.65498815 -127.71772416 34.73420751 -153 34 C-154.1653125 33.96003906 -155.330625 33.92007813 -156.53125 33.87890625 C-202.99217921 33.0762276 -250.3927085 46.29248651 -284.44116211 79.08496094 C-313.16521494 107.51049142 -327.3682267 145.71484462 -328.1875 185.75 C-327.76990552 217.6124585 -316.46145329 249.37435087 -294.625 272.8125 C-288.07627577 279.00430324 -281.12073782 284.20193544 -272 285 C-268.98934879 278.69758256 -267.37579706 272.2129698 -265.75 265.4375 C-265.46898437 264.32697266 -265.18796875 263.21644531 -264.8984375 262.07226562 C-264.63804687 260.99525391 -264.37765625 259.91824219 -264.109375 258.80859375 C-263.87186523 257.83720459 -263.63435547 256.86581543 -263.38964844 255.86499023 C-262.82809922 251.73605537 -263.15725382 248.34744164 -265.3828125 244.7890625 C-265.95773437 244.07492187 -266.53265625 243.36078125 -267.125 242.625 C-281.77222299 222.53394259 -285.87075983 194.85896911 -282.31640625 170.67578125 C-277.35668052 142.17032402 -262.69970798 115.54983634 -238.9375 98.4375 C-236.65758965 96.9030165 -234.34192891 95.43781796 -232 94 C-231.3723877 93.61424805 -230.74477539 93.22849609 -230.09814453 92.83105469 C-211.5514104 81.69289697 -190.44015554 76.580141 -168.875 76.6875 C-167.10721191 76.69487183 -167.10721191 76.69487183 -165.30371094 76.70239258 C-137.72225216 77.06946768 -112.83297303 85.78774649 -92 104 C-91.23042969 104.66773438 -90.46085937 105.33546875 -89.66796875 106.0234375 C-72.11724308 122.43180825 -62.20435568 147.72835407 -60.79516602 171.44775391 C-60.69645391 175.13451289 -60.67112563 178.81196926 -60.6875 182.5 C-60.69241455 183.81718018 -60.6973291 185.13436035 -60.70239258 186.49145508 C-60.83033146 197.23241606 -61.7363768 207.50400699 -64 218 C-64.16628906 218.78874512 -64.33257812 219.57749023 -64.50390625 220.39013672 C-70.1821819 246.43133978 -83.05042492 272.6056907 -105.74609375 287.84375 C-120.35483758 296.8103652 -136.36912891 300.51492162 -153.3125 296.9375 C-162.67816759 294.24361174 -170.53312606 288.02583621 -176 280 C-184.42617968 264.58625669 -179.59078508 249.41769897 -174.97436523 233.63790894 C-174.30004304 231.3324098 -173.63250647 229.02504079 -172.96679688 226.71704102 C-172.07041395 223.61012567 -171.17210085 220.50378151 -170.27197266 217.39794922 C-168.4921679 211.25079414 -166.73813592 205.09657776 -165 198.9375 C-164.72196533 197.96538574 -164.44393066 196.99327148 -164.1574707 195.99169922 C-159.44680716 179.27435534 -155.67914872 161.30902793 -164.453125 145.2578125 C-168.54067078 139.2916472 -174.06772217 135.07968335 -181 133 C-191.82438552 130.98322948 -201.22257169 132.50373838 -210.75 138.0625 C-224.08807966 147.23602817 -230.75141561 162.57338901 -234 178 C-234.9770049 184.75432708 -235.1350782 191.37886434 -234.8125 198.1875 C-234.76988037 199.09588623 -234.72726074 200.00427246 -234.68334961 200.94018555 C-234.19154404 209.06464167 -232.41314169 216.250628 -230 224 C-228.20074464 229.85800735 -227.85118195 233.41151962 -229.3425293 239.49023438 C-229.51008697 240.19548689 -229.67764463 240.9007394 -229.85027981 241.6273632 C-230.40758367 243.95407867 -230.99077618 246.27346407 -231.57421875 248.59375 C-231.97514242 250.24598138 -232.3743469 251.89863076 -232.77194214 253.55166626 C-233.61850121 257.05681257 -234.47618422 260.55896357 -235.3430481 264.05914307 C-236.69340045 269.51261857 -238.01808921 274.97210813 -239.33764648 280.43310547 C-240.8695062 286.76744641 -242.40571545 293.10068498 -243.94917011 299.43221092 C-247.0098114 311.99254065 -249.99205976 324.56910859 -252.88320923 337.16967773 C-253.54167449 340.03439655 -254.2083871 342.89710479 -254.87573242 345.75976562 C-258.35592755 360.80984423 -260.32298933 375.17385556 -260.20581055 390.63232422 C-260.18747293 393.12868464 -260.18530237 395.62467264 -260.18554688 398.12109375 C-260.16789389 405.90210444 -259.97689684 413.5773818 -259.21606445 421.32763672 C-258.87451714 425.55201738 -258.91568247 429.76538644 -259 434 C-284.97773941 424.4203564 -308.81020845 410.89749336 -330 393 C-330.97582031 392.20722656 -331.95164062 391.41445313 -332.95703125 390.59765625 C-339.23039476 385.46114768 -345.13773336 380.04261917 -350.875 374.3125 C-351.78415161 373.40455688 -351.78415161 373.40455688 -352.71166992 372.47827148 C-399.19699597 325.41928859 -424.57580004 260.1845213 -424.3125 194.375 C-424.31034485 193.40411438 -424.3081897 192.43322876 -424.30596924 191.43292236 C-424.25492827 177.09748974 -423.87221848 163.08974197 -421 149 C-420.79600586 147.97390625 -420.59201172 146.9478125 -420.38183594 145.890625 C-413.05103012 109.86617019 -399.62822587 74.30619486 -377 45 C-375.76935053 43.25104243 -374.54024189 41.50099987 -373.3125 39.75 C-360.58270938 22.33288337 -345.12048396 6.12486141 -328 -7 C-327.03449219 -7.78246094 -326.06898438 -8.56492188 -325.07421875 -9.37109375 C-316.89065801 -15.95180892 -308.16206588 -21.42618512 -299.11914062 -26.74658203 C-297.24921249 -27.85259713 -295.39606101 -28.98090792 -293.546875 -30.12109375 C-208.83159967 -80.97072158 -92.93173535 -71.08980644 0 0 Z " fill="#FEFEFE" transform="translate(424,62)"/>
</svg>
