<?xml version="1.0" encoding="UTF-8"?>
<svg version="1.1" xmlns="http://www.w3.org/2000/svg" width="512" height="512">
<path d="M0 0 C1.09828125 0.36996094 2.1965625 0.73992188 3.328125 1.12109375 C14.18552348 5.57767708 21.39142767 13.91196579 29.3359375 22.28515625 C34.64441187 27.80653735 40.32017875 32.24260055 47 36 C46.31838724 49.36319744 45.21358048 62.67534564 44 76 C27.92868444 76.45320413 15.89890813 69.17541946 4.4765625 58.4609375 C1.91685621 55.91738077 -0.45628236 53.30514225 -2.74609375 50.51953125 C-7.10808851 45.23350021 -12.41342853 40.19552382 -19 38 C-24.96889281 37.46577896 -29.93593698 37.46693278 -35 41 C-53.20443367 58.76042309 -52.75632654 95.41308948 -54 119 C-53.12085938 119.01417969 -52.24171875 119.02835937 -51.3359375 119.04296875 C-12.5842105 120.4569864 31.35648685 130.71442227 65.13061523 150.23120117 C65.74751221 150.48490479 66.36440918 150.7386084 67 151 C69.29537089 149.91820304 71.20991538 148.81864409 73.3125 147.4375 C84.69173398 140.48452396 96.71054032 137.19605137 110 136 C110.763125 135.9278125 111.52625 135.855625 112.3125 135.78125 C128.63026691 135.03953332 145.98628228 141.0996225 158 152 C160.5625 154.375 160.5625 154.375 163 157 C163.62777344 157.64582031 164.25554687 158.29164063 164.90234375 158.95703125 C176.82706859 171.6367666 180.76746799 187.05306579 180.625 204.1875 C180.62152557 205.20173035 180.62152557 205.20173035 180.61798096 206.2364502 C180.53997107 217.78531964 178.92781047 227.54535622 174 238 C173.52046875 239.05832031 173.0409375 240.11664063 172.546875 241.20703125 C170.11375696 246.09332049 167.50715563 249.55307168 163.5625 253.3125 C161.13262183 255.94525225 160.07270028 257.27000953 159.71484375 260.86328125 C159.97572241 263.8473043 160.3550481 266.79792582 160.75976562 269.76513672 C164.28162791 302.52847753 154.95780173 336.26004529 134.39453125 362.1171875 C133.60433594 363.06851562 132.81414062 364.01984375 132 365 C131.33943604 365.81645996 131.33943604 365.81645996 130.66552734 366.64941406 C91.160072 415.43006327 28.93948024 440.19656772 -32 448 C-32.66935074 448.08814468 -33.33870148 448.17628937 -34.02833557 448.2671051 C-42.05501681 449.20022752 -50.08084366 449.14530224 -58.1484375 449.1328125 C-59.69398005 449.13348746 -61.2395225 449.13445908 -62.7850647 449.13571167 C-66.00401839 449.13717698 -69.22294412 449.13507012 -72.44189453 449.13037109 C-76.5642841 449.12464555 -80.68660895 449.12797795 -84.8089962 449.13394356 C-87.99171436 449.13755623 -91.17441715 449.13640782 -94.35713577 449.13381577 C-95.87776319 449.13314995 -97.39839202 449.13396285 -98.91901779 449.13629532 C-101.03898583 449.13883658 -103.15884841 449.13496175 -105.27880859 449.12939453 C-107.08555557 449.12820114 -107.08555557 449.12820114 -108.92880249 449.12698364 C-111.50861669 449.02031704 -113.5468817 448.72230446 -116 448 C-119.17505107 447.52712005 -122.35226973 447.0848337 -125.53515625 446.66796875 C-136.81733817 445.07746353 -147.89667588 442.52473599 -159 440 C-160.19254395 439.73268066 -160.19254395 439.73268066 -161.40917969 439.45996094 C-169.10024402 437.72173278 -176.43020932 435.67702253 -183.6484375 432.45703125 C-186.22503748 431.33690096 -188.78592688 430.30907448 -191.4140625 429.32421875 C-203.91546142 424.59765214 -215.46285975 418.70096284 -227.07080078 412.08813477 C-228.36267284 411.35947446 -229.67338649 410.66330675 -231 410 C-231 409.34 -231 408.68 -231 408 C-231.71542969 407.731875 -232.43085938 407.46375 -233.16796875 407.1875 C-236.04128939 405.98268693 -238.63337626 404.58762888 -241.3125 403 C-242.63701172 402.2265625 -242.63701172 402.2265625 -243.98828125 401.4375 C-244.98408203 400.7259375 -244.98408203 400.7259375 -246 400 C-246 399.34 -246 398.68 -246 398 C-246.99 398 -247.98 398 -249 398 C-249.33 397.34 -249.66 396.68 -250 396 C-250.99 395.67 -251.98 395.34 -253 395 C-255.6875 392.5625 -255.6875 392.5625 -258 390 C-258 389.34 -258 388.68 -258 388 C-258.58910156 387.72542969 -259.17820312 387.45085937 -259.78515625 387.16796875 C-279.58435057 376.72712377 -293.01380239 350.45596558 -302 331 C-302.51304687 329.89398438 -303.02609375 328.78796875 -303.5546875 327.6484375 C-307.81919338 316.88344158 -310.80479736 304.59203355 -311 293 C-311.01369629 292.28908203 -311.02739258 291.57816406 -311.04150391 290.84570312 C-311.29451717 275.71368072 -311.29451717 275.71368072 -310.6328125 268.515625 C-310.57077637 267.83338867 -310.50874023 267.15115234 -310.44482422 266.44824219 C-310.26193351 264.61933506 -310.04616203 262.79380072 -309.828125 260.96875 C-309.71002385 257.92930323 -309.71002385 257.92930323 -311.734375 255.90625 C-312.48203125 255.2771875 -313.2296875 254.648125 -314 254 C-317.39976092 250.1221477 -319.71772432 246.08238164 -322 241.5 C-322.33 240.86835938 -322.66 240.23671875 -323 239.5859375 C-328.6085631 228.41262819 -330.7089044 217.70877443 -330.5625 205.25 C-330.55226807 203.93539795 -330.54203613 202.6207959 -330.53149414 201.26635742 C-330.21784522 186.862497 -327.69995751 173.31254491 -318 162 C-317.34 162 -316.68 162 -316 162 C-316 161.01 -316 160.02 -316 159 C-315.34 159 -314.68 159 -314 159 C-314 158.34 -314 157.68 -314 157 C-301.74559503 143.30172255 -284.27555708 137.38868701 -266.55078125 135.77734375 C-250.89491892 135.16599429 -232.9105811 139.80458917 -220.4375 149.4375 C-218.41357367 150.76150709 -218.41357367 150.76150709 -216 151 C-212.02624155 149.59405107 -208.5398538 147.64881821 -204.87109375 145.59375 C-177.9980213 130.76256386 -145.5147599 124.13783104 -115.3125 120.25 C-114.32040527 120.12206055 -113.32831055 119.99412109 -112.30615234 119.86230469 C-106.49163631 119.16247313 -100.85593974 118.87938332 -95 119 C-95.01087646 118.35675781 -95.02175293 117.71351563 -95.03295898 117.05078125 C-95.10219168 109.65541101 -94.67214168 102.36758458 -94.0625 95 C-93.93198242 93.35257813 -93.93198242 93.35257813 -93.79882812 91.671875 C-93.62407741 89.48684388 -93.44372348 87.30225313 -93.25756836 85.11816406 C-93.09436258 83.14236855 -92.94733065 81.1651148 -92.82250977 79.18652344 C-92.31466718 71.9525444 -90.75046224 65.22749003 -88.8125 58.25 C-88.49716309 57.10692383 -88.18182617 55.96384766 -87.85693359 54.78613281 C-82.45721116 35.62758064 -74.41435199 14.0842439 -56.08984375 3.6796875 C-38.27644933 -5.76101904 -19.08533992 -7.05984859 0 0 Z M-86.30957031 152.03808594 C-112.44699865 152.57643566 -139.3466094 157.22552239 -164 166 C-165.1924231 166.42430298 -165.1924231 166.42430298 -166.40893555 166.85717773 C-178.34974693 171.17545067 -189.8247282 175.9687106 -201 182 C-202.7325 182.92039063 -202.7325 182.92039063 -204.5 183.859375 C-219.49064787 192.10423133 -232.7833082 202.0570716 -245 214 C-245.73476562 214.67289063 -246.46953125 215.34578125 -247.2265625 216.0390625 C-263.676678 231.44056506 -276.31450536 255.93360946 -277.23828125 278.6171875 C-277.79582939 305.11964552 -268.55141718 328.13764623 -251 348 C-250.2059375 348.92683594 -249.411875 349.85367188 -248.59375 350.80859375 C-242.91006079 357.2926759 -236.82836043 362.75175603 -230 368 C-229.06414062 368.73992187 -228.12828125 369.47984375 -227.1640625 370.2421875 C-194.09925542 395.86076457 -152.95927023 409.16638487 -112 415 C-110.84927002 415.17789063 -110.84927002 415.17789063 -109.67529297 415.359375 C-48.47818504 424.70796707 22.33999281 410.16199161 72.73828125 373.7109375 C76.90032353 370.56244955 80.98020263 367.32807899 85 364 C85.7940625 363.34257812 86.588125 362.68515625 87.40625 362.0078125 C90.2876401 359.59423724 90.2876401 359.59423724 93 357 C93 356.34 93 355.68 93 355 C93.66 355 94.32 355 95 355 C95 354.34 95 353.68 95 353 C95.556875 352.79375 96.11375 352.5875 96.6875 352.375 C99.97012371 350.42316968 101.70673246 348.05769006 104 345 C104 344.34 104 343.68 104 343 C104.66 343 105.32 343 106 343 C107.62028548 340.8637146 107.62028548 340.8637146 109.25 338.125 C109.86875 337.12082031 110.4875 336.11664063 111.125 335.08203125 C111.74375 334.06496094 112.3625 333.04789063 113 332 C113.556875 331.11699219 114.11375 330.23398437 114.6875 329.32421875 C117.77776939 324.35661071 120.24257956 319.57928055 122 314 C122.38285156 312.81083984 122.38285156 312.81083984 122.7734375 311.59765625 C130.3864755 287.13794506 127.84065371 263.64416987 116 241 C113.81685608 237.21831973 111.47205727 233.59739678 109 230 C108.22867134 228.7711441 107.45774328 227.5420365 106.6875 226.3125 C105.8521875 225.1678125 105.8521875 225.1678125 105 224 C104.34 224 103.68 224 103 224 C103 223.34 103 222.68 103 222 C102.34 222 101.68 222 101 222 C100.5978125 221.12601563 100.5978125 221.12601563 100.1875 220.234375 C98.98519009 217.97213399 97.66174087 216.19423682 96 214.25 C95.484375 213.63640625 94.96875 213.0228125 94.4375 212.390625 C93.09376748 210.76823624 93.09376748 210.76823624 91 211 C91 210.34 91 209.68 91 209 C89.34151823 207.98648336 87.67334039 206.98879205 86 206 C85.34 205.319375 84.68 204.63875 84 203.9375 C81.79185467 201.79835921 79.89268359 200.96422786 77 200 C77 199.34 77 198.68 77 198 C64.53786673 188.20317847 49.51405142 180.20433777 35 174 C34.00613281 173.56042969 33.01226562 173.12085938 31.98828125 172.66796875 C25.86502981 170.01856192 19.70254748 167.86871042 13.30078125 165.9921875 C10.74849569 165.22499161 8.24482158 164.40219752 5.7265625 163.53515625 C-7.33265799 159.15974995 -21.11635541 156.83154389 -34.6875 154.6875 C-36.2796936 154.43045288 -36.2796936 154.43045288 -37.90405273 154.16821289 C-43.86310412 153.26890126 -49.59651611 152.84246805 -55.6237793 152.98950195 C-57.84836569 152.99933009 -59.92611765 152.81635937 -62.125 152.5 C-70.13873501 151.50714787 -78.25435265 151.90525148 -86.30957031 152.03808594 Z M-289.171875 179.87109375 C-298.00856496 190.16168356 -297.98255756 200.60706781 -297.26171875 213.63574219 C-296.93268175 216.6081249 -296.1436883 219.24223546 -295 222 C-292.02304411 219.16794019 -289.61690666 216.22974787 -287.25 212.875 C-277.51070238 199.30890201 -277.51070238 199.30890201 -272 194 C-271.34 193.34 -270.68 192.68 -270 192 C-270 191.34 -270 190.68 -270 190 C-269.34 190 -268.68 190 -268 190 C-268 189.34 -268 188.68 -268 188 C-267.34 188 -266.68 188 -266 188 C-266 187.34 -266 186.68 -266 186 C-265.34 186 -264.68 186 -264 186 C-264 185.34 -264 184.68 -264 184 C-263.43539062 183.7525 -262.87078125 183.505 -262.2890625 183.25 C-259.62338367 181.79433921 -257.62027213 180.04252181 -255.375 178 C-254.59898437 177.29875 -253.82296875 176.5975 -253.0234375 175.875 C-251.65765596 174.60941093 -250.3166387 173.3166387 -249 172 C-262.57832634 168.1795335 -278.85416935 169.8260104 -289.171875 179.87109375 Z M100 173 C100.93199219 173.77601563 101.86398437 174.55203125 102.82421875 175.3515625 C118.97220658 188.96423308 132.64446314 204.13580177 144 222 C147.31910413 218.68089587 146.75976751 214.53711826 147 210 C147.03931641 209.34918457 147.07863281 208.69836914 147.11914062 208.02783203 C147.63477913 198.55188198 147.59350244 191.13055533 142 183 C141.34 183 140.68 183 140 183 C140 182.34 140 181.68 140 181 C139.34 181 138.68 181 138 181 C137.76925781 180.40703125 137.53851563 179.8140625 137.30078125 179.203125 C134.83927889 175.03409397 130.58759917 173.14203761 126.12695312 171.53320312 C118.68555691 169.66772914 106.5129828 168.65801147 100 173 Z " fill="#FFFFFF" transform="translate(331,34)"/>
<path d="M0 0 C11.95986909 9.79023767 19.15851453 21.70534873 21.60546875 37.1328125 C22.65225829 54.38470942 18.71165335 70.15861779 7.35546875 83.5703125 C-2.52739461 93.75366833 -17.13263882 101.03574385 -31.39453125 102.1328125 C-49.43635893 102.11438367 -63.52993917 97.17980767 -76.51953125 84.3828125 C-77.84129732 82.99418667 -79.1343405 81.57755002 -80.39453125 80.1328125 C-81.40773438 78.98425781 -81.40773438 78.98425781 -82.44140625 77.8125 C-84.6928393 74.72353385 -86.14760631 71.54660108 -87.51953125 68.0078125 C-87.77814941 67.34765137 -88.03676758 66.68749023 -88.30322266 66.00732422 C-93.87136989 51.30499304 -93.90136005 36.20818941 -87.6484375 21.671875 C-79.68314316 5.54277432 -68.5990087 -4.03533168 -51.7265625 -9.88671875 C-33.77674833 -15.16855152 -14.68920345 -11.22926413 0 0 Z M-63.21875 23.33984375 C-69.50067614 32.26839253 -70.43700708 41.4039987 -69.39453125 52.1328125 C-67.02985128 61.21149453 -62.56377482 69.03262312 -54.41796875 73.91796875 C-44.09460585 79.23035623 -34.13652338 81.27720462 -22.70703125 77.6953125 C-14.02045626 74.10655232 -6.12524639 66.84867538 -2.39453125 58.1328125 C0.52122513 48.76845207 0.89836459 39.53980388 -3.1328125 30.515625 C-7.90660332 21.50010673 -14.75635075 14.34757921 -24.45703125 10.828125 C-39.32142584 7.30969117 -53.45784775 11.53061512 -63.21875 23.33984375 Z " fill="#FFFFFF" transform="translate(470.39453125,44.8671875)"/>
<path d="M0 0 C4.41409337 1.33416327 8.4659698 3.10488366 12.62036133 5.0715332 C30.76732827 13.60992968 49.16927934 18.24084555 69 21 C70.11205811 21.15686279 70.11205811 21.15686279 71.24658203 21.31689453 C111.2371865 26.1274708 154.55743094 21.2089974 190.3359375 2.23046875 C193 1 193 1 197 1 C196.55929011 5.85680283 194.17372795 8.71506193 191.0625 12.25 C190.56451904 12.82210205 190.06653809 13.3942041 189.5534668 13.98364258 C174.73693067 30.73839521 154.80319664 42.66262016 133 48 C131.68 48 130.36 48 129 48 C128.67 48.66 128.34 49.32 128 50 C125.6624518 50.45100236 123.30196351 50.78528704 120.9375 51.0625 C120.24865723 51.14483887 119.55981445 51.22717773 118.85009766 51.31201172 C116.90047771 51.5448228 114.95025509 51.77257087 113 52 C111.62470988 52.20640948 110.24962468 52.41420442 108.875 52.625 C88.4108503 54.60540158 65.40659929 51.22714239 47 42 C45.70385877 41.37997415 44.40693032 40.76159229 43.109375 40.14453125 C35.22726928 36.35446768 27.9954796 32.29387645 21 27 C20.29488281 26.52046875 19.58976562 26.0409375 18.86328125 25.546875 C14.20823035 22.31937304 10.95729551 18.73703504 7.640625 14.1484375 C5.92044614 11.89582233 4.01424771 9.98906961 2 8 C0.06470585 4.90352936 0 3.86069323 0 0 Z " fill="#FFFFFF" transform="translate(158,375)"/>
<path d="M0 0 C7.11820363 5.20275974 14.02382617 12.25282714 15.80078125 21.125 C17.26733988 31.73523286 16.74869646 41.02551383 11.5625 50.4375 C3.81949029 60.27321504 -4.45368642 65.5465823 -16.75 68.375 C-28.64881086 68.15631915 -39.23417345 64.89082655 -47.75 56.375 C-55.90179742 46.12015902 -57.99065303 36.42276674 -56.75 23.375 C-54.44872511 13.70184452 -48.04553892 4.85656199 -39.75 -0.625 C-26.83854914 -6.95930113 -12.60205402 -7.835474 0 0 Z " fill="#FFFFFF" transform="translate(355.75,257.625)"/>
<path d="M0 0 C8.743131 8.30155873 12.80640535 15.99143818 13.1875 28.125 C12.97672896 37.6863407 10.44074642 46.66777373 3.75 53.75 C-1.33531339 58.36692926 -6.87485029 61.29801934 -13.25 63.75 C-14.301875 64.20375 -15.35375 64.6575 -16.4375 65.125 C-25.40622438 66.59528268 -35.50250359 64.55464894 -43.25 59.75 C-49.14419955 55.49554018 -54.53635083 50.02838813 -58.25 43.75 C-58.25 42.43 -58.25 41.11 -58.25 39.75 C-58.91 39.42 -59.57 39.09 -60.25 38.75 C-60.89050223 26.74651385 -61.38021788 17.03396809 -54.25 6.75 C-53.87875 6.1415625 -53.5075 5.533125 -53.125 4.90625 C-49.59547912 -0.18041244 -43.63422998 -2.58596967 -38.25 -5.25 C-37.55003906 -5.62253906 -36.85007813 -5.99507812 -36.12890625 -6.37890625 C-24.88763938 -11.59055389 -9.11534837 -7.56159581 0 0 Z " fill="#FFFFFF" transform="translate(200.25,260.25)"/>
</svg>
