<?xml version="1.0" encoding="UTF-8"?>
<svg version="1.1" xmlns="http://www.w3.org/2000/svg" width="2084" height="2084">
<path d="M0 0 C1.28274307 -0.00701431 2.56548615 -0.01402863 3.88710022 -0.02125549 C8.00286365 -0.04063466 12.11857054 -0.0456899 16.234375 -0.046875 C16.93684231 -0.04731686 17.63930962 -0.04775871 18.36306381 -0.04821396 C40.37634089 -0.0554694 62.12305 0.40222888 83.984375 3.203125 C85.36353493 3.37168259 86.74276854 3.5396383 88.12207031 3.70703125 C172.54048011 14.09298658 254.03893036 45.42229918 352.60546875 122.04296875 C354.17019006 123.46380765 355.74551029 124.87307603 357.33203125 126.26953125 C366.74513308 134.5806114 375.98970723 143.38377491 384.10546875 152.984375 C385.65922851 154.81916823 387.23646733 156.62370797 388.83203125 158.421875 C397.01583094 167.68114586 404.62186008 177.28127017 411.984375 187.203125 C412.52594238 187.92902832 413.06750977 188.65493164 413.62548828 189.40283203 C438.28846603 222.56270737 457.76421826 259.03791821 470.984375 298.203125 C471.56179443 299.89477783 471.56179443 299.89477783 472.15087891 301.62060547 C486.90123226 345.32787371 493.98635127 391.2728421 496.984375 437.203125 C497.03315796 437.94363098 497.08194092 438.68413696 497.13220215 439.44708252 C499.22432738 471.66115432 499.5737849 503.93294173 499.984375 536.203125 C501.23919678 535.92887695 502.49401855 535.65462891 503.78686523 535.37207031 C521.11640922 531.62515359 521.11640922 531.62515359 529.046875 530.953125 C529.87155273 530.87940674 530.69623047 530.80568848 531.54589844 530.72973633 C561.40661622 528.26991256 591.05535205 532.74203874 617.984375 546.203125 C618.63712402 546.52619629 619.28987305 546.84926758 619.96240234 547.18212891 C653.03430252 563.85114077 675.36550796 593.09766208 687.16357422 627.68701172 C698.61033161 662.77632809 695.41795543 701.46441626 679.109375 734.453125 C670.3149901 751.63625746 659.2494419 766.29684641 645.984375 780.203125 C645.29601563 780.93273437 644.60765625 781.66234375 643.8984375 782.4140625 C638.65219507 787.83161081 632.87233281 792.5044016 626.984375 797.203125 C626.21609375 797.83863281 625.4478125 798.47414063 624.65625 799.12890625 C612.14515965 809.40587332 598.58841168 818.18184071 584.93408203 826.84204102 C575.64366351 832.74490518 566.47873479 838.82184757 557.34326172 844.9609375 C552.10777901 848.47601089 546.85718827 851.942385 541.48608398 855.24731445 C534.69536224 859.43721343 529.47793259 863.75808755 525.546875 870.765625 C522.68102396 883.18431284 529.81482788 895.67149063 535.484375 906.328125 C535.7905072 906.90995544 536.0966394 907.49178589 536.41204834 908.09124756 C555.92022919 945.14656292 582.28777691 977.5120681 611.734375 1007.078125 C612.52658447 1007.87500732 613.31879395 1008.67188965 614.13500977 1009.49291992 C618.92347589 1014.26836166 623.84046831 1018.81433775 628.984375 1023.203125 C629.99368766 1024.08050136 631.0028172 1024.95808844 632.01171875 1025.8359375 C640.74106036 1033.31153474 649.78973606 1040.31090441 658.984375 1047.203125 C659.93981201 1047.92266357 659.93981201 1047.92266357 660.91455078 1048.65673828 C676.46498998 1060.34310414 692.67820862 1070.88775202 709.45751953 1080.72070312 C711.10718563 1081.68850723 712.75413418 1082.66096275 714.39794922 1083.63867188 C725.76381185 1090.39562507 737.38642942 1096.47434025 749.234375 1102.328125 C783.4030953 1119.2213142 815.62168142 1138.67443798 828.78955078 1176.51708984 C836.99970724 1201.90590595 834.94262738 1227.5530869 823.34375 1251.57421875 C793.8314138 1308.64836317 731.34823064 1334.3517134 673.36328125 1353.2109375 C667.44359315 1355.09329642 661.47655577 1356.75747472 655.484375 1358.390625 C645.19857601 1361.23041672 634.74379007 1364.55313162 628.984375 1374.203125 C626.16799921 1379.96963586 623.84330328 1385.91505554 621.58984375 1391.91796875 C616.4225048 1405.48401287 609.42382688 1417.13547072 599.984375 1428.203125 C599.47648437 1428.84378906 598.96859375 1429.48445313 598.4453125 1430.14453125 C597.34015566 1431.53728738 596.1699095 1432.87811585 594.984375 1434.203125 C594.324375 1434.203125 593.664375 1434.203125 592.984375 1434.203125 C592.984375 1434.863125 592.984375 1435.523125 592.984375 1436.203125 C574.0807917 1454.4508697 549.19964088 1464.88890452 523.671875 1469.453125 C522.83342041 1469.60418701 521.99496582 1469.75524902 521.13110352 1469.91088867 C499.6287558 1473.44314685 477.67571139 1473.89178698 455.95019531 1474.80493164 C432.83347368 1475.78865275 409.64404047 1477.20442045 386.859375 1481.453125 C385.1592627 1481.76455444 385.1592627 1481.76455444 383.42480469 1482.08227539 C365.54514054 1485.48763098 347.7642328 1490.08061089 330.984375 1497.203125 C330.0552832 1497.58960205 330.0552832 1497.58960205 329.10742188 1497.98388672 C309.70425184 1506.16065497 291.89743246 1518.1429774 274.046875 1529.203125 C260.55683039 1537.55954394 246.83952093 1545.47033196 232.984375 1553.203125 C232.16146973 1553.66299805 231.33856445 1554.12287109 230.49072266 1554.59667969 C165.61556564 1590.58896295 92.06055835 1607.49017686 18.171875 1607.390625 C17.33020782 1607.39002075 16.48854065 1607.3894165 15.62136841 1607.38879395 C-69.85863713 1607.22385423 -148.87065448 1583.1113361 -222.015625 1539.203125 C-224.12205313 1537.94864314 -226.22882885 1536.69474473 -228.3359375 1535.44140625 C-238.34813173 1529.47227376 -248.30661622 1523.42459374 -258.203125 1517.265625 C-310.91526605 1484.57118606 -368.17458112 1476.60104922 -429.203125 1474.203125 C-476.72613082 1472.33218651 -522.96884616 1468.57928664 -559.015625 1434.203125 C-559.60472656 1433.68878906 -560.19382812 1433.17445312 -560.80078125 1432.64453125 C-575.08147341 1419.64673815 -583.20872867 1400.22882302 -590.22729492 1382.67260742 C-594.5858072 1371.92924693 -600.17942307 1366.21535694 -610.64135742 1361.5480957 C-616.49475899 1359.21495127 -622.52745102 1357.51062044 -628.57397461 1355.75408936 C-652.76113918 1348.6966321 -676.27309727 1340.10385381 -699.015625 1329.203125 C-699.96244141 1328.75356445 -700.90925781 1328.30400391 -701.88476562 1327.84082031 C-721.0334353 1318.6997133 -739.46034701 1308.8081937 -755.015625 1294.203125 C-755.68335938 1293.58308594 -756.35109375 1292.96304687 -757.0390625 1292.32421875 C-778.99866158 1271.75195896 -797.04515786 1244.77564632 -798.3515625 1213.73046875 C-798.80470048 1185.7621984 -790.5005341 1160.85680115 -771.09375 1140.32373047 C-762.54139919 1131.5130274 -753.32951092 1124.76862349 -743.015625 1118.203125 C-741.71625 1117.3678125 -741.71625 1117.3678125 -740.390625 1116.515625 C-732.06178446 1111.33823764 -723.14269261 1107.18301664 -714.33300781 1102.8984375 C-674.09541684 1083.31217803 -636.28424219 1059.01991673 -602.015625 1030.203125 C-601.45746094 1029.73519531 -600.89929688 1029.26726562 -600.32421875 1028.78515625 C-593.96771341 1023.44459345 -587.70324183 1018.10877935 -581.93798828 1012.12280273 C-580.11549342 1010.3028539 -578.23378972 1008.6369973 -576.26953125 1006.97265625 C-572.02301661 1003.28162794 -568.15729688 999.32085831 -564.328125 995.203125 C-563.63533447 994.4603833 -562.94254395 993.7176416 -562.22875977 992.95239258 C-512.97204635 940.38676487 -512.97204635 940.38676487 -489.81640625 875.27734375 C-490.50825194 868.07400925 -494.22526482 864.82053489 -499.42700195 860.29931641 C-503.61864206 856.90504856 -508.08785193 854.02286847 -512.640625 851.140625 C-514.69019951 849.82306497 -516.73967599 848.50535244 -518.7890625 847.1875 C-520.34512207 846.19266602 -520.34512207 846.19266602 -521.93261719 845.17773438 C-526.72671051 842.10720644 -531.49733838 839.00102914 -536.265625 835.890625 C-537.1949585 835.28452393 -538.12429199 834.67842285 -539.08178711 834.05395508 C-546.21933944 829.39154614 -553.34226672 824.70719838 -560.44592285 819.99331665 C-562.13922146 818.8704991 -563.83470581 817.75097996 -565.53027344 816.6315918 C-581.25706875 806.16895079 -595.87846312 794.51776928 -609.59521484 781.54003906 C-610.7714293 780.43296612 -611.96377211 779.34305713 -613.16015625 778.2578125 C-633.78925527 758.88817426 -648.57019686 731.57200005 -655.015625 704.203125 C-655.17788574 703.53764648 -655.34014648 702.87216797 -655.50732422 702.18652344 C-663.55940619 667.76782009 -656.69463435 631.82837772 -640.015625 601.203125 C-639.438125 600.12160156 -638.860625 599.04007813 -638.265625 597.92578125 C-628.12839642 579.6928493 -612.46101154 564.44891137 -595.015625 553.203125 C-594.07847656 552.58179688 -593.14132812 551.96046875 -592.17578125 551.3203125 C-555.63201836 528.46124062 -509.84445981 526.45719389 -468.77734375 535.30078125 C-465.015625 536.203125 -465.015625 536.203125 -463.015625 537.203125 C-463.345625 536.213125 -463.675625 535.223125 -464.015625 534.203125 C-464.11202422 532.06160723 -464.14637655 529.91712286 -464.1484375 527.7734375 C-464.14989273 527.12468155 -464.15134796 526.4759256 -464.15284729 525.80751038 C-464.15512137 523.64765909 -464.14872023 521.48796119 -464.140625 519.328125 C-464.13874176 518.57528229 -464.13685852 517.82243958 -464.13491821 517.04678345 C-463.88727868 431.61114506 -458.23313453 342.78831983 -374.015625 184.203125 C-373.60135254 183.66413574 -373.18708008 183.12514648 -372.76025391 182.56982422 C-365.80244092 173.52544014 -358.5510993 164.77156356 -351.015625 156.203125 C-350.21382812 155.28789062 -349.41203125 154.37265625 -348.5859375 153.4296875 C-342.23787385 146.35149513 -335.53861994 139.62248299 -328.828125 132.890625 C-328.35449524 132.41431641 -327.88086548 131.93800781 -327.3928833 131.44726562 C-321.77694551 125.80726058 -316.07867184 120.35902895 -310.015625 115.203125 C-309.03980469 114.34589844 -308.06398438 113.48867188 -307.05859375 112.60546875 C-287.07663673 95.35702158 -264.91552468 80.30462214 -242.015625 67.203125 C-241.31373047 66.8014209 -240.61183594 66.3997168 -239.88867188 65.98583984 C-230.09421886 60.40951412 -220.18749823 55.11422756 -210.04638672 50.19628906 C-208.01727509 49.20393199 -206.00282489 48.18561671 -203.98828125 47.1640625 C-142.15750597 16.30906341 -69.04381832 0.25514307 0 0 Z M-160.46435547 129.04052734 C-162.7997467 130.1047506 -165.14269156 131.14992004 -167.48828125 132.19140625 C-199.83452804 146.7509785 -229.66013969 167.58360393 -256.015625 191.203125 C-256.5734668 191.69780273 -257.13130859 192.19248047 -257.70605469 192.70214844 C-270.25777947 203.85344339 -281.57722989 216.05580382 -292.015625 229.203125 C-292.93324959 230.31906406 -293.85262295 231.43356667 -294.7734375 232.546875 C-306.50125751 246.81646589 -316.97457948 262.09264931 -326.015625 278.203125 C-326.44053223 278.95722656 -326.86543945 279.71132813 -327.30322266 280.48828125 C-362.24915983 343.16210308 -371.04261214 417.23760067 -371.21875 487.97265625 C-371.22561381 489.72388728 -371.232517 491.47511815 -371.23945618 493.22634888 C-371.25840912 498.82277585 -371.26286435 504.41917035 -371.265625 510.015625 C-371.266656 510.96957783 -371.267687 511.92353065 -371.26874924 512.90639114 C-371.30476152 548.42498454 -370.24842415 583.75290101 -368.015625 619.203125 C-367.93553192 620.47641159 -367.93553192 620.47641159 -367.8538208 621.77542114 C-367.77946808 622.95405228 -367.77946808 622.95405228 -367.70361328 624.15649414 C-367.65736313 624.89037857 -367.61111298 625.624263 -367.5634613 626.38038635 C-367.44606974 628.22575531 -367.32517194 630.07090041 -367.20385742 631.91601562 C-366.16725476 650.01824425 -366.16725476 650.01824425 -370.015625 656.203125 C-373.53995376 659.61376574 -376.56329744 660.06611297 -381.328125 660.515625 C-399.52709102 660.08702616 -418.66703328 649.83041263 -435.29296875 643.38671875 C-485.47268739 623.05001003 -485.47268739 623.05001003 -538.015625 627.203125 C-541.62769781 628.89509595 -544.8105721 630.83649966 -548.015625 633.203125 C-548.65886719 633.65429688 -549.30210937 634.10546875 -549.96484375 634.5703125 C-559.17599108 641.64351457 -564.2351507 653.96598059 -566.015625 665.203125 C-567.19636115 681.61729305 -563.06527761 695.87987568 -552.24609375 708.52734375 C-549.28011694 711.8639467 -546.18024159 715.05544847 -543.015625 718.203125 C-542.23574219 718.98300781 -541.45585938 719.76289062 -540.65234375 720.56640625 C-528.67942575 731.87760857 -514.44446592 740.72559082 -500.51171875 749.38671875 C-496.58366182 751.832147 -492.72459822 754.36337443 -488.890625 756.953125 C-483.52691813 760.57096912 -478.09710557 764.07167756 -472.63354492 767.53686523 C-393.45437436 817.78721191 -393.45437436 817.78721191 -387.015625 838.828125 C-380.72887251 869.16853919 -397.74436779 904.55381281 -410.015625 931.203125 C-410.80348137 932.95438392 -411.59124313 934.70568541 -412.37890625 936.45703125 C-418.67382306 950.24750194 -426.15555532 963.25253319 -434.015625 976.203125 C-434.53415039 977.06212402 -435.05267578 977.92112305 -435.58691406 978.80615234 C-443.05834815 991.12306697 -451.31682278 1002.72760146 -460.015625 1014.203125 C-460.91184932 1015.39944678 -461.80771555 1016.59603695 -462.703125 1017.79296875 C-471.49772594 1029.46996503 -481.17421971 1040.40491642 -491.015625 1051.203125 C-492.2221875 1052.54890625 -492.2221875 1052.54890625 -493.453125 1053.921875 C-499.00646645 1060.07021732 -504.73027354 1066.02119958 -510.578125 1071.890625 C-511.63302124 1072.95240967 -511.63302124 1072.95240967 -512.70922852 1074.03564453 C-513.36850342 1074.69290527 -514.02777832 1075.35016602 -514.70703125 1076.02734375 C-515.59177124 1076.91039185 -515.59177124 1076.91039185 -516.49438477 1077.8112793 C-518.015625 1079.203125 -518.015625 1079.203125 -520.015625 1080.203125 C-520.015625 1080.863125 -520.015625 1081.523125 -520.015625 1082.203125 C-520.54027344 1082.40808594 -521.06492187 1082.61304688 -521.60546875 1082.82421875 C-525.07341328 1084.80831019 -527.70769905 1087.50854648 -530.578125 1090.265625 C-536.51377471 1095.86724048 -542.60952841 1101.14052922 -549.015625 1106.203125 C-550.05750455 1107.03749465 -551.09916183 1107.87214192 -552.140625 1108.70703125 C-589.40561178 1138.4388573 -630.01655729 1164.05412898 -672.8125 1185.03710938 C-690.48446959 1192.75765235 -690.48446959 1192.75765235 -702.015625 1207.203125 C-702.88215114 1212.49856251 -701.73258258 1215.78860584 -698.73242188 1220.05371094 C-693.2368891 1226.93406796 -686.0777361 1231.78554264 -678.453125 1236.015625 C-677.55110352 1236.52134033 -676.64908203 1237.02705566 -675.71972656 1237.5480957 C-647.5198761 1253.08121525 -617.1911694 1263.16155623 -586.23828125 1271.61328125 C-552.57879195 1280.80602199 -552.57879195 1280.80602199 -540.015625 1286.203125 C-539.37061035 1286.47688965 -538.7255957 1286.7506543 -538.06103516 1287.03271484 C-525.83351455 1292.33841433 -515.50939779 1299.70305337 -510.015625 1312.203125 C-506.43456733 1322.17712716 -505.0115522 1332.6498473 -503.58544922 1343.10766602 C-502.02676588 1353.89953773 -499.5331044 1363.83759978 -491.015625 1371.203125 C-474.45950157 1382.63807466 -448.66426015 1380.63628815 -429.54953003 1381.46353149 C-346.56305363 1385.0732442 -273.45395598 1399.00945961 -201.83959961 1443.08093262 C-167.93045743 1463.9433837 -133.904381 1484.33391345 -96.015625 1497.203125 C-95.0889502 1497.51975098 -94.16227539 1497.83637695 -93.20751953 1498.16259766 C-70.20240532 1505.89557882 -46.14593541 1510.70102851 -22.015625 1513.203125 C-21.15839844 1513.2973877 -20.30117188 1513.39165039 -19.41796875 1513.48876953 C-7.32455514 1514.62608753 4.84948044 1514.44705076 16.984375 1514.453125 C18.79633362 1514.45413712 18.79633362 1514.45413712 20.64489746 1514.45516968 C38.60754409 1514.43922368 56.21857148 1514.09055676 73.984375 1511.203125 C75.07911133 1511.02620117 76.17384766 1510.84927734 77.30175781 1510.66699219 C111.47357356 1504.94699181 143.88836705 1494.4998855 174.984375 1479.203125 C175.91491699 1478.74744141 176.84545898 1478.29175781 177.80419922 1477.82226562 C192.71396791 1470.45184485 206.89418316 1461.9796106 221.0330658 1453.25257874 C226.22218861 1450.05017552 231.4401668 1446.89784411 236.671875 1443.765625 C237.46811279 1443.28843018 238.26435059 1442.81123535 239.0847168 1442.31958008 C245.76838536 1438.32021619 252.47246575 1434.35614167 259.19921875 1430.4296875 C261.44144793 1429.11881173 263.65664056 1427.78535346 265.86328125 1426.4140625 C276.36037541 1419.96606579 287.71062984 1415.11706768 298.984375 1410.203125 C299.69013672 1409.89487793 300.39589844 1409.58663086 301.12304688 1409.26904297 C352.87708862 1387.15719709 411.8019694 1383.92555466 467.21411133 1381.60131836 C500.34224383 1381.91081252 500.34224383 1381.91081252 529.4921875 1368.94140625 C536.99290431 1360.20366023 538.18867644 1349.43067907 539.87890625 1338.421875 C544.88877177 1306.05082712 544.88877177 1306.05082712 557.94921875 1295.8984375 C569.15162551 1288.04059862 581.85736879 1283.39948983 594.82421875 1279.32421875 C595.64189728 1279.06670837 596.45957581 1278.809198 597.30203247 1278.54388428 C605.42845031 1276.01560501 613.6314672 1273.80764505 621.85522461 1271.62207031 C648.16787354 1264.59305032 673.50700131 1256.31129953 697.984375 1244.203125 C698.9444043 1243.73197266 699.90443359 1243.26082031 700.89355469 1242.77539062 C722.04183753 1232.66503997 722.04183753 1232.66503997 736.984375 1215.203125 C737.69427125 1210.86307749 737.93102811 1206.89463683 735.73828125 1202.9765625 C728.63011638 1194.47303039 718.59197946 1189.83402009 708.79925537 1185.08364868 C694.87973402 1178.31702613 681.3458996 1171.01897439 667.984375 1163.203125 C667.18016113 1162.73938477 666.37594727 1162.27564453 665.54736328 1161.79785156 C642.45041408 1148.47323726 620.14271956 1133.42226477 598.984375 1117.203125 C598.35192871 1116.72085449 597.71948242 1116.23858398 597.06787109 1115.74169922 C585.1840705 1106.65113976 573.81012164 1096.9609414 562.875 1086.75 C561.13352302 1084.99204574 561.13352302 1084.99204574 558.984375 1085.203125 C558.984375 1084.543125 558.984375 1083.883125 558.984375 1083.203125 C557.6375265 1081.83656334 557.6375265 1081.83656334 555.80078125 1080.38671875 C550.12351739 1075.55673309 544.9143334 1070.2828131 539.65698242 1065.00610352 C537.925428 1063.269189 536.18859141 1061.53768611 534.45117188 1059.80664062 C528.7492965 1054.1084927 523.17835901 1048.37505206 517.984375 1042.203125 C517.10771952 1041.19318615 516.23016471 1040.18402699 515.3515625 1039.17578125 C507.87592823 1030.4463964 500.85718498 1021.41289341 493.984375 1012.203125 C493.45054199 1011.49027344 492.91670898 1010.77742188 492.36669922 1010.04296875 C480.10085709 993.59397815 468.84364288 976.37488663 459.11474609 958.29931641 C458.32206067 956.82933865 457.52228536 955.36317247 456.71728516 953.89990234 C439.07484207 921.80108306 415.08811549 874.84764761 422.64453125 836.88671875 C433.21551625 803.9839559 487.23407654 780.40482392 514.69824219 762.67871094 C522.14086502 757.8748651 529.57004559 753.0505237 536.984375 748.203125 C537.87898438 747.61853516 538.77359375 747.03394531 539.6953125 746.43164062 C579.12560647 721.15169234 579.12560647 721.15169234 600.984375 681.203125 C602.5091123 666.96481968 600.22361156 653.17143498 591.984375 641.203125 C589.67181006 638.47386109 589.67181006 638.47386109 586.984375 636.203125 C586.49453125 635.72230469 586.0046875 635.24148438 585.5 634.74609375 C574.45753136 624.36091491 559.56335357 622.18616086 544.984375 622.203125 C512.8615928 623.69489507 481.14880298 638.36556502 451.609375 650.02514648 C421.39154815 661.8946353 421.39154815 661.8946353 407.359375 658.265625 C403.83951262 655.20890241 402.9849571 651.68602697 401.984375 647.203125 C401.74457488 643.73235658 401.94887134 640.34894652 402.203125 636.8828125 C402.26085083 635.89312469 402.31857666 634.90343689 402.37805176 633.88375854 C402.50290765 631.75651901 402.63491131 629.62968898 402.7734375 627.5032959 C403.05752645 623.05865186 403.28883704 618.61181579 403.52180481 614.16424561 C403.70603835 610.65545163 403.89668482 607.14705226 404.08862305 603.63867188 C405.50954817 577.49700174 406.64739067 551.38215131 406.984375 525.203125 C407.00097168 524.00107422 407.01756836 522.79902344 407.03466797 521.56054688 C407.12289574 514.10584476 407.09275925 506.65743625 406.984375 499.203125 C406.97577454 498.55996338 406.96717407 497.91680176 406.95831299 497.25415039 C405.66494887 402.7067085 392.84550759 305.53883489 328.984375 231.203125 C328.06786548 230.11554715 327.15256977 229.02694563 326.23828125 227.9375 C321.68980427 222.5255545 317.10123991 217.15207294 312.4140625 211.859375 C311.11293149 210.35205383 309.88753076 208.78019193 308.671875 207.203125 C307.8365625 206.213125 307.8365625 206.213125 306.984375 205.203125 C306.324375 205.203125 305.664375 205.203125 304.984375 205.203125 C304.984375 204.543125 304.984375 203.883125 304.984375 203.203125 C303.4335843 201.63448418 303.4335843 201.63448418 301.421875 200.015625 C298.70954887 197.71583798 296.13470857 195.39258035 293.671875 192.828125 C289.10966853 188.21500105 284.0624801 184.22771066 278.984375 180.203125 C278.31937988 179.67235352 277.65438477 179.14158203 276.96923828 178.59472656 C266.95523998 170.6169004 256.8358945 163.00557006 245.984375 156.203125 C245.25057617 155.74228516 244.51677734 155.28144531 243.76074219 154.80664062 C205.30290136 130.83250598 163.28907046 113.02286463 118.984375 103.203125 C117.86450195 102.95369141 116.74462891 102.70425781 115.59082031 102.44726562 C88.58300944 96.56178626 60.65561868 92.65235027 32.984375 92.203125 C31.90043457 92.18266113 30.81649414 92.16219727 29.69970703 92.14111328 C-35.69851219 91.08220996 -100.70404174 101.80018921 -160.46435547 129.04052734 Z " fill="#FFFFFF" transform="translate(1024.015625,230.796875)"/>
</svg>
