<?xml version="1.0" encoding="UTF-8"?>
<svg version="1.1" xmlns="http://www.w3.org/2000/svg" width="512" height="512">
<path d="M0 0 C3.4210249 2.91215374 6.73220431 5.91749169 10 9 C10.62648438 9.57363281 11.25296875 10.14726562 11.8984375 10.73828125 C27.21391038 25.25679513 36.60534246 45.8883381 42 66 C43.34191406 65.7834375 43.34191406 65.7834375 44.7109375 65.5625 C65.16310225 62.42272204 83.68243729 65.1627431 101.20703125 76.87109375 C116.5108052 88.53620816 127.15834058 104.73354916 130 124 C131.33902606 143.45706063 128.0492198 162.0392154 115.28125 177.3984375 C112.64679085 180.40229413 109.8634494 183.2142913 107 186 C106.38253906 186.61488281 105.76507813 187.22976563 105.12890625 187.86328125 C87.74437814 203.99712388 64.82802687 205.14720804 42.53833008 205.16113281 C40.79601437 205.16576998 39.05369967 205.17079582 37.31138611 205.17617798 C32.60917132 205.18920808 27.90697075 205.19572715 23.20474076 205.20018864 C20.26297903 205.20313155 17.32122109 205.20723835 14.37946129 205.21169281 C5.16267982 205.22533619 -4.05409288 205.23502112 -13.27088374 205.2388947 C-23.88921449 205.2433831 -34.507417 205.26098046 -45.12570876 205.2898953 C-53.35274174 205.31151781 -61.57973862 205.32159911 -69.80679971 205.32293582 C-74.71308457 205.32398242 -79.61924835 205.32986083 -84.52550316 205.34775543 C-89.13603604 205.36424841 -93.7463569 205.36638569 -98.3569088 205.35761642 C-100.0451362 205.35684701 -101.73337508 205.36117621 -103.42157364 205.37107468 C-122.23552948 205.47489443 -122.23552948 205.47489443 -127.53462505 200.58342361 C-131.87672092 195.68250415 -132.14871883 191.54087924 -132.14717102 185.29011536 C-132.15084771 184.4969039 -132.1545244 183.70369244 -132.1583125 182.88644427 C-132.16935492 180.21961845 -132.17319413 177.55283159 -132.17700195 174.88598633 C-132.18326621 172.97736487 -132.18991297 171.06874463 -132.19691467 169.16012573 C-132.2143284 163.96778731 -132.22487759 158.77545809 -132.2331202 153.5830977 C-132.23826988 150.33919188 -132.24434565 147.09528892 -132.25063133 143.85138512 C-132.269685 133.70232624 -132.28391541 123.55327465 -132.2922433 113.40420133 C-132.30201546 101.6883111 -132.3283338 89.97260982 -132.36874419 78.25678617 C-132.39890473 69.20189688 -132.41371214 60.14706175 -132.41702431 51.09212321 C-132.41937497 45.68378012 -132.42833748 40.27563884 -132.45348549 34.86734962 C-132.47676984 29.77755562 -132.48099789 24.68809625 -132.47072411 19.59826279 C-132.47022872 17.73265533 -132.47655003 15.86703138 -132.49028015 14.00147438 C-132.50801202 11.44885134 -132.50088702 8.89742756 -132.48774719 6.34480286 C-132.49871644 5.61141703 -132.50968568 4.8780312 -132.52098733 4.12242156 C-132.44435066 -2.06985954 -130.51176319 -7.46760631 -126.09765625 -11.91796875 C-87.98723326 -35.69126524 -33.8670595 -27.40388021 0 0 Z " fill="#FEFEFE" transform="translate(382,166)"/>
<path d="M0 0 C2.875 0.9375 2.875 0.9375 4.875 3.9375 C5.34570312 6.87548828 5.34570312 6.87548828 5.65625 10.5078125 C5.71526489 11.17996796 5.77427979 11.85212341 5.83508301 12.54464722 C5.96005311 13.98856465 6.08081548 15.43285133 6.19775391 16.87744141 C6.36601837 18.95177608 6.54677099 21.02463962 6.73046875 23.09765625 C7.15772618 28.04102224 7.51858397 32.9885898 7.875 37.9375 C7.95938324 39.07731323 8.04376648 40.21712646 8.13070679 41.39147949 C9.64853331 62.30058148 10.22322778 83.12319947 10.19067383 104.08496094 C10.18603379 107.3201281 10.19302877 110.55491993 10.21118164 113.79003906 C10.33446757 136.00900004 9.4916249 157.85485904 6.875 179.9375 C6.72946686 181.236875 6.58393372 182.53625 6.43399048 183.875 C6.27828583 185.133125 6.12258118 186.39125 5.9621582 187.6875 C5.82582474 188.81671875 5.68949127 189.9459375 5.54902649 191.109375 C4.84060319 194.0818244 4.35451475 195.20317826 1.875 196.9375 C-3.28264943 197.58220618 -3.28264943 197.58220618 -5.75756836 195.68798828 C-7.41384786 193.56773761 -7.67222215 192.2142059 -8.00390625 189.5546875 C-8.11951904 188.65411621 -8.23513184 187.75354492 -8.35424805 186.82568359 C-8.46422119 185.83133301 -8.57419434 184.83698242 -8.6875 183.8125 C-8.80971924 182.74467285 -8.93193848 181.6768457 -9.05786133 180.57666016 C-14.48884786 130.61728963 -12.8122832 80.12278937 -9.33947754 30.08477783 C-9.19315347 27.93759491 -9.05439658 25.7898862 -8.92224121 23.64178467 C-8.72413341 20.44586239 -8.50180377 17.25247903 -8.2734375 14.05859375 C-8.21789703 13.09534683 -8.16235657 12.13209991 -8.10513306 11.1396637 C-7.59810718 4.60222605 -7.59810718 4.60222605 -5.24853516 1.30102539 C-3.125 -0.0625 -3.125 -0.0625 0 0 Z " fill="#FEFEFE" transform="translate(224.125,173.0625)"/>
<path d="M0 0 C3 0.375 3 0.375 6 2.375 C6.67553711 5.17260742 6.67553711 5.17260742 7.08984375 8.79296875 C7.16726303 9.45370895 7.24468231 10.11444916 7.32444763 10.79521179 C8.29445008 19.40486359 8.93737206 28.04729132 9.5625 36.6875 C9.65913437 38.00350693 9.65913437 38.00350693 9.75772095 39.34609985 C10.82974096 54.01378948 11.72479697 68.66769146 12 83.375 C12.02191406 84.48182129 12.04382813 85.58864258 12.06640625 86.72900391 C12.48859375 111.78935014 11.17808401 136.77263577 8.5 161.6875 C8.38164795 162.80205566 8.2632959 163.91661133 8.14135742 165.06494141 C7.96310425 166.60480713 7.96310425 166.60480713 7.78125 168.17578125 C7.67876953 169.06434814 7.57628906 169.95291504 7.47070312 170.8684082 C6.74548257 174.7303581 5.79798019 177.57701981 3 180.375 C-0.5 180.25 -0.5 180.25 -4 179.375 C-5.85694607 176.58338075 -6.37129331 173.93188105 -6.78125 170.640625 C-6.90008545 169.69195557 -7.0189209 168.74328613 -7.14135742 167.76586914 C-7.25970947 166.72938232 -7.37806152 165.69289551 -7.5 164.625 C-7.69009644 162.9687561 -7.69009644 162.9687561 -7.8840332 161.27905273 C-12.364439 120.3992514 -11.88115007 79.34969543 -9 38.375 C-8.91655334 37.17321106 -8.91655334 37.17321106 -8.8314209 35.94714355 C-8.49443926 31.13458727 -8.13505657 26.32444438 -7.74526978 21.51586914 C-7.62468109 20.02088353 -7.50771991 18.52560031 -7.3946228 17.0300293 C-7.23643979 14.97432157 -7.06050766 12.92094197 -6.87890625 10.8671875 C-6.73304077 9.12477783 -6.73304077 9.12477783 -6.58422852 7.34716797 C-5.70895743 2.89436803 -4.65015952 0.58126994 0 0 Z " fill="#FEFEFE" transform="translate(152,190.625)"/>
<path d="M0 0 C3.4375 0.875 3.4375 0.875 5.4375 3.875 C5.90820312 6.11035156 5.90820312 6.11035156 6.21875 8.765625 C6.33758545 9.76706543 6.4564209 10.76850586 6.57885742 11.80029297 C6.69720947 12.89744629 6.81556152 13.99459961 6.9375 15.125 C7.12759644 16.87321045 7.12759644 16.87321045 7.3215332 18.65673828 C7.71316684 22.39449563 8.08074977 26.13375882 8.4375 29.875 C8.54626465 31.00454102 8.6550293 32.13408203 8.76708984 33.29785156 C12.09979008 69.82509386 11.91041949 107.36762865 8.4375 143.875 C8.3250293 145.10492676 8.21255859 146.33485352 8.09667969 147.60205078 C7.75351416 151.25822891 7.3844663 154.91045032 7 158.5625 C6.89002686 159.65127441 6.78005371 160.74004883 6.66674805 161.86181641 C6.55113525 162.86003418 6.43552246 163.85825195 6.31640625 164.88671875 C6.2191626 165.75772217 6.12191895 166.62872559 6.02172852 167.52612305 C5.33182716 170.29985517 4.42183838 171.82427437 2.4375 173.875 C-1.0625 174.375 -1.0625 174.375 -4.5625 173.875 C-7.75083831 170.7438138 -8.07947943 167.83067456 -8.4765625 163.484375 C-8.59773437 162.2159375 -8.71890625 160.9475 -8.84375 159.640625 C-8.95844409 158.30209282 -9.07302721 156.96355113 -9.1875 155.625 C-9.36925781 153.706875 -9.36925781 153.706875 -9.5546875 151.75 C-10.9117099 137.05875748 -11.72328942 122.43345467 -11.765625 107.6796875 C-11.77252044 106.16794308 -11.77946966 104.6561989 -11.78646851 103.14445496 C-11.80547496 98.34630073 -11.81012429 93.54818708 -11.8125 88.75 C-11.81338371 87.93625286 -11.81426743 87.12250572 -11.81517792 86.28409958 C-11.85282728 47.26234165 -11.85282728 47.26234165 -10.1875 27.9375 C-10.12437622 27.19924988 -10.06125244 26.46099976 -9.99621582 25.70037842 C-8.15043277 4.96813171 -8.15043277 4.96813171 -5.21728516 1.10180664 C-3.5625 -0.125 -3.5625 -0.125 0 0 Z " fill="#FEFEFE" transform="translate(188.5625,196.125)"/>
<path d="M0 0 C12.2991688 18.44875319 7.37253688 59.10628965 7.3125 80.4375 C7.31167419 81.68994507 7.31084839 82.94239014 7.30999756 84.23278809 C7.27871121 104.9548872 6.4531735 125.42028824 4 146 C3.8772168 147.28970703 3.75443359 148.57941406 3.62792969 149.90820312 C3.49032227 151.16052734 3.35271484 152.41285156 3.2109375 153.703125 C3.04150635 155.37616699 3.04150635 155.37616699 2.86865234 157.08300781 C1.75808117 160.81237947 0.29696031 162.01556493 -3 164 C-6.1875 163.5625 -6.1875 163.5625 -9 162 C-10.9195338 158.25509664 -11.41311858 154.7057231 -11.81640625 150.546875 C-11.94080078 149.28617188 -12.06519531 148.02546875 -12.19335938 146.7265625 C-12.31517578 145.41429687 -12.43699219 144.10203125 -12.5625 142.75 C-12.68818359 141.48414063 -12.81386719 140.21828125 -12.94335938 138.9140625 C-14.75048685 120.18048972 -15.23671286 101.56536149 -15.25 82.75 C-15.25167175 81.49786713 -15.25334351 80.24573425 -15.25506592 78.95565796 C-15.2563225 63.19376322 -14.99213444 47.51987728 -13.625 31.8125 C-13.56187622 31.0867981 -13.49875244 30.36109619 -13.43371582 29.61340332 C-13.02509872 25.06678549 -12.52866844 20.53444074 -12 16 C-11.86561523 14.68692871 -11.73123047 13.37385742 -11.59277344 12.02099609 C-11.37282715 10.12921631 -11.37282715 10.12921631 -11.1484375 8.19921875 C-11.02388184 7.07733154 -10.89932617 5.95544434 -10.77099609 4.79956055 C-10 2 -10 2 -8.12353516 0.10473633 C-5.07296511 -1.48227556 -3.22823513 -0.98250634 0 0 Z " fill="#FEFEFE" transform="translate(121,207)"/>
<path d="M0 0 C3 0.375 3 0.375 4.61669922 1.58544922 C6.36617487 3.84871369 6.67256358 5.56576289 7.1328125 8.3828125 C7.29910156 9.37023437 7.46539062 10.35765625 7.63671875 11.375 C7.79785156 12.40625 7.95898438 13.4375 8.125 14.5 C8.29386719 15.50804687 8.46273437 16.51609375 8.63671875 17.5546875 C10.13354576 26.65350993 11.15370011 35.56416218 11.203125 44.7890625 C11.21000336 45.66959793 11.21688171 46.55013336 11.22396851 47.45735168 C11.24111374 50.30494349 11.24743146 53.15235922 11.25 56 C11.25167175 56.97365509 11.25334351 57.94731018 11.25506592 58.95046997 C11.2568409 76.25709596 10.28932293 93.21022258 8 110.375 C7.85401367 111.57012207 7.70802734 112.76524414 7.55761719 113.99658203 C7.40196289 115.16431152 7.24630859 116.33204102 7.0859375 117.53515625 C6.94978027 118.58453369 6.81362305 119.63391113 6.67333984 120.71508789 C5.94893666 123.57671688 5.38086301 124.67207642 3 126.375 C-2.11795962 127.01474495 -2.11795962 127.01474495 -4.62109375 125.19921875 C-6.46809906 122.75573014 -6.66349023 120.84574906 -7.0625 117.8125 C-7.2171875 116.64976562 -7.371875 115.48703125 -7.53125 114.2890625 C-7.6859375 112.99742187 -7.840625 111.70578125 -8 110.375 C-8.08636719 109.68889648 -8.17273437 109.00279297 -8.26171875 108.29589844 C-12.2196608 76.7614254 -17.12510272 33.84600289 -6 3.375 C-3.94289478 0.80707488 -3.37630057 0.42203757 0 0 Z " fill="#FEFEFE" transform="translate(46,238.625)"/>
<path d="M0 0 C3.88740048 2.52681031 4.33794559 6.27685508 5.5 10.625 C6.17730724 13.85963523 6.67524832 17.10164808 7.125 20.375 C7.31219604 21.69902832 7.31219604 21.69902832 7.50317383 23.04980469 C8.44809067 29.90437065 9.25549253 36.70469778 9.5 43.625 C9.52723145 44.39038086 9.55446289 45.15576172 9.58251953 45.94433594 C10.13457 64.28352181 8.57774321 82.43377056 6.70245361 100.65618896 C6.51281102 102.50041599 6.32824288 104.34516283 6.14404297 106.18994141 C5.83480784 109.17291255 5.49083304 112.14850994 5.125 115.125 C4.99097778 116.38703247 4.99097778 116.38703247 4.85424805 117.67456055 C4.34460915 121.38414745 3.97371058 123.22276421 1.06640625 125.69140625 C-1.5 126.625 -1.5 126.625 -4.1875 126.0625 C-6.8639724 124.39874688 -7.3389615 123.50095256 -8.5 120.625 C-8.97070312 118.15258789 -8.97070312 118.15258789 -9.28125 115.34765625 C-9.40008545 114.29118896 -9.5189209 113.23472168 -9.64135742 112.14624023 C-9.75970947 111.00485596 -9.87806152 109.86347168 -10 108.6875 C-10.12673096 107.49906494 -10.25346191 106.31062988 -10.3840332 105.08618164 C-13.60774117 73.85561753 -15.27967771 42.93329174 -10.0625 11.8125 C-9.95252686 11.13179443 -9.84255371 10.45108887 -9.72924805 9.74975586 C-9.03933625 6.01942439 -8.18804806 3.3526753 -5.5 0.625 C-2.5 -0.375 -2.5 -0.375 0 0 Z " fill="#FEFEFE" transform="translate(83.5,244.375)"/>
<path d="M0 0 C3.27897418 2.18598279 3.44071099 2.49974325 4.3515625 6.0703125 C4.66867188 7.29234375 4.66867188 7.29234375 4.9921875 8.5390625 C5.20101563 9.39242188 5.40984375 10.24578125 5.625 11.125 C5.8415625 11.95515625 6.058125 12.7853125 6.28125 13.640625 C11.86361212 35.62548324 10.03667021 62.46648606 3 84 C1.62890625 85.8671875 1.62890625 85.8671875 0 87 C-3.5625 86.9375 -3.5625 86.9375 -7 86 C-9.63624884 82.41433287 -9.89239745 77.66507453 -10.5625 73.375 C-10.75102539 72.23998047 -10.75102539 72.23998047 -10.94335938 71.08203125 C-14.06676394 51.75289931 -14.89649639 31.09756011 -11.1875 11.8125 C-11.0222583 10.95293701 -10.8570166 10.09337402 -10.68676758 9.20776367 C-9.20831515 2.43749518 -7.61578274 -0.7933107 0 0 Z " fill="#FEFEFE" transform="translate(13,259)"/>
</svg>
