<?xml version="1.0" encoding="UTF-8"?>
<svg version="1.1" xmlns="http://www.w3.org/2000/svg" width="939" height="940">
<path d="M0 0 C1.41027019 0.20102636 2.82059159 0.40169379 4.23095703 0.60205078 C53.4764421 7.68992461 101.81897694 21.71097363 145.97851562 44.94433594 C148.27242874 46.14226834 150.58097448 47.30927189 152.890625 48.4765625 C189.22578553 66.97963809 225.67058632 91.5812882 254.07666016 121.07958984 C255.90415488 122.90430087 257.79185007 124.57377563 259.76171875 126.2421875 C263.9291894 129.86304956 267.69924491 133.75543709 271.4375 137.8125 C272.08928223 138.51463623 272.74106445 139.21677246 273.41259766 139.94018555 C275.27994594 141.95568824 277.14101443 143.97678567 279 146 C279.87527344 146.94875 280.75054688 147.8975 281.65234375 148.875 C286.99705588 154.73633633 292.06328985 160.79206748 297 167 C297.44230957 167.54849609 297.88461914 168.09699219 298.34033203 168.66210938 C314.88302806 189.25619452 329.47604783 211.76289501 342 235 C342.48339844 235.88075195 342.96679688 236.76150391 343.46484375 237.66894531 C394.35102555 330.55274858 408.51300945 440.81337598 379.96875 578.375 C364.58071247 630.84568534 341.10675165 681.92913789 307.37304688 725.22998047 C306.05051504 726.93488014 304.74863217 728.653416 303.453125 730.37890625 C294.60791543 742.11767042 284.94321513 753.1821502 275 764 C274.45472656 764.59570801 273.90945313 765.19141602 273.34765625 765.80517578 C265.2396349 774.64335497 256.96273424 783.03036651 248 791 C247.11054687 791.82757812 246.22109375 792.65515625 245.3046875 793.5078125 C238.77956221 799.57636926 231.95824499 805.1162131 224.89648438 810.53613281 C222.9768524 812.01786728 221.07358806 813.51879597 219.171875 815.0234375 C155.99561175 864.65695232 80.17205158 894.64630672 1 906 C-0.23395508 906.17934082 -1.46791016 906.35868164 -2.73925781 906.54345703 C-40.53253231 911.73268902 -81.27886733 911.55779993 -119 906 C-120.41174988 905.79907758 -121.82353535 905.59840502 -123.23535156 905.39794922 C-195.22635885 895.03724614 -264.62553768 868.62138768 -323.65966797 825.74389648 C-324.31854004 825.26766846 -324.97741211 824.79144043 -325.65625 824.30078125 C-326.23181641 823.87966064 -326.80738281 823.45854004 -327.40039062 823.0246582 C-329.14344034 821.81583543 -329.14344034 821.81583543 -332 821 C-333.68099662 819.34778757 -335.3452632 817.67851175 -337 816 C-339.14876128 814.25820108 -341.30437469 812.55456874 -343.5 810.875 C-348.4330842 807.04859226 -353.29329859 803.15420061 -358.0625 799.125 C-358.58585938 798.68526855 -359.10921875 798.24553711 -359.6484375 797.79248047 C-362.92811235 795.00539244 -365.96997125 792.05351735 -369 789 C-371.06480341 787.0630194 -373.15864494 785.15822958 -375.25 783.25 C-382.70189226 776.40277075 -389.92273325 769.43853054 -396.4921875 761.7265625 C-397.94931451 760.0140981 -397.94931451 760.0140981 -399.44140625 758.58203125 C-401.46902168 756.52392536 -403.24525698 754.30849364 -405.0625 752.0625 C-408.22335484 748.16478993 -411.43239977 744.31910275 -414.6875 740.5 C-470.76692034 673.25702476 -504.83786112 587.72138417 -514 501 C-514.10441406 500.02321289 -514.20882812 499.04642578 -514.31640625 498.04003906 C-524.58281884 397.16278878 -499.9897162 292.27980296 -436 194 C-435.5659082 193.37158203 -435.13181641 192.74316406 -434.68457031 192.09570312 C-422.65448766 174.76720591 -409.22066901 158.56814357 -395 143 C-394.12472656 142.03191406 -393.24945313 141.06382812 -392.34765625 140.06640625 C-384.63903856 131.56203396 -376.7825263 123.24138523 -368.05078125 115.76953125 C-365.72433417 113.76213977 -363.45807314 111.69533362 -361.1875 109.625 C-329.64376666 81.20678901 -293.23619806 58.25841733 -255 40 C-254.21286621 39.62166016 -253.42573242 39.24332031 -252.61474609 38.85351562 C-210.70258841 18.84394428 -165.90956658 6.49750012 -120 0 C-118.87899902 -0.16516113 -117.75799805 -0.33032227 -116.60302734 -0.50048828 C-78.75384485 -5.84904293 -37.78824522 -5.59211766 0 0 Z M-247.1875 254.6875 C-247.9822171 254.76759308 -248.7769342 254.84768616 -249.59573364 254.9302063 C-276.44550361 257.6663783 -303.31660509 261.53489143 -329.8125 266.6875 C-331.20456665 266.95421509 -331.20456665 266.95421509 -332.62475586 267.22631836 C-345.86374912 269.97124719 -356.30386804 275.43275334 -364.4296875 286.46875 C-371.13314159 297.27431779 -373.60408494 308.52519858 -370.8125 320.9375 C-367.83396498 331.95115273 -361.84480885 341.22106228 -352.0625 347.3125 C-337.94203355 355.2216806 -325.66241832 354.85017988 -310.05526733 351.72161865 C-306.42455207 350.99889353 -302.78471275 350.32549831 -299.14453125 349.65234375 C-298.38864212 349.51246033 -297.63275299 349.3725769 -296.85395813 349.22845459 C-275.03520764 345.23534422 -253.0170308 342.75793428 -230.9375 340.75 C-229.57182388 340.62537384 -229.57182388 340.62537384 -228.17855835 340.49822998 C-222.12241776 339.95216933 -216.06395462 339.45116797 -210 339 C-209.25599945 338.94451996 -208.5119989 338.88903992 -207.74545288 338.83187866 C-191.83244727 337.69995216 -175.88204897 337.79908337 -159.9375 337.8125 C-158.87193312 337.81290031 -158.87193312 337.81290031 -157.78483963 337.81330872 C-136.12519241 337.82351969 -114.59039755 338.06219518 -93 340 C-91.52283374 340.12539548 -90.04561811 340.25021047 -88.56835938 340.37451172 C-7.27645467 347.30740111 72.87620018 366.20814425 221.42578125 430.265625 C232.11682189 435.45340866 243.58776992 434.77390823 254.6875 431 C266.77594408 425.96558745 275.05331758 415.87900496 280 404 C283.60343616 393.08370809 282.19684972 382.03637367 277.4453125 371.71875 C269.86462568 357.45886344 257.59016331 351.32854814 243.625 344.5 C241.83314977 343.61478821 240.04132062 342.72953374 238.24951172 341.84423828 C213.36022345 329.60890582 188.04618265 318.54397659 162 309 C160.93281738 308.60538574 159.86563477 308.21077148 158.76611328 307.80419922 C79.71685981 278.65735068 -2.2633068 260.26792894 -86.25 253.25 C-86.95847076 253.19074341 -87.66694153 253.13148682 -88.3968811 253.07043457 C-93.26192724 252.67059709 -98.12927302 252.32265302 -103 252 C-103.6975238 251.9516098 -104.39504761 251.9032196 -105.1137085 251.85336304 C-121.05145222 250.77866796 -137.00970955 250.81253611 -152.97558594 250.81469727 C-156.05019093 250.81477785 -159.12464476 250.80792882 -162.19921875 250.79418945 C-190.61863468 250.66939476 -218.90270954 251.77662747 -247.1875 254.6875 Z M-231.80206299 411.74676514 C-234.1143812 412.01317841 -236.42784446 412.26731845 -238.74169922 412.52001953 C-257.17417169 414.55483955 -275.4506411 417.26208281 -293.6875 420.625 C-294.47955841 420.77102661 -295.27161682 420.91705322 -296.087677 421.06750488 C-319.82740268 424.82928339 -319.82740268 424.82928339 -338.53125 438.84765625 C-344.30451009 447.30793898 -345.85566201 455.90318826 -345 466 C-342.84308252 475.69313518 -337.75487148 483.57390425 -329.6875 489.375 C-317.14177509 497.04301523 -305.25130866 495.07623148 -291.56903076 492.29382324 C-252.52937971 484.40364953 -212.83934703 479.7560844 -173 479 C-171.93346191 478.97808594 -170.86692383 478.95617187 -169.76806641 478.93359375 C-90.26578072 477.53983564 -11.03235721 490.50437365 155.97070312 556.08422852 C157.08181709 556.6508168 157.08181709 556.6508168 158.21537781 557.22885132 C159.59554122 557.93269397 160.97249202 558.64289208 162.34529114 559.36099243 C171.3784416 563.94833221 179.57257023 565.10263035 189.4375 562.375 C195.23715677 560.47946998 199.58158363 558.19597894 204 554 C204.55300781 553.47535156 205.10601563 552.95070313 205.67578125 552.41015625 C211.87689534 545.8705198 214.58214577 537.69886081 215.09765625 528.796875 C214.71911933 517.95557751 209.79481231 509.29155115 202.20507812 501.8515625 C197.86903947 498.21067265 192.87618568 495.73077622 187.875 493.125 C187.27919128 492.81074066 186.68338257 492.49648132 186.06951904 492.17269897 C112.20737482 453.25523881 30.18629162 426.91587039 -71.875 413.25 C-72.72123932 413.14876831 -73.56747864 413.04753662 -74.43936157 412.9432373 C-101.44337607 409.75254511 -128.33708137 408.61725957 -155.50183868 408.68194199 C-157.91518724 408.68759412 -160.32852874 408.69040719 -162.74188232 408.69302368 C-185.85250316 408.72942641 -208.81992101 409.08347432 -231.80206299 411.74676514 Z M-225 553 C-225.72693054 553.08721313 -226.45386108 553.17442627 -227.20281982 553.26428223 C-248.33328453 555.82642226 -269.20977995 559.43199863 -290 564 C-290.86141602 564.1841748 -291.72283203 564.36834961 -292.61035156 564.55810547 C-303.05135809 566.82644622 -310.21973877 569.69655888 -316.4375 578.6875 C-320.58625735 585.23281473 -320.74682839 591.38408721 -320 599 C-317.37792916 607.88318392 -311.52548113 613.24921735 -303.8125 617.9375 C-293.80292626 620.72705334 -283.81622008 618.64181784 -273.91693115 616.29354858 C-248.33067689 610.26580795 -222.21675029 606.75584411 -196 605 C-194.54815971 604.88824629 -193.09633607 604.77627609 -191.64453125 604.6640625 C-117.01877855 599.38209886 -40.60439196 611.30803183 109.3125 672.875 C117.48844448 677.58729987 124.9000447 680.3632301 134.375 677.875 C142.11563966 675.03099501 148.02306032 670.36295125 152.04296875 663.12109375 C155.05778816 656.11482328 154.97163418 649.03724661 152.5 641.875 C147.39983905 630.96221372 137.4911138 626.05857737 127.25 620.8125 C125.82115429 620.06861165 124.3925281 619.3243015 122.96411133 618.57958984 C49.09899834 580.29215894 -31.08526415 557.44813514 -114 551 C-115.0621875 550.9057373 -116.124375 550.81147461 -117.21875 550.71435547 C-130.49497677 549.64928504 -143.81461973 549.75615603 -157.125 549.75 C-158.43645996 549.74932526 -159.74791992 549.74865051 -161.09912109 549.74795532 C-182.54010332 549.75595308 -203.71072324 550.42546001 -225 553 Z " fill="#FFFFFF" transform="translate(529,17)"/>
</svg>
