<?xml version="1.0" encoding="UTF-8"?>
<svg version="1.1" xmlns="http://www.w3.org/2000/svg" width="512" height="512">
<path d="M0 0 C0.91942383 0.00215515 1.83884766 0.0043103 2.78613281 0.00653076 C63.71424848 0.23503761 122.60422446 21.83243238 168.375 62.3125 C169.62796875 63.39917969 169.62796875 63.39917969 170.90625 64.5078125 C181.98147413 74.2525714 192.32614912 84.65212414 201.375 96.3125 C202.138125 97.24707031 202.90125 98.18164062 203.6875 99.14453125 C211.52838144 108.93306753 217.99686966 119.53001208 224.375 130.3125 C224.95894531 131.28993164 224.95894531 131.28993164 225.5546875 132.28710938 C247.40215935 169.28818482 256.85355838 213.40397926 256.6875 256 C256.68476578 257.45724991 256.68476578 257.45724991 256.68197632 258.94393921 C256.63772604 272.9479271 256.20770669 286.55716122 253.375 300.3125 C253.19807617 301.23111816 253.02115234 302.14973633 252.83886719 303.09619141 C241.18782365 363.33349508 209.12560223 419.34196052 160.375 457.3125 C159.43914062 458.07691406 158.50328125 458.84132813 157.5390625 459.62890625 C147.75073835 467.46711441 137.15597342 473.93526552 126.375 480.3125 C125.72337891 480.70179688 125.07175781 481.09109375 124.40039062 481.4921875 C103.93292962 493.57730321 78.04496553 504.67968734 54.2265625 506.8671875 C52.95554687 507.01414062 51.68453125 507.16109375 50.375 507.3125 C50.045 507.9725 49.715 508.6325 49.375 509.3125 C46.54474819 509.7717031 43.78728526 510.11260984 40.9375 510.375 C39.78217773 510.49198242 39.78217773 510.49198242 38.60351562 510.61132812 C37.05710177 510.76686934 35.51017661 510.9174213 33.9627533 511.06257629 C32.32037293 511.22119643 30.67883999 511.38908119 29.03871155 511.56950378 C23.36319006 512.18639015 17.76172333 512.48386878 12.0546875 512.515625 C11.20149933 512.52268463 10.34831116 512.52974426 9.4692688 512.53701782 C-50.85960454 512.92263056 -107.31806098 497.65904109 -155.625 460.3125 C-156.32544434 459.77431641 -157.02588867 459.23613281 -157.74755859 458.68164062 C-173.58019084 446.40282368 -188.53774652 432.33829675 -200.625 416.3125 C-201.54838055 415.13975915 -202.47294863 413.96795275 -203.3984375 412.796875 C-215.06576654 397.85077793 -224.69118506 381.52205111 -232.625 364.3125 C-232.9869043 363.53358398 -233.34880859 362.75466797 -233.72167969 361.95214844 C-249.06257128 328.58930576 -256.0839738 293.29733352 -255.9375 256.6875 C-255.93534485 255.71661438 -255.9331897 254.74572876 -255.93096924 253.74542236 C-255.87992827 239.40998974 -255.49721848 225.40224197 -252.625 211.3125 C-252.42100586 210.28640625 -252.21701172 209.2603125 -252.00683594 208.203125 C-242.94956791 163.69462885 -223.98226424 122.32489266 -193.625 88.3125 C-193.17801758 87.80912109 -192.73103516 87.30574219 -192.27050781 86.78710938 C-182.13590491 75.41942664 -171.64293916 64.706216 -159.625 55.3125 C-158.68785156 54.54679687 -157.75070313 53.78109375 -156.78515625 52.9921875 C-146.99704105 45.15665642 -136.40445957 38.688839 -125.625 32.3125 C-124.97337891 31.92320313 -124.32175781 31.53390625 -123.65039062 31.1328125 C-100.56580413 17.50240183 -74.29599304 9.41825586 -48.1875 4 C-47.48052979 3.85248291 -46.77355957 3.70496582 -46.04516602 3.55297852 C-30.78444126 0.62053901 -15.49759951 -0.06576913 0 0 Z M7.375 121.3125 C7.36041748 127.04085205 7.34583496 132.7692041 7.33081055 138.67114258 C7.28047205 157.59831243 7.21402788 176.52540043 7.13928509 195.4524889 C7.0943621 206.92787061 7.05493933 218.40322154 7.02856445 229.87866211 C7.0055561 239.88324387 6.9721263 249.88772791 6.92629844 259.89223212 C6.90240458 265.18718542 6.88365064 270.48204216 6.87738609 275.77704811 C6.87131792 280.76669152 6.85125548 285.75608798 6.82072449 290.7456398 C6.81197201 292.57125442 6.80821586 294.39690135 6.80999184 296.22253609 C6.81985151 311.0421675 5.8597675 322.86810971 -4.625 334.3125 C-14.33443236 342.86679089 -23.75755071 345.09318713 -36.4609375 344.65625 C-46.12202707 344.04451208 -53.64769578 339.90037329 -60.625 333.3125 C-60.955 332.6525 -61.285 331.9925 -61.625 331.3125 C-62.285 331.3125 -62.945 331.3125 -63.625 331.3125 C-63.8725 330.673125 -64.12 330.03375 -64.375 329.375 C-65.72592417 326.06523579 -67.21142106 322.8329258 -68.72265625 319.59375 C-72.47323707 310.11176212 -71.47003863 298.59222221 -67.625 289.3125 C-62.49466292 280.15213069 -55.55007163 273.03216648 -45.625 269.3125 C-36.95812292 266.8796924 -29.54754506 267.03785071 -20.625 268.3125 C-20.625 252.8025 -20.625 237.2925 -20.625 221.3125 C-45.66989678 219.38596948 -68.41379997 224.58464348 -87.9375 241 C-106.14765974 257.00294444 -116.17532653 278.89961485 -117.8125 303.08203125 C-118.32937822 325.14627047 -110.66964906 347.04022807 -95.6875 363.3125 C-90.73540541 368.48687922 -85.47943202 373.17156028 -79.625 377.3125 C-78.88378906 377.84230469 -78.14257812 378.37210937 -77.37890625 378.91796875 C-59.46311461 390.67048637 -35.7262169 394.41750423 -14.87280273 390.18359375 C-0.32914967 386.78477799 11.71393506 380.48608977 23.375 371.3125 C24.39464844 370.51457031 25.41429687 369.71664062 26.46484375 368.89453125 C29.51022556 366.19252135 32.00734615 363.30623338 34.4375 360.0625 C34.8708667 359.48967285 35.3042334 358.9168457 35.75073242 358.32666016 C39.07522425 353.86185948 41.94228509 349.32723002 44.375 344.3125 C44.80425781 343.46300781 45.23351562 342.61351562 45.67578125 341.73828125 C51.51250455 329.66883277 53.53953971 317.37169342 53.48852539 304.06274414 C53.48874443 302.55428421 53.48874443 302.55428421 53.4889679 301.01535034 C53.48827427 297.70942995 53.48050766 294.40356673 53.47265625 291.09765625 C53.47079012 288.79837576 53.46936714 286.49909487 53.46836853 284.19981384 C53.46455873 278.16151829 53.45474159 272.12324695 53.44366455 266.08496094 C53.43341735 259.91797208 53.42886383 253.7509793 53.42382812 247.58398438 C53.41311792 235.49347897 53.39606 223.4029915 53.375 211.3125 C54.37080078 211.92375732 55.36660156 212.53501465 56.39257812 213.16479492 C57.73032423 213.97859047 59.06822307 214.792135 60.40625 215.60546875 C61.05883789 216.00697144 61.71142578 216.40847412 62.38378906 216.82214355 C79.62672332 227.26902008 98.41462736 231.3125 118.375 231.3125 C118.375 216.4625 118.375 201.6125 118.375 186.3125 C108.475 184.3325 108.475 184.3325 98.375 182.3125 C79.730995 174.05586921 65.78423635 163.6650376 58.12109375 144.11328125 C55.61733662 136.45418656 54.63285623 129.48856552 53.375 121.3125 C38.195 121.3125 23.015 121.3125 7.375 121.3125 Z " fill="#FEFEFE" transform="translate(255.625,-0.3125)"/>
</svg>
