<?xml version="1.0" encoding="UTF-8"?>
<svg version="1.1" xmlns="http://www.w3.org/2000/svg" width="512" height="512">
<path d="M0 0 C14.29601444 0.72983995 28.58655517 1.22085873 42.89710635 1.55580503 C43.91565997 1.57971287 44.93421359 1.6036207 45.98363247 1.62825302 C51.09737631 1.74707781 56.211198 1.86205919 61.32507187 1.97513622 C103.24806599 2.90703604 145.12518298 4.49864463 187.00721377 6.55458432 C192.07206973 45.86538908 195.46873692 85.21764486 197.25721377 124.80458432 C197.29055554 125.53408638 197.3238973 126.26358844 197.35824943 127.01519662 C200.86808985 204.65534003 197.29048981 268.63959336 142.77805728 328.91572934 C133.11595787 339.38244163 122.88736586 349.22078184 112.47986811 358.93885213 C109.70361593 361.54622369 106.95541155 364.18009503 104.21438235 366.82443601 C38.0932841 430.49789848 38.0932841 430.49789848 -2.34825212 430.19364816 C-9.54368547 430.01976784 -16.69337155 429.38499792 -23.85635459 428.71366549 C-42.36897629 427.02355409 -54.79016301 427.26882928 -69.56911737 439.49605733 C-79.77301254 448.29642961 -88.74876136 458.43361887 -97.42271352 468.71106452 C-102.15031277 474.29565737 -107.10886672 479.65513746 -112.09001642 485.01309389 C-120.57079113 494.14117838 -128.87935484 503.39370917 -136.98997861 512.85417539 C-137.64024015 513.61000409 -138.29050168 514.3658328 -138.96046811 515.1445654 C-139.52582587 515.80695753 -140.09118364 516.46934966 -140.67367345 517.15181428 C-141.32663428 517.84618545 -141.32663428 517.84618545 -141.99278623 518.55458432 C-142.32278623 518.55458432 -142.65278623 518.55458432 -142.99278623 518.55458432 C-142.99278623 488.52458432 -142.99278623 458.49458432 -142.99278623 427.55458432 C-179.29278623 427.55458432 -215.59278623 427.55458432 -252.99278623 427.55458432 C-255.01987062 387.05916137 -256.69068425 346.61343066 -257.63973121 306.08138011 C-257.75347388 301.24154922 -257.871264 296.40182477 -257.99156553 291.56215268 C-258.01543577 290.59912006 -258.03930602 289.63608743 -258.06389961 288.643872 C-258.40638009 275.16437227 -258.96574541 261.70952604 -259.70280341 248.24606297 C-267.93287963 97.67440317 -267.93287963 97.67440317 -225.29134606 49.03242345 C-168.13005481 -14.43518005 -77.76563116 -4.01352214 0 0 Z M-141.99278623 43.55458432 C-141.99278623 133.64458432 -141.99278623 223.73458432 -141.99278623 316.55458432 C-114.93278623 316.55458432 -87.87278623 316.55458432 -59.99278623 316.55458432 C-59.99278623 337.34458432 -59.99278623 358.13458432 -59.99278623 379.55458432 C-55.19783242 375.44462391 -51.92516692 372.52844475 -48.2317999 367.74867612 C-9.55706912 318.69129862 -9.55706912 318.69129862 9.53395766 316.14987451 C17.83684337 315.54812243 26.13347468 316.53264612 34.37138003 317.52714902 C62.79466168 320.89562309 87.15621004 316.90576347 110.3353197 299.14577848 C112.80834586 297.15868672 115.22959213 295.12617498 117.63221377 293.05458432 C118.42296298 292.37340543 119.21371218 291.69222654 120.02842349 290.99040586 C144.5533234 269.13089173 150.82367603 243.14037041 152.77123815 211.65176898 C153.07467476 206.11101824 153.29923012 200.56867284 153.49940127 195.02333432 C153.5382187 194.00300548 153.57703613 192.98267663 153.61702985 191.93142873 C155.40517589 142.53171102 151.31263618 92.73692905 149.00721377 43.55458432 C52.97721377 43.55458432 -43.05278623 43.55458432 -141.99278623 43.55458432 Z " fill="#FDFDFD" transform="translate(288.99278622865677,-6.554584324359894)"/>
<path d="M0 0 C12.54 0 25.08 0 38 0 C38 36.63 38 73.26 38 111 C25.79 111 13.58 111 1 111 C0 110 0 110 -0.12304783 108.1590414 C-0.12212604 107.34878537 -0.12120424 106.53852934 -0.12025452 105.70372009 C-0.12162918 104.77678848 -0.12300385 103.84985687 -0.12442017 102.89483643 C-0.12082489 101.86985046 -0.11722961 100.8448645 -0.11352539 99.78881836 C-0.11367142 98.71577957 -0.11381744 97.64274078 -0.1139679 96.53718567 C-0.11326824 92.97138484 -0.10547338 89.40563551 -0.09765625 85.83984375 C-0.09579226 83.37504607 -0.09436827 80.91024801 -0.09336853 78.44544983 C-0.08954187 71.94346095 -0.07971032 65.44149425 -0.06866455 58.93951416 C-0.05791748 52.31059183 -0.05387159 45.68166307 -0.04882812 39.05273438 C-0.03808819 26.03514492 -0.02049019 13.01757777 0 0 Z " fill="#FDFDFD" transform="translate(246,100)"/>
<path d="M0 0 C12.21 0 24.42 0 37 0 C37 36.63 37 73.26 37 111 C24.79 111 12.58 111 0 111 C0 74.37 0 37.74 0 0 Z " fill="#FDFDFD" transform="translate(347,100)"/>
</svg>
