<svg version="1.1" id="Layer_1" xmlns="http://www.w3.org/2000/svg" xmlns:xlink="http://www.w3.org/1999/xlink" x="0px" y="0px"
	 width="100%" viewBox="0 0 192 192" enable-background="new 0 0 192 192" xml:space="preserve">
<path fill="#FFFFFF" opacity="0.000000" stroke="none" 
	d="
M89.000000,193.000000 
	C59.333336,193.000000 30.166670,193.000000 1.000004,193.000000 
	C1.000003,129.000000 1.000003,65.000008 1.000001,1.000013 
	C64.999992,1.000008 128.999985,1.000008 192.999969,1.000004 
	C192.999985,64.999985 192.999985,128.999969 193.000000,192.999969 
	C158.500000,193.000000 124.000000,193.000000 89.000000,193.000000 
M101.875587,142.740845 
	C105.538719,153.007721 105.538719,153.007721 116.452759,153.007721 
	C119.118645,153.007721 121.806717,152.791061 124.444923,153.061279 
	C127.924782,153.417709 129.621063,152.295563 130.885147,148.775253 
	C139.036896,126.073669 147.503418,103.485207 155.840927,80.850151 
	C157.237808,77.057854 158.509277,73.219360 159.878815,69.287018 
	C152.689102,69.287018 146.083862,69.287018 139.548309,69.287018 
	C132.531235,90.949921 125.623428,112.275536 118.305466,134.867371 
	C110.960060,112.043633 104.044250,90.554749 97.177109,69.217079 
	C89.590240,69.217079 82.463715,69.217079 74.796822,69.217079 
	C83.810860,93.695808 92.706940,117.854210 101.875587,142.740845 
M63.995510,132.499832 
	C63.995510,111.422981 63.995510,90.346123 63.995510,69.187981 
	C56.584320,69.187981 49.683731,69.187981 42.531593,69.187981 
	C42.531593,97.150024 42.531593,124.854843 42.531593,152.738998 
	C49.767208,152.738998 56.799591,152.738998 63.995510,152.738998 
	C63.995510,146.109070 63.995510,139.804337 63.995510,132.499832 
M52.522121,57.738293 
	C56.292355,57.738293 60.062592,57.738293 63.830391,57.738293 
	C63.830391,50.169155 63.830391,43.245346 63.830391,36.402054 
	C56.505112,36.402054 49.484989,36.402054 42.671692,36.402054 
	C42.671692,43.761852 42.671692,50.656212 42.671692,57.738289 
	C45.904602,57.738289 48.728619,57.738289 52.522121,57.738293 
z"/>
<path fill="#FFFFFF" opacity="1.000000" stroke="none" 
	d="
M101.739304,142.376740 
	C92.706940,117.854210 83.810860,93.695808 74.796822,69.217079 
	C82.463715,69.217079 89.590240,69.217079 97.177109,69.217079 
	C104.044250,90.554749 110.960060,112.043633 118.305466,134.867371 
	C125.623428,112.275536 132.531235,90.949921 139.548309,69.287018 
	C146.083862,69.287018 152.689102,69.287018 159.878815,69.287018 
	C158.509277,73.219360 157.237808,77.057854 155.840927,80.850151 
	C147.503418,103.485207 139.036896,126.073669 130.885147,148.775253 
	C129.621063,152.295563 127.924782,153.417709 124.444923,153.061279 
	C121.806717,152.791061 119.118645,153.007721 116.452759,153.007721 
	C105.538719,153.007721 105.538719,153.007721 101.739304,142.376740 
z"/>
<path fill="#FFFFFF" opacity="1.000000" stroke="none" 
	d="
M63.995510,132.999725 
	C63.995510,139.804337 63.995510,146.109070 63.995510,152.738998 
	C56.799591,152.738998 49.767208,152.738998 42.531593,152.738998 
	C42.531593,124.854843 42.531593,97.150024 42.531593,69.187981 
	C49.683731,69.187981 56.584320,69.187981 63.995510,69.187981 
	C63.995510,90.346123 63.995510,111.422981 63.995510,132.999725 
z"/>
<path fill="#FFFFFF" opacity="1.000000" stroke="none" 
	d="
M52.037376,57.738289 
	C48.728619,57.738289 45.904602,57.738289 42.671692,57.738289 
	C42.671692,50.656212 42.671692,43.761852 42.671692,36.402054 
	C49.484989,36.402054 56.505112,36.402054 63.830391,36.402054 
	C63.830391,43.245346 63.830391,50.169155 63.830391,57.738293 
	C60.062592,57.738293 56.292355,57.738293 52.037376,57.738289 
z"/>
</svg>