<?xml version="1.0" standalone="no"?>
<!DOCTYPE svg PUBLIC "-//W3C//DTD SVG 20010904//EN"
 "http://www.w3.org/TR/2001/REC-SVG-20010904/DTD/svg10.dtd">
<svg version="1.0" xmlns="http://www.w3.org/2000/svg"
 width="192.000000pt" height="192.000000pt" viewBox="0 0 192.000000 192.000000"
 preserveAspectRatio="xMidYMid meet">

<g transform="translate(0.000000,192.000000) scale(0.100000,-0.100000)"
fill="#000000" stroke="none">
<path d="M0 960 l0 -960 960 0 960 0 0 960 0 960 -960 0 -960 0 0 -960z m630
500 l0 -111 -107 3 -108 3 -3 108 -3 107 111 0 110 0 0 -110z m0 -640 l0 -420
-110 0 -110 0 0 420 0 420 110 0 110 0 0 -420z m435 98 c56 -175 104 -320 106
-323 3 -2 52 141 110 320 l104 325 103 0 c56 0 102 -1 102 -2 0 -2 -69 -190
-153 -418 l-153 -415 -120 -3 -119 -2 -149 407 c-82 225 -151 414 -154 421 -3
10 20 12 108 10 l113 -3 102 -317z"/>
</g>
</svg>
