<svg version="1.1" id="Layer_1" xmlns="http://www.w3.org/2000/svg" xmlns:xlink="http://www.w3.org/1999/xlink" x="0px" y="0px"
	 width="100%" viewBox="0 0 192 192" enable-background="new 0 0 192 192" xml:space="preserve">
<path fill="#303030" opacity="1.000000" stroke="none" 
	d="
M89.000000,193.000000 
	C59.333336,193.000000 30.166670,193.000000 1.000004,193.000000 
	C1.000003,129.000000 1.000003,65.000008 1.000001,1.000013 
	C64.999992,1.000008 128.999985,1.000008 192.999969,1.000004 
	C192.999985,64.999985 192.999985,128.999969 193.000000,192.999969 
	C158.500000,193.000000 124.000000,193.000000 89.000000,193.000000 
M101.706184,141.889999 
	C102.789116,144.855087 103.735565,147.881836 105.031624,150.750626 
	C105.464439,151.708649 106.775642,152.879654 107.711845,152.903320 
	C114.813385,153.082825 121.921516,153.001526 129.078293,153.001526 
	C139.435486,124.869469 149.629227,97.181427 159.979462,69.068268 
	C153.688828,69.068268 148.025543,68.888168 142.390488,69.206993 
	C141.131958,69.278198 139.349625,70.870544 138.874084,72.156586 
	C136.686401,78.072975 134.877701,84.129433 132.930145,90.134689 
	C128.198029,104.725998 123.464317,119.316795 118.294083,135.255432 
	C110.917793,112.317268 103.970619,90.713524 97.091591,69.321701 
	C89.541840,69.321701 82.470093,69.321701 74.970390,69.321701 
	C83.854141,93.519333 92.604530,117.353722 101.706184,141.889999 
M63.994740,104.500000 
	C63.994740,92.749313 63.994740,80.998634 63.994740,69.289345 
	C56.484589,69.289345 49.709003,69.289345 42.690456,69.289345 
	C42.690456,97.252350 42.690456,124.987961 42.690456,152.713440 
	C49.904892,152.713440 56.819305,152.713440 63.994740,152.713440 
	C63.994740,136.778229 63.994740,121.139114 63.994740,104.500000 
M63.748890,56.994816 
	C63.748890,50.115902 63.748890,43.236988 63.748890,36.409988 
	C56.493778,36.409988 49.638737,36.409988 42.767906,36.409988 
	C42.767906,43.598442 42.767906,50.446869 42.767906,57.507229 
	C49.765610,57.507229 56.370998,57.507229 63.748890,56.994816 
z"/>
<path fill="#FCFCFC" opacity="1.000000" stroke="none" 
	d="
M101.530556,141.539062 
	C92.604530,117.353722 83.854141,93.519333 74.970390,69.321701 
	C82.470093,69.321701 89.541840,69.321701 97.091591,69.321701 
	C103.970619,90.713524 110.917793,112.317268 118.294083,135.255432 
	C123.464317,119.316795 128.198029,104.725998 132.930145,90.134689 
	C134.877701,84.129433 136.686401,78.072975 138.874084,72.156586 
	C139.349625,70.870544 141.131958,69.278198 142.390488,69.206993 
	C148.025543,68.888168 153.688828,69.068268 159.979462,69.068268 
	C149.629227,97.181427 139.435486,124.869469 129.078293,153.001526 
	C121.921516,153.001526 114.813385,153.082825 107.711845,152.903320 
	C106.775642,152.879654 105.464439,151.708649 105.031624,150.750626 
	C103.735565,147.881836 102.789116,144.855087 101.530556,141.539062 
z"/>
<path fill="#FAFAFA" opacity="1.000000" stroke="none" 
	d="
M63.994740,105.000000 
	C63.994740,121.139114 63.994740,136.778229 63.994740,152.713440 
	C56.819305,152.713440 49.904892,152.713440 42.690456,152.713440 
	C42.690456,124.987961 42.690456,97.252350 42.690456,69.289345 
	C49.709003,69.289345 56.484589,69.289345 63.994740,69.289345 
	C63.994740,80.998634 63.994740,92.749313 63.994740,105.000000 
z"/>
<path fill="#F5F5F5" opacity="1.000000" stroke="none" 
	d="
M63.362640,57.251022 
	C56.370998,57.507229 49.765610,57.507229 42.767906,57.507229 
	C42.767906,50.446869 42.767906,43.598442 42.767906,36.409988 
	C49.638737,36.409988 56.493778,36.409988 63.748890,36.409988 
	C63.748890,43.236988 63.748890,50.115902 63.362640,57.251022 
z"/>
</svg>