<?xml version="1.0" standalone="no"?>
<!DOCTYPE svg PUBLIC "-//W3C//DTD SVG 20010904//EN"
 "http://www.w3.org/TR/2001/REC-SVG-20010904/DTD/svg10.dtd">
<svg version="1.0" xmlns="http://www.w3.org/2000/svg"
 width="192.000000pt" height="192.000000pt" viewBox="0 0 192.000000 192.000000"
 preserveAspectRatio="xMidYMid meet">

<g transform="translate(0.000000,192.000000) scale(0.100000,-0.100000)"
fill="#000000" stroke="none">
<path d="M420 1465 l0 -105 105 0 106 0 -3 103 -3 102 -102 3 -103 3 0 -106z"/>
<path d="M420 820 l0 -420 105 0 105 0 -2 418 -3 417 -102 3 -103 3 0 -421z"/>
<path d="M750 1229 c0 -8 248 -691 295 -811 6 -16 22 -18 120 -18 l112 0 147
400 c81 219 150 408 153 420 5 19 1 20 -90 20 l-96 0 -91 -282 c-50 -156 -98
-305 -107 -331 -8 -27 -19 -45 -23 -40 -4 4 -54 153 -111 331 l-102 322 -104
0 c-69 0 -103 -4 -103 -11z"/>
</g>
</svg>
