<?xml version="1.0" standalone="no"?>
<!DOCTYPE svg PUBLIC "-//W3C//DTD SVG 20010904//EN"
 "http://www.w3.org/TR/2001/REC-SVG-20010904/DTD/svg10.dtd">
<svg version="1.0" xmlns="http://www.w3.org/2000/svg"
 width="1181.000000pt" height="192.000000pt" viewBox="0 0 1181.000000 192.000000"
 preserveAspectRatio="xMidYMid meet">

<g transform="translate(0.000000,192.000000) scale(0.100000,-0.100000)"
fill="#000000" stroke="none">
<path d="M0 960 l0 -960 960 0 960 0 0 960 0 960 -960 0 -960 0 0 -960z m630
500 l0 -111 -107 3 -108 3 -3 108 -3 107 111 0 110 0 0 -110z m0 -640 l0 -420
-110 0 -110 0 0 420 0 420 110 0 110 0 0 -420z m435 98 c56 -175 104 -320 106
-323 3 -2 52 141 110 320 l104 325 103 0 c56 0 102 -1 102 -2 0 -2 -69 -190
-153 -418 l-153 -415 -120 -3 -119 -2 -149 407 c-82 225 -151 414 -154 421 -3
10 20 12 108 10 l113 -3 102 -317z"/>
<path d="M7977 1564 c-4 -4 -7 -268 -7 -586 l0 -578 110 0 110 0 0 253 0 253
29 47 c94 147 278 144 310 -5 6 -27 11 -161 11 -298 l0 -250 106 0 105 0 -4
323 c-2 213 -7 334 -15 358 -18 54 -52 100 -99 133 -108 75 -335 27 -414 -89
l-24 -34 -5 237 -5 237 -101 3 c-55 1 -103 0 -107 -4z"/>
<path d="M2466 1235 c-33 -9 -93 -31 -133 -51 l-73 -35 31 -62 c17 -34 33 -64
34 -65 2 -2 38 13 81 35 70 34 87 38 168 41 82 3 94 1 125 -20 19 -13 43 -35
53 -49 20 -26 38 -139 22 -139 -5 0 -43 7 -84 16 -135 29 -283 3 -378 -65
-122 -89 -122 -303 0 -391 69 -50 117 -63 215 -58 102 5 172 34 238 99 l41 39
11 -43 c7 -23 23 -53 37 -66 28 -26 93 -38 150 -27 l36 7 0 86 c0 78 -2 87
-24 104 -24 19 -24 22 -28 217 -5 232 -15 270 -88 343 -66 66 -136 91 -270 95
-71 2 -124 -1 -164 -11z m278 -455 l38 -12 -4 -65 c-4 -62 -7 -68 -42 -99
-126 -109 -316 -71 -316 62 0 53 35 97 95 120 45 16 162 13 229 -6z"/>
<path d="M3600 1236 c-75 -20 -123 -48 -172 -99 l-48 -48 0 75 0 76 -95 0 -95
0 0 -420 0 -420 105 0 105 0 0 240 c0 179 3 249 13 273 35 82 123 147 202 149
54 1 89 -20 120 -73 18 -31 20 -56 23 -311 l4 -278 105 0 105 0 -4 323 c-4
306 -5 325 -26 379 -27 66 -83 122 -139 137 -50 14 -147 13 -203 -3z"/>
<path d="M5635 1240 c-54 -11 -142 -45 -187 -73 l-37 -22 30 -66 31 -66 77 39
c85 44 158 58 236 46 85 -13 127 -60 140 -157 l7 -54 -28 7 c-112 24 -185 29
-259 18 -179 -28 -278 -123 -278 -267 -1 -76 29 -141 85 -190 59 -50 122 -68
221 -63 98 4 172 34 241 98 41 38 46 40 46 21 0 -74 56 -121 142 -121 87 0 88
1 88 101 0 49 -4 89 -9 89 -5 0 -17 7 -25 16 -13 13 -16 44 -16 177 0 183 -13
261 -53 330 -35 59 -110 111 -192 132 -62 16 -192 18 -260 5z m217 -451 c74
-16 81 -23 76 -87 -4 -45 -10 -59 -44 -93 -57 -59 -161 -85 -231 -58 -67 25
-103 95 -79 153 35 82 140 114 278 85z"/>
<path d="M6738 1240 c-49 -15 -96 -50 -153 -112 l-55 -61 0 86 0 87 -95 0 -95
0 0 -420 0 -420 105 0 105 0 0 258 0 257 30 37 c39 47 119 86 195 96 l60 7 0
95 0 95 -35 2 c-19 1 -47 -2 -62 -7z"/>
<path d="M7186 1234 c-128 -41 -224 -147 -261 -291 -43 -166 5 -346 122 -453
76 -70 144 -93 253 -88 103 6 158 29 225 96 l47 47 -7 -89 c-3 -50 -12 -104
-19 -120 -65 -155 -315 -176 -473 -42 l-40 35 -57 -58 -57 -58 44 -40 c96 -89
199 -126 347 -126 218 0 378 91 442 251 22 56 23 64 26 500 l3 442 -95 0 -96
0 0 -69 0 -70 -50 49 c-71 69 -127 93 -225 97 -52 2 -97 -3 -129 -13z m252
-188 c51 -26 79 -52 111 -106 17 -29 21 -51 21 -129 0 -83 -3 -99 -25 -138
-37 -62 -111 -103 -188 -103 -67 0 -116 21 -164 72 -45 47 -63 96 -63 175 0
188 158 305 308 229z"/>
<path d="M9201 1235 c-125 -35 -218 -114 -274 -233 -30 -64 -32 -73 -32 -187
0 -115 1 -123 33 -188 42 -86 113 -157 199 -199 66 -32 71 -33 198 -33 170 0
220 18 318 116 37 37 67 73 67 81 0 8 -31 22 -87 36 l-87 23 -24 -31 c-49 -62
-155 -93 -240 -70 -59 15 -126 79 -146 137 -9 26 -16 50 -16 55 0 4 146 8 325
8 l325 0 0 74 c0 128 -48 240 -138 323 -15 13 -60 40 -100 60 -67 33 -84 36
-170 40 -66 2 -114 -2 -151 -12z m190 -146 c75 -23 148 -110 149 -176 l0 -23
-215 0 c-235 0 -225 -3 -204 61 19 56 59 100 113 125 56 26 99 30 157 13z"/>
<path d="M10069 1235 c-128 -41 -199 -132 -199 -254 0 -132 40 -161 337 -251
76 -22 107 -37 122 -56 25 -32 26 -46 6 -84 -20 -39 -70 -54 -162 -48 -62 4
-88 12 -161 49 -48 24 -90 45 -93 47 -4 2 -24 -24 -44 -58 -35 -57 -36 -62
-21 -79 25 -27 131 -77 206 -96 94 -25 267 -18 335 13 101 46 154 123 155 225
0 71 -17 114 -61 152 -46 38 -93 58 -239 100 -134 38 -165 53 -182 90 -15 33
6 82 45 102 63 32 199 7 292 -56 l30 -20 43 65 42 64 -41 30 c-72 51 -142 72
-259 76 -74 3 -119 -1 -151 -11z"/>
<path d="M10967 1240 c-121 -31 -228 -117 -278 -225 -108 -230 -22 -483 199
-588 65 -31 72 -32 197 -32 120 0 134 2 187 27 32 15 74 39 94 54 45 35 107
115 97 125 -5 4 -46 17 -92 30 -77 20 -84 21 -93 5 -30 -53 -115 -96 -193 -96
-93 0 -197 85 -212 173 l-6 37 324 2 324 3 -1 80 c-3 178 -103 325 -261 386
-66 24 -222 35 -286 19z m228 -175 c47 -27 88 -86 100 -142 l7 -33 -221 0
-221 0 6 28 c18 77 73 143 140 168 55 20 135 11 189 -21z"/>
<path d="M4490 1158 c17 -46 86 -234 154 -418 l123 -335 116 -3 115 -3 22 58
c12 32 77 209 145 393 68 184 128 348 134 363 l11 28 -101 -3 -102 -3 -102
-315 c-56 -173 -104 -322 -107 -330 -3 -8 -44 107 -92 255 -48 149 -96 298
-107 333 l-21 62 -109 0 -109 0 30 -82z"/>
</g>
</svg>
