<svg version="1.1" id="Layer_1" xmlns="http://www.w3.org/2000/svg" xmlns:xlink="http://www.w3.org/1999/xlink" x="0px" y="0px"
	 width="100%" viewBox="0 0 1181 192" enable-background="new 0 0 1181 192" xml:space="preserve">
<path fill="#FEFEFE" opacity="1.000000" stroke="none" 
	d="
M193.000000,1.000000 
	C522.603455,1.000000 852.206848,1.000000 1181.905151,1.000000 
	C1181.905151,64.924393 1181.905151,128.848969 1181.905151,193.000000 
	C852.638672,193.000000 523.277283,193.000000 193.457550,192.531342 
	C192.999466,128.375122 192.999725,64.687561 193.000000,1.000000 
M755.311035,141.469223 
	C755.972595,141.507645 757.211182,141.528778 757.212952,141.586975 
	C757.297668,144.416016 757.362915,147.251694 757.251160,150.079544 
	C756.748840,162.792099 749.246094,170.777008 736.611877,172.140137 
	C723.980286,173.502975 713.389099,169.361435 704.849792,160.234039 
	C700.928833,164.081711 697.169312,167.770950 693.360291,171.508774 
	C705.282410,185.873535 720.863220,190.232819 738.628418,188.284302 
	C765.999756,185.282150 778.915527,170.799973 778.916077,143.488632 
	C778.916443,120.497414 778.916138,97.506187 778.916138,74.514969 
	C778.916138,72.767395 778.916077,71.019814 778.916077,69.398041 
	C772.217102,69.398041 766.294495,69.398041 759.956421,69.398041 
	C759.956421,73.924927 759.956421,78.151451 759.956421,83.359253 
	C758.716248,81.827515 758.150940,81.095749 757.551086,80.393448 
	C743.297058,63.706047 717.691528,63.507420 703.049072,79.967407 
	C689.211670,95.522385 687.966797,121.566559 700.256836,138.385147 
	C713.846802,156.982651 739.799866,158.745117 755.311035,141.469223 
M798.166504,119.499954 
	C798.166504,130.591415 798.166504,141.682877 798.166504,152.654480 
	C805.739624,152.654480 812.641113,152.654480 819.801941,152.654480 
	C819.801941,138.167953 820.193848,124.017204 819.666382,109.900803 
	C819.305054,100.228195 824.143372,94.124306 831.512268,89.511589 
	C842.260681,82.783409 852.339966,87.605598 854.206482,100.091728 
	C854.598572,102.714058 854.768799,105.391777 854.779907,108.045067 
	C854.836121,121.536522 854.798157,135.028351 854.819153,148.520004 
	C854.821350,149.942932 854.994324,151.365585 855.086792,152.767944 
	C862.232544,152.767944 868.990845,152.767944 876.127441,152.767944 
	C876.127441,136.916351 876.234802,121.299187 876.072876,105.684814 
	C876.010925,99.713989 875.860962,93.656403 874.827576,87.801346 
	C872.586548,75.103889 864.056030,68.272240 851.186523,67.829483 
	C838.262756,67.384857 828.101746,72.496201 819.816406,84.021194 
	C819.816406,67.338226 819.816406,51.980270 819.816406,36.396324 
	C812.402832,36.396324 805.516235,36.396324 798.166565,36.396324 
	C798.166565,63.950203 798.166565,91.225075 798.166504,119.499954 
M1131.321655,73.059959 
	C1130.277588,72.548019 1129.248779,72.001343 1128.187012,71.529305 
	C1111.192505,63.974323 1089.695557,67.729591 1077.157349,80.433975 
	C1064.792480,92.962730 1061.427856,113.454727 1069.004761,130.087769 
	C1077.552490,148.852097 1098.850708,158.450546 1120.640503,153.382126 
	C1132.711792,150.574265 1142.019165,144.180267 1148.121948,132.724808 
	C1142.514648,131.120132 1137.463257,129.542313 1132.328003,128.315140 
	C1131.286377,128.066193 1129.423340,128.782410 1128.799316,129.663223 
	C1124.961792,135.080490 1119.555298,137.755249 1113.271973,138.677994 
	C1097.798218,140.950455 1087.109741,127.738731 1088.479248,117.703415 
	C1109.785400,117.703415 1131.167603,117.703415 1152.760498,117.703415 
	C1154.063599,98.643784 1148.540527,83.433464 1131.321655,73.059959 
M952.500000,117.981903 
	C960.627930,117.981903 968.755798,117.981903 976.806641,117.981903 
	C980.440796,93.294876 965.906433,72.672005 942.245972,68.380798 
	C917.481140,63.889317 895.281006,78.375130 890.324768,102.259949 
	C885.412659,125.932098 899.402039,148.162399 922.886047,153.408417 
	C947.388611,158.881958 968.089294,145.644592 971.895203,132.526230 
	C969.043701,131.700653 966.199158,130.841782 963.334290,130.057343 
	C960.332520,129.235428 957.311279,128.484955 954.474670,127.748962 
	C948.022949,137.065826 938.627808,140.714188 928.620483,138.093536 
	C919.319214,135.657791 913.499878,128.494385 912.524109,117.981903 
	C925.534973,117.981903 938.517456,117.981903 952.500000,117.981903 
M612.863281,88.860962 
	C609.546021,79.376495 602.927612,73.010956 593.471558,70.240677 
	C575.172913,64.879860 558.037476,68.051231 541.901978,78.447342 
	C544.110718,83.015411 546.197205,87.330673 548.382446,91.850136 
	C550.412048,90.684479 552.262634,89.619247 554.115540,88.557915 
	C560.885010,84.680450 568.068726,82.438339 575.972595,82.718384 
	C588.838379,83.174240 595.099976,91.030991 592.730347,104.112724 
	C590.802734,103.626762 588.895447,103.102577 586.968079,102.667114 
	C574.611450,99.875237 562.470703,100.038727 551.048035,106.159920 
	C541.948242,111.036285 536.782043,118.741554 537.300781,129.244278 
	C537.842346,140.207413 543.461792,148.276001 553.772400,152.128967 
	C568.215637,157.526276 581.188538,154.149826 592.567627,144.027039 
	C593.864197,142.873581 595.086792,141.636917 596.620178,140.175232 
	C598.103577,152.951752 606.866821,157.357239 619.888428,152.387558 
	C619.888428,146.782150 619.888428,141.136108 619.888428,135.207306 
	C615.102112,134.154892 614.723694,130.515778 614.880249,126.407066 
	C615.044983,122.084587 615.124207,117.738770 614.871155,113.424820 
	C614.405701,105.488922 613.669434,97.568909 612.863281,88.860962 
M298.363434,154.008530 
	C300.585052,153.648193 302.806671,153.287842 305.146423,152.908340 
	C305.146423,147.394882 305.215912,142.407227 305.086426,137.424728 
	C305.061249,136.456116 304.487610,134.920731 303.781006,134.648483 
	C300.167572,133.256180 300.063293,130.327805 300.057922,127.243240 
	C300.041718,117.912498 300.289673,108.571091 299.926117,99.253677 
	C299.433136,86.619514 294.121460,76.382080 282.014648,71.605034 
	C262.781982,64.016319 244.565582,67.580208 227.141205,78.392265 
	C229.380539,83.038597 231.451431,87.335449 233.643570,91.883865 
	C235.801727,90.623474 237.635178,89.531403 239.488480,88.474129 
	C246.739822,84.337326 254.442490,82.152573 262.881409,82.814911 
	C274.509155,83.727539 280.791809,92.439232 278.017181,103.839615 
	C273.132294,102.944672 268.283417,101.581635 263.370514,101.287231 
	C258.265564,100.981308 253.022171,101.243446 247.973679,102.073952 
	C234.393143,104.308022 224.573730,113.075691 222.928970,123.829071 
	C220.244080,141.382568 234.206635,155.716232 252.745544,154.569199 
	C264.281677,153.855453 273.877472,149.313492 281.398773,140.186890 
	C283.983765,151.580292 286.835846,153.980530 298.363434,154.008530 
M397.973694,109.501862 
	C397.368347,101.560455 397.576477,93.449951 395.968994,85.716858 
	C393.491058,73.796387 385.586731,68.055931 373.468079,67.852005 
	C360.268982,67.629898 348.906128,71.588951 340.697479,82.559395 
	C340.486725,82.841057 339.889526,82.833549 339.088928,83.078064 
	C339.088928,78.362289 339.088928,73.932175 339.088928,69.461998 
	C332.546173,69.461998 326.339966,69.461998 320.236237,69.461998 
	C320.236237,97.437943 320.236237,125.037636 320.236237,152.702393 
	C327.359802,152.702393 334.241180,152.702393 341.449463,152.702393 
	C341.449463,138.262558 341.798798,124.110214 341.330017,109.985023 
	C341.002563,100.118568 345.972015,93.876663 353.679047,89.372581 
	C365.251617,82.609482 375.479065,87.947067 376.039337,101.346275 
	C376.665314,116.315903 376.347260,131.325043 376.435913,146.317017 
	C376.448486,148.440445 376.437653,150.564026 376.437653,152.706207 
	C383.892517,152.706207 390.799591,152.706207 397.973694,152.706207 
	C397.973694,138.440384 397.973694,124.470734 397.973694,109.501862 
M994.437622,148.114258 
	C1003.368286,152.694107 1012.953552,154.626221 1022.884338,154.588730 
	C1031.656738,154.555618 1040.156494,153.057037 1047.316040,147.373901 
	C1061.117798,136.418198 1058.913940,116.324341 1042.971436,109.107880 
	C1038.155640,106.928009 1032.965698,105.561432 1027.917847,103.911812 
	C1022.553467,102.158730 1016.951843,100.950455 1011.870056,98.602989 
	C1009.834473,97.662666 1007.731323,94.284073 1007.792786,92.074631 
	C1007.862000,89.585358 1009.870667,86.614586 1011.909729,84.881821 
	C1013.596558,83.448441 1016.528564,83.151115 1018.954346,82.974388 
	C1028.628296,82.269562 1036.703491,86.492920 1044.555420,91.975883 
	C1047.445068,87.635612 1050.250732,83.421677 1053.076782,79.177025 
	C1046.247803,72.881149 1038.491455,69.545959 1029.961426,68.341789 
	C1018.341431,66.701431 1006.912170,67.150558 997.113220,74.852509 
	C989.546814,80.799576 986.652710,88.790878 987.654236,98.265450 
	C988.607910,107.286972 995.150513,111.077934 1002.556763,113.933266 
	C1005.808289,115.186813 1009.185364,116.115295 1012.507812,117.184143 
	C1018.198730,119.014954 1023.905029,120.799583 1029.578735,122.682228 
	C1033.178955,123.876823 1035.852661,126.077911 1035.665527,130.214096 
	C1035.467041,134.597549 1032.818237,137.824417 1028.663330,138.084549 
	C1022.641052,138.461548 1016.296387,138.641342 1010.550110,137.140564 
	C1004.246155,135.494141 998.465515,131.843918 992.133240,128.917267 
	C989.799561,132.816391 987.255859,137.066360 984.419922,141.804565 
	C987.665771,143.910507 990.702454,145.880707 994.437622,148.114258 
M510.243744,127.833916 
	C517.426331,108.393616 524.608887,88.953308 531.949768,69.084564 
	C525.990967,69.084564 520.661560,69.275764 515.355103,69.009186 
	C512.412903,68.861382 511.298676,69.999756 510.537781,72.663231 
	C508.850677,78.568695 506.835876,84.380806 504.942383,90.226990 
	C500.191071,104.896660 495.432922,119.564125 490.292389,135.420380 
	C482.946442,112.560455 475.995087,90.928520 469.033966,69.266190 
	C461.645508,69.266190 454.558136,69.266190 446.973145,69.266190 
	C457.064240,96.675621 467.013947,123.773865 477.104736,150.819489 
	C477.474823,151.811478 479.209717,152.876251 480.337036,152.908386 
	C487.140961,153.102249 493.953156,153.004791 500.993378,153.004791 
	C504.041809,144.758514 507.031525,136.671051 510.243744,127.833916 
M656.133484,144.462708 
	C656.133484,132.966995 656.133423,121.471291 656.133484,109.975586 
	C656.133545,99.290924 659.394775,94.285049 669.638000,90.653404 
	C674.399719,88.965202 679.503296,88.241379 684.458740,87.078796 
	C684.458740,80.850182 684.458740,74.597633 684.458740,68.154800 
	C670.529358,67.050682 662.460144,75.417580 654.421387,86.213051 
	C654.421387,79.838631 654.421387,74.638802 654.421387,69.421951 
	C647.526672,69.421951 641.296936,69.421951 635.045898,69.421951 
	C635.045898,97.354912 635.045898,124.953888 635.045898,152.696381 
	C642.140930,152.696381 649.026184,152.696381 656.133484,152.696381 
	C656.133484,150.079269 656.133484,147.763855 656.133484,144.462708 
z"/>
<path fill="#303030" opacity="1.000000" stroke="none" 
	d="
M192.531342,1.000000 
	C192.999725,64.687561 192.999466,128.375122 192.999603,192.531342 
	C129.048645,193.000000 65.097282,193.000000 1.072962,193.000000 
	C1.072962,129.097351 1.072962,65.194603 1.072962,1.000000 
	C64.687263,1.000000 128.374969,1.000000 192.531342,1.000000 
M156.071960,79.647842 
	C157.315155,76.251587 158.558365,72.855324 159.944763,69.067863 
	C153.716629,69.067863 148.050919,68.888763 142.413086,69.205544 
	C141.150787,69.276466 139.383453,70.850601 138.883987,72.135231 
	C137.020035,76.929276 135.579865,81.888527 133.992767,86.789711 
	C128.903854,102.505013 123.820343,118.222061 118.301674,135.276794 
	C110.935905,112.367851 103.987305,90.756393 97.086075,69.292267 
	C89.581230,69.292267 82.494316,69.292267 75.408340,69.292267 
	C75.408340,69.840439 75.316795,70.196999 75.421349,70.481476 
	C85.222878,97.150528 95.004532,123.827126 104.970253,150.434784 
	C105.412338,151.615097 107.504211,152.812637 108.890343,152.890884 
	C114.038094,153.181458 119.224617,152.788025 124.371925,153.082504 
	C127.893082,153.283951 129.549103,152.193253 130.795731,148.723022 
	C138.997055,125.893135 147.478104,103.163750 156.071960,79.647842 
M42.385830,113.499855 
	C42.385830,126.585236 42.385830,139.670609 42.385830,152.725143 
	C49.900925,152.725143 56.806805,152.725143 63.708443,152.725143 
	C63.708443,124.762535 63.708443,97.086784 63.708443,69.377220 
	C56.542828,69.377220 49.667004,69.377220 42.385933,69.377220 
	C42.385933,83.958878 42.385933,98.229362 42.385830,113.499855 
M50.572475,36.076885 
	C47.978790,36.076885 45.385105,36.076885 42.718204,36.076885 
	C42.718204,43.534439 42.718204,50.389050 42.718204,57.332565 
	C49.955833,57.332565 56.835136,57.332565 63.700089,57.332565 
	C63.700089,50.147141 63.700089,43.270367 63.700089,36.076893 
	C59.447411,36.076893 55.498119,36.076893 50.572475,36.076885 
z"/>
<path fill="#333333" opacity="1.000000" stroke="none" 
	d="
M755.088196,141.781387 
	C739.799866,158.745117 713.846802,156.982651 700.256836,138.385147 
	C687.966797,121.566559 689.211670,95.522385 703.049072,79.967407 
	C717.691528,63.507420 743.297058,63.706047 757.551086,80.393448 
	C758.150940,81.095749 758.716248,81.827515 759.956421,83.359253 
	C759.956421,78.151451 759.956421,73.924927 759.956421,69.398041 
	C766.294495,69.398041 772.217102,69.398041 778.916077,69.398041 
	C778.916077,71.019814 778.916138,72.767395 778.916138,74.514969 
	C778.916138,97.506187 778.916443,120.497414 778.916077,143.488632 
	C778.915527,170.799973 765.999756,185.282150 738.628418,188.284302 
	C720.863220,190.232819 705.282410,185.873535 693.360291,171.508774 
	C697.169312,167.770950 700.928833,164.081711 704.849792,160.234039 
	C713.389099,169.361435 723.980286,173.502975 736.611877,172.140137 
	C749.246094,170.777008 756.748840,162.792099 757.251160,150.079544 
	C757.362915,147.251694 757.297668,144.416016 757.212952,141.586975 
	C757.211182,141.528778 755.972595,141.507645 755.088196,141.781387 
M714.624451,118.463020 
	C716.575439,125.813309 720.873535,131.296921 727.823975,134.445770 
	C741.827942,140.790161 757.322083,130.982330 757.322388,115.861969 
	C757.322449,113.029579 757.323792,110.197197 757.322144,107.364807 
	C757.316711,98.063576 750.941223,89.892899 741.373169,86.923241 
	C732.741333,84.244141 724.149048,87.369003 718.706787,95.236603 
	C713.984924,102.062843 713.037537,109.651520 714.624451,118.463020 
z"/>
<path fill="#333333" opacity="1.000000" stroke="none" 
	d="
M798.166504,118.999954 
	C798.166565,91.225075 798.166565,63.950203 798.166565,36.396324 
	C805.516235,36.396324 812.402832,36.396324 819.816406,36.396324 
	C819.816406,51.980270 819.816406,67.338226 819.816406,84.021194 
	C828.101746,72.496201 838.262756,67.384857 851.186523,67.829483 
	C864.056030,68.272240 872.586548,75.103889 874.827576,87.801346 
	C875.860962,93.656403 876.010925,99.713989 876.072876,105.684814 
	C876.234802,121.299187 876.127441,136.916351 876.127441,152.767944 
	C868.990845,152.767944 862.232544,152.767944 855.086792,152.767944 
	C854.994324,151.365585 854.821350,149.942932 854.819153,148.520004 
	C854.798157,135.028351 854.836121,121.536522 854.779907,108.045067 
	C854.768799,105.391777 854.598572,102.714058 854.206482,100.091728 
	C852.339966,87.605598 842.260681,82.783409 831.512268,89.511589 
	C824.143372,94.124306 819.305054,100.228195 819.666382,109.900803 
	C820.193848,124.017204 819.801941,138.167953 819.801941,152.654480 
	C812.641113,152.654480 805.739624,152.654480 798.166504,152.654480 
	C798.166504,141.682877 798.166504,130.591415 798.166504,118.999954 
z"/>
<path fill="#333333" opacity="1.000000" stroke="none" 
	d="
M1131.644165,73.239716 
	C1148.540527,83.433464 1154.063599,98.643784 1152.760498,117.703415 
	C1131.167603,117.703415 1109.785400,117.703415 1088.479248,117.703415 
	C1087.109741,127.738731 1097.798218,140.950455 1113.271973,138.677994 
	C1119.555298,137.755249 1124.961792,135.080490 1128.799316,129.663223 
	C1129.423340,128.782410 1131.286377,128.066193 1132.328003,128.315140 
	C1137.463257,129.542313 1142.514648,131.120132 1148.121948,132.724808 
	C1142.019165,144.180267 1132.711792,150.574265 1120.640503,153.382126 
	C1098.850708,158.450546 1077.552490,148.852097 1069.004761,130.087769 
	C1061.427856,113.454727 1064.792480,92.962730 1077.157349,80.433975 
	C1089.695557,67.729591 1111.192505,63.974323 1128.187012,71.529305 
	C1129.248779,72.001343 1130.277588,72.548019 1131.644165,73.239716 
M1126.638428,91.979813 
	C1119.730591,83.998741 1110.775635,81.299278 1101.748169,84.476738 
	C1093.458374,87.394577 1088.051270,94.868645 1087.864746,103.636322 
	C1102.152466,103.636322 1116.437500,103.636322 1131.617554,103.636322 
	C1129.915039,99.525482 1128.479126,96.058342 1126.638428,91.979813 
z"/>
<path fill="#323232" opacity="1.000000" stroke="none" 
	d="
M952.000000,117.981903 
	C938.517456,117.981903 925.534973,117.981903 912.524109,117.981903 
	C913.499878,128.494385 919.319214,135.657791 928.620483,138.093536 
	C938.627808,140.714188 948.022949,137.065826 954.474670,127.748962 
	C957.311279,128.484955 960.332520,129.235428 963.334290,130.057343 
	C966.199158,130.841782 969.043701,131.700653 971.895203,132.526230 
	C968.089294,145.644592 947.388611,158.881958 922.886047,153.408417 
	C899.402039,148.162399 885.412659,125.932098 890.324768,102.259949 
	C895.281006,78.375130 917.481140,63.889317 942.245972,68.380798 
	C965.906433,72.672005 980.440796,93.294876 976.806641,117.981903 
	C968.755798,117.981903 960.627930,117.981903 952.000000,117.981903 
M943.629517,85.610901 
	C928.092102,79.093948 912.282410,88.243439 912.356018,104.022942 
	C919.497498,104.022942 926.643311,104.022934 933.789185,104.022934 
	C940.866943,104.022934 947.944702,104.022942 955.258667,104.022942 
	C954.529541,95.679672 950.969482,89.864449 943.629517,85.610901 
z"/>
<path fill="#333333" opacity="1.000000" stroke="none" 
	d="
M612.954651,89.251617 
	C613.669434,97.568909 614.405701,105.488922 614.871155,113.424820 
	C615.124207,117.738770 615.044983,122.084587 614.880249,126.407066 
	C614.723694,130.515778 615.102112,134.154892 619.888428,135.207306 
	C619.888428,141.136108 619.888428,146.782150 619.888428,152.387558 
	C606.866821,157.357239 598.103577,152.951752 596.620178,140.175232 
	C595.086792,141.636917 593.864197,142.873581 592.567627,144.027039 
	C581.188538,154.149826 568.215637,157.526276 553.772400,152.128967 
	C543.461792,148.276001 537.842346,140.207413 537.300781,129.244278 
	C536.782043,118.741554 541.948242,111.036285 551.048035,106.159920 
	C562.470703,100.038727 574.611450,99.875237 586.968079,102.667114 
	C588.895447,103.102577 590.802734,103.626762 592.730347,104.112724 
	C595.099976,91.030991 588.838379,83.174240 575.972595,82.718384 
	C568.068726,82.438339 560.885010,84.680450 554.115540,88.557915 
	C552.262634,89.619247 550.412048,90.684479 548.382446,91.850136 
	C546.197205,87.330673 544.110718,83.015411 541.901978,78.447342 
	C558.037476,68.051231 575.172913,64.879860 593.471558,70.240677 
	C602.927612,73.010956 609.546021,79.376495 612.954651,89.251617 
M561.978821,117.461838 
	C554.358459,125.350433 557.233276,135.772522 567.936035,138.317184 
	C575.516541,140.119476 582.238708,137.801590 588.513062,133.314865 
	C594.331604,129.154083 593.448120,123.295349 593.194824,117.537247 
	C593.164917,116.857491 592.123352,115.855614 591.364441,115.630127 
	C581.624084,112.736145 571.899109,110.949753 561.978821,117.461838 
z"/>
<path fill="#333333" opacity="1.000000" stroke="none" 
	d="
M297.908997,154.025909 
	C286.835846,153.980530 283.983765,151.580292 281.398773,140.186890 
	C273.877472,149.313492 264.281677,153.855453 252.745544,154.569199 
	C234.206635,155.716232 220.244080,141.382568 222.928970,123.829071 
	C224.573730,113.075691 234.393143,104.308022 247.973679,102.073952 
	C253.022171,101.243446 258.265564,100.981308 263.370514,101.287231 
	C268.283417,101.581635 273.132294,102.944672 278.017181,103.839615 
	C280.791809,92.439232 274.509155,83.727539 262.881409,82.814911 
	C254.442490,82.152573 246.739822,84.337326 239.488480,88.474129 
	C237.635178,89.531403 235.801727,90.623474 233.643570,91.883865 
	C231.451431,87.335449 229.380539,83.038597 227.141205,78.392265 
	C244.565582,67.580208 262.781982,64.016319 282.014648,71.605034 
	C294.121460,76.382080 299.433136,86.619514 299.926117,99.253677 
	C300.289673,108.571091 300.041718,117.912498 300.057922,127.243240 
	C300.063293,130.327805 300.167572,133.256180 303.781006,134.648483 
	C304.487610,134.920731 305.061249,136.456116 305.086426,137.424728 
	C305.215912,142.407227 305.146423,147.394882 305.146423,152.908340 
	C302.806671,153.287842 300.585052,153.648193 297.908997,154.025909 
M245.468002,119.130173 
	C240.338943,127.281937 243.374313,135.482422 252.521332,138.185745 
	C267.429443,142.591751 280.092316,131.935028 278.356323,116.045021 
	C267.315216,112.959023 256.265289,109.970177 245.468002,119.130173 
z"/>
<path fill="#323232" opacity="1.000000" stroke="none" 
	d="
M397.973694,110.001472 
	C397.973694,124.470734 397.973694,138.440384 397.973694,152.706207 
	C390.799591,152.706207 383.892517,152.706207 376.437653,152.706207 
	C376.437653,150.564026 376.448486,148.440445 376.435913,146.317017 
	C376.347260,131.325043 376.665314,116.315903 376.039337,101.346275 
	C375.479065,87.947067 365.251617,82.609482 353.679047,89.372581 
	C345.972015,93.876663 341.002563,100.118568 341.330017,109.985023 
	C341.798798,124.110214 341.449463,138.262558 341.449463,152.702393 
	C334.241180,152.702393 327.359802,152.702393 320.236237,152.702393 
	C320.236237,125.037636 320.236237,97.437943 320.236237,69.461998 
	C326.339966,69.461998 332.546173,69.461998 339.088928,69.461998 
	C339.088928,73.932175 339.088928,78.362289 339.088928,83.078064 
	C339.889526,82.833549 340.486725,82.841057 340.697479,82.559395 
	C348.906128,71.588951 360.268982,67.629898 373.468079,67.852005 
	C385.586731,68.055931 393.491058,73.796387 395.968994,85.716858 
	C397.576477,93.449951 397.368347,101.560455 397.973694,110.001472 
z"/>
<path fill="#333333" opacity="1.000000" stroke="none" 
	d="
M994.088379,147.982590 
	C990.702454,145.880707 987.665771,143.910507 984.419922,141.804565 
	C987.255859,137.066360 989.799561,132.816391 992.133240,128.917267 
	C998.465515,131.843918 1004.246155,135.494141 1010.550110,137.140564 
	C1016.296387,138.641342 1022.641052,138.461548 1028.663330,138.084549 
	C1032.818237,137.824417 1035.467041,134.597549 1035.665527,130.214096 
	C1035.852661,126.077911 1033.178955,123.876823 1029.578735,122.682228 
	C1023.905029,120.799583 1018.198730,119.014954 1012.507812,117.184143 
	C1009.185364,116.115295 1005.808289,115.186813 1002.556763,113.933266 
	C995.150513,111.077934 988.607910,107.286972 987.654236,98.265450 
	C986.652710,88.790878 989.546814,80.799576 997.113220,74.852509 
	C1006.912170,67.150558 1018.341431,66.701431 1029.961426,68.341789 
	C1038.491455,69.545959 1046.247803,72.881149 1053.076782,79.177025 
	C1050.250732,83.421677 1047.445068,87.635612 1044.555420,91.975883 
	C1036.703491,86.492920 1028.628296,82.269562 1018.954346,82.974388 
	C1016.528564,83.151115 1013.596558,83.448441 1011.909729,84.881821 
	C1009.870667,86.614586 1007.862000,89.585358 1007.792786,92.074631 
	C1007.731323,94.284073 1009.834473,97.662666 1011.870056,98.602989 
	C1016.951843,100.950455 1022.553467,102.158730 1027.917847,103.911812 
	C1032.965698,105.561432 1038.155640,106.928009 1042.971436,109.107880 
	C1058.913940,116.324341 1061.117798,136.418198 1047.316040,147.373901 
	C1040.156494,153.057037 1031.656738,154.555618 1022.884338,154.588730 
	C1012.953552,154.626221 1003.368286,152.694107 994.088379,147.982590 
z"/>
<path fill="#333333" opacity="1.000000" stroke="none" 
	d="
M510.132507,128.208740 
	C507.031525,136.671051 504.041809,144.758514 500.993378,153.004791 
	C493.953156,153.004791 487.140961,153.102249 480.337036,152.908386 
	C479.209717,152.876251 477.474823,151.811478 477.104736,150.819489 
	C467.013947,123.773865 457.064240,96.675621 446.973145,69.266190 
	C454.558136,69.266190 461.645508,69.266190 469.033966,69.266190 
	C475.995087,90.928520 482.946442,112.560455 490.292389,135.420380 
	C495.432922,119.564125 500.191071,104.896660 504.942383,90.226990 
	C506.835876,84.380806 508.850677,78.568695 510.537781,72.663231 
	C511.298676,69.999756 512.412903,68.861382 515.355103,69.009186 
	C520.661560,69.275764 525.990967,69.084564 531.949768,69.084564 
	C524.608887,88.953308 517.426331,108.393616 510.132507,128.208740 
z"/>
<path fill="#323232" opacity="1.000000" stroke="none" 
	d="
M656.133484,144.955582 
	C656.133484,147.763855 656.133484,150.079269 656.133484,152.696381 
	C649.026184,152.696381 642.140930,152.696381 635.045898,152.696381 
	C635.045898,124.953888 635.045898,97.354912 635.045898,69.421951 
	C641.296936,69.421951 647.526672,69.421951 654.421387,69.421951 
	C654.421387,74.638802 654.421387,79.838631 654.421387,86.213051 
	C662.460144,75.417580 670.529358,67.050682 684.458740,68.154800 
	C684.458740,74.597633 684.458740,80.850182 684.458740,87.078796 
	C679.503296,88.241379 674.399719,88.965202 669.638000,90.653404 
	C659.394775,94.285049 656.133545,99.290924 656.133484,109.975586 
	C656.133423,121.471291 656.133484,132.966995 656.133484,144.955582 
z"/>
<path fill="#FCFCFC" opacity="1.000000" stroke="none" 
	d="
M155.969940,80.024712 
	C147.478104,103.163750 138.997055,125.893135 130.795731,148.723022 
	C129.549103,152.193253 127.893082,153.283951 124.371925,153.082504 
	C119.224617,152.788025 114.038094,153.181458 108.890343,152.890884 
	C107.504211,152.812637 105.412338,151.615097 104.970253,150.434784 
	C95.004532,123.827126 85.222878,97.150528 75.421349,70.481476 
	C75.316795,70.196999 75.408340,69.840439 75.408340,69.292267 
	C82.494316,69.292267 89.581230,69.292267 97.086075,69.292267 
	C103.987305,90.756393 110.935905,112.367851 118.301674,135.276794 
	C123.820343,118.222061 128.903854,102.505013 133.992767,86.789711 
	C135.579865,81.888527 137.020035,76.929276 138.883987,72.135231 
	C139.383453,70.850601 141.150787,69.276466 142.413086,69.205544 
	C148.050919,68.888763 153.716629,69.067863 159.944763,69.067863 
	C158.558365,72.855324 157.315155,76.251587 155.969940,80.024712 
z"/>
<path fill="#FAFAFA" opacity="1.000000" stroke="none" 
	d="
M42.385880,112.999847 
	C42.385933,98.229362 42.385933,83.958878 42.385933,69.377220 
	C49.667004,69.377220 56.542828,69.377220 63.708443,69.377220 
	C63.708443,97.086784 63.708443,124.762535 63.708443,152.725143 
	C56.806805,152.725143 49.900925,152.725143 42.385830,152.725143 
	C42.385830,139.670609 42.385830,126.585236 42.385880,112.999847 
z"/>
<path fill="#F5F5F5" opacity="1.000000" stroke="none" 
	d="
M51.060654,36.076889 
	C55.498119,36.076893 59.447411,36.076893 63.700089,36.076893 
	C63.700089,43.270367 63.700089,50.147141 63.700089,57.332565 
	C56.835136,57.332565 49.955833,57.332565 42.718204,57.332565 
	C42.718204,50.389050 42.718204,43.534439 42.718204,36.076885 
	C45.385105,36.076885 47.978790,36.076885 51.060654,36.076889 
z"/>
<path fill="#FDFDFD" opacity="1.000000" stroke="none" 
	d="
M714.483276,118.063889 
	C713.037537,109.651520 713.984924,102.062843 718.706787,95.236603 
	C724.149048,87.369003 732.741333,84.244141 741.373169,86.923241 
	C750.941223,89.892899 757.316711,98.063576 757.322144,107.364807 
	C757.323792,110.197197 757.322449,113.029579 757.322388,115.861969 
	C757.322083,130.982330 741.827942,140.790161 727.823975,134.445770 
	C720.873535,131.296921 716.575439,125.813309 714.483276,118.063889 
z"/>
<path fill="#FDFDFD" opacity="1.000000" stroke="none" 
	d="
M1126.840820,92.285507 
	C1128.479126,96.058342 1129.915039,99.525482 1131.617554,103.636322 
	C1116.437500,103.636322 1102.152466,103.636322 1087.864746,103.636322 
	C1088.051270,94.868645 1093.458374,87.394577 1101.748169,84.476738 
	C1110.775635,81.299278 1119.730591,83.998741 1126.840820,92.285507 
z"/>
<path fill="#FCFCFC" opacity="1.000000" stroke="none" 
	d="
M943.964783,85.785080 
	C950.969482,89.864449 954.529541,95.679672 955.258667,104.022942 
	C947.944702,104.022942 940.866943,104.022934 933.789185,104.022934 
	C926.643311,104.022934 919.497498,104.022942 912.356018,104.022942 
	C912.282410,88.243439 928.092102,79.093948 943.964783,85.785080 
z"/>
<path fill="#FCFCFC" opacity="1.000000" stroke="none" 
	d="
M562.276245,117.233315 
	C571.899109,110.949753 581.624084,112.736145 591.364441,115.630127 
	C592.123352,115.855614 593.164917,116.857491 593.194824,117.537247 
	C593.448120,123.295349 594.331604,129.154083 588.513062,133.314865 
	C582.238708,137.801590 575.516541,140.119476 567.936035,138.317184 
	C557.233276,135.772522 554.358459,125.350433 562.276245,117.233315 
z"/>
<path fill="#FBFBFB" opacity="1.000000" stroke="none" 
	d="
M245.731415,118.858368 
	C256.265289,109.970177 267.315216,112.959023 278.356323,116.045021 
	C280.092316,131.935028 267.429443,142.591751 252.521332,138.185745 
	C243.374313,135.482422 240.338943,127.281937 245.731415,118.858368 
z"/>
</svg>