<svg version="1.1" id="Layer_1" xmlns="http://www.w3.org/2000/svg" xmlns:xlink="http://www.w3.org/1999/xlink" x="0px" y="0px"
	 width="100%" viewBox="0 0 1181 192" enable-background="new 0 0 1181 192" xml:space="preserve">
<path fill="#313131" opacity="1.000000" stroke="none" 
	d="
M193.000000,1.000000 
	C522.603455,1.000000 852.206848,1.000000 1181.905151,1.000000 
	C1181.905151,64.924393 1181.905151,128.848969 1181.905151,193.000000 
	C852.638672,193.000000 523.277283,193.000000 193.457993,192.531342 
	C193.000061,128.375122 193.000031,64.687561 193.000000,1.000000 
M778.931885,110.500015 
	C778.931885,96.750038 778.931885,83.000061 778.931885,69.366310 
	C772.237610,69.366310 766.310974,69.366310 759.909729,69.366310 
	C759.909729,73.857735 759.909729,78.068008 759.909729,83.065453 
	C758.679688,81.639114 758.063049,80.920456 757.442566,80.205055 
	C742.918640,63.457397 717.056763,63.569195 702.569458,80.441818 
	C689.201904,96.010475 688.077942,121.427650 700.022583,138.117508 
	C715.760864,160.107880 745.200195,156.471603 755.904663,140.892273 
	C756.086975,140.626846 756.615173,140.599060 757.250610,140.358856 
	C757.250610,143.486023 757.301025,146.313934 757.242004,149.139572 
	C756.954956,162.882309 749.146729,171.119827 735.481812,172.218323 
	C723.217468,173.204239 713.014038,168.918472 704.881775,160.242157 
	C700.870300,164.102219 697.073730,167.755508 693.222168,171.461670 
	C707.238953,188.035522 725.265808,191.261475 745.063904,187.402649 
	C767.648926,183.000626 778.919128,168.626114 778.930847,145.498825 
	C778.936584,134.165894 778.931824,122.832954 778.931885,110.500015 
M798.139038,133.499390 
	C798.139038,139.928757 798.139038,146.358109 798.139038,152.675812 
	C805.726135,152.675812 812.635803,152.675812 819.836060,152.675812 
	C819.836060,138.046768 819.835693,123.745880 819.836182,109.444992 
	C819.836487,99.595604 825.703491,91.275482 835.095703,87.803055 
	C844.211975,84.432602 852.125183,88.704742 853.900085,98.198433 
	C854.538086,101.610809 854.690002,105.151337 854.710205,108.635422 
	C854.795105,123.258888 854.746033,137.883133 854.746033,152.755112 
	C862.000122,152.755112 868.897583,152.755112 875.816650,152.755112 
	C875.816650,132.568771 876.679932,112.572723 875.563721,92.687790 
	C874.533508,74.334167 863.588562,66.228180 845.225891,68.013550 
	C834.756592,69.031456 826.633667,74.319290 819.810669,84.093498 
	C819.810669,67.258827 819.810669,51.900047 819.810669,36.382160 
	C812.374268,36.382160 805.478271,36.382160 798.139038,36.382160 
	C798.139038,68.609344 798.139038,100.554504 798.139038,133.499390 
M908.447205,74.899086 
	C891.984924,86.481987 885.395203,106.493958 891.751221,125.601967 
	C897.856201,143.955093 914.442505,155.146439 934.866333,154.693268 
	C952.091370,154.311066 968.722412,144.444580 971.993225,132.439575 
	C966.127319,130.828964 960.263123,129.218842 954.580505,127.658554 
	C947.654480,137.279449 937.824768,140.905212 927.730835,137.877884 
	C918.994019,135.257584 913.101807,127.558044 912.746948,117.848785 
	C934.153748,117.848785 955.548035,117.848785 976.859375,117.848785 
	C979.997925,97.901932 970.652710,79.464912 953.094238,71.794945 
	C938.134277,65.260078 923.280762,66.204735 908.447205,74.899086 
M1111.269897,138.860458 
	C1097.788086,138.729324 1087.511719,129.399719 1088.550171,117.839867 
	C1109.785522,117.839867 1131.055908,117.839867 1152.248047,117.839867 
	C1156.727051,95.367798 1142.294556,73.754402 1119.821899,68.807022 
	C1095.082520,63.360615 1071.775146,76.984505 1066.246582,100.123383 
	C1060.541870,123.999741 1073.607422,147.064621 1096.189453,152.981979 
	C1117.958862,158.686401 1143.000488,148.734222 1147.539551,132.494125 
	C1142.588135,131.085953 1137.663696,129.562592 1132.662720,128.356918 
	C1131.533325,128.084610 1129.511841,128.496628 1128.964111,129.309738 
	C1124.897217,135.347931 1118.949829,137.804428 1111.269897,138.860458 
M576.315796,101.066437 
	C567.342590,100.556480 558.673645,101.786346 550.758423,106.246445 
	C541.770935,111.310760 536.649292,118.987747 537.264832,129.496613 
	C537.894104,140.240784 543.419312,148.164658 553.480591,152.058472 
	C567.899231,157.638596 580.891724,154.306976 592.300598,144.257019 
	C593.600464,143.111984 594.301208,141.286880 595.279724,139.777115 
	C597.859436,153.798248 606.799927,156.299637 619.996277,152.540741 
	C619.996277,147.476807 620.068726,142.329147 619.929565,137.187241 
	C619.904419,136.259689 619.211365,134.802353 618.480774,134.535080 
	C615.023987,133.270401 614.932983,130.519028 614.930420,127.603233 
	C614.922363,118.447914 615.089661,109.287247 614.835083,100.138504 
	C614.418213,85.156250 606.938843,74.250320 593.536804,70.230629 
	C575.261169,64.749191 558.105957,68.009567 541.845520,78.421562 
	C544.086914,83.045212 546.218140,87.441689 548.356567,91.852966 
	C551.761597,89.996620 554.726929,88.117615 557.904541,86.721474 
	C561.078491,85.326927 564.391052,84.068123 567.770386,83.351013 
	C585.021484,79.690331 594.982788,87.889481 592.839417,103.732422 
	C587.643982,102.852226 582.448181,101.971977 576.315796,101.066437 
M244.446091,102.836174 
	C242.418228,103.568214 240.325592,104.159225 238.373245,105.055717 
	C227.609207,109.998367 221.679840,119.337852 222.532150,129.849609 
	C223.457550,141.263062 230.476440,150.142426 241.871155,153.202789 
	C255.864105,156.960968 268.156311,153.303406 278.557434,143.320663 
	C279.525299,142.391739 279.940643,140.887131 280.612549,139.649841 
	C283.424194,152.950623 292.962769,157.683258 305.200287,152.274200 
	C305.200287,147.390518 305.268707,142.406250 305.141846,137.426956 
	C305.116852,136.446579 304.563477,134.870453 303.870544,134.617081 
	C299.931305,133.176590 300.111633,129.946121 300.093536,126.766426 
	C300.040466,117.443161 300.234009,108.112976 299.939667,98.797874 
	C299.482635,84.331642 291.378906,74.001953 277.500031,69.810707 
	C268.036591,66.952850 258.315002,66.760384 248.893814,69.229431 
	C241.362137,71.203285 234.219986,74.663490 226.656006,77.559288 
	C229.392853,83.204231 231.467316,87.482933 233.676208,92.038933 
	C242.394165,86.385681 251.145340,82.297142 261.455536,82.755714 
	C273.964417,83.312088 280.235016,91.073372 278.037994,104.098068 
	C267.226746,100.957855 256.301025,99.640282 244.446091,102.836174 
M319.994995,128.500000 
	C319.994995,136.592484 319.994995,144.684952 319.994995,152.651138 
	C327.487152,152.651138 334.366119,152.651138 341.538330,152.651138 
	C341.538330,138.161148 341.882751,124.013268 341.422211,109.891632 
	C341.092682,99.786942 346.286987,93.525925 354.265656,89.121658 
	C365.565155,82.884247 375.061707,88.241188 376.092926,101.062248 
	C376.292877,103.548622 376.341400,106.052414 376.345978,108.548386 
	C376.369995,121.704933 376.357513,134.861542 376.357697,148.018143 
	C376.357697,149.608002 376.357697,151.197861 376.357697,152.666275 
	C383.982788,152.666275 390.890991,152.666275 397.873260,152.666275 
	C397.873260,133.522705 398.063080,114.715790 397.740295,95.917679 
	C397.659210,91.196136 396.426819,86.330292 394.853851,81.835091 
	C392.180389,74.194954 386.481934,69.301964 378.420380,68.266830 
	C373.544769,67.640785 368.418518,67.903458 363.534424,68.633499 
	C354.057037,70.050095 346.354614,74.971741 339.340485,82.200546 
	C339.340485,77.877014 339.340485,73.553482 339.340485,69.350800 
	C332.503265,69.350800 326.412170,69.350800 319.994995,69.350800 
	C319.994995,88.921478 319.994995,108.210739 319.994995,128.500000 
M1038.524414,152.140213 
	C1041.700195,150.374207 1045.236206,149.044205 1047.990356,146.767960 
	C1061.123657,135.913376 1058.608765,116.187973 1043.185669,109.145821 
	C1038.379272,106.951248 1033.195801,105.564453 1028.147583,103.922691 
	C1022.941040,102.229424 1017.646057,100.800613 1012.472351,99.016464 
	C1009.172119,97.878387 1007.422668,95.410652 1007.562927,91.743309 
	C1007.707153,87.973801 1009.497620,84.922928 1013.024170,84.271980 
	C1017.496582,83.446457 1022.431824,82.728378 1026.706665,83.800804 
	C1032.976196,85.373596 1038.837280,88.574577 1045.136719,91.191643 
	C1047.576050,87.523811 1050.308838,83.414612 1053.825928,78.126053 
	C1047.411255,75.107597 1041.734985,71.486069 1035.530640,69.716324 
	C1022.854309,66.100548 1010.122681,66.042618 998.570251,73.752121 
	C990.211548,79.330215 986.771851,87.522881 987.460815,97.386360 
	C988.135620,107.047394 994.993042,111.239471 1003.050415,114.147728 
	C1006.016602,115.218346 1009.041138,116.128067 1012.043579,117.097305 
	C1018.046265,119.035088 1024.073364,120.900314 1030.048462,122.919640 
	C1033.497070,124.085167 1035.780884,126.403831 1035.599365,130.286224 
	C1035.415283,134.221497 1033.203857,137.223389 1029.476440,137.839035 
	C1024.802734,138.610977 1019.648621,139.489258 1015.256226,138.290344 
	C1007.365723,136.136642 999.888489,132.468842 991.841309,129.276062 
	C989.741333,132.804138 987.206604,137.062622 984.372498,141.824158 
	C1000.741333,153.722641 1018.335876,157.523285 1038.524414,152.140213 
M450.198425,78.333046 
	C458.873413,101.870926 467.514709,125.421410 476.299194,148.918335 
	C476.885590,150.486954 478.499969,152.753159 479.735474,152.818497 
	C486.820251,153.193253 493.935059,153.000778 501.077637,153.000778 
	C511.438232,124.858246 521.629211,97.176483 531.977112,69.068527 
	C525.812439,69.068527 520.311584,68.860550 514.846375,69.210144 
	C513.424072,69.301117 511.389313,70.857628 510.876221,72.211205 
	C508.641144,78.107674 506.867188,84.178711 504.919220,90.184227 
	C500.191345,104.760071 495.459808,119.334732 490.292633,135.256866 
	C482.915039,112.313713 475.968323,90.710617 469.092834,69.328979 
	C461.534546,69.328979 454.466003,69.328979 447.018127,69.328979 
	C448.091431,72.311333 449.040192,74.947655 450.198425,78.333046 
M663.797852,75.272430 
	C660.882507,78.431633 657.967224,81.590843 654.273865,85.593163 
	C654.273865,79.420448 654.273865,74.347260 654.273865,69.405952 
	C647.493530,69.405952 641.244019,69.405952 635.152954,69.405952 
	C635.152954,97.431145 635.152954,125.119560 635.152954,152.763779 
	C642.282593,152.763779 649.042786,152.763779 656.181580,152.763779 
	C656.181580,138.088776 656.629028,123.631699 656.022705,109.218941 
	C655.625061,99.766228 660.342529,94.462700 668.080261,91.316353 
	C673.209534,89.230629 678.855347,88.414871 684.428101,86.990150 
	C684.428101,80.973740 684.428101,74.611168 684.428101,68.265099 
	C676.366272,67.132233 670.063965,70.076347 663.797852,75.272430 
z"/>
<path fill="#FEFEFE" opacity="1.000000" stroke="none" 
	d="
M192.531342,1.000000 
	C193.000031,64.687561 193.000061,128.375122 193.000046,192.531342 
	C129.048645,193.000000 65.097282,193.000000 1.072962,193.000000 
	C1.072962,129.097351 1.072962,65.194603 1.072962,1.000000 
	C64.687263,1.000000 128.374969,1.000000 192.531342,1.000000 
M123.323349,119.783577 
	C121.775345,124.617455 120.227333,129.451340 118.429749,135.064575 
	C117.696426,133.092789 117.197411,131.892410 116.799309,130.659454 
	C110.621529,111.526001 104.351830,92.420952 98.388077,73.220901 
	C97.342773,69.855591 95.909691,68.818848 92.501778,69.002197 
	C86.858917,69.305786 81.187820,69.084747 75.552002,69.084747 
	C75.480560,69.609695 75.312935,69.974983 75.411148,70.242783 
	C85.251213,97.073654 95.081947,123.908142 105.077591,150.681061 
	C105.479004,151.756210 107.433739,152.860107 108.699478,152.902039 
	C115.351990,153.122452 122.015678,153.005173 129.026993,153.005173 
	C139.273895,125.162811 149.503860,97.366447 159.912399,69.084846 
	C153.799622,69.084846 148.632950,69.249283 143.483887,69.019455 
	C140.667450,68.893738 139.432449,69.786926 138.573746,72.541634 
	C133.727646,88.088211 128.654480,103.564018 123.323349,119.783577 
M42.524792,89.499847 
	C42.524792,110.555489 42.524792,131.611130 42.524792,152.673401 
	C50.002422,152.673401 56.888382,152.673401 63.610672,152.673401 
	C63.610672,124.661850 63.610672,96.978577 63.610672,69.358635 
	C56.477112,69.358635 49.713676,69.358635 42.524742,69.358635 
	C42.524742,75.912483 42.524742,82.206245 42.524792,89.499847 
M42.512993,45.555962 
	C42.512993,49.465843 42.512993,53.375725 42.512993,57.217323 
	C50.130638,57.217323 56.910484,57.217323 63.588364,57.217323 
	C63.588364,50.055878 63.588364,43.170597 63.588364,36.410461 
	C56.444908,36.410461 49.698692,36.410461 42.513058,36.410461 
	C42.513058,39.332619 42.513058,41.967934 42.512993,45.555962 
z"/>
<path fill="#FCFCFC" opacity="1.000000" stroke="none" 
	d="
M778.931885,111.000015 
	C778.931824,122.832954 778.936584,134.165894 778.930847,145.498825 
	C778.919128,168.626114 767.648926,183.000626 745.063904,187.402649 
	C725.265808,191.261475 707.238953,188.035522 693.222168,171.461670 
	C697.073730,167.755508 700.870300,164.102219 704.881775,160.242157 
	C713.014038,168.918472 723.217468,173.204239 735.481812,172.218323 
	C749.146729,171.119827 756.954956,162.882309 757.242004,149.139572 
	C757.301025,146.313934 757.250610,143.486023 757.250610,140.358856 
	C756.615173,140.599060 756.086975,140.626846 755.904663,140.892273 
	C745.200195,156.471603 715.760864,160.107880 700.022583,138.117508 
	C688.077942,121.427650 689.201904,96.010475 702.569458,80.441818 
	C717.056763,63.569195 742.918640,63.457397 757.442566,80.205055 
	C758.063049,80.920456 758.679688,81.639114 759.909729,83.065453 
	C759.909729,78.068008 759.909729,73.857735 759.909729,69.366310 
	C766.310974,69.366310 772.237610,69.366310 778.931885,69.366310 
	C778.931885,83.000061 778.931885,96.750038 778.931885,111.000015 
M742.484131,135.473526 
	C753.759583,131.245209 757.266541,126.227829 757.266602,114.324463 
	C757.266602,111.829788 757.180359,109.331596 757.281738,106.841057 
	C757.663635,97.459740 751.779480,92.183754 744.527588,88.287453 
	C737.318298,84.414070 730.044312,85.186714 723.473877,90.224503 
	C714.733582,96.926048 711.337830,110.685272 715.641541,121.466721 
	C719.956421,132.276337 729.055664,137.269913 742.484131,135.473526 
z"/>
<path fill="#FCFCFC" opacity="1.000000" stroke="none" 
	d="
M798.139038,132.999527 
	C798.139038,100.554504 798.139038,68.609344 798.139038,36.382160 
	C805.478271,36.382160 812.374268,36.382160 819.810669,36.382160 
	C819.810669,51.900047 819.810669,67.258827 819.810669,84.093498 
	C826.633667,74.319290 834.756592,69.031456 845.225891,68.013550 
	C863.588562,66.228180 874.533508,74.334167 875.563721,92.687790 
	C876.679932,112.572723 875.816650,132.568771 875.816650,152.755112 
	C868.897583,152.755112 862.000122,152.755112 854.746033,152.755112 
	C854.746033,137.883133 854.795105,123.258888 854.710205,108.635422 
	C854.690002,105.151337 854.538086,101.610809 853.900085,98.198433 
	C852.125183,88.704742 844.211975,84.432602 835.095703,87.803055 
	C825.703491,91.275482 819.836487,99.595604 819.836182,109.444992 
	C819.835693,123.745880 819.836060,138.046768 819.836060,152.675812 
	C812.635803,152.675812 805.726135,152.675812 798.139038,152.675812 
	C798.139038,146.358109 798.139038,139.928757 798.139038,132.999527 
z"/>
<path fill="#FCFCFC" opacity="1.000000" stroke="none" 
	d="
M908.750488,74.697876 
	C923.280762,66.204735 938.134277,65.260078 953.094238,71.794945 
	C970.652710,79.464912 979.997925,97.901932 976.859375,117.848785 
	C955.548035,117.848785 934.153748,117.848785 912.746948,117.848785 
	C913.101807,127.558044 918.994019,135.257584 927.730835,137.877884 
	C937.824768,140.905212 947.654480,137.279449 954.580505,127.658554 
	C960.263123,129.218842 966.127319,130.828964 971.993225,132.439575 
	C968.722412,144.444580 952.091370,154.311066 934.866333,154.693268 
	C914.442505,155.146439 897.856201,143.955093 891.751221,125.601967 
	C885.395203,106.493958 891.984924,86.481987 908.750488,74.697876 
M954.795044,100.152740 
	C950.903931,88.095581 941.712280,81.788437 930.554199,83.519043 
	C919.887939,85.173355 912.505615,93.361305 912.347229,104.015175 
	C925.790344,104.015175 939.231934,104.065048 952.670471,103.886246 
	C953.443420,103.875961 954.191589,102.002556 954.795044,100.152740 
z"/>
<path fill="#FCFCFC" opacity="1.000000" stroke="none" 
	d="
M1111.694824,138.833221 
	C1118.949829,137.804428 1124.897217,135.347931 1128.964111,129.309738 
	C1129.511841,128.496628 1131.533325,128.084610 1132.662720,128.356918 
	C1137.663696,129.562592 1142.588135,131.085953 1147.539551,132.494125 
	C1143.000488,148.734222 1117.958862,158.686401 1096.189453,152.981979 
	C1073.607422,147.064621 1060.541870,123.999741 1066.246582,100.123383 
	C1071.775146,76.984505 1095.082520,63.360615 1119.821899,68.807022 
	C1142.294556,73.754402 1156.727051,95.367798 1152.248047,117.839867 
	C1131.055908,117.839867 1109.785522,117.839867 1088.550171,117.839867 
	C1087.511719,129.399719 1097.788086,138.729324 1111.694824,138.833221 
M1130.072021,99.569016 
	C1126.133057,87.419350 1116.360107,81.410408 1104.467407,83.825783 
	C1094.645996,85.820480 1087.443604,94.638359 1088.197021,103.852493 
	C1102.280029,103.852493 1116.370483,103.852493 1130.425293,103.852493 
	C1130.555420,103.394920 1130.744141,103.083542 1130.704224,102.804832 
	C1130.587280,101.985573 1130.379395,101.179291 1130.072021,99.569016 
z"/>
<path fill="#FCFCFC" opacity="1.000000" stroke="none" 
	d="
M576.784119,101.079086 
	C582.448181,101.971977 587.643982,102.852226 592.839417,103.732422 
	C594.982788,87.889481 585.021484,79.690331 567.770386,83.351013 
	C564.391052,84.068123 561.078491,85.326927 557.904541,86.721474 
	C554.726929,88.117615 551.761597,89.996620 548.356567,91.852966 
	C546.218140,87.441689 544.086914,83.045212 541.845520,78.421562 
	C558.105957,68.009567 575.261169,64.749191 593.536804,70.230629 
	C606.938843,74.250320 614.418213,85.156250 614.835083,100.138504 
	C615.089661,109.287247 614.922363,118.447914 614.930420,127.603233 
	C614.932983,130.519028 615.023987,133.270401 618.480774,134.535080 
	C619.211365,134.802353 619.904419,136.259689 619.929565,137.187241 
	C620.068726,142.329147 619.996277,147.476807 619.996277,152.540741 
	C606.799927,156.299637 597.859436,153.798248 595.279724,139.777115 
	C594.301208,141.286880 593.600464,143.111984 592.300598,144.257019 
	C580.891724,154.306976 567.899231,157.638596 553.480591,152.058472 
	C543.419312,148.164658 537.894104,140.240784 537.264832,129.496613 
	C536.649292,118.987747 541.770935,111.310760 550.758423,106.246445 
	C558.673645,101.786346 567.342590,100.556480 576.784119,101.079086 
M584.287903,136.021606 
	C591.713745,132.498138 594.594788,126.610977 593.225464,118.605103 
	C593.058350,117.628128 592.529968,116.140190 591.834473,115.913017 
	C582.695801,112.927773 573.476624,111.158241 564.365356,115.973015 
	C559.701233,118.437744 557.208313,122.250458 557.798523,127.729523 
	C558.388794,133.208527 561.823608,136.328506 566.683289,137.972610 
	C572.499634,139.940338 578.127563,138.691986 584.287903,136.021606 
z"/>
<path fill="#FCFCFC" opacity="1.000000" stroke="none" 
	d="
M244.838455,102.715363 
	C256.301025,99.640282 267.226746,100.957855 278.037994,104.098068 
	C280.235016,91.073372 273.964417,83.312088 261.455536,82.755714 
	C251.145340,82.297142 242.394165,86.385681 233.676208,92.038933 
	C231.467316,87.482933 229.392853,83.204231 226.656006,77.559288 
	C234.219986,74.663490 241.362137,71.203285 248.893814,69.229431 
	C258.315002,66.760384 268.036591,66.952850 277.500031,69.810707 
	C291.378906,74.001953 299.482635,84.331642 299.939667,98.797874 
	C300.234009,108.112976 300.040466,117.443161 300.093536,126.766426 
	C300.111633,129.946121 299.931305,133.176590 303.870544,134.617081 
	C304.563477,134.870453 305.116852,136.446579 305.141846,137.426956 
	C305.268707,142.406250 305.200287,147.390518 305.200287,152.274200 
	C292.962769,157.683258 283.424194,152.950623 280.612549,139.649841 
	C279.940643,140.887131 279.525299,142.391739 278.557434,143.320663 
	C268.156311,153.303406 255.864105,156.960968 241.871155,153.202789 
	C230.476440,150.142426 223.457550,141.263062 222.532150,129.849609 
	C221.679840,119.337852 227.609207,109.998367 238.373245,105.055717 
	C240.325592,104.159225 242.418228,103.568214 244.838455,102.715363 
M243.057861,124.044807 
	C242.746658,132.687820 247.130493,138.067169 255.596924,138.760330 
	C262.441345,139.320724 268.547699,137.274139 274.107208,132.977112 
	C279.556458,128.765335 278.757080,123.135597 278.508179,117.558449 
	C278.475403,116.824547 277.096558,115.663803 276.217316,115.533028 
	C270.188232,114.636353 264.097046,113.195107 258.082611,113.423569 
	C251.624954,113.668869 245.805237,116.401138 243.057861,124.044807 
z"/>
<path fill="#FCFCFC" opacity="1.000000" stroke="none" 
	d="
M319.994995,128.000000 
	C319.994995,108.210739 319.994995,88.921478 319.994995,69.350800 
	C326.412170,69.350800 332.503265,69.350800 339.340485,69.350800 
	C339.340485,73.553482 339.340485,77.877014 339.340485,82.200546 
	C346.354614,74.971741 354.057037,70.050095 363.534424,68.633499 
	C368.418518,67.903458 373.544769,67.640785 378.420380,68.266830 
	C386.481934,69.301964 392.180389,74.194954 394.853851,81.835091 
	C396.426819,86.330292 397.659210,91.196136 397.740295,95.917679 
	C398.063080,114.715790 397.873260,133.522705 397.873260,152.666275 
	C390.890991,152.666275 383.982788,152.666275 376.357697,152.666275 
	C376.357697,151.197861 376.357697,149.608002 376.357697,148.018143 
	C376.357513,134.861542 376.369995,121.704933 376.345978,108.548386 
	C376.341400,106.052414 376.292877,103.548622 376.092926,101.062248 
	C375.061707,88.241188 365.565155,82.884247 354.265656,89.121658 
	C346.286987,93.525925 341.092682,99.786942 341.422211,109.891632 
	C341.882751,124.013268 341.538330,138.161148 341.538330,152.651138 
	C334.366119,152.651138 327.487152,152.651138 319.994995,152.651138 
	C319.994995,144.684952 319.994995,136.592484 319.994995,128.000000 
z"/>
<path fill="#FCFCFC" opacity="1.000000" stroke="none" 
	d="
M1038.150391,152.279297 
	C1018.335876,157.523285 1000.741333,153.722641 984.372498,141.824158 
	C987.206604,137.062622 989.741333,132.804138 991.841309,129.276062 
	C999.888489,132.468842 1007.365723,136.136642 1015.256226,138.290344 
	C1019.648621,139.489258 1024.802734,138.610977 1029.476440,137.839035 
	C1033.203857,137.223389 1035.415283,134.221497 1035.599365,130.286224 
	C1035.780884,126.403831 1033.497070,124.085167 1030.048462,122.919640 
	C1024.073364,120.900314 1018.046265,119.035088 1012.043579,117.097305 
	C1009.041138,116.128067 1006.016602,115.218346 1003.050415,114.147728 
	C994.993042,111.239471 988.135620,107.047394 987.460815,97.386360 
	C986.771851,87.522881 990.211548,79.330215 998.570251,73.752121 
	C1010.122681,66.042618 1022.854309,66.100548 1035.530640,69.716324 
	C1041.734985,71.486069 1047.411255,75.107597 1053.825928,78.126053 
	C1050.308838,83.414612 1047.576050,87.523811 1045.136719,91.191643 
	C1038.837280,88.574577 1032.976196,85.373596 1026.706665,83.800804 
	C1022.431824,82.728378 1017.496582,83.446457 1013.024170,84.271980 
	C1009.497620,84.922928 1007.707153,87.973801 1007.562927,91.743309 
	C1007.422668,95.410652 1009.172119,97.878387 1012.472351,99.016464 
	C1017.646057,100.800613 1022.941040,102.229424 1028.147583,103.922691 
	C1033.195801,105.564453 1038.379272,106.951248 1043.185669,109.145821 
	C1058.608765,116.187973 1061.123657,135.913376 1047.990356,146.767960 
	C1045.236206,149.044205 1041.700195,150.374207 1038.150391,152.279297 
z"/>
<path fill="#FCFCFC" opacity="1.000000" stroke="none" 
	d="
M450.093689,77.958511 
	C449.040192,74.947655 448.091431,72.311333 447.018127,69.328979 
	C454.466003,69.328979 461.534546,69.328979 469.092834,69.328979 
	C475.968323,90.710617 482.915039,112.313713 490.292633,135.256866 
	C495.459808,119.334732 500.191345,104.760071 504.919220,90.184227 
	C506.867188,84.178711 508.641144,78.107674 510.876221,72.211205 
	C511.389313,70.857628 513.424072,69.301117 514.846375,69.210144 
	C520.311584,68.860550 525.812439,69.068527 531.977112,69.068527 
	C521.629211,97.176483 511.438232,124.858246 501.077637,153.000778 
	C493.935059,153.000778 486.820251,153.193253 479.735474,152.818497 
	C478.499969,152.753159 476.885590,150.486954 476.299194,148.918335 
	C467.514709,125.421410 458.873413,101.870926 450.093689,77.958511 
z"/>
<path fill="#FDFDFD" opacity="1.000000" stroke="none" 
	d="
M664.084595,75.057144 
	C670.063965,70.076347 676.366272,67.132233 684.428101,68.265099 
	C684.428101,74.611168 684.428101,80.973740 684.428101,86.990150 
	C678.855347,88.414871 673.209534,89.230629 668.080261,91.316353 
	C660.342529,94.462700 655.625061,99.766228 656.022705,109.218941 
	C656.629028,123.631699 656.181580,138.088776 656.181580,152.763779 
	C649.042786,152.763779 642.282593,152.763779 635.152954,152.763779 
	C635.152954,125.119560 635.152954,97.431145 635.152954,69.405952 
	C641.244019,69.405952 647.493530,69.405952 654.273865,69.405952 
	C654.273865,74.347260 654.273865,79.420448 654.273865,85.593163 
	C657.967224,81.590843 660.882507,78.431633 664.084595,75.057144 
z"/>
<path fill="#333333" opacity="1.000000" stroke="none" 
	d="
M123.491020,119.423759 
	C128.654480,103.564018 133.727646,88.088211 138.573746,72.541634 
	C139.432449,69.786926 140.667450,68.893738 143.483887,69.019455 
	C148.632950,69.249283 153.799622,69.084846 159.912399,69.084846 
	C149.503860,97.366447 139.273895,125.162811 129.026993,153.005173 
	C122.015678,153.005173 115.351990,153.122452 108.699478,152.902039 
	C107.433739,152.860107 105.479004,151.756210 105.077591,150.681061 
	C95.081947,123.908142 85.251213,97.073654 75.411148,70.242783 
	C75.312935,69.974983 75.480560,69.609695 75.552002,69.084747 
	C81.187820,69.084747 86.858917,69.305786 92.501778,69.002197 
	C95.909691,68.818848 97.342773,69.855591 98.388077,73.220901 
	C104.351830,92.420952 110.621529,111.526001 116.799309,130.659454 
	C117.197411,131.892410 117.696426,133.092789 118.429749,135.064575 
	C120.227333,129.451340 121.775345,124.617455 123.491020,119.423759 
z"/>
<path fill="#313131" opacity="1.000000" stroke="none" 
	d="
M42.524765,88.999931 
	C42.524742,82.206245 42.524742,75.912483 42.524742,69.358635 
	C49.713676,69.358635 56.477112,69.358635 63.610672,69.358635 
	C63.610672,96.978577 63.610672,124.661850 63.610672,152.673401 
	C56.888382,152.673401 50.002422,152.673401 42.524792,152.673401 
	C42.524792,131.611130 42.524792,110.555489 42.524765,88.999931 
z"/>
<path fill="#323232" opacity="1.000000" stroke="none" 
	d="
M42.513023,45.079605 
	C42.513058,41.967934 42.513058,39.332619 42.513058,36.410461 
	C49.698692,36.410461 56.444908,36.410461 63.588364,36.410461 
	C63.588364,43.170597 63.588364,50.055878 63.588364,57.217323 
	C56.910484,57.217323 50.130638,57.217323 42.512993,57.217323 
	C42.512993,53.375725 42.512993,49.465843 42.513023,45.079605 
z"/>
<path fill="#323232" opacity="1.000000" stroke="none" 
	d="
M742.088684,135.618622 
	C729.055664,137.269913 719.956421,132.276337 715.641541,121.466721 
	C711.337830,110.685272 714.733582,96.926048 723.473877,90.224503 
	C730.044312,85.186714 737.318298,84.414070 744.527588,88.287453 
	C751.779480,92.183754 757.663635,97.459740 757.281738,106.841057 
	C757.180359,109.331596 757.266602,111.829788 757.266602,114.324463 
	C757.266541,126.227829 753.759583,131.245209 742.088684,135.618622 
z"/>
<path fill="#333333" opacity="1.000000" stroke="none" 
	d="
M954.873169,100.574493 
	C954.191589,102.002556 953.443420,103.875961 952.670471,103.886246 
	C939.231934,104.065048 925.790344,104.015175 912.347229,104.015175 
	C912.505615,93.361305 919.887939,85.173355 930.554199,83.519043 
	C941.712280,81.788437 950.903931,88.095581 954.873169,100.574493 
z"/>
<path fill="#333333" opacity="1.000000" stroke="none" 
	d="
M1130.139648,99.968475 
	C1130.379395,101.179291 1130.587280,101.985573 1130.704224,102.804832 
	C1130.744141,103.083542 1130.555420,103.394920 1130.425293,103.852493 
	C1116.370483,103.852493 1102.280029,103.852493 1088.197021,103.852493 
	C1087.443604,94.638359 1094.645996,85.820480 1104.467407,83.825783 
	C1116.360107,81.410408 1126.133057,87.419350 1130.139648,99.968475 
z"/>
<path fill="#333333" opacity="1.000000" stroke="none" 
	d="
M583.935303,136.165955 
	C578.127563,138.691986 572.499634,139.940338 566.683289,137.972610 
	C561.823608,136.328506 558.388794,133.208527 557.798523,127.729523 
	C557.208313,122.250458 559.701233,118.437744 564.365356,115.973015 
	C573.476624,111.158241 582.695801,112.927773 591.834473,115.913017 
	C592.529968,116.140190 593.058350,117.628128 593.225464,118.605103 
	C594.594788,126.610977 591.713745,132.498138 583.935303,136.165955 
z"/>
<path fill="#343434" opacity="1.000000" stroke="none" 
	d="
M243.145004,123.651398 
	C245.805237,116.401138 251.624954,113.668869 258.082611,113.423569 
	C264.097046,113.195107 270.188232,114.636353 276.217316,115.533028 
	C277.096558,115.663803 278.475403,116.824547 278.508179,117.558449 
	C278.757080,123.135597 279.556458,128.765335 274.107208,132.977112 
	C268.547699,137.274139 262.441345,139.320724 255.596924,138.760330 
	C247.130493,138.067169 242.746658,132.687820 243.145004,123.651398 
z"/>
</svg>