<?xml version="1.0" standalone="no"?>
<!DOCTYPE svg PUBLIC "-//W3C//DTD SVG 20010904//EN"
 "http://www.w3.org/TR/2001/REC-SVG-20010904/DTD/svg10.dtd">
<svg version="1.0" xmlns="http://www.w3.org/2000/svg"
 width="1181.000000pt" height="192.000000pt" viewBox="0 0 1181.000000 192.000000"
 preserveAspectRatio="xMidYMid meet">

<g transform="translate(0.000000,192.000000) scale(0.100000,-0.100000)"
fill="#000000" stroke="none">
<path d="M1920 960 l0 -960 4945 0 4945 0 0 960 0 960 -4945 0 -4945 0 0 -960z
m6270 376 l0 -235 53 53 c69 69 138 96 245 96 121 -1 189 -41 236 -140 19 -42
21 -64 24 -377 l3 -333 -104 0 -105 0 -4 273 c-4 289 -9 318 -57 361 -30 27
-109 33 -152 11 -42 -21 -106 -81 -125 -117 -11 -21 -14 -81 -14 -278 l0 -250
-110 0 -110 0 0 585 0 585 110 0 110 0 0 -234z m2160 -103 c52 -14 111 -43
154 -77 18 -15 17 -18 -24 -81 -23 -36 -46 -65 -50 -65 -4 0 -13 6 -19 14 -6
7 -39 26 -74 42 -51 23 -76 29 -139 29 -68 0 -79 -3 -103 -25 -21 -20 -25 -32
-23 -64 4 -52 25 -64 186 -110 233 -67 295 -120 294 -252 -1 -116 -72 -205
-192 -242 -73 -22 -224 -21 -309 2 -63 17 -157 61 -194 90 -22 17 -19 32 26
103 l32 52 48 -30 c138 -85 303 -104 361 -40 26 28 24 81 -4 103 -12 10 -75
34 -139 54 -167 51 -221 74 -263 112 -107 97 -56 293 96 367 94 46 212 52 336
18z m-7544 -17 c73 -33 125 -83 156 -151 21 -45 23 -69 28 -250 3 -110 9 -206
13 -212 5 -7 15 -13 23 -13 12 0 14 -17 12 -97 l-3 -98 -67 -3 c-46 -2 -77 2
-97 13 -34 17 -61 61 -61 99 0 25 -1 25 -42 -16 -117 -113 -312 -138 -435 -55
-183 123 -148 377 63 457 95 36 270 38 360 3 25 -9 18 98 -9 138 -36 55 -78
71 -173 66 -69 -3 -92 -9 -160 -42 -43 -22 -81 -41 -84 -42 -5 -3 -70 120 -70
132 0 10 127 69 185 87 46 13 88 17 180 15 107 -2 127 -6 181 -31z m1015 19
c70 -30 111 -83 134 -171 12 -46 15 -122 15 -361 l0 -303 -110 0 -110 0 0 268
c0 151 -5 283 -10 304 -15 54 -61 88 -118 88 -66 0 -144 -46 -183 -107 l-29
-47 0 -253 0 -253 -110 0 -110 0 0 420 0 421 98 -3 97 -3 3 -67 3 -68 31 36
c36 40 101 81 161 99 58 19 196 19 238 0z m2129 -16 c77 -36 124 -80 157 -147
27 -56 28 -61 31 -260 4 -202 4 -203 28 -219 22 -14 24 -21 24 -103 0 -71 -3
-89 -16 -94 -30 -12 -125 -6 -154 9 -32 16 -60 61 -60 95 0 11 -3 20 -6 20 -3
0 -28 -20 -56 -44 -68 -62 -142 -89 -243 -90 -124 0 -216 51 -268 149 -30 56
-30 164 0 221 50 94 160 153 301 162 71 4 173 -7 218 -25 21 -8 18 83 -4 127
-24 48 -89 80 -163 80 -69 0 -170 -30 -222 -66 -21 -14 -40 -24 -42 -22 -1 1
-17 32 -35 67 -37 75 -38 74 59 118 97 44 148 53 276 50 105 -2 127 -6 175
-28z m890 -68 l0 -98 -59 -7 c-79 -9 -174 -57 -206 -104 -25 -37 -25 -37 -25
-289 l0 -253 -105 0 -105 0 0 420 0 420 100 0 100 0 0 -82 0 -82 30 41 c56 76
152 132 228 133 l42 0 0 -99z m618 64 c29 -16 71 -48 92 -72 l40 -43 0 70 0
70 95 0 95 0 0 -423 c0 -472 -3 -498 -66 -592 -19 -29 -50 -65 -69 -80 -194
-147 -525 -134 -682 27 l-43 44 58 57 59 58 34 -32 c54 -51 133 -83 217 -87
89 -5 148 10 197 51 54 44 75 96 75 190 l0 78 -31 -35 c-17 -20 -60 -50 -95
-67 -56 -28 -75 -32 -147 -32 -69 -1 -92 4 -142 27 -82 37 -155 111 -197 200
-32 69 -33 75 -33 196 0 120 1 128 32 192 56 118 108 171 212 215 48 20 69 23
151 20 82 -2 102 -7 148 -32z m2063 -2 c96 -48 152 -102 194 -186 37 -77 63
-203 51 -250 l-6 -27 -324 0 -324 0 7 -32 c40 -175 257 -235 382 -106 l39 41
85 -23 c47 -13 85 -28 85 -35 0 -20 -54 -88 -93 -118 -175 -133 -443 -122
-601 24 -57 51 -112 160 -127 248 -29 165 51 348 193 437 78 50 141 64 263 61
102 -2 116 -5 176 -34z m1710 17 c116 -40 198 -113 251 -227 26 -54 32 -82 36
-159 l5 -94 -328 0 -327 0 6 -32 c35 -176 275 -235 391 -97 l27 33 86 -23 c48
-13 88 -24 90 -26 9 -9 -32 -66 -77 -109 -97 -90 -236 -130 -379 -107 -101 15
-171 49 -241 116 -89 85 -130 184 -131 317 0 193 119 355 305 414 65 21 216
17 286 -6z m-6446 -312 c56 -175 104 -320 106 -323 3 -2 52 141 110 320 l104
325 103 0 c56 0 102 -1 102 -2 0 -2 -69 -190 -153 -418 l-153 -415 -120 -3
-119 -2 -149 407 c-82 225 -151 414 -154 421 -3 10 20 12 108 10 l113 -3 102
-317z"/>
<path d="M2540 791 c-79 -26 -120 -69 -120 -126 0 -77 81 -133 173 -121 60 8
101 28 145 69 29 28 32 36 32 93 l0 63 -37 11 c-52 15 -163 21 -193 11z"/>
<path d="M5677 788 c-21 -5 -53 -25 -72 -43 -30 -27 -35 -39 -35 -76 0 -25 7
-55 16 -68 19 -27 88 -60 125 -61 50 0 130 31 170 67 38 34 39 38 39 99 l0 63
-37 11 c-58 16 -164 20 -206 8z"/>
<path d="M7282 1059 c-54 -16 -118 -88 -138 -155 -50 -173 53 -335 213 -334
63 1 119 27 166 78 l37 42 0 114 c0 107 -1 115 -28 154 -61 91 -153 129 -250
101z"/>
<path d="M9267 1086 c-78 -21 -134 -81 -152 -163 l-7 -33 216 0 c236 0 226 -3
204 61 -17 52 -45 87 -91 113 -54 30 -110 38 -170 22z"/>
<path d="M11035 1091 c-42 -11 -86 -35 -112 -63 -26 -27 -53 -88 -53 -118 0
-19 6 -20 215 -20 l215 0 -6 28 c-21 87 -85 154 -166 171 -54 12 -50 12 -93 2z"/>
<path d="M420 1465 l0 -105 105 0 105 0 0 105 0 105 -105 0 -105 0 0 -105z"/>
<path d="M420 820 l0 -420 105 0 105 0 0 420 0 420 -105 0 -105 0 0 -420z"/>
<path d="M770 1158 c17 -46 86 -234 154 -418 l123 -335 116 -3 115 -3 22 58
c12 32 77 209 145 393 68 184 128 348 134 363 l11 28 -101 -3 -102 -3 -102
-315 c-56 -173 -104 -322 -107 -330 -3 -8 -44 107 -92 255 -48 149 -96 298
-107 333 l-21 62 -109 0 -109 0 30 -82z"/>
</g>
</svg>
