<?xml version="1.0" standalone="no"?>
<!DOCTYPE svg PUBLIC "-//W3C//DTD SVG 20010904//EN"
 "http://www.w3.org/TR/2001/REC-SVG-20010904/DTD/svg10.dtd">
<svg version="1.0" xmlns="http://www.w3.org/2000/svg"
 width="240.000000pt" height="240.000000pt" viewBox="0 0 240.000000 240.000000"
 preserveAspectRatio="xMidYMid meet">

<g transform="translate(0.000000,240.000000) scale(0.100000,-0.100000)"
fill="#FFF" stroke="none">
<path d="M1285 2390 c-127 -19 -213 -58 -275 -126 -90 -97 -110 -181 -110
-461 l0 -203 -150 0 -150 0 0 -200 0 -200 150 0 150 0 0 -600 0 -600 250 0
250 0 0 600 0 600 180 0 c178 0 180 0 184 23 3 12 10 83 16 157 6 74 13 154
16 178 l5 42 -201 0 -202 0 4 126 c3 124 3 126 31 150 27 23 33 24 198 24
l169 0 0 250 0 250 -232 -1 c-128 -1 -255 -5 -283 -9z"/>
</g>
</svg>
