<?xml version="1.0" standalone="no"?>
<!DOCTYPE svg PUBLIC "-//W3C//DTD SVG 20010904//EN"
 "http://www.w3.org/TR/2001/REC-SVG-20010904/DTD/svg10.dtd">
<svg version="1.0" xmlns="http://www.w3.org/2000/svg"
 width="240.000000pt" height="240.000000pt" viewBox="0 0 240.000000 240.000000"
 preserveAspectRatio="xMidYMid meet">

<g transform="translate(0.000000,240.000000) scale(0.100000,-0.100000)"
fill="#303030" stroke="none">
<path d="M680 2390 c-366 -30 -580 -206 -653 -536 -21 -95 -21 -121 -21 -654
0 -533 0 -559 21 -654 63 -286 233 -456 519 -519 95 -21 121 -21 654 -21 533
0 559 0 654 21 148 33 252 86 342 177 91 90 144 194 177 342 21 95 21 121 21
654 0 533 0 559 -21 654 -62 283 -235 457 -513 517 -88 19 -133 21 -585 24
-269 2 -537 -1 -595 -5z m1113 -225 c94 -16 190 -59 246 -110 55 -50 108 -160
126 -260 21 -116 21 -1074 0 -1190 -18 -100 -71 -210 -126 -260 -56 -51 -152
-94 -246 -110 -114 -21 -1074 -20 -1188 0 -100 18 -210 71 -260 126 -51 56
-94 152 -110 246 -21 114 -20 1074 0 1188 18 100 71 210 126 260 55 49 152 94
242 110 107 19 1081 20 1190 0z"/>
<path d="M1768 1965 c-62 -34 -86 -127 -50 -194 34 -64 126 -90 193 -56 89 47
93 193 6 245 -38 24 -110 26 -149 5z"/>
<path d="M1124 1809 c-276 -31 -503 -259 -532 -535 -44 -404 278 -726 682
-682 277 29 505 257 534 534 21 194 -41 375 -174 508 -93 93 -226 160 -341
172 -32 3 -67 7 -78 8 -11 2 -52 -1 -91 -5z m197 -229 c119 -37 222 -140 259
-259 97 -309 -192 -598 -501 -501 -119 37 -222 140 -259 259 -97 309 192 598
501 501z"/>
</g>
</svg>
