<?xml version="1.0" standalone="no"?>
<!DOCTYPE svg PUBLIC "-//W3C//DTD SVG 20010904//EN"
 "http://www.w3.org/TR/2001/REC-SVG-20010904/DTD/svg10.dtd">
<svg version="1.0" xmlns="http://www.w3.org/2000/svg"
 width="240.000000pt" height="240.000000pt" viewBox="0 0 240.000000 240.000000"
 preserveAspectRatio="xMidYMid meet">

<g transform="translate(0.000000,240.000000) scale(0.100000,-0.100000)"
fill="#303030" stroke="none">
<path d="M181 2288 c-149 -42 -221 -219 -146 -356 93 -172 337 -172 430 0 105
192 -74 417 -284 356z"/>
<path d="M1702 1640 c-80 -15 -171 -48 -232 -85 -55 -34 -137 -112 -158 -150
-9 -16 -11 4 -12 88 l0 107 -250 0 -250 0 0 -800 0 -800 250 0 249 0 3 477 3
478 29 62 c52 114 156 185 270 186 115 1 210 -63 263 -177 l28 -61 3 -482 3
-483 249 0 250 0 0 539 c0 618 -4 660 -70 799 -67 141 -184 240 -340 286 -67
20 -217 28 -288 16z"/>
<path d="M0 800 l0 -800 250 0 250 0 0 800 0 800 -250 0 -250 0 0 -800z"/>
</g>
</svg>
